G04 EAGLE Gerber X2 export*
%TF.Part,Single*%
%TF.FileFunction,Copper,L1,Top,Mixed*%
%TF.FilePolarity,Positive*%
%TF.GenerationSoftware,Autodesk,EAGLE,9.0.0*%
%TF.CreationDate,2018-09-03T19:42:11Z*%
G75*
%MOMM*%
%FSLAX34Y34*%
%LPD*%
%AMOC8*
5,1,8,0,0,1.08239X$1,22.5*%
G01*
%ADD10C,1.270000*%
%ADD11C,1.879600*%
%ADD12C,0.120000*%
%ADD13R,1.600000X1.300000*%
%ADD14R,1.500000X2.000000*%
%ADD15C,1.320800*%
%ADD16P,1.429621X8X22.500000*%
%ADD17C,0.203200*%
%ADD18C,0.756400*%
%ADD19C,0.152400*%
%ADD20C,0.508000*%
%ADD21C,0.812800*%

G36*
X593962Y5089D02*
X593962Y5089D01*
X594020Y5087D01*
X594102Y5109D01*
X594186Y5121D01*
X594239Y5144D01*
X594295Y5159D01*
X594368Y5202D01*
X594445Y5237D01*
X594490Y5275D01*
X594540Y5304D01*
X594598Y5366D01*
X594662Y5420D01*
X594694Y5469D01*
X594734Y5512D01*
X594773Y5587D01*
X594820Y5657D01*
X594837Y5713D01*
X594864Y5765D01*
X594875Y5833D01*
X594905Y5928D01*
X594908Y6028D01*
X594919Y6096D01*
X594919Y593904D01*
X594911Y593962D01*
X594913Y594020D01*
X594891Y594102D01*
X594879Y594186D01*
X594856Y594239D01*
X594841Y594295D01*
X594798Y594368D01*
X594763Y594445D01*
X594725Y594490D01*
X594696Y594540D01*
X594634Y594598D01*
X594580Y594662D01*
X594531Y594694D01*
X594488Y594734D01*
X594413Y594773D01*
X594343Y594820D01*
X594287Y594837D01*
X594235Y594864D01*
X594167Y594875D01*
X594072Y594905D01*
X593972Y594908D01*
X593904Y594919D01*
X6096Y594919D01*
X6038Y594911D01*
X5980Y594913D01*
X5898Y594891D01*
X5814Y594879D01*
X5761Y594856D01*
X5705Y594841D01*
X5632Y594798D01*
X5555Y594763D01*
X5510Y594725D01*
X5460Y594696D01*
X5402Y594634D01*
X5338Y594580D01*
X5306Y594531D01*
X5266Y594488D01*
X5227Y594413D01*
X5180Y594343D01*
X5163Y594287D01*
X5136Y594235D01*
X5125Y594167D01*
X5095Y594072D01*
X5092Y593972D01*
X5081Y593904D01*
X5081Y6096D01*
X5089Y6038D01*
X5087Y5980D01*
X5109Y5898D01*
X5121Y5814D01*
X5144Y5761D01*
X5159Y5705D01*
X5202Y5632D01*
X5237Y5555D01*
X5275Y5510D01*
X5304Y5460D01*
X5366Y5402D01*
X5420Y5338D01*
X5469Y5306D01*
X5512Y5266D01*
X5587Y5227D01*
X5657Y5180D01*
X5713Y5163D01*
X5765Y5136D01*
X5833Y5125D01*
X5928Y5095D01*
X6028Y5092D01*
X6096Y5081D01*
X593904Y5081D01*
X593962Y5089D01*
G37*
%LPC*%
G36*
X186732Y176859D02*
X186732Y176859D01*
X183464Y178213D01*
X180963Y180714D01*
X179609Y183982D01*
X179609Y187518D01*
X180963Y190786D01*
X183464Y193287D01*
X186732Y194641D01*
X188468Y194641D01*
X188526Y194649D01*
X188584Y194647D01*
X188666Y194669D01*
X188750Y194681D01*
X188803Y194704D01*
X188859Y194719D01*
X188932Y194762D01*
X189009Y194797D01*
X189054Y194835D01*
X189104Y194864D01*
X189162Y194926D01*
X189226Y194980D01*
X189258Y195029D01*
X189298Y195072D01*
X189337Y195147D01*
X189384Y195217D01*
X189401Y195273D01*
X189428Y195325D01*
X189439Y195393D01*
X189469Y195488D01*
X189472Y195588D01*
X189483Y195656D01*
X189483Y371297D01*
X205791Y387605D01*
X213498Y387605D01*
X213585Y387617D01*
X213672Y387620D01*
X213725Y387637D01*
X213780Y387645D01*
X213860Y387680D01*
X213943Y387707D01*
X213982Y387735D01*
X214039Y387761D01*
X214152Y387857D01*
X214216Y387902D01*
X254559Y428245D01*
X260444Y428245D01*
X260502Y428253D01*
X260560Y428251D01*
X260642Y428273D01*
X260726Y428285D01*
X260779Y428308D01*
X260835Y428323D01*
X260908Y428366D01*
X260985Y428401D01*
X261030Y428439D01*
X261080Y428468D01*
X261138Y428530D01*
X261202Y428584D01*
X261234Y428633D01*
X261274Y428676D01*
X261313Y428751D01*
X261360Y428821D01*
X261377Y428877D01*
X261404Y428929D01*
X261415Y428997D01*
X261445Y429092D01*
X261446Y429138D01*
X263390Y431082D01*
X263426Y431129D01*
X263468Y431169D01*
X263511Y431242D01*
X263561Y431309D01*
X263582Y431364D01*
X263612Y431414D01*
X263633Y431496D01*
X263663Y431575D01*
X263667Y431633D01*
X263682Y431690D01*
X263679Y431774D01*
X263686Y431858D01*
X263675Y431916D01*
X263673Y431974D01*
X263647Y432054D01*
X263630Y432137D01*
X263603Y432189D01*
X263585Y432245D01*
X263545Y432301D01*
X263499Y432389D01*
X263431Y432462D01*
X263390Y432518D01*
X262882Y433026D01*
X262812Y433079D01*
X262749Y433138D01*
X262699Y433164D01*
X262655Y433197D01*
X262573Y433228D01*
X262496Y433268D01*
X262448Y433276D01*
X262390Y433298D01*
X262242Y433310D01*
X262165Y433323D01*
X240501Y433323D01*
X240472Y433319D01*
X240443Y433322D01*
X240332Y433299D01*
X240220Y433283D01*
X240193Y433271D01*
X240164Y433266D01*
X240064Y433213D01*
X239961Y433167D01*
X239938Y433148D01*
X239912Y433135D01*
X239830Y433057D01*
X239744Y432984D01*
X239727Y432959D01*
X239706Y432939D01*
X239649Y432841D01*
X239586Y432747D01*
X239577Y432719D01*
X239562Y432694D01*
X239534Y432584D01*
X239500Y432476D01*
X239499Y432446D01*
X239492Y432418D01*
X239496Y432305D01*
X239493Y432192D01*
X239500Y432163D01*
X239501Y432134D01*
X239536Y432026D01*
X239565Y431917D01*
X239580Y431891D01*
X239589Y431863D01*
X239634Y431799D01*
X239710Y431672D01*
X239756Y431629D01*
X239784Y431590D01*
X241072Y430302D01*
X242035Y427978D01*
X242035Y425462D01*
X241072Y423138D01*
X239566Y421632D01*
X239514Y421563D01*
X239454Y421499D01*
X239428Y421449D01*
X239395Y421405D01*
X239364Y421323D01*
X239324Y421246D01*
X239316Y421198D01*
X239294Y421140D01*
X239282Y420992D01*
X239269Y420915D01*
X239269Y419151D01*
X230811Y410693D01*
X197328Y410693D01*
X197327Y410693D01*
X197325Y410693D01*
X197185Y410673D01*
X197047Y410653D01*
X197045Y410653D01*
X197044Y410653D01*
X196914Y410594D01*
X196787Y410537D01*
X196786Y410536D01*
X196785Y410535D01*
X196678Y410445D01*
X196570Y410354D01*
X196570Y410352D01*
X196568Y410351D01*
X196560Y410339D01*
X196413Y410117D01*
X196404Y410088D01*
X196390Y410067D01*
X196037Y409214D01*
X193536Y406713D01*
X190268Y405359D01*
X186732Y405359D01*
X183464Y406713D01*
X180963Y409214D01*
X179609Y412482D01*
X179609Y415968D01*
X179605Y415997D01*
X179608Y416027D01*
X179585Y416138D01*
X179569Y416250D01*
X179557Y416276D01*
X179552Y416305D01*
X179500Y416406D01*
X179453Y416509D01*
X179434Y416532D01*
X179421Y416558D01*
X179343Y416640D01*
X179270Y416726D01*
X179245Y416742D01*
X179225Y416764D01*
X179127Y416821D01*
X179033Y416884D01*
X179005Y416893D01*
X178980Y416907D01*
X178870Y416935D01*
X178762Y416970D01*
X178732Y416970D01*
X178704Y416978D01*
X178591Y416974D01*
X178478Y416977D01*
X178449Y416969D01*
X178420Y416968D01*
X178312Y416934D01*
X178203Y416905D01*
X178177Y416890D01*
X178149Y416881D01*
X178086Y416835D01*
X177958Y416760D01*
X177915Y416714D01*
X177876Y416686D01*
X162350Y401160D01*
X159969Y398779D01*
X121941Y398779D01*
X119560Y401160D01*
X115228Y405492D01*
X115226Y405493D01*
X115225Y405495D01*
X115110Y405581D01*
X115000Y405663D01*
X114999Y405664D01*
X114998Y405665D01*
X114864Y405715D01*
X114735Y405765D01*
X114733Y405765D01*
X114732Y405765D01*
X114587Y405777D01*
X114451Y405788D01*
X114450Y405788D01*
X114448Y405788D01*
X114433Y405784D01*
X114173Y405732D01*
X114146Y405718D01*
X114121Y405712D01*
X113268Y405359D01*
X109732Y405359D01*
X106464Y406713D01*
X103963Y409214D01*
X102609Y412482D01*
X102609Y416018D01*
X103963Y419286D01*
X106464Y421787D01*
X109732Y423141D01*
X113268Y423141D01*
X116536Y421787D01*
X119037Y419286D01*
X120391Y416018D01*
X120391Y412482D01*
X120038Y411629D01*
X120037Y411627D01*
X120036Y411626D01*
X120001Y411488D01*
X119967Y411353D01*
X119967Y411352D01*
X119966Y411350D01*
X119971Y411210D01*
X119975Y411069D01*
X119975Y411068D01*
X119975Y411066D01*
X120018Y410933D01*
X120061Y410799D01*
X120062Y410797D01*
X120063Y410796D01*
X120071Y410784D01*
X120220Y410562D01*
X120243Y410543D01*
X120258Y410522D01*
X124590Y406190D01*
X124660Y406138D01*
X124724Y406078D01*
X124773Y406052D01*
X124817Y406019D01*
X124899Y405988D01*
X124977Y405948D01*
X125024Y405940D01*
X125083Y405918D01*
X125230Y405906D01*
X125308Y405893D01*
X156602Y405893D01*
X156689Y405905D01*
X156776Y405908D01*
X156829Y405925D01*
X156884Y405933D01*
X156964Y405968D01*
X157047Y405995D01*
X157086Y406023D01*
X157143Y406049D01*
X157256Y406145D01*
X157320Y406190D01*
X191567Y440437D01*
X230923Y440437D01*
X230952Y440441D01*
X230981Y440438D01*
X231092Y440461D01*
X231204Y440477D01*
X231231Y440489D01*
X231260Y440494D01*
X231360Y440547D01*
X231463Y440593D01*
X231486Y440612D01*
X231512Y440625D01*
X231594Y440703D01*
X231680Y440776D01*
X231697Y440801D01*
X231718Y440821D01*
X231775Y440919D01*
X231838Y441013D01*
X231847Y441041D01*
X231862Y441066D01*
X231890Y441176D01*
X231924Y441284D01*
X231925Y441314D01*
X231932Y441342D01*
X231928Y441455D01*
X231931Y441568D01*
X231924Y441597D01*
X231923Y441626D01*
X231888Y441734D01*
X231859Y441843D01*
X231844Y441869D01*
X231835Y441897D01*
X231790Y441961D01*
X231714Y442088D01*
X231668Y442131D01*
X231640Y442170D01*
X230352Y443458D01*
X229389Y445782D01*
X229389Y448298D01*
X230352Y450622D01*
X232130Y452400D01*
X234454Y453363D01*
X236584Y453363D01*
X236671Y453375D01*
X236758Y453378D01*
X236811Y453395D01*
X236866Y453403D01*
X236946Y453438D01*
X237029Y453465D01*
X237068Y453493D01*
X237125Y453519D01*
X237238Y453615D01*
X237302Y453660D01*
X238049Y454407D01*
X260895Y454407D01*
X260981Y454419D01*
X261069Y454422D01*
X261121Y454439D01*
X261176Y454447D01*
X261256Y454482D01*
X261339Y454509D01*
X261378Y454537D01*
X261435Y454563D01*
X261549Y454659D01*
X261612Y454704D01*
X263390Y456482D01*
X263426Y456529D01*
X263468Y456569D01*
X263511Y456642D01*
X263561Y456709D01*
X263582Y456764D01*
X263612Y456814D01*
X263632Y456896D01*
X263663Y456975D01*
X263667Y457033D01*
X263682Y457090D01*
X263679Y457174D01*
X263686Y457258D01*
X263675Y457316D01*
X263673Y457374D01*
X263647Y457454D01*
X263630Y457537D01*
X263603Y457589D01*
X263585Y457645D01*
X263545Y457701D01*
X263499Y457789D01*
X263431Y457862D01*
X263390Y457918D01*
X261459Y459849D01*
X261459Y467251D01*
X263390Y469182D01*
X263426Y469229D01*
X263468Y469269D01*
X263511Y469342D01*
X263561Y469409D01*
X263582Y469464D01*
X263612Y469514D01*
X263632Y469596D01*
X263663Y469675D01*
X263667Y469733D01*
X263682Y469790D01*
X263679Y469874D01*
X263686Y469958D01*
X263675Y470016D01*
X263673Y470074D01*
X263647Y470154D01*
X263630Y470237D01*
X263603Y470289D01*
X263585Y470345D01*
X263545Y470401D01*
X263499Y470489D01*
X263430Y470562D01*
X263390Y470618D01*
X261459Y472549D01*
X261459Y479951D01*
X263299Y481791D01*
X274352Y481791D01*
X274420Y481800D01*
X274488Y481800D01*
X274560Y481820D01*
X274634Y481831D01*
X274696Y481858D01*
X274761Y481877D01*
X274814Y481911D01*
X274893Y481947D01*
X274980Y482020D01*
X275042Y482061D01*
X284662Y490965D01*
X284729Y491048D01*
X284802Y491126D01*
X284819Y491158D01*
X284841Y491185D01*
X284883Y491284D01*
X284932Y491379D01*
X284937Y491410D01*
X284953Y491447D01*
X284978Y491654D01*
X284987Y491710D01*
X284987Y556906D01*
X284975Y556993D01*
X284972Y557080D01*
X284955Y557133D01*
X284947Y557188D01*
X284912Y557268D01*
X284885Y557351D01*
X284857Y557390D01*
X284831Y557447D01*
X284735Y557560D01*
X284690Y557624D01*
X283304Y559010D01*
X283234Y559062D01*
X283170Y559122D01*
X283121Y559148D01*
X283077Y559181D01*
X282995Y559212D01*
X282917Y559252D01*
X282870Y559260D01*
X282811Y559282D01*
X282664Y559294D01*
X282586Y559307D01*
X275803Y559307D01*
X275795Y559306D01*
X275788Y559307D01*
X275655Y559286D01*
X275521Y559267D01*
X275515Y559264D01*
X275507Y559263D01*
X275465Y559242D01*
X275262Y559151D01*
X275234Y559127D01*
X275217Y559119D01*
X274117Y559295D01*
X274023Y559296D01*
X273958Y559307D01*
X272846Y559307D01*
X272843Y559311D01*
X272734Y559391D01*
X272626Y559472D01*
X272619Y559474D01*
X272614Y559478D01*
X272568Y559494D01*
X272361Y559573D01*
X272324Y559576D01*
X272306Y559582D01*
X271653Y560483D01*
X271587Y560551D01*
X271549Y560605D01*
X270763Y561391D01*
X270763Y561396D01*
X270742Y561530D01*
X270723Y561663D01*
X270721Y561669D01*
X270719Y561677D01*
X270698Y561720D01*
X270607Y561922D01*
X270583Y561950D01*
X270570Y561977D01*
X266195Y568013D01*
X266138Y568072D01*
X266089Y568137D01*
X266040Y568174D01*
X265998Y568218D01*
X265927Y568259D01*
X265861Y568308D01*
X265804Y568329D01*
X265751Y568360D01*
X265672Y568379D01*
X265595Y568408D01*
X265534Y568413D01*
X265475Y568427D01*
X265393Y568424D01*
X265312Y568431D01*
X265261Y568419D01*
X265191Y568416D01*
X265061Y568373D01*
X264985Y568355D01*
X264275Y568061D01*
X259525Y568061D01*
X255137Y569879D01*
X251779Y573237D01*
X250138Y577199D01*
X250123Y577224D01*
X250114Y577252D01*
X250051Y577346D01*
X249993Y577443D01*
X249972Y577464D01*
X249956Y577488D01*
X249869Y577561D01*
X249787Y577639D01*
X249761Y577652D01*
X249738Y577671D01*
X249635Y577717D01*
X249534Y577769D01*
X249505Y577775D01*
X249478Y577786D01*
X249366Y577802D01*
X249255Y577824D01*
X249226Y577821D01*
X249197Y577825D01*
X249085Y577809D01*
X248972Y577799D01*
X248945Y577789D01*
X248916Y577785D01*
X248812Y577738D01*
X248707Y577697D01*
X248683Y577680D01*
X248656Y577668D01*
X248570Y577594D01*
X248480Y577526D01*
X248462Y577502D01*
X248440Y577483D01*
X248398Y577417D01*
X248310Y577298D01*
X248288Y577240D01*
X248262Y577199D01*
X246621Y573237D01*
X243263Y569879D01*
X238875Y568061D01*
X234125Y568061D01*
X229737Y569879D01*
X226379Y573237D01*
X224738Y577199D01*
X224723Y577224D01*
X224714Y577252D01*
X224651Y577346D01*
X224593Y577443D01*
X224572Y577464D01*
X224556Y577488D01*
X224469Y577561D01*
X224387Y577639D01*
X224361Y577652D01*
X224338Y577671D01*
X224235Y577717D01*
X224134Y577769D01*
X224105Y577775D01*
X224078Y577786D01*
X223966Y577802D01*
X223855Y577824D01*
X223826Y577821D01*
X223797Y577825D01*
X223685Y577809D01*
X223572Y577799D01*
X223545Y577789D01*
X223516Y577785D01*
X223412Y577738D01*
X223307Y577697D01*
X223283Y577680D01*
X223256Y577668D01*
X223170Y577594D01*
X223080Y577526D01*
X223062Y577502D01*
X223040Y577483D01*
X222998Y577417D01*
X222910Y577298D01*
X222888Y577240D01*
X222862Y577199D01*
X221221Y573237D01*
X217863Y569879D01*
X213475Y568061D01*
X208725Y568061D01*
X204337Y569879D01*
X200979Y573237D01*
X199338Y577199D01*
X199323Y577224D01*
X199314Y577252D01*
X199251Y577346D01*
X199193Y577443D01*
X199172Y577464D01*
X199156Y577488D01*
X199069Y577561D01*
X198987Y577639D01*
X198961Y577652D01*
X198938Y577671D01*
X198835Y577717D01*
X198734Y577769D01*
X198705Y577775D01*
X198678Y577786D01*
X198566Y577802D01*
X198455Y577824D01*
X198426Y577821D01*
X198397Y577825D01*
X198285Y577809D01*
X198172Y577799D01*
X198145Y577789D01*
X198116Y577785D01*
X198012Y577738D01*
X197907Y577697D01*
X197883Y577680D01*
X197856Y577668D01*
X197770Y577594D01*
X197680Y577526D01*
X197662Y577502D01*
X197640Y577483D01*
X197598Y577417D01*
X197510Y577298D01*
X197488Y577240D01*
X197462Y577199D01*
X195821Y573237D01*
X192463Y569879D01*
X188075Y568061D01*
X183325Y568061D01*
X178937Y569879D01*
X175579Y573237D01*
X173938Y577199D01*
X173923Y577224D01*
X173914Y577252D01*
X173851Y577346D01*
X173793Y577443D01*
X173772Y577464D01*
X173756Y577488D01*
X173669Y577561D01*
X173587Y577639D01*
X173561Y577652D01*
X173538Y577671D01*
X173435Y577717D01*
X173334Y577769D01*
X173305Y577775D01*
X173278Y577786D01*
X173166Y577802D01*
X173055Y577824D01*
X173026Y577821D01*
X172997Y577825D01*
X172885Y577809D01*
X172772Y577799D01*
X172745Y577789D01*
X172716Y577785D01*
X172612Y577738D01*
X172507Y577697D01*
X172483Y577680D01*
X172456Y577668D01*
X172370Y577594D01*
X172280Y577526D01*
X172262Y577502D01*
X172240Y577483D01*
X172198Y577417D01*
X172110Y577298D01*
X172088Y577240D01*
X172062Y577199D01*
X170421Y573237D01*
X167225Y570042D01*
X167172Y569971D01*
X167112Y569906D01*
X167087Y569858D01*
X167055Y569814D01*
X167023Y569731D01*
X166983Y569653D01*
X166975Y569606D01*
X166953Y569549D01*
X166941Y569399D01*
X166928Y569321D01*
X167136Y474189D01*
X166135Y471759D01*
X164282Y469897D01*
X161856Y468886D01*
X159229Y468880D01*
X156799Y469881D01*
X154937Y471734D01*
X153926Y474160D01*
X153719Y569279D01*
X153706Y569365D01*
X153704Y569451D01*
X153686Y569505D01*
X153678Y569561D01*
X153643Y569639D01*
X153616Y569721D01*
X153588Y569761D01*
X153561Y569820D01*
X153467Y569931D01*
X153421Y569995D01*
X150179Y573237D01*
X148538Y577199D01*
X148523Y577224D01*
X148514Y577252D01*
X148451Y577346D01*
X148393Y577443D01*
X148372Y577464D01*
X148356Y577488D01*
X148269Y577561D01*
X148187Y577639D01*
X148161Y577652D01*
X148138Y577671D01*
X148035Y577717D01*
X147934Y577769D01*
X147905Y577775D01*
X147878Y577786D01*
X147766Y577802D01*
X147655Y577824D01*
X147626Y577821D01*
X147597Y577825D01*
X147485Y577809D01*
X147372Y577799D01*
X147345Y577789D01*
X147316Y577785D01*
X147212Y577738D01*
X147107Y577697D01*
X147083Y577680D01*
X147056Y577668D01*
X146970Y577594D01*
X146880Y577526D01*
X146862Y577502D01*
X146840Y577483D01*
X146798Y577417D01*
X146710Y577298D01*
X146688Y577240D01*
X146662Y577199D01*
X145021Y573237D01*
X141663Y569879D01*
X137275Y568061D01*
X132525Y568061D01*
X128137Y569879D01*
X124779Y573237D01*
X123138Y577199D01*
X123123Y577224D01*
X123114Y577252D01*
X123051Y577346D01*
X122993Y577443D01*
X122972Y577464D01*
X122956Y577488D01*
X122869Y577561D01*
X122787Y577639D01*
X122761Y577652D01*
X122738Y577671D01*
X122635Y577717D01*
X122534Y577769D01*
X122505Y577775D01*
X122478Y577786D01*
X122366Y577802D01*
X122255Y577824D01*
X122226Y577821D01*
X122197Y577825D01*
X122085Y577809D01*
X121972Y577799D01*
X121945Y577789D01*
X121916Y577785D01*
X121812Y577738D01*
X121707Y577697D01*
X121683Y577680D01*
X121656Y577668D01*
X121570Y577594D01*
X121480Y577526D01*
X121462Y577502D01*
X121440Y577483D01*
X121398Y577417D01*
X121310Y577298D01*
X121288Y577240D01*
X121262Y577199D01*
X119621Y573237D01*
X116263Y569879D01*
X111875Y568061D01*
X107125Y568061D01*
X102737Y569879D01*
X99379Y573237D01*
X97561Y577625D01*
X97561Y582375D01*
X99379Y586763D01*
X102737Y590121D01*
X107125Y591939D01*
X111875Y591939D01*
X116263Y590121D01*
X119621Y586763D01*
X121262Y582801D01*
X121277Y582776D01*
X121286Y582748D01*
X121349Y582654D01*
X121407Y582557D01*
X121428Y582536D01*
X121444Y582512D01*
X121531Y582439D01*
X121613Y582361D01*
X121639Y582348D01*
X121662Y582329D01*
X121765Y582283D01*
X121866Y582231D01*
X121895Y582225D01*
X121922Y582214D01*
X122034Y582198D01*
X122145Y582176D01*
X122174Y582179D01*
X122203Y582175D01*
X122315Y582191D01*
X122428Y582201D01*
X122455Y582211D01*
X122485Y582215D01*
X122588Y582262D01*
X122693Y582303D01*
X122717Y582320D01*
X122744Y582332D01*
X122830Y582406D01*
X122920Y582474D01*
X122938Y582498D01*
X122960Y582517D01*
X123002Y582583D01*
X123090Y582702D01*
X123112Y582760D01*
X123138Y582801D01*
X124779Y586763D01*
X128137Y590121D01*
X132525Y591939D01*
X137275Y591939D01*
X141663Y590121D01*
X145021Y586763D01*
X146662Y582801D01*
X146677Y582776D01*
X146686Y582748D01*
X146749Y582654D01*
X146807Y582557D01*
X146828Y582536D01*
X146844Y582512D01*
X146931Y582439D01*
X147013Y582361D01*
X147039Y582348D01*
X147062Y582329D01*
X147165Y582283D01*
X147266Y582231D01*
X147295Y582225D01*
X147322Y582214D01*
X147434Y582198D01*
X147545Y582176D01*
X147574Y582179D01*
X147603Y582175D01*
X147715Y582191D01*
X147828Y582201D01*
X147855Y582211D01*
X147885Y582215D01*
X147988Y582262D01*
X148093Y582303D01*
X148117Y582320D01*
X148144Y582332D01*
X148230Y582406D01*
X148320Y582474D01*
X148338Y582498D01*
X148360Y582517D01*
X148402Y582583D01*
X148490Y582702D01*
X148512Y582760D01*
X148538Y582801D01*
X150179Y586763D01*
X153537Y590121D01*
X157925Y591939D01*
X162675Y591939D01*
X167063Y590121D01*
X170421Y586763D01*
X172062Y582801D01*
X172077Y582776D01*
X172086Y582748D01*
X172149Y582654D01*
X172207Y582557D01*
X172228Y582536D01*
X172244Y582512D01*
X172331Y582439D01*
X172413Y582361D01*
X172439Y582348D01*
X172462Y582329D01*
X172565Y582283D01*
X172666Y582231D01*
X172695Y582225D01*
X172722Y582214D01*
X172834Y582198D01*
X172945Y582176D01*
X172974Y582179D01*
X173003Y582175D01*
X173115Y582191D01*
X173228Y582201D01*
X173255Y582211D01*
X173285Y582215D01*
X173388Y582262D01*
X173493Y582303D01*
X173517Y582320D01*
X173544Y582332D01*
X173630Y582406D01*
X173720Y582474D01*
X173738Y582498D01*
X173760Y582517D01*
X173802Y582583D01*
X173890Y582702D01*
X173912Y582760D01*
X173938Y582801D01*
X175579Y586763D01*
X178937Y590121D01*
X183325Y591939D01*
X188075Y591939D01*
X192463Y590121D01*
X195821Y586763D01*
X197462Y582801D01*
X197477Y582776D01*
X197486Y582748D01*
X197549Y582654D01*
X197607Y582557D01*
X197628Y582536D01*
X197644Y582512D01*
X197731Y582439D01*
X197813Y582361D01*
X197839Y582348D01*
X197862Y582329D01*
X197965Y582283D01*
X198066Y582231D01*
X198095Y582225D01*
X198122Y582214D01*
X198234Y582198D01*
X198345Y582176D01*
X198374Y582179D01*
X198403Y582175D01*
X198515Y582191D01*
X198628Y582201D01*
X198655Y582211D01*
X198685Y582215D01*
X198788Y582262D01*
X198893Y582303D01*
X198917Y582320D01*
X198944Y582332D01*
X199030Y582406D01*
X199120Y582474D01*
X199138Y582498D01*
X199160Y582517D01*
X199202Y582583D01*
X199290Y582702D01*
X199312Y582760D01*
X199338Y582801D01*
X200979Y586763D01*
X204337Y590121D01*
X208725Y591939D01*
X213475Y591939D01*
X217863Y590121D01*
X221221Y586763D01*
X222862Y582801D01*
X222877Y582776D01*
X222886Y582748D01*
X222949Y582654D01*
X223007Y582557D01*
X223028Y582536D01*
X223044Y582512D01*
X223131Y582439D01*
X223213Y582361D01*
X223239Y582348D01*
X223262Y582329D01*
X223365Y582283D01*
X223466Y582231D01*
X223495Y582225D01*
X223522Y582214D01*
X223634Y582198D01*
X223745Y582176D01*
X223774Y582179D01*
X223803Y582175D01*
X223915Y582191D01*
X224028Y582201D01*
X224055Y582211D01*
X224085Y582215D01*
X224188Y582262D01*
X224293Y582303D01*
X224317Y582320D01*
X224344Y582332D01*
X224430Y582406D01*
X224520Y582474D01*
X224538Y582498D01*
X224560Y582517D01*
X224602Y582583D01*
X224690Y582702D01*
X224712Y582760D01*
X224738Y582801D01*
X226379Y586763D01*
X229737Y590121D01*
X234125Y591939D01*
X238875Y591939D01*
X243263Y590121D01*
X246621Y586763D01*
X248262Y582801D01*
X248277Y582776D01*
X248286Y582748D01*
X248349Y582654D01*
X248407Y582557D01*
X248428Y582536D01*
X248444Y582512D01*
X248531Y582439D01*
X248613Y582361D01*
X248639Y582348D01*
X248662Y582329D01*
X248765Y582283D01*
X248866Y582231D01*
X248895Y582225D01*
X248922Y582214D01*
X249034Y582198D01*
X249145Y582176D01*
X249174Y582179D01*
X249203Y582175D01*
X249315Y582191D01*
X249428Y582201D01*
X249455Y582211D01*
X249485Y582215D01*
X249588Y582262D01*
X249693Y582303D01*
X249717Y582320D01*
X249744Y582332D01*
X249830Y582406D01*
X249920Y582474D01*
X249938Y582498D01*
X249960Y582517D01*
X250002Y582583D01*
X250090Y582702D01*
X250112Y582760D01*
X250138Y582801D01*
X251779Y586763D01*
X255137Y590121D01*
X259525Y591939D01*
X264275Y591939D01*
X268663Y590121D01*
X272021Y586763D01*
X273662Y582801D01*
X273677Y582776D01*
X273686Y582748D01*
X273749Y582654D01*
X273807Y582557D01*
X273828Y582536D01*
X273844Y582512D01*
X273931Y582439D01*
X274013Y582361D01*
X274039Y582348D01*
X274062Y582329D01*
X274165Y582283D01*
X274266Y582231D01*
X274295Y582225D01*
X274322Y582214D01*
X274434Y582198D01*
X274545Y582176D01*
X274574Y582179D01*
X274603Y582175D01*
X274715Y582191D01*
X274828Y582201D01*
X274855Y582211D01*
X274885Y582215D01*
X274988Y582262D01*
X275093Y582303D01*
X275117Y582320D01*
X275144Y582332D01*
X275230Y582406D01*
X275320Y582474D01*
X275338Y582498D01*
X275360Y582517D01*
X275402Y582583D01*
X275490Y582702D01*
X275512Y582760D01*
X275538Y582801D01*
X277179Y586763D01*
X280537Y590121D01*
X284925Y591939D01*
X289675Y591939D01*
X294063Y590121D01*
X297421Y586763D01*
X299062Y582801D01*
X299077Y582776D01*
X299086Y582748D01*
X299149Y582654D01*
X299207Y582557D01*
X299228Y582536D01*
X299244Y582512D01*
X299331Y582439D01*
X299413Y582361D01*
X299439Y582348D01*
X299462Y582329D01*
X299565Y582283D01*
X299666Y582231D01*
X299695Y582225D01*
X299722Y582214D01*
X299834Y582198D01*
X299945Y582176D01*
X299974Y582179D01*
X300003Y582175D01*
X300115Y582191D01*
X300228Y582201D01*
X300255Y582211D01*
X300285Y582215D01*
X300388Y582262D01*
X300493Y582303D01*
X300517Y582320D01*
X300544Y582332D01*
X300630Y582406D01*
X300720Y582474D01*
X300738Y582498D01*
X300760Y582517D01*
X300802Y582583D01*
X300890Y582702D01*
X300912Y582760D01*
X300938Y582801D01*
X302579Y586763D01*
X305937Y590121D01*
X310325Y591939D01*
X315075Y591939D01*
X319463Y590121D01*
X322821Y586763D01*
X324462Y582801D01*
X324477Y582776D01*
X324486Y582748D01*
X324549Y582654D01*
X324607Y582557D01*
X324628Y582536D01*
X324644Y582512D01*
X324731Y582439D01*
X324813Y582361D01*
X324839Y582348D01*
X324862Y582329D01*
X324965Y582283D01*
X325066Y582231D01*
X325095Y582225D01*
X325122Y582214D01*
X325234Y582198D01*
X325345Y582176D01*
X325374Y582179D01*
X325403Y582175D01*
X325515Y582191D01*
X325628Y582201D01*
X325655Y582211D01*
X325685Y582215D01*
X325788Y582262D01*
X325893Y582303D01*
X325917Y582320D01*
X325944Y582332D01*
X326030Y582406D01*
X326120Y582474D01*
X326138Y582498D01*
X326160Y582517D01*
X326202Y582583D01*
X326290Y582702D01*
X326312Y582760D01*
X326338Y582801D01*
X327979Y586763D01*
X331337Y590121D01*
X335725Y591939D01*
X340475Y591939D01*
X344863Y590121D01*
X348221Y586763D01*
X349862Y582801D01*
X349877Y582776D01*
X349886Y582748D01*
X349949Y582654D01*
X350007Y582557D01*
X350028Y582536D01*
X350044Y582512D01*
X350131Y582439D01*
X350213Y582361D01*
X350239Y582348D01*
X350262Y582329D01*
X350365Y582283D01*
X350466Y582231D01*
X350495Y582225D01*
X350522Y582214D01*
X350634Y582198D01*
X350745Y582176D01*
X350774Y582179D01*
X350803Y582175D01*
X350915Y582191D01*
X351028Y582201D01*
X351055Y582211D01*
X351085Y582215D01*
X351188Y582262D01*
X351293Y582303D01*
X351317Y582320D01*
X351344Y582332D01*
X351430Y582406D01*
X351520Y582474D01*
X351538Y582498D01*
X351560Y582517D01*
X351602Y582583D01*
X351690Y582702D01*
X351712Y582760D01*
X351738Y582801D01*
X353379Y586763D01*
X356737Y590121D01*
X361125Y591939D01*
X365875Y591939D01*
X370263Y590121D01*
X373621Y586763D01*
X375262Y582801D01*
X375277Y582776D01*
X375286Y582748D01*
X375349Y582654D01*
X375407Y582557D01*
X375428Y582536D01*
X375444Y582512D01*
X375531Y582439D01*
X375613Y582361D01*
X375639Y582348D01*
X375662Y582329D01*
X375765Y582283D01*
X375866Y582231D01*
X375895Y582225D01*
X375922Y582214D01*
X376034Y582198D01*
X376145Y582176D01*
X376174Y582179D01*
X376203Y582175D01*
X376315Y582191D01*
X376428Y582201D01*
X376455Y582211D01*
X376484Y582215D01*
X376588Y582262D01*
X376693Y582303D01*
X376717Y582320D01*
X376744Y582332D01*
X376830Y582406D01*
X376920Y582474D01*
X376938Y582498D01*
X376960Y582517D01*
X377002Y582583D01*
X377090Y582702D01*
X377112Y582760D01*
X377138Y582801D01*
X378779Y586763D01*
X382137Y590121D01*
X386525Y591939D01*
X391275Y591939D01*
X395663Y590121D01*
X399021Y586763D01*
X400662Y582801D01*
X400677Y582776D01*
X400686Y582748D01*
X400749Y582654D01*
X400807Y582557D01*
X400828Y582536D01*
X400844Y582512D01*
X400931Y582439D01*
X401013Y582361D01*
X401039Y582348D01*
X401062Y582329D01*
X401165Y582283D01*
X401266Y582231D01*
X401295Y582226D01*
X401322Y582214D01*
X401434Y582198D01*
X401545Y582176D01*
X401574Y582179D01*
X401603Y582175D01*
X401715Y582191D01*
X401828Y582201D01*
X401855Y582211D01*
X401885Y582215D01*
X401988Y582262D01*
X402093Y582303D01*
X402117Y582320D01*
X402144Y582332D01*
X402230Y582406D01*
X402320Y582474D01*
X402338Y582498D01*
X402360Y582517D01*
X402402Y582583D01*
X402490Y582702D01*
X402512Y582761D01*
X402538Y582801D01*
X404179Y586763D01*
X407537Y590121D01*
X411925Y591939D01*
X416675Y591939D01*
X421063Y590121D01*
X424421Y586763D01*
X426062Y582801D01*
X426077Y582776D01*
X426086Y582748D01*
X426149Y582654D01*
X426207Y582557D01*
X426228Y582536D01*
X426244Y582512D01*
X426331Y582439D01*
X426413Y582361D01*
X426439Y582348D01*
X426462Y582329D01*
X426565Y582283D01*
X426666Y582231D01*
X426695Y582226D01*
X426722Y582214D01*
X426834Y582198D01*
X426945Y582176D01*
X426974Y582179D01*
X427003Y582175D01*
X427115Y582191D01*
X427228Y582201D01*
X427255Y582211D01*
X427285Y582215D01*
X427388Y582262D01*
X427493Y582303D01*
X427517Y582320D01*
X427544Y582332D01*
X427630Y582406D01*
X427720Y582474D01*
X427738Y582498D01*
X427760Y582517D01*
X427802Y582583D01*
X427890Y582702D01*
X427912Y582761D01*
X427938Y582801D01*
X429579Y586763D01*
X432937Y590121D01*
X437325Y591939D01*
X442075Y591939D01*
X446463Y590121D01*
X449821Y586763D01*
X451462Y582801D01*
X451477Y582776D01*
X451486Y582748D01*
X451549Y582654D01*
X451607Y582557D01*
X451628Y582536D01*
X451644Y582512D01*
X451731Y582439D01*
X451813Y582361D01*
X451839Y582348D01*
X451862Y582329D01*
X451965Y582283D01*
X452066Y582231D01*
X452095Y582226D01*
X452122Y582214D01*
X452234Y582198D01*
X452345Y582176D01*
X452374Y582179D01*
X452403Y582175D01*
X452515Y582191D01*
X452628Y582201D01*
X452655Y582211D01*
X452685Y582215D01*
X452788Y582262D01*
X452893Y582303D01*
X452917Y582320D01*
X452944Y582332D01*
X453030Y582406D01*
X453120Y582474D01*
X453138Y582498D01*
X453160Y582517D01*
X453202Y582583D01*
X453290Y582702D01*
X453312Y582761D01*
X453338Y582801D01*
X454979Y586763D01*
X458337Y590121D01*
X462725Y591939D01*
X467475Y591939D01*
X471863Y590121D01*
X475221Y586763D01*
X476927Y582645D01*
X476945Y582614D01*
X476956Y582580D01*
X476976Y582552D01*
X476988Y582521D01*
X477033Y582465D01*
X477071Y582400D01*
X477097Y582375D01*
X477117Y582346D01*
X477144Y582324D01*
X477165Y582298D01*
X477223Y582257D01*
X477278Y582205D01*
X477310Y582188D01*
X477337Y582166D01*
X477369Y582152D01*
X477396Y582133D01*
X477463Y582109D01*
X477531Y582074D01*
X477566Y582068D01*
X477598Y582054D01*
X477633Y582049D01*
X477664Y582038D01*
X477735Y582034D01*
X477810Y582019D01*
X477845Y582022D01*
X477880Y582018D01*
X477915Y582023D01*
X477948Y582022D01*
X478018Y582037D01*
X478093Y582044D01*
X478126Y582057D01*
X478161Y582062D01*
X478193Y582077D01*
X478225Y582084D01*
X478288Y582119D01*
X478358Y582146D01*
X478387Y582167D01*
X478419Y582182D01*
X478445Y582205D01*
X478474Y582221D01*
X478525Y582272D01*
X478585Y582317D01*
X478606Y582346D01*
X478633Y582369D01*
X478652Y582398D01*
X478675Y582422D01*
X478704Y582476D01*
X478755Y582545D01*
X478768Y582578D01*
X478787Y582608D01*
X478803Y582667D01*
X478831Y582720D01*
X479436Y584583D01*
X480289Y586257D01*
X481394Y587778D01*
X482722Y589106D01*
X484243Y590211D01*
X485917Y591064D01*
X487704Y591645D01*
X488469Y591766D01*
X488469Y581016D01*
X488477Y580958D01*
X488475Y580900D01*
X488497Y580818D01*
X488509Y580735D01*
X488533Y580681D01*
X488547Y580625D01*
X488590Y580552D01*
X488625Y580475D01*
X488663Y580431D01*
X488693Y580380D01*
X488754Y580323D01*
X488809Y580258D01*
X488857Y580226D01*
X488900Y580186D01*
X488975Y580147D01*
X489045Y580101D01*
X489101Y580083D01*
X489153Y580056D01*
X489221Y580045D01*
X489316Y580015D01*
X489416Y580012D01*
X489484Y580001D01*
X490501Y580001D01*
X490501Y579999D01*
X489484Y579999D01*
X489426Y579991D01*
X489368Y579992D01*
X489286Y579971D01*
X489203Y579959D01*
X489149Y579935D01*
X489093Y579921D01*
X489020Y579878D01*
X488943Y579843D01*
X488898Y579805D01*
X488848Y579775D01*
X488790Y579714D01*
X488726Y579659D01*
X488694Y579611D01*
X488654Y579568D01*
X488615Y579493D01*
X488569Y579423D01*
X488551Y579367D01*
X488524Y579315D01*
X488513Y579247D01*
X488483Y579152D01*
X488480Y579052D01*
X488469Y578984D01*
X488469Y568234D01*
X487704Y568355D01*
X485917Y568936D01*
X484243Y569789D01*
X482722Y570894D01*
X481394Y572222D01*
X480289Y573743D01*
X479436Y575417D01*
X478831Y577280D01*
X478816Y577311D01*
X478808Y577344D01*
X478790Y577375D01*
X478779Y577409D01*
X478738Y577470D01*
X478706Y577536D01*
X478683Y577560D01*
X478666Y577591D01*
X478641Y577615D01*
X478621Y577645D01*
X478563Y577693D01*
X478515Y577747D01*
X478487Y577764D01*
X478462Y577788D01*
X478430Y577805D01*
X478403Y577828D01*
X478334Y577858D01*
X478273Y577896D01*
X478242Y577905D01*
X478211Y577922D01*
X478176Y577929D01*
X478143Y577943D01*
X478068Y577954D01*
X477999Y577973D01*
X477967Y577973D01*
X477932Y577980D01*
X477897Y577977D01*
X477862Y577982D01*
X477787Y577971D01*
X477715Y577971D01*
X477684Y577961D01*
X477649Y577959D01*
X477616Y577947D01*
X477580Y577941D01*
X477511Y577910D01*
X477443Y577890D01*
X477415Y577872D01*
X477382Y577860D01*
X477354Y577839D01*
X477321Y577824D01*
X477264Y577775D01*
X477203Y577737D01*
X477182Y577712D01*
X477154Y577691D01*
X477132Y577663D01*
X477105Y577640D01*
X477071Y577586D01*
X477016Y577523D01*
X477002Y577493D01*
X476981Y577466D01*
X476955Y577400D01*
X476927Y577355D01*
X475221Y573237D01*
X471863Y569879D01*
X467475Y568061D01*
X462725Y568061D01*
X458337Y569879D01*
X454979Y573237D01*
X453338Y577199D01*
X453323Y577224D01*
X453314Y577252D01*
X453251Y577346D01*
X453193Y577443D01*
X453172Y577464D01*
X453156Y577488D01*
X453069Y577561D01*
X452987Y577639D01*
X452961Y577652D01*
X452938Y577671D01*
X452835Y577717D01*
X452734Y577769D01*
X452705Y577775D01*
X452678Y577786D01*
X452566Y577802D01*
X452455Y577824D01*
X452426Y577821D01*
X452397Y577825D01*
X452285Y577809D01*
X452172Y577799D01*
X452145Y577789D01*
X452116Y577785D01*
X452012Y577738D01*
X451907Y577697D01*
X451883Y577680D01*
X451856Y577668D01*
X451770Y577594D01*
X451680Y577526D01*
X451662Y577502D01*
X451640Y577483D01*
X451598Y577417D01*
X451510Y577298D01*
X451488Y577240D01*
X451462Y577199D01*
X449821Y573237D01*
X446463Y569879D01*
X442075Y568061D01*
X437325Y568061D01*
X432937Y569879D01*
X429579Y573237D01*
X427938Y577199D01*
X427923Y577224D01*
X427914Y577252D01*
X427851Y577346D01*
X427793Y577443D01*
X427772Y577464D01*
X427756Y577488D01*
X427669Y577561D01*
X427587Y577639D01*
X427561Y577652D01*
X427538Y577671D01*
X427435Y577717D01*
X427334Y577769D01*
X427305Y577775D01*
X427278Y577786D01*
X427166Y577802D01*
X427055Y577824D01*
X427026Y577821D01*
X426997Y577825D01*
X426885Y577809D01*
X426772Y577799D01*
X426745Y577789D01*
X426716Y577785D01*
X426612Y577738D01*
X426507Y577697D01*
X426483Y577680D01*
X426456Y577668D01*
X426370Y577594D01*
X426280Y577526D01*
X426262Y577502D01*
X426240Y577483D01*
X426198Y577417D01*
X426110Y577298D01*
X426088Y577240D01*
X426062Y577199D01*
X424421Y573237D01*
X421063Y569879D01*
X416675Y568061D01*
X411925Y568061D01*
X407537Y569879D01*
X404179Y573237D01*
X402538Y577199D01*
X402523Y577224D01*
X402514Y577252D01*
X402451Y577346D01*
X402393Y577443D01*
X402372Y577464D01*
X402356Y577488D01*
X402269Y577561D01*
X402187Y577639D01*
X402161Y577652D01*
X402138Y577671D01*
X402035Y577717D01*
X401934Y577769D01*
X401905Y577775D01*
X401878Y577786D01*
X401766Y577802D01*
X401655Y577824D01*
X401626Y577821D01*
X401597Y577825D01*
X401485Y577809D01*
X401372Y577799D01*
X401345Y577789D01*
X401316Y577785D01*
X401212Y577738D01*
X401107Y577697D01*
X401083Y577680D01*
X401056Y577668D01*
X400970Y577594D01*
X400880Y577526D01*
X400862Y577502D01*
X400840Y577483D01*
X400798Y577417D01*
X400710Y577298D01*
X400688Y577240D01*
X400662Y577199D01*
X399021Y573237D01*
X395663Y569879D01*
X391275Y568061D01*
X386525Y568061D01*
X382137Y569879D01*
X378779Y573237D01*
X377138Y577199D01*
X377123Y577224D01*
X377114Y577252D01*
X377051Y577346D01*
X376993Y577443D01*
X376972Y577464D01*
X376956Y577488D01*
X376869Y577561D01*
X376787Y577639D01*
X376761Y577652D01*
X376738Y577671D01*
X376635Y577717D01*
X376534Y577769D01*
X376505Y577775D01*
X376478Y577786D01*
X376366Y577802D01*
X376255Y577824D01*
X376226Y577821D01*
X376197Y577825D01*
X376085Y577809D01*
X375972Y577799D01*
X375945Y577789D01*
X375915Y577785D01*
X375812Y577738D01*
X375707Y577697D01*
X375683Y577680D01*
X375656Y577668D01*
X375570Y577594D01*
X375480Y577526D01*
X375462Y577502D01*
X375440Y577483D01*
X375398Y577417D01*
X375310Y577298D01*
X375288Y577240D01*
X375262Y577199D01*
X373621Y573237D01*
X370263Y569879D01*
X365875Y568061D01*
X361125Y568061D01*
X356737Y569879D01*
X353379Y573237D01*
X351738Y577199D01*
X351723Y577224D01*
X351714Y577252D01*
X351651Y577346D01*
X351593Y577443D01*
X351572Y577464D01*
X351556Y577488D01*
X351469Y577561D01*
X351387Y577639D01*
X351361Y577652D01*
X351338Y577671D01*
X351235Y577717D01*
X351134Y577769D01*
X351105Y577775D01*
X351078Y577786D01*
X350966Y577802D01*
X350855Y577824D01*
X350826Y577821D01*
X350797Y577825D01*
X350685Y577809D01*
X350572Y577799D01*
X350545Y577789D01*
X350516Y577785D01*
X350412Y577738D01*
X350307Y577697D01*
X350283Y577680D01*
X350256Y577668D01*
X350170Y577594D01*
X350080Y577526D01*
X350062Y577502D01*
X350040Y577483D01*
X349998Y577417D01*
X349910Y577298D01*
X349888Y577240D01*
X349862Y577199D01*
X348221Y573237D01*
X344863Y569879D01*
X340475Y568061D01*
X337800Y568061D01*
X337713Y568049D01*
X337626Y568046D01*
X337573Y568029D01*
X337518Y568021D01*
X337438Y567986D01*
X337355Y567959D01*
X337316Y567931D01*
X337259Y567905D01*
X337146Y567809D01*
X337082Y567764D01*
X328625Y559307D01*
X314822Y559307D01*
X314735Y559295D01*
X314648Y559292D01*
X314595Y559275D01*
X314540Y559267D01*
X314460Y559232D01*
X314377Y559205D01*
X314338Y559177D01*
X314281Y559151D01*
X314168Y559055D01*
X314104Y559010D01*
X312718Y557624D01*
X312666Y557554D01*
X312606Y557490D01*
X312580Y557441D01*
X312547Y557397D01*
X312516Y557315D01*
X312476Y557237D01*
X312468Y557190D01*
X312446Y557131D01*
X312434Y556984D01*
X312421Y556906D01*
X312421Y481363D01*
X312425Y481334D01*
X312422Y481305D01*
X312445Y481194D01*
X312461Y481082D01*
X312473Y481055D01*
X312478Y481026D01*
X312531Y480926D01*
X312577Y480823D01*
X312596Y480800D01*
X312609Y480774D01*
X312687Y480692D01*
X312760Y480606D01*
X312785Y480589D01*
X312805Y480568D01*
X312903Y480511D01*
X312997Y480448D01*
X313025Y480439D01*
X313050Y480424D01*
X313160Y480396D01*
X313268Y480362D01*
X313298Y480361D01*
X313326Y480354D01*
X313439Y480358D01*
X313552Y480355D01*
X313581Y480362D01*
X313610Y480363D01*
X313718Y480398D01*
X313827Y480427D01*
X313853Y480442D01*
X313881Y480451D01*
X313945Y480496D01*
X314072Y480572D01*
X314115Y480618D01*
X314154Y480646D01*
X315299Y481791D01*
X319650Y481791D01*
X319708Y481799D01*
X319766Y481797D01*
X319848Y481819D01*
X319932Y481831D01*
X319985Y481854D01*
X320041Y481869D01*
X320114Y481912D01*
X320191Y481947D01*
X320236Y481985D01*
X320286Y482014D01*
X320344Y482076D01*
X320408Y482130D01*
X320440Y482179D01*
X320480Y482222D01*
X320519Y482297D01*
X320566Y482367D01*
X320583Y482423D01*
X320610Y482475D01*
X320621Y482543D01*
X320651Y482638D01*
X320654Y482738D01*
X320665Y482806D01*
X320665Y499651D01*
X320661Y499683D01*
X320664Y499710D01*
X320482Y502833D01*
X320609Y503197D01*
X320609Y503198D01*
X320610Y503199D01*
X320612Y503212D01*
X320645Y503381D01*
X320651Y503401D01*
X320652Y503414D01*
X320664Y503476D01*
X320661Y503506D01*
X320665Y503531D01*
X320665Y513748D01*
X320658Y513802D01*
X320659Y513837D01*
X320658Y513840D01*
X320659Y513864D01*
X320637Y513946D01*
X320625Y514030D01*
X320602Y514083D01*
X320587Y514139D01*
X320544Y514212D01*
X320509Y514289D01*
X320471Y514334D01*
X320442Y514384D01*
X320380Y514442D01*
X320326Y514506D01*
X320277Y514538D01*
X320234Y514578D01*
X320159Y514617D01*
X320089Y514664D01*
X320033Y514681D01*
X319981Y514708D01*
X319913Y514719D01*
X319818Y514749D01*
X319718Y514752D01*
X319650Y514763D01*
X317824Y514763D01*
X316335Y516252D01*
X316335Y538356D01*
X317824Y539845D01*
X334928Y539845D01*
X336417Y538356D01*
X336417Y516252D01*
X334928Y514763D01*
X334890Y514763D01*
X334832Y514755D01*
X334774Y514757D01*
X334692Y514735D01*
X334608Y514723D01*
X334555Y514700D01*
X334499Y514685D01*
X334426Y514642D01*
X334349Y514607D01*
X334304Y514569D01*
X334254Y514540D01*
X334196Y514478D01*
X334132Y514424D01*
X334100Y514375D01*
X334060Y514332D01*
X334021Y514257D01*
X333974Y514187D01*
X333957Y514131D01*
X333930Y514079D01*
X333919Y514011D01*
X333889Y513916D01*
X333886Y513816D01*
X333875Y513748D01*
X333875Y500093D01*
X333879Y500061D01*
X333876Y500034D01*
X333940Y498943D01*
X333931Y498918D01*
X333931Y498917D01*
X333930Y498916D01*
X333928Y498904D01*
X333876Y498639D01*
X333879Y498609D01*
X333875Y498585D01*
X333875Y482806D01*
X333883Y482748D01*
X333881Y482690D01*
X333903Y482608D01*
X333915Y482524D01*
X333938Y482471D01*
X333953Y482415D01*
X333996Y482342D01*
X334031Y482265D01*
X334069Y482220D01*
X334098Y482170D01*
X334160Y482112D01*
X334214Y482048D01*
X334263Y482016D01*
X334306Y481976D01*
X334381Y481937D01*
X334451Y481890D01*
X334507Y481873D01*
X334559Y481846D01*
X334627Y481835D01*
X334722Y481805D01*
X334822Y481802D01*
X334890Y481791D01*
X336701Y481791D01*
X336864Y481628D01*
X336933Y481576D01*
X336997Y481516D01*
X337047Y481490D01*
X337091Y481457D01*
X337172Y481426D01*
X337250Y481386D01*
X337298Y481378D01*
X337356Y481356D01*
X337504Y481344D01*
X337581Y481331D01*
X360808Y481331D01*
X360866Y481339D01*
X360924Y481337D01*
X361006Y481359D01*
X361090Y481371D01*
X361143Y481394D01*
X361199Y481409D01*
X361272Y481452D01*
X361349Y481487D01*
X361394Y481525D01*
X361444Y481554D01*
X361502Y481616D01*
X361566Y481670D01*
X361598Y481719D01*
X361638Y481762D01*
X361677Y481837D01*
X361724Y481907D01*
X361741Y481963D01*
X361768Y482015D01*
X361779Y482083D01*
X361809Y482178D01*
X361812Y482278D01*
X361823Y482346D01*
X361823Y486444D01*
X363312Y487933D01*
X381416Y487933D01*
X382905Y486444D01*
X382905Y471340D01*
X381675Y470110D01*
X381640Y470063D01*
X381597Y470023D01*
X381555Y469950D01*
X381504Y469883D01*
X381483Y469828D01*
X381454Y469778D01*
X381433Y469696D01*
X381403Y469617D01*
X381398Y469559D01*
X381384Y469502D01*
X381386Y469418D01*
X381379Y469334D01*
X381391Y469276D01*
X381393Y469218D01*
X381419Y469138D01*
X381435Y469055D01*
X381462Y469003D01*
X381480Y468947D01*
X381520Y468891D01*
X381566Y468803D01*
X381635Y468730D01*
X381675Y468674D01*
X382905Y467444D01*
X382905Y452340D01*
X381416Y450851D01*
X363312Y450851D01*
X361823Y452340D01*
X361823Y458978D01*
X361815Y459036D01*
X361817Y459094D01*
X361795Y459176D01*
X361783Y459260D01*
X361760Y459313D01*
X361745Y459369D01*
X361702Y459442D01*
X361667Y459519D01*
X361629Y459564D01*
X361600Y459614D01*
X361538Y459672D01*
X361484Y459736D01*
X361435Y459768D01*
X361392Y459808D01*
X361317Y459847D01*
X361247Y459894D01*
X361191Y459911D01*
X361139Y459938D01*
X361071Y459949D01*
X360976Y459979D01*
X360876Y459982D01*
X360808Y459993D01*
X339105Y459993D01*
X339019Y459981D01*
X338931Y459978D01*
X338879Y459961D01*
X338824Y459953D01*
X338744Y459918D01*
X338661Y459891D01*
X338622Y459863D01*
X338565Y459837D01*
X338451Y459741D01*
X338388Y459696D01*
X336610Y457918D01*
X336574Y457871D01*
X336532Y457831D01*
X336489Y457758D01*
X336439Y457691D01*
X336418Y457636D01*
X336388Y457586D01*
X336368Y457504D01*
X336337Y457425D01*
X336333Y457367D01*
X336318Y457310D01*
X336321Y457226D01*
X336314Y457142D01*
X336325Y457084D01*
X336327Y457026D01*
X336353Y456946D01*
X336370Y456863D01*
X336397Y456811D01*
X336415Y456755D01*
X336455Y456699D01*
X336501Y456611D01*
X336569Y456538D01*
X336610Y456482D01*
X338174Y454918D01*
X338251Y454860D01*
X338321Y454796D01*
X338364Y454775D01*
X338401Y454747D01*
X338491Y454713D01*
X338577Y454671D01*
X338618Y454664D01*
X338667Y454646D01*
X338834Y454632D01*
X338909Y454620D01*
X339468Y454630D01*
X339546Y454642D01*
X339626Y454645D01*
X339675Y454661D01*
X341338Y454661D01*
X341347Y454662D01*
X341355Y454661D01*
X342825Y454685D01*
X343865Y453645D01*
X343872Y453640D01*
X343877Y453634D01*
X345060Y452489D01*
X345067Y452474D01*
X345154Y452375D01*
X345199Y452311D01*
X368968Y428542D01*
X369038Y428490D01*
X369102Y428430D01*
X369151Y428404D01*
X369195Y428371D01*
X369277Y428340D01*
X369355Y428300D01*
X369402Y428292D01*
X369461Y428270D01*
X369608Y428258D01*
X369686Y428245D01*
X424129Y428245D01*
X438056Y414318D01*
X438126Y414266D01*
X438190Y414206D01*
X438239Y414180D01*
X438283Y414147D01*
X438365Y414116D01*
X438443Y414076D01*
X438490Y414068D01*
X438549Y414046D01*
X438696Y414034D01*
X438774Y414021D01*
X478594Y414021D01*
X478652Y414029D01*
X478710Y414027D01*
X478792Y414049D01*
X478876Y414061D01*
X478929Y414084D01*
X478985Y414099D01*
X479058Y414142D01*
X479135Y414177D01*
X479180Y414215D01*
X479230Y414244D01*
X479288Y414306D01*
X479352Y414360D01*
X479384Y414409D01*
X479424Y414452D01*
X479463Y414527D01*
X479510Y414597D01*
X479527Y414653D01*
X479554Y414705D01*
X479565Y414773D01*
X479595Y414868D01*
X479598Y414968D01*
X479609Y415036D01*
X479609Y416018D01*
X480963Y419286D01*
X483464Y421787D01*
X486732Y423141D01*
X490268Y423141D01*
X493536Y421787D01*
X496037Y419286D01*
X497391Y416018D01*
X497391Y412482D01*
X496037Y409214D01*
X493536Y406713D01*
X490268Y405359D01*
X486732Y405359D01*
X483400Y406739D01*
X483384Y406748D01*
X483339Y406781D01*
X483258Y406812D01*
X483180Y406852D01*
X483132Y406860D01*
X483074Y406882D01*
X482926Y406894D01*
X482849Y406907D01*
X435407Y406907D01*
X421480Y420834D01*
X421410Y420886D01*
X421346Y420946D01*
X421297Y420972D01*
X421253Y421005D01*
X421171Y421036D01*
X421093Y421076D01*
X421046Y421084D01*
X420987Y421106D01*
X420840Y421118D01*
X420762Y421131D01*
X419643Y421131D01*
X419614Y421127D01*
X419585Y421130D01*
X419474Y421107D01*
X419362Y421091D01*
X419335Y421079D01*
X419306Y421074D01*
X419206Y421022D01*
X419102Y420975D01*
X419080Y420956D01*
X419054Y420943D01*
X418972Y420865D01*
X418885Y420792D01*
X418869Y420767D01*
X418848Y420747D01*
X418790Y420649D01*
X418728Y420555D01*
X418719Y420527D01*
X418704Y420502D01*
X418676Y420392D01*
X418642Y420284D01*
X418641Y420255D01*
X418634Y420226D01*
X418637Y420113D01*
X418635Y420000D01*
X418642Y419971D01*
X418643Y419942D01*
X418678Y419834D01*
X418706Y419725D01*
X418721Y419699D01*
X418730Y419671D01*
X418776Y419608D01*
X418852Y419480D01*
X418897Y419437D01*
X418925Y419398D01*
X419037Y419286D01*
X420391Y416018D01*
X420391Y412482D01*
X419037Y409214D01*
X416536Y406713D01*
X413268Y405359D01*
X409732Y405359D01*
X406464Y406713D01*
X403963Y409214D01*
X402609Y412482D01*
X402609Y414020D01*
X402601Y414078D01*
X402603Y414136D01*
X402581Y414218D01*
X402569Y414302D01*
X402546Y414355D01*
X402531Y414411D01*
X402488Y414484D01*
X402453Y414561D01*
X402415Y414606D01*
X402386Y414656D01*
X402324Y414714D01*
X402270Y414778D01*
X402221Y414810D01*
X402178Y414850D01*
X402103Y414889D01*
X402033Y414936D01*
X401977Y414953D01*
X401925Y414980D01*
X401857Y414991D01*
X401762Y415021D01*
X401662Y415024D01*
X401594Y415035D01*
X366319Y415035D01*
X347058Y434296D01*
X346988Y434348D01*
X346924Y434408D01*
X346875Y434434D01*
X346831Y434467D01*
X346749Y434498D01*
X346671Y434538D01*
X346624Y434546D01*
X346565Y434568D01*
X346418Y434580D01*
X346340Y434593D01*
X339105Y434593D01*
X339019Y434581D01*
X338931Y434578D01*
X338879Y434561D01*
X338824Y434553D01*
X338744Y434518D01*
X338661Y434491D01*
X338622Y434463D01*
X338565Y434437D01*
X338451Y434341D01*
X338388Y434296D01*
X336610Y432518D01*
X336575Y432471D01*
X336532Y432431D01*
X336489Y432358D01*
X336439Y432291D01*
X336418Y432236D01*
X336388Y432186D01*
X336368Y432104D01*
X336337Y432025D01*
X336333Y431967D01*
X336318Y431910D01*
X336321Y431826D01*
X336314Y431742D01*
X336325Y431684D01*
X336327Y431626D01*
X336353Y431546D01*
X336370Y431463D01*
X336397Y431411D01*
X336415Y431355D01*
X336455Y431299D01*
X336501Y431211D01*
X336570Y431138D01*
X336610Y431082D01*
X338547Y429144D01*
X338569Y429062D01*
X338581Y428978D01*
X338604Y428925D01*
X338619Y428869D01*
X338662Y428796D01*
X338697Y428719D01*
X338735Y428674D01*
X338764Y428624D01*
X338826Y428566D01*
X338880Y428502D01*
X338929Y428470D01*
X338972Y428430D01*
X339047Y428391D01*
X339117Y428344D01*
X339173Y428327D01*
X339225Y428300D01*
X339293Y428289D01*
X339388Y428259D01*
X339488Y428256D01*
X339556Y428245D01*
X340817Y428245D01*
X418085Y350977D01*
X418085Y264013D01*
X418097Y263928D01*
X418099Y263842D01*
X418117Y263788D01*
X418125Y263731D01*
X418160Y263653D01*
X418186Y263571D01*
X418214Y263531D01*
X418241Y263472D01*
X418334Y263361D01*
X418338Y263355D01*
X418351Y263334D01*
X418359Y263327D01*
X418380Y263297D01*
X486272Y194941D01*
X486343Y194887D01*
X486408Y194826D01*
X486456Y194801D01*
X486499Y194769D01*
X486582Y194737D01*
X486661Y194696D01*
X486707Y194688D01*
X486764Y194667D01*
X486915Y194654D01*
X486992Y194641D01*
X490268Y194641D01*
X493536Y193287D01*
X496037Y190786D01*
X497391Y187518D01*
X497391Y183982D01*
X496037Y180714D01*
X493536Y178213D01*
X490268Y176859D01*
X486732Y176859D01*
X483464Y178213D01*
X480963Y180714D01*
X479609Y183982D01*
X479609Y187518D01*
X480530Y189742D01*
X480561Y189859D01*
X480601Y190017D01*
X480598Y190125D01*
X480593Y190301D01*
X480593Y190302D01*
X480555Y190422D01*
X480507Y190572D01*
X480348Y190809D01*
X480326Y190827D01*
X480313Y190846D01*
X415756Y255844D01*
X415732Y255863D01*
X415711Y255887D01*
X415619Y255948D01*
X415530Y256016D01*
X415501Y256027D01*
X415475Y256044D01*
X415368Y256078D01*
X415264Y256118D01*
X415233Y256121D01*
X415204Y256130D01*
X415092Y256133D01*
X414981Y256142D01*
X414951Y256136D01*
X414920Y256137D01*
X414812Y256109D01*
X414702Y256087D01*
X414675Y256073D01*
X414645Y256065D01*
X414549Y256008D01*
X414449Y255957D01*
X414427Y255936D01*
X414400Y255920D01*
X414324Y255839D01*
X414243Y255762D01*
X414227Y255735D01*
X414206Y255713D01*
X414155Y255613D01*
X414098Y255517D01*
X414090Y255487D01*
X414076Y255460D01*
X414063Y255382D01*
X414027Y255242D01*
X414029Y255178D01*
X414021Y255129D01*
X414021Y195007D01*
X414021Y195006D01*
X414021Y195004D01*
X414041Y194863D01*
X414061Y194726D01*
X414061Y194725D01*
X414061Y194723D01*
X414119Y194595D01*
X414177Y194467D01*
X414178Y194465D01*
X414179Y194464D01*
X414270Y194356D01*
X414360Y194250D01*
X414362Y194249D01*
X414363Y194247D01*
X414376Y194239D01*
X414597Y194092D01*
X414626Y194083D01*
X414647Y194070D01*
X416536Y193287D01*
X419037Y190786D01*
X420391Y187518D01*
X420391Y183982D01*
X419037Y180714D01*
X416536Y178213D01*
X413268Y176859D01*
X409732Y176859D01*
X406464Y178213D01*
X403963Y180714D01*
X402609Y183982D01*
X402609Y187518D01*
X403963Y190786D01*
X406607Y193430D01*
X406650Y193488D01*
X406721Y193563D01*
X406722Y193564D01*
X406722Y193565D01*
X406752Y193624D01*
X406777Y193657D01*
X406801Y193718D01*
X406851Y193816D01*
X406851Y193817D01*
X406852Y193818D01*
X406854Y193830D01*
X406865Y193886D01*
X406879Y193923D01*
X406884Y193982D01*
X406906Y194095D01*
X406903Y194125D01*
X406907Y194149D01*
X406907Y345578D01*
X406895Y345665D01*
X406892Y345752D01*
X406875Y345805D01*
X406867Y345860D01*
X406832Y345940D01*
X406805Y346023D01*
X406777Y346062D01*
X406751Y346119D01*
X406655Y346232D01*
X406610Y346296D01*
X344264Y408642D01*
X344194Y408694D01*
X344130Y408754D01*
X344081Y408780D01*
X344037Y408813D01*
X343955Y408844D01*
X343877Y408884D01*
X343830Y408892D01*
X343771Y408914D01*
X343624Y408926D01*
X343546Y408939D01*
X338851Y408939D01*
X338765Y408927D01*
X338677Y408924D01*
X338625Y408907D01*
X338570Y408899D01*
X338490Y408864D01*
X338407Y408837D01*
X338368Y408809D01*
X338311Y408783D01*
X338197Y408687D01*
X338134Y408642D01*
X336610Y407118D01*
X336574Y407071D01*
X336532Y407031D01*
X336489Y406958D01*
X336439Y406891D01*
X336418Y406836D01*
X336388Y406786D01*
X336368Y406704D01*
X336337Y406625D01*
X336333Y406567D01*
X336318Y406510D01*
X336321Y406426D01*
X336314Y406342D01*
X336325Y406284D01*
X336327Y406226D01*
X336353Y406146D01*
X336370Y406063D01*
X336397Y406011D01*
X336415Y405955D01*
X336455Y405899D01*
X336501Y405811D01*
X336570Y405738D01*
X336610Y405682D01*
X338541Y403751D01*
X338541Y396349D01*
X336610Y394418D01*
X336574Y394371D01*
X336532Y394331D01*
X336489Y394258D01*
X336439Y394191D01*
X336418Y394136D01*
X336388Y394086D01*
X336368Y394004D01*
X336337Y393925D01*
X336333Y393867D01*
X336318Y393810D01*
X336321Y393726D01*
X336314Y393642D01*
X336325Y393584D01*
X336327Y393526D01*
X336353Y393446D01*
X336370Y393363D01*
X336397Y393311D01*
X336415Y393255D01*
X336455Y393199D01*
X336501Y393111D01*
X336569Y393038D01*
X336610Y392982D01*
X338541Y391051D01*
X338541Y383649D01*
X336701Y381809D01*
X315299Y381809D01*
X313459Y383649D01*
X313459Y384162D01*
X313447Y384249D01*
X313444Y384336D01*
X313427Y384389D01*
X313419Y384444D01*
X313384Y384524D01*
X313357Y384607D01*
X313329Y384646D01*
X313303Y384703D01*
X313207Y384816D01*
X313162Y384880D01*
X301243Y396799D01*
X301243Y573573D01*
X301610Y573940D01*
X301610Y573941D01*
X301612Y573942D01*
X301622Y573955D01*
X301628Y573960D01*
X301647Y573990D01*
X301700Y574059D01*
X301780Y574167D01*
X301781Y574168D01*
X301782Y574169D01*
X301833Y574305D01*
X301882Y574432D01*
X301882Y574434D01*
X301882Y574435D01*
X301894Y574580D01*
X301905Y574716D01*
X301905Y574717D01*
X301905Y574719D01*
X301901Y574734D01*
X301849Y574994D01*
X301835Y575022D01*
X301830Y575046D01*
X300938Y577199D01*
X300923Y577224D01*
X300914Y577252D01*
X300851Y577346D01*
X300793Y577443D01*
X300772Y577464D01*
X300756Y577488D01*
X300669Y577561D01*
X300587Y577639D01*
X300561Y577652D01*
X300538Y577671D01*
X300435Y577717D01*
X300334Y577769D01*
X300305Y577775D01*
X300278Y577786D01*
X300166Y577802D01*
X300055Y577824D01*
X300026Y577821D01*
X299997Y577825D01*
X299885Y577809D01*
X299772Y577799D01*
X299745Y577789D01*
X299716Y577785D01*
X299612Y577738D01*
X299507Y577697D01*
X299483Y577680D01*
X299456Y577668D01*
X299370Y577594D01*
X299280Y577526D01*
X299262Y577502D01*
X299240Y577483D01*
X299198Y577417D01*
X299110Y577298D01*
X299088Y577240D01*
X299062Y577199D01*
X297421Y573237D01*
X296487Y572303D01*
X296471Y572282D01*
X296452Y572266D01*
X296417Y572214D01*
X296367Y572159D01*
X296346Y572115D01*
X296316Y572076D01*
X296303Y572043D01*
X296294Y572029D01*
X296279Y571981D01*
X296241Y571904D01*
X296232Y571856D01*
X296215Y571810D01*
X296211Y571766D01*
X296209Y571758D01*
X296208Y571725D01*
X296207Y571717D01*
X296190Y571624D01*
X296196Y571582D01*
X296191Y571527D01*
X296201Y571477D01*
X296201Y571474D01*
X296204Y571464D01*
X296223Y571367D01*
X296233Y571292D01*
X296439Y570611D01*
X296285Y570324D01*
X296257Y570248D01*
X296220Y570175D01*
X296211Y570123D01*
X296187Y570057D01*
X296178Y569922D01*
X296165Y569844D01*
X296165Y469951D01*
X287985Y461771D01*
X287556Y461771D01*
X287498Y461763D01*
X287440Y461765D01*
X287358Y461743D01*
X287274Y461731D01*
X287221Y461708D01*
X287165Y461693D01*
X287092Y461650D01*
X287015Y461615D01*
X286970Y461577D01*
X286920Y461548D01*
X286862Y461486D01*
X286798Y461432D01*
X286766Y461383D01*
X286726Y461340D01*
X286687Y461265D01*
X286640Y461195D01*
X286623Y461139D01*
X286596Y461087D01*
X286585Y461019D01*
X286555Y460924D01*
X286552Y460824D01*
X286541Y460756D01*
X286541Y459849D01*
X284610Y457918D01*
X284574Y457871D01*
X284532Y457831D01*
X284489Y457758D01*
X284439Y457691D01*
X284418Y457636D01*
X284388Y457586D01*
X284368Y457504D01*
X284337Y457425D01*
X284333Y457367D01*
X284318Y457310D01*
X284321Y457226D01*
X284314Y457142D01*
X284325Y457084D01*
X284327Y457026D01*
X284353Y456946D01*
X284370Y456863D01*
X284397Y456811D01*
X284415Y456755D01*
X284455Y456699D01*
X284501Y456611D01*
X284570Y456538D01*
X284610Y456482D01*
X286541Y454551D01*
X286541Y447149D01*
X284610Y445218D01*
X284574Y445171D01*
X284532Y445131D01*
X284489Y445058D01*
X284439Y444991D01*
X284418Y444936D01*
X284388Y444886D01*
X284368Y444804D01*
X284337Y444725D01*
X284333Y444667D01*
X284318Y444610D01*
X284321Y444526D01*
X284314Y444442D01*
X284325Y444384D01*
X284327Y444326D01*
X284353Y444246D01*
X284370Y444163D01*
X284397Y444111D01*
X284415Y444055D01*
X284455Y443999D01*
X284501Y443911D01*
X284570Y443838D01*
X284610Y443782D01*
X286541Y441851D01*
X286541Y434449D01*
X284610Y432518D01*
X284574Y432471D01*
X284532Y432431D01*
X284489Y432358D01*
X284439Y432291D01*
X284418Y432236D01*
X284388Y432186D01*
X284368Y432104D01*
X284337Y432025D01*
X284333Y431967D01*
X284318Y431910D01*
X284321Y431826D01*
X284314Y431742D01*
X284325Y431684D01*
X284327Y431626D01*
X284353Y431546D01*
X284370Y431463D01*
X284397Y431411D01*
X284415Y431355D01*
X284455Y431299D01*
X284501Y431211D01*
X284570Y431138D01*
X284610Y431082D01*
X286541Y429151D01*
X286541Y421749D01*
X284610Y419818D01*
X284574Y419771D01*
X284532Y419731D01*
X284489Y419658D01*
X284439Y419591D01*
X284418Y419536D01*
X284388Y419486D01*
X284368Y419404D01*
X284337Y419325D01*
X284333Y419267D01*
X284318Y419210D01*
X284321Y419126D01*
X284314Y419042D01*
X284325Y418984D01*
X284327Y418926D01*
X284353Y418846D01*
X284370Y418763D01*
X284397Y418711D01*
X284415Y418655D01*
X284455Y418599D01*
X284501Y418511D01*
X284569Y418438D01*
X284610Y418382D01*
X286541Y416451D01*
X286541Y409049D01*
X284442Y406951D01*
X284413Y406912D01*
X284377Y406879D01*
X284328Y406799D01*
X284271Y406723D01*
X284254Y406678D01*
X284229Y406636D01*
X284204Y406546D01*
X284170Y406458D01*
X284166Y406409D01*
X284153Y406362D01*
X284154Y406268D01*
X284147Y406174D01*
X284156Y406127D01*
X284157Y406078D01*
X284184Y405988D01*
X284202Y405896D01*
X284225Y405852D01*
X284239Y405806D01*
X284290Y405727D01*
X284333Y405643D01*
X284367Y405608D01*
X284394Y405567D01*
X284451Y405520D01*
X284529Y405437D01*
X284604Y405393D01*
X284653Y405353D01*
X285328Y404963D01*
X285913Y404379D01*
X286327Y403662D01*
X286541Y402864D01*
X286541Y401549D01*
X274484Y401549D01*
X274426Y401541D01*
X274368Y401543D01*
X274286Y401521D01*
X274203Y401509D01*
X274149Y401486D01*
X274093Y401471D01*
X274020Y401428D01*
X274001Y401419D01*
X273955Y401450D01*
X273899Y401467D01*
X273847Y401494D01*
X273779Y401505D01*
X273684Y401535D01*
X273584Y401538D01*
X273516Y401549D01*
X261459Y401549D01*
X261459Y402864D01*
X261673Y403662D01*
X262087Y404379D01*
X262672Y404963D01*
X263347Y405353D01*
X263386Y405383D01*
X263429Y405406D01*
X263497Y405471D01*
X263571Y405529D01*
X263600Y405568D01*
X263635Y405602D01*
X263683Y405683D01*
X263738Y405759D01*
X263754Y405805D01*
X263779Y405847D01*
X263802Y405938D01*
X263834Y406027D01*
X263837Y406075D01*
X263849Y406123D01*
X263846Y406216D01*
X263852Y406310D01*
X263842Y406358D01*
X263840Y406407D01*
X263811Y406496D01*
X263791Y406588D01*
X263768Y406631D01*
X263753Y406677D01*
X263710Y406738D01*
X263655Y406838D01*
X263594Y406899D01*
X263558Y406951D01*
X261612Y408896D01*
X261543Y408948D01*
X261479Y409008D01*
X261429Y409034D01*
X261385Y409067D01*
X261304Y409098D01*
X261226Y409138D01*
X261178Y409146D01*
X261120Y409168D01*
X260972Y409180D01*
X260895Y409193D01*
X260212Y409193D01*
X260125Y409181D01*
X260038Y409178D01*
X259985Y409161D01*
X259930Y409153D01*
X259850Y409118D01*
X259767Y409091D01*
X259728Y409063D01*
X259671Y409037D01*
X259558Y408941D01*
X259494Y408896D01*
X212801Y362203D01*
X209006Y362203D01*
X208919Y362191D01*
X208831Y362188D01*
X208779Y362171D01*
X208724Y362163D01*
X208644Y362128D01*
X208561Y362101D01*
X208522Y362073D01*
X208465Y362047D01*
X208351Y361951D01*
X208288Y361906D01*
X206782Y360400D01*
X204458Y359437D01*
X201942Y359437D01*
X199618Y360400D01*
X198330Y361688D01*
X198306Y361706D01*
X198287Y361728D01*
X198193Y361791D01*
X198103Y361859D01*
X198075Y361870D01*
X198051Y361886D01*
X197943Y361920D01*
X197837Y361961D01*
X197808Y361963D01*
X197780Y361972D01*
X197666Y361975D01*
X197554Y361984D01*
X197525Y361978D01*
X197496Y361979D01*
X197386Y361950D01*
X197275Y361928D01*
X197249Y361915D01*
X197221Y361907D01*
X197123Y361850D01*
X197023Y361797D01*
X197001Y361777D01*
X196976Y361762D01*
X196899Y361680D01*
X196817Y361601D01*
X196802Y361576D01*
X196782Y361555D01*
X196730Y361454D01*
X196673Y361356D01*
X196666Y361328D01*
X196652Y361302D01*
X196639Y361224D01*
X196603Y361081D01*
X196605Y361018D01*
X196597Y360971D01*
X196597Y189637D01*
X196601Y189607D01*
X196599Y189576D01*
X196616Y189499D01*
X196637Y189356D01*
X196663Y189297D01*
X196674Y189249D01*
X197391Y187518D01*
X197391Y183982D01*
X196037Y180714D01*
X193536Y178213D01*
X190268Y176859D01*
X186732Y176859D01*
G37*
%LPD*%
%LPC*%
G36*
X109732Y176859D02*
X109732Y176859D01*
X106464Y178213D01*
X103963Y180714D01*
X102609Y183982D01*
X102609Y187518D01*
X103963Y190786D01*
X106464Y193287D01*
X109732Y194641D01*
X113268Y194641D01*
X114121Y194288D01*
X114123Y194287D01*
X114124Y194286D01*
X114257Y194252D01*
X114396Y194217D01*
X114398Y194217D01*
X114400Y194216D01*
X114540Y194221D01*
X114681Y194225D01*
X114682Y194225D01*
X114684Y194225D01*
X114818Y194269D01*
X114951Y194311D01*
X114953Y194312D01*
X114954Y194313D01*
X114967Y194322D01*
X115188Y194470D01*
X115207Y194493D01*
X115228Y194508D01*
X174962Y254242D01*
X175014Y254312D01*
X175074Y254376D01*
X175100Y254425D01*
X175133Y254469D01*
X175164Y254551D01*
X175204Y254629D01*
X175212Y254676D01*
X175234Y254735D01*
X175246Y254882D01*
X175259Y254960D01*
X175259Y359954D01*
X175247Y360041D01*
X175244Y360129D01*
X175227Y360181D01*
X175219Y360236D01*
X175184Y360316D01*
X175157Y360399D01*
X175129Y360438D01*
X175103Y360495D01*
X175007Y360609D01*
X174962Y360672D01*
X173456Y362178D01*
X172493Y364502D01*
X172493Y367018D01*
X173456Y369342D01*
X175234Y371120D01*
X177558Y372083D01*
X180074Y372083D01*
X182398Y371120D01*
X184176Y369342D01*
X185139Y367018D01*
X185139Y364502D01*
X184176Y362178D01*
X182670Y360672D01*
X182618Y360603D01*
X182558Y360539D01*
X182532Y360489D01*
X182499Y360445D01*
X182468Y360363D01*
X182428Y360286D01*
X182420Y360238D01*
X182398Y360180D01*
X182386Y360032D01*
X182373Y359954D01*
X182373Y251593D01*
X120258Y189478D01*
X120257Y189476D01*
X120255Y189475D01*
X120166Y189356D01*
X120087Y189250D01*
X120086Y189249D01*
X120085Y189248D01*
X120035Y189114D01*
X119985Y188985D01*
X119985Y188983D01*
X119985Y188982D01*
X119974Y188842D01*
X119962Y188701D01*
X119962Y188700D01*
X119962Y188698D01*
X119965Y188684D01*
X120018Y188423D01*
X120032Y188396D01*
X120038Y188371D01*
X120391Y187518D01*
X120391Y183982D01*
X119037Y180714D01*
X116536Y178213D01*
X113268Y176859D01*
X109732Y176859D01*
G37*
%LPD*%
%LPC*%
G36*
X253307Y278919D02*
X253307Y278919D01*
X245559Y282129D01*
X239629Y288059D01*
X236419Y295807D01*
X236419Y304193D01*
X239629Y311941D01*
X245559Y317871D01*
X253307Y321081D01*
X261693Y321081D01*
X269441Y317871D01*
X275371Y311941D01*
X278581Y304193D01*
X278581Y295807D01*
X275371Y288059D01*
X269441Y282129D01*
X261693Y278919D01*
X253307Y278919D01*
G37*
%LPD*%
%LPC*%
G36*
X338307Y278919D02*
X338307Y278919D01*
X330559Y282129D01*
X324629Y288059D01*
X321419Y295807D01*
X321419Y304193D01*
X324629Y311941D01*
X330559Y317871D01*
X338307Y321081D01*
X346693Y321081D01*
X354441Y317871D01*
X360371Y311941D01*
X363581Y304193D01*
X363581Y295807D01*
X360371Y288059D01*
X354441Y282129D01*
X346693Y278919D01*
X338307Y278919D01*
G37*
%LPD*%
%LPC*%
G36*
X285820Y333915D02*
X285820Y333915D01*
X284331Y335404D01*
X284331Y357508D01*
X285820Y358997D01*
X286884Y358997D01*
X286937Y359004D01*
X286991Y359002D01*
X287077Y359024D01*
X287166Y359037D01*
X287214Y359058D01*
X287266Y359071D01*
X287343Y359116D01*
X287425Y359153D01*
X287466Y359187D01*
X287512Y359214D01*
X287574Y359279D01*
X287642Y359336D01*
X287672Y359381D01*
X287709Y359420D01*
X287750Y359499D01*
X287800Y359573D01*
X287816Y359624D01*
X287841Y359672D01*
X287853Y359742D01*
X287885Y359844D01*
X287888Y359937D01*
X287899Y360002D01*
X287960Y366258D01*
X287952Y366321D01*
X287954Y366384D01*
X287934Y366461D01*
X287923Y366540D01*
X287898Y366598D01*
X287882Y366659D01*
X287841Y366728D01*
X287810Y366801D01*
X287769Y366849D01*
X287737Y366904D01*
X287679Y366958D01*
X287628Y367019D01*
X287576Y367055D01*
X287529Y367098D01*
X287459Y367135D01*
X287393Y367179D01*
X287333Y367199D01*
X287276Y367228D01*
X287211Y367239D01*
X287123Y367268D01*
X287016Y367271D01*
X286945Y367283D01*
X284227Y367283D01*
X284087Y367264D01*
X284009Y367260D01*
X283535Y367155D01*
X282904Y367268D01*
X282797Y367271D01*
X282726Y367283D01*
X282084Y367283D01*
X281636Y367469D01*
X281500Y367504D01*
X281426Y367530D01*
X280948Y367615D01*
X280408Y367961D01*
X280311Y368005D01*
X280250Y368043D01*
X279657Y368289D01*
X279314Y368632D01*
X279201Y368716D01*
X279143Y368769D01*
X278734Y369030D01*
X278367Y369556D01*
X278294Y369635D01*
X278253Y369693D01*
X277799Y370147D01*
X277613Y370594D01*
X277542Y370716D01*
X277508Y370787D01*
X270116Y381375D01*
X270093Y381400D01*
X270075Y381430D01*
X269996Y381504D01*
X269922Y381583D01*
X269893Y381601D01*
X269868Y381624D01*
X269771Y381674D01*
X269679Y381729D01*
X269645Y381738D01*
X269615Y381754D01*
X269537Y381767D01*
X269404Y381802D01*
X269335Y381801D01*
X269284Y381809D01*
X263299Y381809D01*
X261459Y383649D01*
X261459Y391051D01*
X263558Y393149D01*
X263587Y393188D01*
X263623Y393221D01*
X263672Y393301D01*
X263729Y393377D01*
X263746Y393422D01*
X263771Y393464D01*
X263796Y393554D01*
X263830Y393642D01*
X263834Y393691D01*
X263847Y393738D01*
X263846Y393832D01*
X263853Y393926D01*
X263844Y393973D01*
X263843Y394022D01*
X263816Y394112D01*
X263798Y394204D01*
X263775Y394248D01*
X263761Y394294D01*
X263710Y394373D01*
X263667Y394457D01*
X263633Y394492D01*
X263606Y394533D01*
X263549Y394580D01*
X263471Y394663D01*
X263396Y394707D01*
X263347Y394747D01*
X262672Y395137D01*
X262087Y395721D01*
X261673Y396438D01*
X261459Y397236D01*
X261459Y398551D01*
X273516Y398551D01*
X273574Y398559D01*
X273632Y398557D01*
X273714Y398579D01*
X273797Y398591D01*
X273851Y398614D01*
X273907Y398629D01*
X273980Y398672D01*
X273999Y398681D01*
X274045Y398650D01*
X274101Y398633D01*
X274153Y398606D01*
X274221Y398595D01*
X274316Y398565D01*
X274416Y398562D01*
X274484Y398551D01*
X286541Y398551D01*
X286541Y397236D01*
X286327Y396438D01*
X285913Y395721D01*
X285328Y395137D01*
X284653Y394747D01*
X284614Y394717D01*
X284571Y394694D01*
X284503Y394629D01*
X284429Y394571D01*
X284400Y394532D01*
X284365Y394498D01*
X284317Y394417D01*
X284262Y394341D01*
X284246Y394295D01*
X284221Y394253D01*
X284198Y394162D01*
X284166Y394073D01*
X284163Y394025D01*
X284151Y393977D01*
X284154Y393884D01*
X284148Y393790D01*
X284158Y393742D01*
X284160Y393693D01*
X284189Y393604D01*
X284209Y393512D01*
X284232Y393469D01*
X284247Y393423D01*
X284290Y393362D01*
X284345Y393262D01*
X284406Y393201D01*
X284442Y393149D01*
X286541Y391051D01*
X286541Y383649D01*
X286022Y383130D01*
X285955Y383041D01*
X285883Y382957D01*
X285870Y382928D01*
X285851Y382903D01*
X285811Y382799D01*
X285766Y382698D01*
X285761Y382667D01*
X285750Y382638D01*
X285741Y382527D01*
X285725Y382416D01*
X285729Y382385D01*
X285726Y382354D01*
X285748Y382245D01*
X285764Y382135D01*
X285776Y382109D01*
X285782Y382076D01*
X285891Y381866D01*
X285908Y381831D01*
X286539Y380927D01*
X286562Y380902D01*
X286580Y380872D01*
X286659Y380798D01*
X286733Y380719D01*
X286762Y380701D01*
X286787Y380678D01*
X286884Y380628D01*
X286977Y380573D01*
X287010Y380564D01*
X287040Y380548D01*
X287118Y380535D01*
X287251Y380500D01*
X287320Y380501D01*
X287372Y380493D01*
X293163Y380493D01*
X293189Y380496D01*
X293214Y380494D01*
X293271Y380506D01*
X294668Y380493D01*
X294673Y380493D01*
X294678Y380493D01*
X295987Y380493D01*
X297193Y379979D01*
X297199Y379978D01*
X297203Y379975D01*
X298412Y379474D01*
X299330Y378539D01*
X299334Y378536D01*
X299337Y378532D01*
X300263Y377606D01*
X300752Y376392D01*
X300755Y376387D01*
X300756Y376382D01*
X301258Y375171D01*
X301245Y373861D01*
X301245Y373856D01*
X301245Y373851D01*
X301245Y372483D01*
X301236Y372450D01*
X301238Y372391D01*
X301230Y372346D01*
X301110Y360022D01*
X301118Y359959D01*
X301116Y359896D01*
X301136Y359819D01*
X301147Y359740D01*
X301172Y359682D01*
X301188Y359621D01*
X301229Y359552D01*
X301260Y359479D01*
X301301Y359431D01*
X301333Y359376D01*
X301391Y359322D01*
X301442Y359261D01*
X301494Y359225D01*
X301541Y359182D01*
X301611Y359145D01*
X301677Y359101D01*
X301737Y359081D01*
X301794Y359052D01*
X301859Y359041D01*
X301947Y359012D01*
X302054Y359009D01*
X302125Y358997D01*
X302924Y358997D01*
X304413Y357508D01*
X304413Y335404D01*
X302924Y333915D01*
X285820Y333915D01*
G37*
%LPD*%
%LPC*%
G36*
X506006Y279919D02*
X506006Y279919D01*
X498625Y282976D01*
X492976Y288625D01*
X489919Y296006D01*
X489919Y303994D01*
X492976Y311375D01*
X498625Y317024D01*
X506006Y320081D01*
X513994Y320081D01*
X521375Y317024D01*
X527024Y311375D01*
X530081Y303994D01*
X530081Y296006D01*
X527024Y288625D01*
X521375Y282976D01*
X513994Y279919D01*
X506006Y279919D01*
G37*
%LPD*%
%LPC*%
G36*
X86006Y279919D02*
X86006Y279919D01*
X78625Y282976D01*
X72976Y288625D01*
X69919Y296006D01*
X69919Y303994D01*
X72976Y311375D01*
X78625Y317024D01*
X86006Y320081D01*
X93994Y320081D01*
X101375Y317024D01*
X107024Y311375D01*
X110081Y303994D01*
X110081Y296006D01*
X107024Y288625D01*
X101375Y282976D01*
X93994Y279919D01*
X86006Y279919D01*
G37*
%LPD*%
%LPC*%
G36*
X446503Y417419D02*
X446503Y417419D01*
X440041Y420096D01*
X435096Y425041D01*
X432419Y431503D01*
X432419Y438497D01*
X435096Y444959D01*
X440041Y449904D01*
X446503Y452581D01*
X453497Y452581D01*
X459959Y449904D01*
X464904Y444959D01*
X467581Y438497D01*
X467581Y431503D01*
X464904Y425041D01*
X459959Y420096D01*
X453497Y417419D01*
X446503Y417419D01*
G37*
%LPD*%
%LPC*%
G36*
X446503Y147419D02*
X446503Y147419D01*
X440041Y150096D01*
X435096Y155041D01*
X432419Y161503D01*
X432419Y168497D01*
X435096Y174959D01*
X440041Y179904D01*
X446503Y182581D01*
X453497Y182581D01*
X459959Y179904D01*
X464904Y174959D01*
X467581Y168497D01*
X467581Y161503D01*
X464904Y155041D01*
X459959Y150096D01*
X453497Y147419D01*
X446503Y147419D01*
G37*
%LPD*%
%LPC*%
G36*
X146503Y147419D02*
X146503Y147419D01*
X140041Y150096D01*
X135096Y155041D01*
X132419Y161503D01*
X132419Y168497D01*
X135096Y174959D01*
X140041Y179904D01*
X146503Y182581D01*
X153497Y182581D01*
X159959Y179904D01*
X164904Y174959D01*
X167581Y168497D01*
X167581Y161503D01*
X164904Y155041D01*
X159959Y150096D01*
X153497Y147419D01*
X146503Y147419D01*
G37*
%LPD*%
%LPC*%
G36*
X146503Y417419D02*
X146503Y417419D01*
X140041Y420096D01*
X135096Y425041D01*
X132419Y431503D01*
X132419Y438497D01*
X135096Y444959D01*
X140041Y449904D01*
X146503Y452581D01*
X153497Y452581D01*
X159959Y449904D01*
X164904Y444959D01*
X167581Y438497D01*
X167581Y431503D01*
X164904Y425041D01*
X159959Y420096D01*
X153497Y417419D01*
X146503Y417419D01*
G37*
%LPD*%
%LPC*%
G36*
X561602Y432919D02*
X561602Y432919D01*
X555324Y435520D01*
X550520Y440324D01*
X547919Y446602D01*
X547919Y453398D01*
X550520Y459676D01*
X555324Y464480D01*
X561602Y467081D01*
X568398Y467081D01*
X574676Y464480D01*
X579480Y459676D01*
X582081Y453398D01*
X582081Y446602D01*
X579480Y440324D01*
X574676Y435520D01*
X568398Y432919D01*
X561602Y432919D01*
G37*
%LPD*%
%LPC*%
G36*
X561602Y132919D02*
X561602Y132919D01*
X555324Y135520D01*
X550520Y140324D01*
X547919Y146602D01*
X547919Y153398D01*
X550520Y159676D01*
X555324Y164480D01*
X561602Y167081D01*
X568398Y167081D01*
X574676Y164480D01*
X579480Y159676D01*
X582081Y153398D01*
X582081Y146602D01*
X579480Y140324D01*
X574676Y135520D01*
X568398Y132919D01*
X561602Y132919D01*
G37*
%LPD*%
%LPC*%
G36*
X31602Y432919D02*
X31602Y432919D01*
X25324Y435520D01*
X20520Y440324D01*
X17919Y446602D01*
X17919Y453398D01*
X20520Y459676D01*
X25324Y464480D01*
X31602Y467081D01*
X38398Y467081D01*
X44676Y464480D01*
X49480Y459676D01*
X52081Y453398D01*
X52081Y446602D01*
X49480Y440324D01*
X44676Y435520D01*
X38398Y432919D01*
X31602Y432919D01*
G37*
%LPD*%
%LPC*%
G36*
X31602Y132919D02*
X31602Y132919D01*
X25324Y135520D01*
X20520Y140324D01*
X17919Y146602D01*
X17919Y153398D01*
X20520Y159676D01*
X25324Y164480D01*
X31602Y167081D01*
X38398Y167081D01*
X44676Y164480D01*
X49480Y159676D01*
X52081Y153398D01*
X52081Y146602D01*
X49480Y140324D01*
X44676Y135520D01*
X38398Y132919D01*
X31602Y132919D01*
G37*
%LPD*%
%LPC*%
G36*
X531702Y368419D02*
X531702Y368419D01*
X525608Y370944D01*
X520944Y375608D01*
X518419Y381702D01*
X518419Y388298D01*
X520944Y394392D01*
X525608Y399056D01*
X531702Y401581D01*
X538298Y401581D01*
X544392Y399056D01*
X549056Y394392D01*
X551581Y388298D01*
X551581Y381702D01*
X549056Y375608D01*
X544392Y370944D01*
X538298Y368419D01*
X531702Y368419D01*
G37*
%LPD*%
%LPC*%
G36*
X61702Y368419D02*
X61702Y368419D01*
X55608Y370944D01*
X50944Y375608D01*
X48419Y381702D01*
X48419Y388298D01*
X50944Y394392D01*
X55608Y399056D01*
X61702Y401581D01*
X68298Y401581D01*
X74392Y399056D01*
X79056Y394392D01*
X81581Y388298D01*
X81581Y381702D01*
X79056Y375608D01*
X74392Y370944D01*
X68298Y368419D01*
X61702Y368419D01*
G37*
%LPD*%
%LPC*%
G36*
X531702Y198419D02*
X531702Y198419D01*
X525608Y200944D01*
X520944Y205608D01*
X518419Y211702D01*
X518419Y218298D01*
X520944Y224392D01*
X525608Y229056D01*
X531702Y231581D01*
X538298Y231581D01*
X544392Y229056D01*
X549056Y224392D01*
X551581Y218298D01*
X551581Y211702D01*
X549056Y205608D01*
X544392Y200944D01*
X538298Y198419D01*
X531702Y198419D01*
G37*
%LPD*%
%LPC*%
G36*
X61702Y198419D02*
X61702Y198419D01*
X55608Y200944D01*
X50944Y205608D01*
X48419Y211702D01*
X48419Y218298D01*
X50944Y224392D01*
X55608Y229056D01*
X61702Y231581D01*
X68298Y231581D01*
X74392Y229056D01*
X79056Y224392D01*
X81581Y218298D01*
X81581Y211702D01*
X79056Y205608D01*
X74392Y200944D01*
X68298Y198419D01*
X61702Y198419D01*
G37*
%LPD*%
%LPC*%
G36*
X326920Y66039D02*
X326920Y66039D01*
X321563Y71396D01*
X321563Y78972D01*
X326920Y84329D01*
X334496Y84329D01*
X339853Y78972D01*
X339853Y71396D01*
X334496Y66039D01*
X326920Y66039D01*
G37*
%LPD*%
%LPC*%
G36*
X250720Y66039D02*
X250720Y66039D01*
X245363Y71396D01*
X245363Y78972D01*
X250720Y84329D01*
X258296Y84329D01*
X263653Y78972D01*
X263653Y71396D01*
X258296Y66039D01*
X250720Y66039D01*
G37*
%LPD*%
%LPC*%
G36*
X166680Y37785D02*
X166680Y37785D01*
X163318Y39177D01*
X160746Y41750D01*
X159354Y45111D01*
X159354Y48749D01*
X160746Y52110D01*
X163318Y54683D01*
X166680Y56075D01*
X170317Y56075D01*
X173679Y54683D01*
X176251Y52110D01*
X177643Y48749D01*
X177643Y45111D01*
X176251Y41750D01*
X173679Y39177D01*
X170317Y37785D01*
X166680Y37785D01*
G37*
%LPD*%
%LPC*%
G36*
X444682Y37785D02*
X444682Y37785D01*
X441321Y39177D01*
X438749Y41750D01*
X437357Y45111D01*
X437357Y48749D01*
X438749Y52110D01*
X441321Y54683D01*
X444682Y56075D01*
X448320Y56075D01*
X451682Y54683D01*
X454254Y52110D01*
X455646Y48749D01*
X455646Y45111D01*
X454254Y41750D01*
X451682Y39177D01*
X448320Y37785D01*
X444682Y37785D01*
G37*
%LPD*%
%LPC*%
G36*
X358407Y529335D02*
X358407Y529335D01*
X358407Y539845D01*
X364210Y539845D01*
X364857Y539672D01*
X365436Y539337D01*
X365909Y538864D01*
X366244Y538285D01*
X366417Y537638D01*
X366417Y529335D01*
X358407Y529335D01*
G37*
%LPD*%
%LPC*%
G36*
X326403Y348487D02*
X326403Y348487D01*
X326403Y358997D01*
X332206Y358997D01*
X332853Y358824D01*
X333432Y358489D01*
X333905Y358016D01*
X334240Y357437D01*
X334413Y356790D01*
X334413Y348487D01*
X326403Y348487D01*
G37*
%LPD*%
%LPC*%
G36*
X358407Y514763D02*
X358407Y514763D01*
X358407Y525273D01*
X366417Y525273D01*
X366417Y516970D01*
X366244Y516323D01*
X365909Y515744D01*
X365436Y515271D01*
X364857Y514936D01*
X364210Y514763D01*
X358407Y514763D01*
G37*
%LPD*%
%LPC*%
G36*
X326403Y333915D02*
X326403Y333915D01*
X326403Y344425D01*
X334413Y344425D01*
X334413Y336122D01*
X334240Y335475D01*
X333905Y334896D01*
X333432Y334423D01*
X332853Y334088D01*
X332206Y333915D01*
X326403Y333915D01*
G37*
%LPD*%
%LPC*%
G36*
X346335Y529335D02*
X346335Y529335D01*
X346335Y537638D01*
X346508Y538285D01*
X346843Y538864D01*
X347316Y539337D01*
X347895Y539672D01*
X348542Y539845D01*
X354345Y539845D01*
X354345Y529335D01*
X346335Y529335D01*
G37*
%LPD*%
%LPC*%
G36*
X314331Y348487D02*
X314331Y348487D01*
X314331Y356790D01*
X314504Y357437D01*
X314839Y358016D01*
X315312Y358489D01*
X315891Y358824D01*
X316538Y358997D01*
X322341Y358997D01*
X322341Y348487D01*
X314331Y348487D01*
G37*
%LPD*%
%LPC*%
G36*
X348542Y514763D02*
X348542Y514763D01*
X347895Y514936D01*
X347316Y515271D01*
X346843Y515744D01*
X346508Y516323D01*
X346335Y516970D01*
X346335Y525273D01*
X354345Y525273D01*
X354345Y514763D01*
X348542Y514763D01*
G37*
%LPD*%
%LPC*%
G36*
X316538Y333915D02*
X316538Y333915D01*
X315891Y334088D01*
X315312Y334423D01*
X314839Y334896D01*
X314504Y335475D01*
X314331Y336122D01*
X314331Y344425D01*
X322341Y344425D01*
X322341Y333915D01*
X316538Y333915D01*
G37*
%LPD*%
%LPC*%
G36*
X492531Y582031D02*
X492531Y582031D01*
X492531Y591766D01*
X493296Y591645D01*
X495083Y591064D01*
X496757Y590211D01*
X498278Y589106D01*
X499606Y587778D01*
X500711Y586257D01*
X501564Y584583D01*
X502145Y582796D01*
X502266Y582031D01*
X492531Y582031D01*
G37*
%LPD*%
%LPC*%
G36*
X492531Y577969D02*
X492531Y577969D01*
X502266Y577969D01*
X502145Y577204D01*
X501564Y575417D01*
X500711Y573743D01*
X499606Y572222D01*
X498278Y570894D01*
X496757Y569789D01*
X495083Y568936D01*
X493296Y568355D01*
X492531Y568234D01*
X492531Y577969D01*
G37*
%LPD*%
%LPC*%
G36*
X465779Y68402D02*
X465779Y68402D01*
X465831Y68423D01*
X467598Y68775D01*
X469399Y68775D01*
X471166Y68423D01*
X472830Y67734D01*
X474328Y66733D01*
X475211Y65851D01*
X469242Y62405D01*
X465779Y68402D01*
G37*
%LPD*%
%LPC*%
G36*
X149276Y60373D02*
X149276Y60373D01*
X152722Y66342D01*
X153605Y65460D01*
X154605Y63962D01*
X155295Y62297D01*
X155646Y60531D01*
X155646Y58729D01*
X155295Y56963D01*
X155273Y56911D01*
X149276Y60373D01*
G37*
%LPD*%
%LPC*%
G36*
X471273Y58887D02*
X471273Y58887D01*
X477270Y62349D01*
X477292Y62297D01*
X477643Y60531D01*
X477643Y58729D01*
X477292Y56963D01*
X476602Y55298D01*
X475602Y53800D01*
X474719Y52918D01*
X471273Y58887D01*
G37*
%LPD*%
%LPC*%
G36*
X139789Y65851D02*
X139789Y65851D01*
X140672Y66733D01*
X142170Y67734D01*
X143834Y68423D01*
X145601Y68775D01*
X147402Y68775D01*
X149169Y68423D01*
X149220Y68402D01*
X145758Y62405D01*
X139789Y65851D01*
G37*
%LPD*%
%LPC*%
G36*
X139398Y53800D02*
X139398Y53800D01*
X138397Y55298D01*
X137708Y56963D01*
X137357Y58729D01*
X137357Y60531D01*
X137708Y62298D01*
X137730Y62349D01*
X143727Y58887D01*
X140281Y52918D01*
X139398Y53800D01*
G37*
%LPD*%
%LPC*%
G36*
X467598Y50485D02*
X467598Y50485D01*
X465831Y50837D01*
X464167Y51526D01*
X462669Y52527D01*
X461786Y53409D01*
X467755Y56855D01*
X471218Y50858D01*
X471166Y50837D01*
X469399Y50485D01*
X467598Y50485D01*
G37*
%LPD*%
%LPC*%
G36*
X459705Y56962D02*
X459705Y56962D01*
X459354Y58729D01*
X459354Y60531D01*
X459705Y62297D01*
X460395Y63962D01*
X461395Y65460D01*
X462278Y66342D01*
X465724Y60373D01*
X459727Y56911D01*
X459705Y56962D01*
G37*
%LPD*%
%LPC*%
G36*
X145601Y50485D02*
X145601Y50485D01*
X143834Y50837D01*
X143782Y50858D01*
X147245Y56855D01*
X153213Y53409D01*
X152331Y52527D01*
X150833Y51526D01*
X149169Y50837D01*
X147402Y50485D01*
X145601Y50485D01*
G37*
%LPD*%
%LPC*%
G36*
X468497Y59630D02*
X468497Y59630D01*
X468499Y59631D01*
X468500Y59630D01*
X468498Y59629D01*
X468497Y59630D01*
G37*
%LPD*%
%LPC*%
G36*
X146500Y59630D02*
X146500Y59630D01*
X146501Y59631D01*
X146503Y59630D01*
X146502Y59629D01*
X146500Y59630D01*
G37*
%LPD*%
%LPC*%
G36*
X356375Y527303D02*
X356375Y527303D01*
X356375Y527305D01*
X356377Y527305D01*
X356377Y527303D01*
X356375Y527303D01*
G37*
%LPD*%
%LPC*%
G36*
X324371Y346455D02*
X324371Y346455D01*
X324371Y346457D01*
X324373Y346457D01*
X324373Y346455D01*
X324371Y346455D01*
G37*
%LPD*%
D10*
X188500Y414250D03*
X188500Y185750D03*
X111500Y185750D03*
X111500Y414250D03*
X411500Y185750D03*
X411500Y414250D03*
X488500Y414250D03*
X488500Y185750D03*
D11*
X490500Y580000D03*
X465100Y580000D03*
X439700Y580000D03*
X414300Y580000D03*
X388900Y580000D03*
X363500Y580000D03*
X338100Y580000D03*
X312700Y580000D03*
X287300Y580000D03*
X261900Y580000D03*
X236500Y580000D03*
X211100Y580000D03*
X185700Y580000D03*
X160300Y580000D03*
X134900Y580000D03*
X109500Y580000D03*
D12*
X264600Y465950D02*
X264600Y461150D01*
X264600Y465950D02*
X283400Y465950D01*
X283400Y461150D01*
X264600Y461150D01*
X264600Y462349D02*
X283400Y462349D01*
X283400Y463548D02*
X264600Y463548D01*
X264600Y464747D02*
X283400Y464747D01*
X283400Y465946D02*
X264600Y465946D01*
X316600Y440550D02*
X316600Y435750D01*
X316600Y440550D02*
X335400Y440550D01*
X335400Y435750D01*
X316600Y435750D01*
X316600Y436949D02*
X335400Y436949D01*
X335400Y438148D02*
X316600Y438148D01*
X316600Y439347D02*
X335400Y439347D01*
X335400Y440546D02*
X316600Y440546D01*
X264600Y473850D02*
X264600Y478650D01*
X283400Y478650D01*
X283400Y473850D01*
X264600Y473850D01*
X264600Y475049D02*
X283400Y475049D01*
X283400Y476248D02*
X264600Y476248D01*
X264600Y477447D02*
X283400Y477447D01*
X283400Y478646D02*
X264600Y478646D01*
X264600Y453250D02*
X264600Y448450D01*
X264600Y453250D02*
X283400Y453250D01*
X283400Y448450D01*
X264600Y448450D01*
X264600Y449649D02*
X283400Y449649D01*
X283400Y450848D02*
X264600Y450848D01*
X264600Y452047D02*
X283400Y452047D01*
X283400Y453246D02*
X264600Y453246D01*
X264600Y440550D02*
X264600Y435750D01*
X264600Y440550D02*
X283400Y440550D01*
X283400Y435750D01*
X264600Y435750D01*
X264600Y436949D02*
X283400Y436949D01*
X283400Y438148D02*
X264600Y438148D01*
X264600Y439347D02*
X283400Y439347D01*
X283400Y440546D02*
X264600Y440546D01*
X316600Y448450D02*
X316600Y453250D01*
X335400Y453250D01*
X335400Y448450D01*
X316600Y448450D01*
X316600Y449649D02*
X335400Y449649D01*
X335400Y450848D02*
X316600Y450848D01*
X316600Y452047D02*
X335400Y452047D01*
X335400Y453246D02*
X316600Y453246D01*
X316600Y427850D02*
X316600Y423050D01*
X316600Y427850D02*
X335400Y427850D01*
X335400Y423050D01*
X316600Y423050D01*
X316600Y424249D02*
X335400Y424249D01*
X335400Y425448D02*
X316600Y425448D01*
X316600Y426647D02*
X335400Y426647D01*
X335400Y427846D02*
X316600Y427846D01*
X316600Y415150D02*
X316600Y410350D01*
X316600Y415150D02*
X335400Y415150D01*
X335400Y410350D01*
X316600Y410350D01*
X316600Y411549D02*
X335400Y411549D01*
X335400Y412748D02*
X316600Y412748D01*
X316600Y413947D02*
X335400Y413947D01*
X335400Y415146D02*
X316600Y415146D01*
X264600Y415150D02*
X264600Y410350D01*
X264600Y415150D02*
X283400Y415150D01*
X283400Y410350D01*
X264600Y410350D01*
X264600Y411549D02*
X283400Y411549D01*
X283400Y412748D02*
X264600Y412748D01*
X264600Y413947D02*
X283400Y413947D01*
X283400Y415146D02*
X264600Y415146D01*
X316600Y389750D02*
X316600Y384950D01*
X316600Y389750D02*
X335400Y389750D01*
X335400Y384950D01*
X316600Y384950D01*
X316600Y386149D02*
X335400Y386149D01*
X335400Y387348D02*
X316600Y387348D01*
X316600Y388547D02*
X335400Y388547D01*
X335400Y389746D02*
X316600Y389746D01*
X264600Y423050D02*
X264600Y427850D01*
X283400Y427850D01*
X283400Y423050D01*
X264600Y423050D01*
X264600Y424249D02*
X283400Y424249D01*
X283400Y425448D02*
X264600Y425448D01*
X264600Y426647D02*
X283400Y426647D01*
X283400Y427846D02*
X264600Y427846D01*
X264600Y402450D02*
X264600Y397650D01*
X264600Y402450D02*
X283400Y402450D01*
X283400Y397650D01*
X264600Y397650D01*
X264600Y398849D02*
X283400Y398849D01*
X283400Y400048D02*
X264600Y400048D01*
X264600Y401247D02*
X283400Y401247D01*
X283400Y402446D02*
X264600Y402446D01*
X316600Y402450D02*
X316600Y397650D01*
X316600Y402450D02*
X335400Y402450D01*
X335400Y397650D01*
X316600Y397650D01*
X316600Y398849D02*
X335400Y398849D01*
X335400Y400048D02*
X316600Y400048D01*
X316600Y401247D02*
X335400Y401247D01*
X335400Y402446D02*
X316600Y402446D01*
X264600Y389750D02*
X264600Y384950D01*
X264600Y389750D02*
X283400Y389750D01*
X283400Y384950D01*
X264600Y384950D01*
X264600Y386149D02*
X283400Y386149D01*
X283400Y387348D02*
X264600Y387348D01*
X264600Y388547D02*
X283400Y388547D01*
X283400Y389746D02*
X264600Y389746D01*
X316600Y461150D02*
X316600Y465950D01*
X335400Y465950D01*
X335400Y461150D01*
X316600Y461150D01*
X316600Y462349D02*
X335400Y462349D01*
X335400Y463548D02*
X316600Y463548D01*
X316600Y464747D02*
X335400Y464747D01*
X335400Y465946D02*
X316600Y465946D01*
X316600Y473850D02*
X316600Y478650D01*
X335400Y478650D01*
X335400Y473850D01*
X316600Y473850D01*
X316600Y475049D02*
X335400Y475049D01*
X335400Y476248D02*
X316600Y476248D01*
X316600Y477447D02*
X335400Y477447D01*
X335400Y478646D02*
X316600Y478646D01*
D13*
X372364Y459892D03*
X372364Y478892D03*
D14*
X326376Y527304D03*
X356376Y527304D03*
X294372Y346456D03*
X324372Y346456D03*
D15*
X168499Y46930D03*
X146501Y59630D03*
X446501Y46930D03*
X468499Y59630D03*
D16*
X254508Y75184D03*
X330708Y75184D03*
D17*
X274000Y412750D02*
X258318Y412750D01*
X211328Y365760D02*
X203200Y365760D01*
D18*
X203200Y365760D03*
X178816Y365760D03*
D17*
X178816Y253066D01*
X111500Y185750D01*
X211328Y365760D02*
X258318Y412750D01*
X273238Y424688D02*
X274000Y425450D01*
X273238Y424688D02*
X256032Y424688D01*
X215392Y384048D01*
X207264Y384048D01*
X193040Y369824D01*
X193040Y190290D02*
X188500Y185750D01*
X193040Y190290D02*
X193040Y369824D01*
X188500Y414250D02*
X229338Y414250D01*
D19*
X235712Y420624D02*
X235712Y426720D01*
D18*
X235712Y426720D03*
X235712Y447040D03*
D17*
X239522Y450850D01*
X274000Y450850D01*
X235712Y420624D02*
X229338Y414250D01*
X326000Y412750D02*
X326254Y412496D01*
X345440Y412496D01*
X410464Y347472D01*
X410464Y188976D02*
X411500Y185750D01*
X410464Y188976D02*
X410464Y347472D01*
X335280Y424688D02*
X326000Y425450D01*
X414528Y349504D02*
X414528Y262128D01*
X414528Y349504D02*
X339344Y424688D01*
X414528Y262128D02*
X488800Y187348D01*
X488500Y185750D01*
X339344Y424688D02*
X335280Y424688D01*
X341376Y451104D02*
X326000Y450850D01*
X341376Y451104D02*
X367792Y424688D01*
X422656Y424688D01*
X483616Y410464D02*
X488500Y414250D01*
X483616Y410464D02*
X436880Y410464D01*
X422656Y424688D01*
X348234Y438150D02*
X326000Y438150D01*
X348234Y438150D02*
X367792Y418592D01*
X405982Y418592D01*
X411500Y414250D01*
X292608Y471424D02*
X292608Y570992D01*
X291728Y573904D01*
X287300Y580000D01*
X282448Y465328D02*
X274000Y463550D01*
X282448Y465328D02*
X286512Y465328D01*
X292608Y471424D01*
X288544Y489712D02*
X274000Y476250D01*
X288544Y558800D02*
X284480Y562864D01*
X274320Y562864D01*
X261900Y580000D01*
X288544Y558800D02*
X288544Y489712D01*
X325746Y400304D02*
X326000Y400050D01*
X325746Y400304D02*
X316992Y400304D01*
X308864Y408432D01*
X308864Y558800D02*
X312928Y562864D01*
X327152Y562864D02*
X337312Y573024D01*
X308864Y558800D02*
X308864Y408432D01*
X312928Y562864D02*
X327152Y562864D01*
X337312Y579212D02*
X338100Y580000D01*
X337312Y579212D02*
X337312Y573024D01*
X326000Y387350D02*
X315722Y387350D01*
X304800Y398272D01*
X304800Y572100D02*
X312700Y580000D01*
X304800Y572100D02*
X304800Y398272D01*
X326000Y463550D02*
X372334Y463550D01*
X372364Y459892D01*
D20*
X372364Y478892D02*
X371966Y479126D01*
X367792Y481584D01*
D21*
X327270Y477520D02*
X326000Y476250D01*
X327270Y477520D02*
X327270Y499872D01*
X327152Y501904D01*
D18*
X327152Y501904D03*
X294640Y373888D03*
D21*
X283398Y373888D01*
X274000Y387350D01*
X294640Y373888D02*
X294372Y346456D01*
X327270Y518038D02*
X326376Y527304D01*
X327270Y518038D02*
X327270Y499872D01*
D20*
X326000Y476250D02*
X369090Y476250D01*
X371966Y479126D01*
D21*
X160528Y475488D02*
X160300Y580000D01*
D18*
X160528Y475488D03*
D17*
X264160Y436880D02*
X274000Y438150D01*
X264160Y436880D02*
X193040Y436880D01*
X123414Y402336D02*
X111500Y414250D01*
X158496Y402336D02*
X193040Y436880D01*
X158496Y402336D02*
X123414Y402336D01*
M02*
