G04 EAGLE Gerber X2 export*
%TF.Part,Single*%
%TF.FileFunction,Profile,NP*%
%TF.FilePolarity,Positive*%
%TF.GenerationSoftware,Autodesk,EAGLE,9.0.0*%
%TF.CreationDate,2018-09-03T19:42:11Z*%
G75*
%MOMM*%
%FSLAX34Y34*%
%LPD*%
%AMOC8*
5,1,8,0,0,1.08239X$1,22.5*%
G01*
%ADD10C,0.254000*%


D10*
X0Y0D02*
X600000Y0D01*
X600000Y600000D01*
X0Y600000D01*
X0Y0D01*
X149509Y447500D02*
X148530Y447423D01*
X147560Y447269D01*
X146604Y447040D01*
X145670Y446736D01*
X144763Y446361D01*
X143888Y445915D01*
X143050Y445401D01*
X142255Y444824D01*
X141508Y444186D01*
X140814Y443492D01*
X140176Y442745D01*
X139599Y441950D01*
X139085Y441112D01*
X138639Y440237D01*
X138264Y439330D01*
X137960Y438396D01*
X137731Y437441D01*
X137577Y436470D01*
X137500Y435491D01*
X137500Y434509D01*
X137577Y433530D01*
X137731Y432560D01*
X137960Y431604D01*
X138264Y430670D01*
X138639Y429763D01*
X139085Y428888D01*
X139599Y428050D01*
X140176Y427255D01*
X140814Y426508D01*
X141508Y425814D01*
X142255Y425176D01*
X143050Y424599D01*
X143888Y424085D01*
X144763Y423639D01*
X145670Y423264D01*
X146604Y422960D01*
X147560Y422731D01*
X148530Y422577D01*
X149509Y422500D01*
X150491Y422500D01*
X151470Y422577D01*
X152441Y422731D01*
X153396Y422960D01*
X154330Y423264D01*
X155237Y423639D01*
X156112Y424085D01*
X156950Y424599D01*
X157745Y425176D01*
X158492Y425814D01*
X159186Y426508D01*
X159824Y427255D01*
X160401Y428050D01*
X160915Y428888D01*
X161361Y429763D01*
X161736Y430670D01*
X162040Y431604D01*
X162269Y432560D01*
X162423Y433530D01*
X162500Y434509D01*
X162500Y435491D01*
X162423Y436470D01*
X162269Y437441D01*
X162040Y438396D01*
X161736Y439330D01*
X161361Y440237D01*
X160915Y441112D01*
X160401Y441950D01*
X159824Y442745D01*
X159186Y443492D01*
X158492Y444186D01*
X157745Y444824D01*
X156950Y445401D01*
X156112Y445915D01*
X155237Y446361D01*
X154330Y446736D01*
X153396Y447040D01*
X152441Y447269D01*
X151470Y447423D01*
X150491Y447500D01*
X149509Y447500D01*
X149509Y177500D02*
X148530Y177423D01*
X147560Y177269D01*
X146604Y177040D01*
X145670Y176736D01*
X144763Y176361D01*
X143888Y175915D01*
X143050Y175401D01*
X142255Y174824D01*
X141508Y174186D01*
X140814Y173492D01*
X140176Y172745D01*
X139599Y171950D01*
X139085Y171112D01*
X138639Y170237D01*
X138264Y169330D01*
X137960Y168396D01*
X137731Y167441D01*
X137577Y166470D01*
X137500Y165491D01*
X137500Y164509D01*
X137577Y163530D01*
X137731Y162560D01*
X137960Y161604D01*
X138264Y160670D01*
X138639Y159763D01*
X139085Y158888D01*
X139599Y158050D01*
X140176Y157255D01*
X140814Y156508D01*
X141508Y155814D01*
X142255Y155176D01*
X143050Y154599D01*
X143888Y154085D01*
X144763Y153639D01*
X145670Y153264D01*
X146604Y152960D01*
X147560Y152731D01*
X148530Y152577D01*
X149509Y152500D01*
X150491Y152500D01*
X151470Y152577D01*
X152441Y152731D01*
X153396Y152960D01*
X154330Y153264D01*
X155237Y153639D01*
X156112Y154085D01*
X156950Y154599D01*
X157745Y155176D01*
X158492Y155814D01*
X159186Y156508D01*
X159824Y157255D01*
X160401Y158050D01*
X160915Y158888D01*
X161361Y159763D01*
X161736Y160670D01*
X162040Y161604D01*
X162269Y162560D01*
X162423Y163530D01*
X162500Y164509D01*
X162500Y165491D01*
X162423Y166470D01*
X162269Y167441D01*
X162040Y168396D01*
X161736Y169330D01*
X161361Y170237D01*
X160915Y171112D01*
X160401Y171950D01*
X159824Y172745D01*
X159186Y173492D01*
X158492Y174186D01*
X157745Y174824D01*
X156950Y175401D01*
X156112Y175915D01*
X155237Y176361D01*
X154330Y176736D01*
X153396Y177040D01*
X152441Y177269D01*
X151470Y177423D01*
X150491Y177500D01*
X149509Y177500D01*
X89464Y315000D02*
X88396Y314924D01*
X87335Y314771D01*
X86288Y314543D01*
X85260Y314241D01*
X84256Y313867D01*
X83281Y313422D01*
X82341Y312908D01*
X81440Y312329D01*
X80582Y311687D01*
X79772Y310985D01*
X79015Y310228D01*
X78313Y309418D01*
X77671Y308560D01*
X77092Y307659D01*
X76578Y306719D01*
X76133Y305744D01*
X75759Y304740D01*
X75457Y303712D01*
X75229Y302665D01*
X75076Y301604D01*
X75000Y300536D01*
X75000Y299464D01*
X75076Y298396D01*
X75229Y297335D01*
X75457Y296288D01*
X75759Y295260D01*
X76133Y294256D01*
X76578Y293281D01*
X77092Y292341D01*
X77671Y291440D01*
X78313Y290582D01*
X79015Y289772D01*
X79772Y289015D01*
X80582Y288313D01*
X81440Y287671D01*
X82341Y287092D01*
X83281Y286578D01*
X84256Y286133D01*
X85260Y285759D01*
X86288Y285457D01*
X87335Y285229D01*
X88396Y285076D01*
X89464Y285000D01*
X90536Y285000D01*
X91604Y285076D01*
X92665Y285229D01*
X93712Y285457D01*
X94740Y285759D01*
X95744Y286133D01*
X96719Y286578D01*
X97659Y287092D01*
X98560Y287671D01*
X99418Y288313D01*
X100228Y289015D01*
X100985Y289772D01*
X101687Y290582D01*
X102329Y291440D01*
X102908Y292341D01*
X103422Y293281D01*
X103867Y294256D01*
X104241Y295260D01*
X104543Y296288D01*
X104771Y297335D01*
X104924Y298396D01*
X105000Y299464D01*
X105000Y300536D01*
X104924Y301604D01*
X104771Y302665D01*
X104543Y303712D01*
X104241Y304740D01*
X103867Y305744D01*
X103422Y306719D01*
X102908Y307659D01*
X102329Y308560D01*
X101687Y309418D01*
X100985Y310228D01*
X100228Y310985D01*
X99418Y311687D01*
X98560Y312329D01*
X97659Y312908D01*
X96719Y313422D01*
X95744Y313867D01*
X94740Y314241D01*
X93712Y314543D01*
X92665Y314771D01*
X91604Y314924D01*
X90536Y315000D01*
X89464Y315000D01*
X256976Y316000D02*
X255931Y315932D01*
X254892Y315795D01*
X253865Y315590D01*
X252853Y315319D01*
X251861Y314983D01*
X250893Y314582D01*
X249954Y314118D01*
X249046Y313595D01*
X248175Y313013D01*
X247344Y312375D01*
X246557Y311684D01*
X245816Y310943D01*
X245125Y310156D01*
X244488Y309325D01*
X243906Y308454D01*
X243382Y307546D01*
X242918Y306607D01*
X242517Y305639D01*
X242181Y304647D01*
X241910Y303635D01*
X241705Y302608D01*
X241569Y301569D01*
X241500Y300524D01*
X241500Y299476D01*
X241569Y298431D01*
X241705Y297392D01*
X241910Y296365D01*
X242181Y295353D01*
X242517Y294361D01*
X242918Y293393D01*
X243382Y292454D01*
X243906Y291546D01*
X244488Y290675D01*
X245125Y289844D01*
X245816Y289057D01*
X246557Y288316D01*
X247344Y287625D01*
X248175Y286988D01*
X249046Y286406D01*
X249954Y285882D01*
X250893Y285418D01*
X251861Y285017D01*
X252853Y284681D01*
X253865Y284410D01*
X254892Y284205D01*
X255931Y284069D01*
X256976Y284000D01*
X258024Y284000D01*
X259069Y284069D01*
X260108Y284205D01*
X261135Y284410D01*
X262147Y284681D01*
X263139Y285017D01*
X264107Y285418D01*
X265046Y285882D01*
X265954Y286406D01*
X266825Y286988D01*
X267656Y287625D01*
X268443Y288316D01*
X269184Y289057D01*
X269875Y289844D01*
X270513Y290675D01*
X271095Y291546D01*
X271618Y292454D01*
X272082Y293393D01*
X272483Y294361D01*
X272819Y295353D01*
X273090Y296365D01*
X273295Y297392D01*
X273432Y298431D01*
X273500Y299476D01*
X273500Y300524D01*
X273432Y301569D01*
X273295Y302608D01*
X273090Y303635D01*
X272819Y304647D01*
X272483Y305639D01*
X272082Y306607D01*
X271618Y307546D01*
X271095Y308454D01*
X270513Y309325D01*
X269875Y310156D01*
X269184Y310943D01*
X268443Y311684D01*
X267656Y312375D01*
X266825Y313013D01*
X265954Y313595D01*
X265046Y314118D01*
X264107Y314582D01*
X263139Y314983D01*
X262147Y315319D01*
X261135Y315590D01*
X260108Y315795D01*
X259069Y315932D01*
X258024Y316000D01*
X256976Y316000D01*
X64548Y396500D02*
X63647Y396429D01*
X62755Y396288D01*
X61876Y396077D01*
X61017Y395798D01*
X60182Y395452D01*
X59377Y395041D01*
X58606Y394569D01*
X57875Y394038D01*
X57188Y393451D01*
X56549Y392812D01*
X55962Y392125D01*
X55431Y391394D01*
X54959Y390623D01*
X54548Y389818D01*
X54202Y388983D01*
X53923Y388124D01*
X53712Y387245D01*
X53571Y386353D01*
X53500Y385452D01*
X53500Y384548D01*
X53571Y383647D01*
X53712Y382755D01*
X53923Y381876D01*
X54202Y381017D01*
X54548Y380182D01*
X54959Y379377D01*
X55431Y378606D01*
X55962Y377875D01*
X56549Y377188D01*
X57188Y376549D01*
X57875Y375962D01*
X58606Y375431D01*
X59377Y374959D01*
X60182Y374548D01*
X61017Y374202D01*
X61876Y373923D01*
X62755Y373712D01*
X63647Y373571D01*
X64548Y373500D01*
X65452Y373500D01*
X66353Y373571D01*
X67245Y373712D01*
X68124Y373923D01*
X68983Y374202D01*
X69818Y374548D01*
X70623Y374959D01*
X71394Y375431D01*
X72125Y375962D01*
X72812Y376549D01*
X73451Y377188D01*
X74038Y377875D01*
X74569Y378606D01*
X75041Y379377D01*
X75452Y380182D01*
X75798Y381017D01*
X76077Y381876D01*
X76288Y382755D01*
X76429Y383647D01*
X76500Y384548D01*
X76500Y385452D01*
X76429Y386353D01*
X76288Y387245D01*
X76077Y388124D01*
X75798Y388983D01*
X75452Y389818D01*
X75041Y390623D01*
X74569Y391394D01*
X74038Y392125D01*
X73451Y392812D01*
X72812Y393451D01*
X72125Y394038D01*
X71394Y394569D01*
X70623Y395041D01*
X69818Y395452D01*
X68983Y395798D01*
X68124Y396077D01*
X67245Y396288D01*
X66353Y396429D01*
X65452Y396500D01*
X64548Y396500D01*
X64548Y226500D02*
X63647Y226429D01*
X62755Y226288D01*
X61876Y226077D01*
X61017Y225798D01*
X60182Y225452D01*
X59377Y225041D01*
X58606Y224569D01*
X57875Y224038D01*
X57188Y223451D01*
X56549Y222812D01*
X55962Y222125D01*
X55431Y221394D01*
X54959Y220623D01*
X54548Y219818D01*
X54202Y218983D01*
X53923Y218124D01*
X53712Y217245D01*
X53571Y216353D01*
X53500Y215452D01*
X53500Y214548D01*
X53571Y213647D01*
X53712Y212755D01*
X53923Y211876D01*
X54202Y211017D01*
X54548Y210182D01*
X54959Y209377D01*
X55431Y208606D01*
X55962Y207875D01*
X56549Y207188D01*
X57188Y206549D01*
X57875Y205962D01*
X58606Y205431D01*
X59377Y204959D01*
X60182Y204548D01*
X61017Y204202D01*
X61876Y203923D01*
X62755Y203712D01*
X63647Y203571D01*
X64548Y203500D01*
X65452Y203500D01*
X66353Y203571D01*
X67245Y203712D01*
X68124Y203923D01*
X68983Y204202D01*
X69818Y204548D01*
X70623Y204959D01*
X71394Y205431D01*
X72125Y205962D01*
X72812Y206549D01*
X73451Y207188D01*
X74038Y207875D01*
X74569Y208606D01*
X75041Y209377D01*
X75452Y210182D01*
X75798Y211017D01*
X76077Y211876D01*
X76288Y212755D01*
X76429Y213647D01*
X76500Y214548D01*
X76500Y215452D01*
X76429Y216353D01*
X76288Y217245D01*
X76077Y218124D01*
X75798Y218983D01*
X75452Y219818D01*
X75041Y220623D01*
X74569Y221394D01*
X74038Y222125D01*
X73451Y222812D01*
X72812Y223451D01*
X72125Y224038D01*
X71394Y224569D01*
X70623Y225041D01*
X69818Y225452D01*
X68983Y225798D01*
X68124Y226077D01*
X67245Y226288D01*
X66353Y226429D01*
X65452Y226500D01*
X64548Y226500D01*
X450491Y152500D02*
X451470Y152577D01*
X452441Y152731D01*
X453396Y152960D01*
X454330Y153264D01*
X455237Y153639D01*
X456112Y154085D01*
X456950Y154599D01*
X457745Y155176D01*
X458492Y155814D01*
X459186Y156508D01*
X459824Y157255D01*
X460401Y158050D01*
X460915Y158888D01*
X461361Y159763D01*
X461736Y160670D01*
X462040Y161604D01*
X462269Y162560D01*
X462423Y163530D01*
X462500Y164509D01*
X462500Y165491D01*
X462423Y166470D01*
X462269Y167441D01*
X462040Y168396D01*
X461736Y169330D01*
X461361Y170237D01*
X460915Y171112D01*
X460401Y171950D01*
X459824Y172745D01*
X459186Y173492D01*
X458492Y174186D01*
X457745Y174824D01*
X456950Y175401D01*
X456112Y175915D01*
X455237Y176361D01*
X454330Y176736D01*
X453396Y177040D01*
X452441Y177269D01*
X451470Y177423D01*
X450491Y177500D01*
X449509Y177500D01*
X448530Y177423D01*
X447560Y177269D01*
X446604Y177040D01*
X445670Y176736D01*
X444763Y176361D01*
X443888Y175915D01*
X443050Y175401D01*
X442255Y174824D01*
X441508Y174186D01*
X440814Y173492D01*
X440176Y172745D01*
X439599Y171950D01*
X439085Y171112D01*
X438639Y170237D01*
X438264Y169330D01*
X437960Y168396D01*
X437731Y167441D01*
X437577Y166470D01*
X437500Y165491D01*
X437500Y164509D01*
X437577Y163530D01*
X437731Y162560D01*
X437960Y161604D01*
X438264Y160670D01*
X438639Y159763D01*
X439085Y158888D01*
X439599Y158050D01*
X440176Y157255D01*
X440814Y156508D01*
X441508Y155814D01*
X442255Y155176D01*
X443050Y154599D01*
X443888Y154085D01*
X444763Y153639D01*
X445670Y153264D01*
X446604Y152960D01*
X447560Y152731D01*
X448530Y152577D01*
X449509Y152500D01*
X450491Y152500D01*
X450491Y422500D02*
X451470Y422577D01*
X452441Y422731D01*
X453396Y422960D01*
X454330Y423264D01*
X455237Y423639D01*
X456112Y424085D01*
X456950Y424599D01*
X457745Y425176D01*
X458492Y425814D01*
X459186Y426508D01*
X459824Y427255D01*
X460401Y428050D01*
X460915Y428888D01*
X461361Y429763D01*
X461736Y430670D01*
X462040Y431604D01*
X462269Y432560D01*
X462423Y433530D01*
X462500Y434509D01*
X462500Y435491D01*
X462423Y436470D01*
X462269Y437441D01*
X462040Y438396D01*
X461736Y439330D01*
X461361Y440237D01*
X460915Y441112D01*
X460401Y441950D01*
X459824Y442745D01*
X459186Y443492D01*
X458492Y444186D01*
X457745Y444824D01*
X456950Y445401D01*
X456112Y445915D01*
X455237Y446361D01*
X454330Y446736D01*
X453396Y447040D01*
X452441Y447269D01*
X451470Y447423D01*
X450491Y447500D01*
X449509Y447500D01*
X448530Y447423D01*
X447560Y447269D01*
X446604Y447040D01*
X445670Y446736D01*
X444763Y446361D01*
X443888Y445915D01*
X443050Y445401D01*
X442255Y444824D01*
X441508Y444186D01*
X440814Y443492D01*
X440176Y442745D01*
X439599Y441950D01*
X439085Y441112D01*
X438639Y440237D01*
X438264Y439330D01*
X437960Y438396D01*
X437731Y437441D01*
X437577Y436470D01*
X437500Y435491D01*
X437500Y434509D01*
X437577Y433530D01*
X437731Y432560D01*
X437960Y431604D01*
X438264Y430670D01*
X438639Y429763D01*
X439085Y428888D01*
X439599Y428050D01*
X440176Y427255D01*
X440814Y426508D01*
X441508Y425814D01*
X442255Y425176D01*
X443050Y424599D01*
X443888Y424085D01*
X444763Y423639D01*
X445670Y423264D01*
X446604Y422960D01*
X447560Y422731D01*
X448530Y422577D01*
X449509Y422500D01*
X450491Y422500D01*
X510536Y285000D02*
X511604Y285076D01*
X512665Y285229D01*
X513712Y285457D01*
X514740Y285759D01*
X515744Y286133D01*
X516719Y286578D01*
X517659Y287092D01*
X518560Y287671D01*
X519418Y288313D01*
X520228Y289015D01*
X520985Y289772D01*
X521687Y290582D01*
X522329Y291440D01*
X522908Y292341D01*
X523422Y293281D01*
X523867Y294256D01*
X524241Y295260D01*
X524543Y296288D01*
X524771Y297335D01*
X524924Y298396D01*
X525000Y299464D01*
X525000Y300536D01*
X524924Y301604D01*
X524771Y302665D01*
X524543Y303712D01*
X524241Y304740D01*
X523867Y305744D01*
X523422Y306719D01*
X522908Y307659D01*
X522329Y308560D01*
X521687Y309418D01*
X520985Y310228D01*
X520228Y310985D01*
X519418Y311687D01*
X518560Y312329D01*
X517659Y312908D01*
X516719Y313422D01*
X515744Y313867D01*
X514740Y314241D01*
X513712Y314543D01*
X512665Y314771D01*
X511604Y314924D01*
X510536Y315000D01*
X509464Y315000D01*
X508396Y314924D01*
X507335Y314771D01*
X506288Y314543D01*
X505260Y314241D01*
X504256Y313867D01*
X503281Y313422D01*
X502341Y312908D01*
X501440Y312329D01*
X500582Y311687D01*
X499772Y310985D01*
X499015Y310228D01*
X498313Y309418D01*
X497671Y308560D01*
X497092Y307659D01*
X496578Y306719D01*
X496133Y305744D01*
X495759Y304740D01*
X495457Y303712D01*
X495229Y302665D01*
X495076Y301604D01*
X495000Y300536D01*
X495000Y299464D01*
X495076Y298396D01*
X495229Y297335D01*
X495457Y296288D01*
X495759Y295260D01*
X496133Y294256D01*
X496578Y293281D01*
X497092Y292341D01*
X497671Y291440D01*
X498313Y290582D01*
X499015Y289772D01*
X499772Y289015D01*
X500582Y288313D01*
X501440Y287671D01*
X502341Y287092D01*
X503281Y286578D01*
X504256Y286133D01*
X505260Y285759D01*
X506288Y285457D01*
X507335Y285229D01*
X508396Y285076D01*
X509464Y285000D01*
X510536Y285000D01*
X343024Y284000D02*
X344069Y284069D01*
X345108Y284205D01*
X346135Y284410D01*
X347147Y284681D01*
X348139Y285017D01*
X349107Y285418D01*
X350046Y285882D01*
X350954Y286406D01*
X351825Y286988D01*
X352656Y287625D01*
X353443Y288316D01*
X354184Y289057D01*
X354875Y289844D01*
X355513Y290675D01*
X356095Y291546D01*
X356618Y292454D01*
X357082Y293393D01*
X357483Y294361D01*
X357819Y295353D01*
X358090Y296365D01*
X358295Y297392D01*
X358432Y298431D01*
X358500Y299476D01*
X358500Y300524D01*
X358432Y301569D01*
X358295Y302608D01*
X358090Y303635D01*
X357819Y304647D01*
X357483Y305639D01*
X357082Y306607D01*
X356618Y307546D01*
X356095Y308454D01*
X355513Y309325D01*
X354875Y310156D01*
X354184Y310943D01*
X353443Y311684D01*
X352656Y312375D01*
X351825Y313013D01*
X350954Y313595D01*
X350046Y314118D01*
X349107Y314582D01*
X348139Y314983D01*
X347147Y315319D01*
X346135Y315590D01*
X345108Y315795D01*
X344069Y315932D01*
X343024Y316000D01*
X341976Y316000D01*
X340931Y315932D01*
X339892Y315795D01*
X338865Y315590D01*
X337853Y315319D01*
X336861Y314983D01*
X335893Y314582D01*
X334954Y314118D01*
X334046Y313595D01*
X333175Y313013D01*
X332344Y312375D01*
X331557Y311684D01*
X330816Y310943D01*
X330125Y310156D01*
X329488Y309325D01*
X328906Y308454D01*
X328382Y307546D01*
X327918Y306607D01*
X327517Y305639D01*
X327181Y304647D01*
X326910Y303635D01*
X326705Y302608D01*
X326569Y301569D01*
X326500Y300524D01*
X326500Y299476D01*
X326569Y298431D01*
X326705Y297392D01*
X326910Y296365D01*
X327181Y295353D01*
X327517Y294361D01*
X327918Y293393D01*
X328382Y292454D01*
X328906Y291546D01*
X329488Y290675D01*
X330125Y289844D01*
X330816Y289057D01*
X331557Y288316D01*
X332344Y287625D01*
X333175Y286988D01*
X334046Y286406D01*
X334954Y285882D01*
X335893Y285418D01*
X336861Y285017D01*
X337853Y284681D01*
X338865Y284410D01*
X339892Y284205D01*
X340931Y284069D01*
X341976Y284000D01*
X343024Y284000D01*
X535452Y203500D02*
X536353Y203571D01*
X537245Y203712D01*
X538124Y203923D01*
X538983Y204202D01*
X539818Y204548D01*
X540623Y204959D01*
X541394Y205431D01*
X542125Y205962D01*
X542812Y206549D01*
X543451Y207188D01*
X544038Y207875D01*
X544569Y208606D01*
X545041Y209377D01*
X545452Y210182D01*
X545798Y211017D01*
X546077Y211876D01*
X546288Y212755D01*
X546429Y213647D01*
X546500Y214548D01*
X546500Y215452D01*
X546429Y216353D01*
X546288Y217245D01*
X546077Y218124D01*
X545798Y218983D01*
X545452Y219818D01*
X545041Y220623D01*
X544569Y221394D01*
X544038Y222125D01*
X543451Y222812D01*
X542812Y223451D01*
X542125Y224038D01*
X541394Y224569D01*
X540623Y225041D01*
X539818Y225452D01*
X538983Y225798D01*
X538124Y226077D01*
X537245Y226288D01*
X536353Y226429D01*
X535452Y226500D01*
X534548Y226500D01*
X533647Y226429D01*
X532755Y226288D01*
X531876Y226077D01*
X531017Y225798D01*
X530182Y225452D01*
X529377Y225041D01*
X528606Y224569D01*
X527875Y224038D01*
X527188Y223451D01*
X526549Y222812D01*
X525962Y222125D01*
X525431Y221394D01*
X524959Y220623D01*
X524548Y219818D01*
X524202Y218983D01*
X523923Y218124D01*
X523712Y217245D01*
X523571Y216353D01*
X523500Y215452D01*
X523500Y214548D01*
X523571Y213647D01*
X523712Y212755D01*
X523923Y211876D01*
X524202Y211017D01*
X524548Y210182D01*
X524959Y209377D01*
X525431Y208606D01*
X525962Y207875D01*
X526549Y207188D01*
X527188Y206549D01*
X527875Y205962D01*
X528606Y205431D01*
X529377Y204959D01*
X530182Y204548D01*
X531017Y204202D01*
X531876Y203923D01*
X532755Y203712D01*
X533647Y203571D01*
X534548Y203500D01*
X535452Y203500D01*
X535452Y373500D02*
X536353Y373571D01*
X537245Y373712D01*
X538124Y373923D01*
X538983Y374202D01*
X539818Y374548D01*
X540623Y374959D01*
X541394Y375431D01*
X542125Y375962D01*
X542812Y376549D01*
X543451Y377188D01*
X544038Y377875D01*
X544569Y378606D01*
X545041Y379377D01*
X545452Y380182D01*
X545798Y381017D01*
X546077Y381876D01*
X546288Y382755D01*
X546429Y383647D01*
X546500Y384548D01*
X546500Y385452D01*
X546429Y386353D01*
X546288Y387245D01*
X546077Y388124D01*
X545798Y388983D01*
X545452Y389818D01*
X545041Y390623D01*
X544569Y391394D01*
X544038Y392125D01*
X543451Y392812D01*
X542812Y393451D01*
X542125Y394038D01*
X541394Y394569D01*
X540623Y395041D01*
X539818Y395452D01*
X538983Y395798D01*
X538124Y396077D01*
X537245Y396288D01*
X536353Y396429D01*
X535452Y396500D01*
X534548Y396500D01*
X533647Y396429D01*
X532755Y396288D01*
X531876Y396077D01*
X531017Y395798D01*
X530182Y395452D01*
X529377Y395041D01*
X528606Y394569D01*
X527875Y394038D01*
X527188Y393451D01*
X526549Y392812D01*
X525962Y392125D01*
X525431Y391394D01*
X524959Y390623D01*
X524548Y389818D01*
X524202Y388983D01*
X523923Y388124D01*
X523712Y387245D01*
X523571Y386353D01*
X523500Y385452D01*
X523500Y384548D01*
X523571Y383647D01*
X523712Y382755D01*
X523923Y381876D01*
X524202Y381017D01*
X524548Y380182D01*
X524959Y379377D01*
X525431Y378606D01*
X525962Y377875D01*
X526549Y377188D01*
X527188Y376549D01*
X527875Y375962D01*
X528606Y375431D01*
X529377Y374959D01*
X530182Y374548D01*
X531017Y374202D01*
X531876Y373923D01*
X532755Y373712D01*
X533647Y373571D01*
X534548Y373500D01*
X535452Y373500D01*
X47000Y449529D02*
X46926Y448588D01*
X46779Y447657D01*
X46558Y446740D01*
X46267Y445843D01*
X45906Y444972D01*
X45478Y444132D01*
X44985Y443328D01*
X44431Y442565D01*
X43819Y441848D01*
X43152Y441181D01*
X42435Y440569D01*
X41672Y440015D01*
X40868Y439522D01*
X40028Y439094D01*
X39157Y438733D01*
X38260Y438442D01*
X37343Y438222D01*
X36412Y438074D01*
X35471Y438000D01*
X34529Y438000D01*
X33588Y438074D01*
X32657Y438222D01*
X31740Y438442D01*
X30843Y438733D01*
X29972Y439094D01*
X29132Y439522D01*
X28328Y440015D01*
X27565Y440569D01*
X26848Y441181D01*
X26181Y441848D01*
X25569Y442565D01*
X25015Y443328D01*
X24522Y444132D01*
X24094Y444972D01*
X23733Y445843D01*
X23442Y446740D01*
X23222Y447657D01*
X23074Y448588D01*
X23000Y449529D01*
X23000Y450471D01*
X23074Y451412D01*
X23222Y452343D01*
X23442Y453260D01*
X23733Y454157D01*
X24094Y455028D01*
X24522Y455868D01*
X25015Y456672D01*
X25569Y457435D01*
X26181Y458152D01*
X26848Y458819D01*
X27565Y459431D01*
X28328Y459985D01*
X29132Y460478D01*
X29972Y460906D01*
X30843Y461267D01*
X31740Y461558D01*
X32657Y461779D01*
X33588Y461926D01*
X34529Y462000D01*
X35471Y462000D01*
X36412Y461926D01*
X37343Y461779D01*
X38260Y461558D01*
X39157Y461267D01*
X40028Y460906D01*
X40868Y460478D01*
X41672Y459985D01*
X42435Y459431D01*
X43152Y458819D01*
X43819Y458152D01*
X44431Y457435D01*
X44985Y456672D01*
X45478Y455868D01*
X45906Y455028D01*
X46267Y454157D01*
X46558Y453260D01*
X46779Y452343D01*
X46926Y451412D01*
X47000Y450471D01*
X47000Y449529D01*
X47000Y149529D02*
X46926Y148588D01*
X46779Y147657D01*
X46558Y146740D01*
X46267Y145843D01*
X45906Y144972D01*
X45478Y144132D01*
X44985Y143328D01*
X44431Y142565D01*
X43819Y141848D01*
X43152Y141181D01*
X42435Y140569D01*
X41672Y140015D01*
X40868Y139522D01*
X40028Y139094D01*
X39157Y138733D01*
X38260Y138442D01*
X37343Y138222D01*
X36412Y138074D01*
X35471Y138000D01*
X34529Y138000D01*
X33588Y138074D01*
X32657Y138222D01*
X31740Y138442D01*
X30843Y138733D01*
X29972Y139094D01*
X29132Y139522D01*
X28328Y140015D01*
X27565Y140569D01*
X26848Y141181D01*
X26181Y141848D01*
X25569Y142565D01*
X25015Y143328D01*
X24522Y144132D01*
X24094Y144972D01*
X23733Y145843D01*
X23442Y146740D01*
X23222Y147657D01*
X23074Y148588D01*
X23000Y149529D01*
X23000Y150471D01*
X23074Y151412D01*
X23222Y152343D01*
X23442Y153260D01*
X23733Y154157D01*
X24094Y155028D01*
X24522Y155868D01*
X25015Y156672D01*
X25569Y157435D01*
X26181Y158152D01*
X26848Y158819D01*
X27565Y159431D01*
X28328Y159985D01*
X29132Y160478D01*
X29972Y160906D01*
X30843Y161267D01*
X31740Y161558D01*
X32657Y161779D01*
X33588Y161926D01*
X34529Y162000D01*
X35471Y162000D01*
X36412Y161926D01*
X37343Y161779D01*
X38260Y161558D01*
X39157Y161267D01*
X40028Y160906D01*
X40868Y160478D01*
X41672Y159985D01*
X42435Y159431D01*
X43152Y158819D01*
X43819Y158152D01*
X44431Y157435D01*
X44985Y156672D01*
X45478Y155868D01*
X45906Y155028D01*
X46267Y154157D01*
X46558Y153260D01*
X46779Y152343D01*
X46926Y151412D01*
X47000Y150471D01*
X47000Y149529D01*
X577000Y449529D02*
X576926Y448588D01*
X576779Y447657D01*
X576558Y446740D01*
X576267Y445843D01*
X575906Y444972D01*
X575478Y444132D01*
X574985Y443328D01*
X574431Y442565D01*
X573819Y441848D01*
X573152Y441181D01*
X572435Y440569D01*
X571672Y440015D01*
X570868Y439522D01*
X570028Y439094D01*
X569157Y438733D01*
X568260Y438442D01*
X567343Y438222D01*
X566412Y438074D01*
X565471Y438000D01*
X564529Y438000D01*
X563588Y438074D01*
X562657Y438222D01*
X561740Y438442D01*
X560843Y438733D01*
X559972Y439094D01*
X559132Y439522D01*
X558328Y440015D01*
X557565Y440569D01*
X556848Y441181D01*
X556181Y441848D01*
X555569Y442565D01*
X555015Y443328D01*
X554522Y444132D01*
X554094Y444972D01*
X553733Y445843D01*
X553442Y446740D01*
X553222Y447657D01*
X553074Y448588D01*
X553000Y449529D01*
X553000Y450471D01*
X553074Y451412D01*
X553222Y452343D01*
X553442Y453260D01*
X553733Y454157D01*
X554094Y455028D01*
X554522Y455868D01*
X555015Y456672D01*
X555569Y457435D01*
X556181Y458152D01*
X556848Y458819D01*
X557565Y459431D01*
X558328Y459985D01*
X559132Y460478D01*
X559972Y460906D01*
X560843Y461267D01*
X561740Y461558D01*
X562657Y461779D01*
X563588Y461926D01*
X564529Y462000D01*
X565471Y462000D01*
X566412Y461926D01*
X567343Y461779D01*
X568260Y461558D01*
X569157Y461267D01*
X570028Y460906D01*
X570868Y460478D01*
X571672Y459985D01*
X572435Y459431D01*
X573152Y458819D01*
X573819Y458152D01*
X574431Y457435D01*
X574985Y456672D01*
X575478Y455868D01*
X575906Y455028D01*
X576267Y454157D01*
X576558Y453260D01*
X576779Y452343D01*
X576926Y451412D01*
X577000Y450471D01*
X577000Y449529D01*
X577000Y149529D02*
X576926Y148588D01*
X576779Y147657D01*
X576558Y146740D01*
X576267Y145843D01*
X575906Y144972D01*
X575478Y144132D01*
X574985Y143328D01*
X574431Y142565D01*
X573819Y141848D01*
X573152Y141181D01*
X572435Y140569D01*
X571672Y140015D01*
X570868Y139522D01*
X570028Y139094D01*
X569157Y138733D01*
X568260Y138442D01*
X567343Y138222D01*
X566412Y138074D01*
X565471Y138000D01*
X564529Y138000D01*
X563588Y138074D01*
X562657Y138222D01*
X561740Y138442D01*
X560843Y138733D01*
X559972Y139094D01*
X559132Y139522D01*
X558328Y140015D01*
X557565Y140569D01*
X556848Y141181D01*
X556181Y141848D01*
X555569Y142565D01*
X555015Y143328D01*
X554522Y144132D01*
X554094Y144972D01*
X553733Y145843D01*
X553442Y146740D01*
X553222Y147657D01*
X553074Y148588D01*
X553000Y149529D01*
X553000Y150471D01*
X553074Y151412D01*
X553222Y152343D01*
X553442Y153260D01*
X553733Y154157D01*
X554094Y155028D01*
X554522Y155868D01*
X555015Y156672D01*
X555569Y157435D01*
X556181Y158152D01*
X556848Y158819D01*
X557565Y159431D01*
X558328Y159985D01*
X559132Y160478D01*
X559972Y160906D01*
X560843Y161267D01*
X561740Y161558D01*
X562657Y161779D01*
X563588Y161926D01*
X564529Y162000D01*
X565471Y162000D01*
X566412Y161926D01*
X567343Y161779D01*
X568260Y161558D01*
X569157Y161267D01*
X570028Y160906D01*
X570868Y160478D01*
X571672Y159985D01*
X572435Y159431D01*
X573152Y158819D01*
X573819Y158152D01*
X574431Y157435D01*
X574985Y156672D01*
X575478Y155868D01*
X575906Y155028D01*
X576267Y154157D01*
X576558Y153260D01*
X576779Y152343D01*
X576926Y151412D01*
X577000Y150471D01*
X577000Y149529D01*
M02*
