G04 EAGLE Gerber X2 export*
%TF.Part,Single*%
%TF.FileFunction,Legend,Bot,1*%
%TF.FilePolarity,Positive*%
%TF.GenerationSoftware,Autodesk,EAGLE,9.0.0*%
%TF.CreationDate,2018-09-03T19:42:11Z*%
G75*
%MOMM*%
%FSLAX34Y34*%
%LPD*%
%AMOC8*
5,1,8,0,0,1.08239X$1,22.5*%
G01*
%ADD10C,0.100000*%
%ADD11C,0.127000*%
%ADD12C,0.101600*%
%ADD13C,0.203200*%


D10*
X127500Y165000D02*
X127507Y165552D01*
X127527Y166104D01*
X127561Y166655D01*
X127608Y167205D01*
X127669Y167754D01*
X127744Y168301D01*
X127831Y168847D01*
X127932Y169390D01*
X128047Y169930D01*
X128174Y170467D01*
X128315Y171001D01*
X128469Y171531D01*
X128636Y172058D01*
X128815Y172580D01*
X129008Y173098D01*
X129213Y173610D01*
X129430Y174118D01*
X129660Y174620D01*
X129902Y175116D01*
X130157Y175606D01*
X130423Y176090D01*
X130701Y176567D01*
X130991Y177037D01*
X131292Y177500D01*
X131604Y177956D01*
X131928Y178403D01*
X132262Y178843D01*
X132607Y179274D01*
X132963Y179696D01*
X133329Y180110D01*
X133704Y180515D01*
X134090Y180910D01*
X134485Y181296D01*
X134890Y181671D01*
X135304Y182037D01*
X135726Y182393D01*
X136157Y182738D01*
X136597Y183072D01*
X137044Y183396D01*
X137500Y183708D01*
X137963Y184009D01*
X138433Y184299D01*
X138910Y184577D01*
X139394Y184843D01*
X139884Y185098D01*
X140380Y185340D01*
X140882Y185570D01*
X141390Y185787D01*
X141902Y185992D01*
X142420Y186185D01*
X142942Y186364D01*
X143469Y186531D01*
X143999Y186685D01*
X144533Y186826D01*
X145070Y186953D01*
X145610Y187068D01*
X146153Y187169D01*
X146699Y187256D01*
X147246Y187331D01*
X147795Y187392D01*
X148345Y187439D01*
X148896Y187473D01*
X149448Y187493D01*
X150000Y187500D01*
X150552Y187493D01*
X151104Y187473D01*
X151655Y187439D01*
X152205Y187392D01*
X152754Y187331D01*
X153301Y187256D01*
X153847Y187169D01*
X154390Y187068D01*
X154930Y186953D01*
X155467Y186826D01*
X156001Y186685D01*
X156531Y186531D01*
X157058Y186364D01*
X157580Y186185D01*
X158098Y185992D01*
X158610Y185787D01*
X159118Y185570D01*
X159620Y185340D01*
X160116Y185098D01*
X160606Y184843D01*
X161090Y184577D01*
X161567Y184299D01*
X162037Y184009D01*
X162500Y183708D01*
X162956Y183396D01*
X163403Y183072D01*
X163843Y182738D01*
X164274Y182393D01*
X164696Y182037D01*
X165110Y181671D01*
X165515Y181296D01*
X165910Y180910D01*
X166296Y180515D01*
X166671Y180110D01*
X167037Y179696D01*
X167393Y179274D01*
X167738Y178843D01*
X168072Y178403D01*
X168396Y177956D01*
X168708Y177500D01*
X169009Y177037D01*
X169299Y176567D01*
X169577Y176090D01*
X169843Y175606D01*
X170098Y175116D01*
X170340Y174620D01*
X170570Y174118D01*
X170787Y173610D01*
X170992Y173098D01*
X171185Y172580D01*
X171364Y172058D01*
X171531Y171531D01*
X171685Y171001D01*
X171826Y170467D01*
X171953Y169930D01*
X172068Y169390D01*
X172169Y168847D01*
X172256Y168301D01*
X172331Y167754D01*
X172392Y167205D01*
X172439Y166655D01*
X172473Y166104D01*
X172493Y165552D01*
X172500Y165000D01*
X172493Y164448D01*
X172473Y163896D01*
X172439Y163345D01*
X172392Y162795D01*
X172331Y162246D01*
X172256Y161699D01*
X172169Y161153D01*
X172068Y160610D01*
X171953Y160070D01*
X171826Y159533D01*
X171685Y158999D01*
X171531Y158469D01*
X171364Y157942D01*
X171185Y157420D01*
X170992Y156902D01*
X170787Y156390D01*
X170570Y155882D01*
X170340Y155380D01*
X170098Y154884D01*
X169843Y154394D01*
X169577Y153910D01*
X169299Y153433D01*
X169009Y152963D01*
X168708Y152500D01*
X168396Y152044D01*
X168072Y151597D01*
X167738Y151157D01*
X167393Y150726D01*
X167037Y150304D01*
X166671Y149890D01*
X166296Y149485D01*
X165910Y149090D01*
X165515Y148704D01*
X165110Y148329D01*
X164696Y147963D01*
X164274Y147607D01*
X163843Y147262D01*
X163403Y146928D01*
X162956Y146604D01*
X162500Y146292D01*
X162037Y145991D01*
X161567Y145701D01*
X161090Y145423D01*
X160606Y145157D01*
X160116Y144902D01*
X159620Y144660D01*
X159118Y144430D01*
X158610Y144213D01*
X158098Y144008D01*
X157580Y143815D01*
X157058Y143636D01*
X156531Y143469D01*
X156001Y143315D01*
X155467Y143174D01*
X154930Y143047D01*
X154390Y142932D01*
X153847Y142831D01*
X153301Y142744D01*
X152754Y142669D01*
X152205Y142608D01*
X151655Y142561D01*
X151104Y142527D01*
X150552Y142507D01*
X150000Y142500D01*
X149448Y142507D01*
X148896Y142527D01*
X148345Y142561D01*
X147795Y142608D01*
X147246Y142669D01*
X146699Y142744D01*
X146153Y142831D01*
X145610Y142932D01*
X145070Y143047D01*
X144533Y143174D01*
X143999Y143315D01*
X143469Y143469D01*
X142942Y143636D01*
X142420Y143815D01*
X141902Y144008D01*
X141390Y144213D01*
X140882Y144430D01*
X140380Y144660D01*
X139884Y144902D01*
X139394Y145157D01*
X138910Y145423D01*
X138433Y145701D01*
X137963Y145991D01*
X137500Y146292D01*
X137044Y146604D01*
X136597Y146928D01*
X136157Y147262D01*
X135726Y147607D01*
X135304Y147963D01*
X134890Y148329D01*
X134485Y148704D01*
X134090Y149090D01*
X133704Y149485D01*
X133329Y149890D01*
X132963Y150304D01*
X132607Y150726D01*
X132262Y151157D01*
X131928Y151597D01*
X131604Y152044D01*
X131292Y152500D01*
X130991Y152963D01*
X130701Y153433D01*
X130423Y153910D01*
X130157Y154394D01*
X129902Y154884D01*
X129660Y155380D01*
X129430Y155882D01*
X129213Y156390D01*
X129008Y156902D01*
X128815Y157420D01*
X128636Y157942D01*
X128469Y158469D01*
X128315Y158999D01*
X128174Y159533D01*
X128047Y160070D01*
X127932Y160610D01*
X127831Y161153D01*
X127744Y161699D01*
X127669Y162246D01*
X127608Y162795D01*
X127561Y163345D01*
X127527Y163896D01*
X127507Y164448D01*
X127500Y165000D01*
X127500Y435000D02*
X127507Y435552D01*
X127527Y436104D01*
X127561Y436655D01*
X127608Y437205D01*
X127669Y437754D01*
X127744Y438301D01*
X127831Y438847D01*
X127932Y439390D01*
X128047Y439930D01*
X128174Y440467D01*
X128315Y441001D01*
X128469Y441531D01*
X128636Y442058D01*
X128815Y442580D01*
X129008Y443098D01*
X129213Y443610D01*
X129430Y444118D01*
X129660Y444620D01*
X129902Y445116D01*
X130157Y445606D01*
X130423Y446090D01*
X130701Y446567D01*
X130991Y447037D01*
X131292Y447500D01*
X131604Y447956D01*
X131928Y448403D01*
X132262Y448843D01*
X132607Y449274D01*
X132963Y449696D01*
X133329Y450110D01*
X133704Y450515D01*
X134090Y450910D01*
X134485Y451296D01*
X134890Y451671D01*
X135304Y452037D01*
X135726Y452393D01*
X136157Y452738D01*
X136597Y453072D01*
X137044Y453396D01*
X137500Y453708D01*
X137963Y454009D01*
X138433Y454299D01*
X138910Y454577D01*
X139394Y454843D01*
X139884Y455098D01*
X140380Y455340D01*
X140882Y455570D01*
X141390Y455787D01*
X141902Y455992D01*
X142420Y456185D01*
X142942Y456364D01*
X143469Y456531D01*
X143999Y456685D01*
X144533Y456826D01*
X145070Y456953D01*
X145610Y457068D01*
X146153Y457169D01*
X146699Y457256D01*
X147246Y457331D01*
X147795Y457392D01*
X148345Y457439D01*
X148896Y457473D01*
X149448Y457493D01*
X150000Y457500D01*
X150552Y457493D01*
X151104Y457473D01*
X151655Y457439D01*
X152205Y457392D01*
X152754Y457331D01*
X153301Y457256D01*
X153847Y457169D01*
X154390Y457068D01*
X154930Y456953D01*
X155467Y456826D01*
X156001Y456685D01*
X156531Y456531D01*
X157058Y456364D01*
X157580Y456185D01*
X158098Y455992D01*
X158610Y455787D01*
X159118Y455570D01*
X159620Y455340D01*
X160116Y455098D01*
X160606Y454843D01*
X161090Y454577D01*
X161567Y454299D01*
X162037Y454009D01*
X162500Y453708D01*
X162956Y453396D01*
X163403Y453072D01*
X163843Y452738D01*
X164274Y452393D01*
X164696Y452037D01*
X165110Y451671D01*
X165515Y451296D01*
X165910Y450910D01*
X166296Y450515D01*
X166671Y450110D01*
X167037Y449696D01*
X167393Y449274D01*
X167738Y448843D01*
X168072Y448403D01*
X168396Y447956D01*
X168708Y447500D01*
X169009Y447037D01*
X169299Y446567D01*
X169577Y446090D01*
X169843Y445606D01*
X170098Y445116D01*
X170340Y444620D01*
X170570Y444118D01*
X170787Y443610D01*
X170992Y443098D01*
X171185Y442580D01*
X171364Y442058D01*
X171531Y441531D01*
X171685Y441001D01*
X171826Y440467D01*
X171953Y439930D01*
X172068Y439390D01*
X172169Y438847D01*
X172256Y438301D01*
X172331Y437754D01*
X172392Y437205D01*
X172439Y436655D01*
X172473Y436104D01*
X172493Y435552D01*
X172500Y435000D01*
X172493Y434448D01*
X172473Y433896D01*
X172439Y433345D01*
X172392Y432795D01*
X172331Y432246D01*
X172256Y431699D01*
X172169Y431153D01*
X172068Y430610D01*
X171953Y430070D01*
X171826Y429533D01*
X171685Y428999D01*
X171531Y428469D01*
X171364Y427942D01*
X171185Y427420D01*
X170992Y426902D01*
X170787Y426390D01*
X170570Y425882D01*
X170340Y425380D01*
X170098Y424884D01*
X169843Y424394D01*
X169577Y423910D01*
X169299Y423433D01*
X169009Y422963D01*
X168708Y422500D01*
X168396Y422044D01*
X168072Y421597D01*
X167738Y421157D01*
X167393Y420726D01*
X167037Y420304D01*
X166671Y419890D01*
X166296Y419485D01*
X165910Y419090D01*
X165515Y418704D01*
X165110Y418329D01*
X164696Y417963D01*
X164274Y417607D01*
X163843Y417262D01*
X163403Y416928D01*
X162956Y416604D01*
X162500Y416292D01*
X162037Y415991D01*
X161567Y415701D01*
X161090Y415423D01*
X160606Y415157D01*
X160116Y414902D01*
X159620Y414660D01*
X159118Y414430D01*
X158610Y414213D01*
X158098Y414008D01*
X157580Y413815D01*
X157058Y413636D01*
X156531Y413469D01*
X156001Y413315D01*
X155467Y413174D01*
X154930Y413047D01*
X154390Y412932D01*
X153847Y412831D01*
X153301Y412744D01*
X152754Y412669D01*
X152205Y412608D01*
X151655Y412561D01*
X151104Y412527D01*
X150552Y412507D01*
X150000Y412500D01*
X149448Y412507D01*
X148896Y412527D01*
X148345Y412561D01*
X147795Y412608D01*
X147246Y412669D01*
X146699Y412744D01*
X146153Y412831D01*
X145610Y412932D01*
X145070Y413047D01*
X144533Y413174D01*
X143999Y413315D01*
X143469Y413469D01*
X142942Y413636D01*
X142420Y413815D01*
X141902Y414008D01*
X141390Y414213D01*
X140882Y414430D01*
X140380Y414660D01*
X139884Y414902D01*
X139394Y415157D01*
X138910Y415423D01*
X138433Y415701D01*
X137963Y415991D01*
X137500Y416292D01*
X137044Y416604D01*
X136597Y416928D01*
X136157Y417262D01*
X135726Y417607D01*
X135304Y417963D01*
X134890Y418329D01*
X134485Y418704D01*
X134090Y419090D01*
X133704Y419485D01*
X133329Y419890D01*
X132963Y420304D01*
X132607Y420726D01*
X132262Y421157D01*
X131928Y421597D01*
X131604Y422044D01*
X131292Y422500D01*
X130991Y422963D01*
X130701Y423433D01*
X130423Y423910D01*
X130157Y424394D01*
X129902Y424884D01*
X129660Y425380D01*
X129430Y425882D01*
X129213Y426390D01*
X129008Y426902D01*
X128815Y427420D01*
X128636Y427942D01*
X128469Y428469D01*
X128315Y428999D01*
X128174Y429533D01*
X128047Y430070D01*
X127932Y430610D01*
X127831Y431153D01*
X127744Y431699D01*
X127669Y432246D01*
X127608Y432795D01*
X127561Y433345D01*
X127527Y433896D01*
X127507Y434448D01*
X127500Y435000D01*
X293460Y347000D02*
X293460Y253000D01*
X293459Y253000D02*
X292297Y249553D01*
X291050Y246137D01*
X289720Y242751D01*
X288307Y239399D01*
X286813Y236083D01*
X285239Y232804D01*
X283584Y229565D01*
X281851Y226367D01*
X280040Y223213D01*
X278152Y220104D01*
X276189Y217041D01*
X274152Y214028D01*
X272042Y211066D01*
X269859Y208156D01*
X267606Y205300D01*
X265284Y202501D01*
X262894Y199759D01*
X260438Y197076D01*
X257917Y194454D01*
X255332Y191895D01*
X252686Y189400D01*
X249979Y186970D01*
X247214Y184607D01*
X244392Y182313D01*
X241514Y180088D01*
X238583Y177934D01*
X235600Y175853D01*
X232567Y173845D01*
X229486Y171912D01*
X226358Y170055D01*
X223186Y168275D01*
X219972Y166573D01*
X216716Y164951D01*
X213422Y163408D01*
X210092Y161947D01*
X206726Y160567D01*
X203328Y159270D01*
X199899Y158057D01*
X196441Y156928D01*
X192957Y155884D01*
X189448Y154926D01*
X185917Y154053D01*
X182366Y153268D01*
X178796Y152569D01*
X175210Y151958D01*
X171611Y151435D01*
X168000Y151000D01*
X293460Y347000D02*
X292297Y350446D01*
X291050Y353863D01*
X289720Y357249D01*
X288307Y360601D01*
X286813Y363917D01*
X285239Y367196D01*
X283584Y370435D01*
X281851Y373633D01*
X280040Y376787D01*
X278153Y379896D01*
X276189Y382959D01*
X274152Y385972D01*
X272042Y388934D01*
X269859Y391844D01*
X267606Y394700D01*
X265284Y397499D01*
X262894Y400241D01*
X260438Y402924D01*
X257917Y405546D01*
X255332Y408105D01*
X252686Y410600D01*
X249979Y413030D01*
X247214Y415393D01*
X244392Y417687D01*
X241514Y419912D01*
X238583Y422066D01*
X235600Y424147D01*
X232567Y426155D01*
X229486Y428088D01*
X226358Y429945D01*
X223186Y431725D01*
X219972Y433427D01*
X216716Y435049D01*
X213422Y436592D01*
X210092Y438053D01*
X206726Y439433D01*
X203328Y440730D01*
X199899Y441943D01*
X196441Y443072D01*
X192957Y444116D01*
X189448Y445074D01*
X185917Y445947D01*
X182366Y446732D01*
X178796Y447431D01*
X175210Y448042D01*
X171611Y448565D01*
X168000Y449000D01*
D11*
X133960Y449000D02*
X130329Y448515D01*
X126711Y447942D01*
X123109Y447280D01*
X119523Y446530D01*
X115957Y445693D01*
X112413Y444769D01*
X108892Y443758D01*
X105397Y442661D01*
X101930Y441480D01*
X98493Y440214D01*
X95088Y438864D01*
X91717Y437431D01*
X88382Y435916D01*
X85085Y434320D01*
X81828Y432644D01*
X78613Y430889D01*
X75442Y429055D01*
X72316Y427145D01*
X69239Y425158D01*
X66211Y423097D01*
X63234Y420963D01*
X60310Y418756D01*
X57442Y416479D01*
X54629Y414132D01*
X51875Y411716D01*
X49181Y409235D01*
X46549Y406688D01*
X43980Y404077D01*
X41475Y401404D01*
X39036Y398671D01*
X36665Y395879D01*
X34363Y393030D01*
X32131Y390125D01*
X29972Y387167D01*
X27885Y384156D01*
X25872Y381096D01*
X23935Y377987D01*
X22074Y374832D01*
X20292Y371632D01*
X18588Y368390D01*
X16964Y365106D01*
X15420Y361784D01*
X13959Y358426D01*
X12580Y355032D01*
X11284Y351606D01*
X10073Y348149D01*
X8947Y344664D01*
X7906Y341152D01*
X6951Y337615D01*
X6084Y334057D01*
X5303Y330478D01*
X4611Y326881D01*
X4006Y323268D01*
X3490Y319642D01*
X3063Y316004D01*
X2725Y312356D01*
X2477Y308702D01*
X2318Y305042D01*
X2248Y301380D01*
X2269Y297717D01*
X2378Y294056D01*
X2578Y290398D01*
X2866Y286747D01*
X3244Y283103D01*
X3711Y279470D01*
X4267Y275850D01*
X4911Y272244D01*
X5643Y268655D01*
X6463Y265085D01*
X7370Y261536D01*
X8363Y258010D01*
X9442Y254510D01*
X10607Y251037D01*
X11856Y247594D01*
X13189Y244182D01*
X14606Y240804D01*
X16104Y237462D01*
X17684Y234157D01*
X19344Y230892D01*
X21083Y227668D01*
X22901Y224488D01*
X24796Y221353D01*
X26768Y218266D01*
X28814Y215228D01*
X30934Y212241D01*
X33126Y209306D01*
X35389Y206426D01*
X37723Y203603D01*
X40124Y200837D01*
X42593Y198131D01*
X45127Y195486D01*
X47725Y192903D01*
X50385Y190386D01*
X53106Y187934D01*
X55886Y185549D01*
X58724Y183233D01*
X61618Y180987D01*
X64566Y178813D01*
X67566Y176711D01*
X70616Y174683D01*
X73716Y172731D01*
X76862Y170855D01*
X80053Y169056D01*
X83287Y167337D01*
X86562Y165696D01*
X89876Y164137D01*
X93228Y162659D01*
X96614Y161263D01*
X100034Y159951D01*
X103485Y158723D01*
X106965Y157579D01*
X110472Y156521D01*
X114003Y155549D01*
X117558Y154664D01*
X121133Y153866D01*
X124726Y153156D01*
X128336Y152533D01*
X131960Y152000D01*
D12*
X37959Y260508D02*
X37959Y263754D01*
X37960Y263754D02*
X37958Y263867D01*
X37952Y263980D01*
X37942Y264093D01*
X37928Y264206D01*
X37911Y264318D01*
X37889Y264429D01*
X37864Y264539D01*
X37834Y264649D01*
X37801Y264757D01*
X37764Y264864D01*
X37724Y264970D01*
X37679Y265074D01*
X37631Y265177D01*
X37580Y265278D01*
X37525Y265377D01*
X37467Y265474D01*
X37405Y265569D01*
X37340Y265662D01*
X37272Y265752D01*
X37201Y265840D01*
X37126Y265926D01*
X37049Y266009D01*
X36969Y266089D01*
X36886Y266166D01*
X36800Y266241D01*
X36712Y266312D01*
X36622Y266380D01*
X36529Y266445D01*
X36434Y266507D01*
X36337Y266565D01*
X36238Y266620D01*
X36137Y266671D01*
X36034Y266719D01*
X35930Y266764D01*
X35824Y266804D01*
X35717Y266841D01*
X35609Y266874D01*
X35499Y266904D01*
X35389Y266929D01*
X35278Y266951D01*
X35166Y266968D01*
X35053Y266982D01*
X34940Y266992D01*
X34827Y266998D01*
X34714Y267000D01*
X34601Y266998D01*
X34488Y266992D01*
X34375Y266982D01*
X34262Y266968D01*
X34150Y266951D01*
X34039Y266929D01*
X33929Y266904D01*
X33819Y266874D01*
X33711Y266841D01*
X33604Y266804D01*
X33498Y266764D01*
X33394Y266719D01*
X33291Y266671D01*
X33190Y266620D01*
X33091Y266565D01*
X32994Y266507D01*
X32899Y266445D01*
X32806Y266380D01*
X32716Y266312D01*
X32628Y266241D01*
X32542Y266166D01*
X32459Y266089D01*
X32379Y266009D01*
X32302Y265926D01*
X32227Y265840D01*
X32156Y265752D01*
X32088Y265662D01*
X32023Y265569D01*
X31961Y265474D01*
X31903Y265377D01*
X31848Y265278D01*
X31797Y265177D01*
X31749Y265074D01*
X31704Y264970D01*
X31664Y264864D01*
X31627Y264757D01*
X31594Y264649D01*
X31564Y264539D01*
X31539Y264429D01*
X31517Y264318D01*
X31500Y264206D01*
X31486Y264093D01*
X31476Y263980D01*
X31470Y263867D01*
X31468Y263754D01*
X31468Y260508D01*
X43152Y260508D01*
X43152Y263754D01*
X43150Y263855D01*
X43144Y263955D01*
X43134Y264055D01*
X43121Y264155D01*
X43103Y264254D01*
X43082Y264353D01*
X43057Y264450D01*
X43028Y264547D01*
X42995Y264642D01*
X42959Y264736D01*
X42919Y264828D01*
X42876Y264919D01*
X42829Y265008D01*
X42779Y265095D01*
X42725Y265181D01*
X42668Y265264D01*
X42608Y265344D01*
X42545Y265423D01*
X42478Y265499D01*
X42409Y265572D01*
X42337Y265642D01*
X42263Y265710D01*
X42186Y265775D01*
X42106Y265836D01*
X42024Y265895D01*
X41940Y265950D01*
X41854Y266002D01*
X41766Y266051D01*
X41676Y266096D01*
X41584Y266138D01*
X41491Y266176D01*
X41396Y266210D01*
X41301Y266241D01*
X41204Y266268D01*
X41106Y266291D01*
X41007Y266311D01*
X40907Y266326D01*
X40807Y266338D01*
X40707Y266346D01*
X40606Y266350D01*
X40506Y266350D01*
X40405Y266346D01*
X40305Y266338D01*
X40205Y266326D01*
X40105Y266311D01*
X40006Y266291D01*
X39908Y266268D01*
X39811Y266241D01*
X39716Y266210D01*
X39621Y266176D01*
X39528Y266138D01*
X39436Y266096D01*
X39346Y266051D01*
X39258Y266002D01*
X39172Y265950D01*
X39088Y265895D01*
X39006Y265836D01*
X38926Y265775D01*
X38849Y265710D01*
X38775Y265642D01*
X38703Y265572D01*
X38634Y265499D01*
X38567Y265423D01*
X38504Y265344D01*
X38444Y265264D01*
X38387Y265181D01*
X38333Y265095D01*
X38283Y265008D01*
X38236Y264919D01*
X38193Y264828D01*
X38153Y264736D01*
X38117Y264642D01*
X38084Y264547D01*
X38055Y264450D01*
X38030Y264353D01*
X38009Y264254D01*
X37991Y264155D01*
X37978Y264055D01*
X37968Y263955D01*
X37962Y263855D01*
X37960Y263754D01*
X43152Y271938D02*
X31468Y271938D01*
X36012Y271938D02*
X43152Y278429D01*
X38608Y274534D02*
X31468Y278429D01*
X31468Y282169D02*
X43152Y286063D01*
X31468Y289958D01*
X34389Y288984D02*
X34389Y283142D01*
X31468Y294248D02*
X31468Y297493D01*
X31470Y297606D01*
X31476Y297719D01*
X31486Y297832D01*
X31500Y297945D01*
X31517Y298057D01*
X31539Y298168D01*
X31564Y298278D01*
X31594Y298388D01*
X31627Y298496D01*
X31664Y298603D01*
X31704Y298709D01*
X31749Y298813D01*
X31797Y298916D01*
X31848Y299017D01*
X31903Y299116D01*
X31961Y299213D01*
X32023Y299308D01*
X32088Y299401D01*
X32156Y299491D01*
X32227Y299579D01*
X32302Y299665D01*
X32379Y299748D01*
X32459Y299828D01*
X32542Y299905D01*
X32628Y299980D01*
X32716Y300051D01*
X32806Y300119D01*
X32899Y300184D01*
X32994Y300246D01*
X33091Y300304D01*
X33190Y300359D01*
X33291Y300410D01*
X33394Y300458D01*
X33498Y300503D01*
X33604Y300543D01*
X33711Y300580D01*
X33819Y300613D01*
X33929Y300643D01*
X34039Y300668D01*
X34150Y300690D01*
X34262Y300707D01*
X34375Y300721D01*
X34488Y300731D01*
X34601Y300737D01*
X34714Y300739D01*
X34827Y300737D01*
X34940Y300731D01*
X35053Y300721D01*
X35166Y300707D01*
X35278Y300690D01*
X35389Y300668D01*
X35499Y300643D01*
X35609Y300613D01*
X35717Y300580D01*
X35824Y300543D01*
X35930Y300503D01*
X36034Y300458D01*
X36137Y300410D01*
X36238Y300359D01*
X36337Y300304D01*
X36434Y300246D01*
X36529Y300184D01*
X36622Y300119D01*
X36712Y300051D01*
X36800Y299980D01*
X36886Y299905D01*
X36969Y299828D01*
X37049Y299748D01*
X37126Y299665D01*
X37201Y299579D01*
X37272Y299491D01*
X37340Y299401D01*
X37405Y299308D01*
X37467Y299213D01*
X37525Y299116D01*
X37580Y299017D01*
X37631Y298916D01*
X37679Y298813D01*
X37724Y298709D01*
X37764Y298603D01*
X37801Y298496D01*
X37834Y298388D01*
X37864Y298278D01*
X37889Y298168D01*
X37911Y298057D01*
X37928Y297945D01*
X37942Y297832D01*
X37952Y297719D01*
X37958Y297606D01*
X37960Y297493D01*
X43152Y298142D02*
X43152Y294248D01*
X43152Y298142D02*
X43150Y298243D01*
X43144Y298343D01*
X43134Y298443D01*
X43121Y298543D01*
X43103Y298642D01*
X43082Y298741D01*
X43057Y298838D01*
X43028Y298935D01*
X42995Y299030D01*
X42959Y299124D01*
X42919Y299216D01*
X42876Y299307D01*
X42829Y299396D01*
X42779Y299483D01*
X42725Y299569D01*
X42668Y299652D01*
X42608Y299732D01*
X42545Y299811D01*
X42478Y299887D01*
X42409Y299960D01*
X42337Y300030D01*
X42263Y300098D01*
X42186Y300163D01*
X42106Y300224D01*
X42024Y300283D01*
X41940Y300338D01*
X41854Y300390D01*
X41766Y300439D01*
X41676Y300484D01*
X41584Y300526D01*
X41491Y300564D01*
X41396Y300598D01*
X41301Y300629D01*
X41204Y300656D01*
X41106Y300679D01*
X41007Y300699D01*
X40907Y300714D01*
X40807Y300726D01*
X40707Y300734D01*
X40606Y300738D01*
X40506Y300738D01*
X40405Y300734D01*
X40305Y300726D01*
X40205Y300714D01*
X40105Y300699D01*
X40006Y300679D01*
X39908Y300656D01*
X39811Y300629D01*
X39716Y300598D01*
X39621Y300564D01*
X39528Y300526D01*
X39436Y300484D01*
X39346Y300439D01*
X39258Y300390D01*
X39172Y300338D01*
X39088Y300283D01*
X39006Y300224D01*
X38926Y300163D01*
X38849Y300098D01*
X38775Y300030D01*
X38703Y299960D01*
X38634Y299887D01*
X38567Y299811D01*
X38504Y299732D01*
X38444Y299652D01*
X38387Y299569D01*
X38333Y299483D01*
X38283Y299396D01*
X38236Y299307D01*
X38193Y299216D01*
X38153Y299124D01*
X38117Y299030D01*
X38084Y298935D01*
X38055Y298838D01*
X38030Y298741D01*
X38009Y298642D01*
X37991Y298543D01*
X37978Y298443D01*
X37968Y298343D01*
X37962Y298243D01*
X37960Y298142D01*
X37959Y298142D02*
X37959Y295546D01*
X37310Y305678D02*
X37540Y305681D01*
X37770Y305689D01*
X37999Y305703D01*
X38228Y305722D01*
X38457Y305747D01*
X38684Y305777D01*
X38912Y305812D01*
X39138Y305853D01*
X39363Y305899D01*
X39587Y305951D01*
X39809Y306008D01*
X40031Y306070D01*
X40250Y306138D01*
X40468Y306211D01*
X40685Y306289D01*
X40899Y306372D01*
X41111Y306460D01*
X41321Y306553D01*
X41529Y306652D01*
X41529Y306651D02*
X41619Y306684D01*
X41708Y306720D01*
X41796Y306760D01*
X41881Y306804D01*
X41965Y306851D01*
X42047Y306901D01*
X42127Y306955D01*
X42204Y307011D01*
X42280Y307071D01*
X42353Y307134D01*
X42423Y307199D01*
X42491Y307268D01*
X42555Y307339D01*
X42617Y307412D01*
X42676Y307488D01*
X42732Y307566D01*
X42785Y307647D01*
X42834Y307729D01*
X42880Y307813D01*
X42923Y307900D01*
X42962Y307987D01*
X42998Y308077D01*
X43030Y308167D01*
X43058Y308259D01*
X43083Y308352D01*
X43104Y308446D01*
X43121Y308540D01*
X43135Y308635D01*
X43144Y308731D01*
X43150Y308827D01*
X43152Y308923D01*
X43150Y309019D01*
X43144Y309115D01*
X43135Y309211D01*
X43121Y309306D01*
X43104Y309400D01*
X43083Y309494D01*
X43058Y309587D01*
X43030Y309679D01*
X42998Y309769D01*
X42962Y309859D01*
X42923Y309946D01*
X42880Y310033D01*
X42834Y310117D01*
X42785Y310199D01*
X42732Y310280D01*
X42676Y310358D01*
X42617Y310434D01*
X42555Y310507D01*
X42491Y310578D01*
X42423Y310647D01*
X42353Y310712D01*
X42280Y310775D01*
X42204Y310835D01*
X42127Y310891D01*
X42047Y310945D01*
X41965Y310995D01*
X41881Y311042D01*
X41796Y311086D01*
X41708Y311126D01*
X41619Y311162D01*
X41529Y311195D01*
X41322Y311294D01*
X41112Y311387D01*
X40899Y311475D01*
X40685Y311558D01*
X40469Y311636D01*
X40251Y311709D01*
X40031Y311777D01*
X39810Y311839D01*
X39587Y311896D01*
X39363Y311948D01*
X39138Y311994D01*
X38912Y312035D01*
X38685Y312070D01*
X38457Y312100D01*
X38228Y312125D01*
X37999Y312144D01*
X37770Y312158D01*
X37540Y312166D01*
X37310Y312169D01*
X37310Y305677D02*
X37080Y305680D01*
X36850Y305688D01*
X36621Y305702D01*
X36392Y305721D01*
X36163Y305746D01*
X35935Y305776D01*
X35708Y305811D01*
X35482Y305852D01*
X35257Y305898D01*
X35033Y305950D01*
X34810Y306007D01*
X34589Y306069D01*
X34369Y306137D01*
X34151Y306210D01*
X33935Y306288D01*
X33721Y306371D01*
X33509Y306459D01*
X33298Y306552D01*
X33091Y306651D01*
X33001Y306684D01*
X32912Y306720D01*
X32824Y306761D01*
X32739Y306804D01*
X32655Y306851D01*
X32573Y306901D01*
X32493Y306955D01*
X32416Y307011D01*
X32340Y307071D01*
X32267Y307134D01*
X32197Y307199D01*
X32129Y307268D01*
X32065Y307339D01*
X32003Y307412D01*
X31944Y307488D01*
X31888Y307566D01*
X31835Y307647D01*
X31786Y307729D01*
X31740Y307813D01*
X31697Y307900D01*
X31658Y307987D01*
X31622Y308077D01*
X31590Y308167D01*
X31562Y308259D01*
X31537Y308352D01*
X31516Y308446D01*
X31499Y308540D01*
X31485Y308635D01*
X31476Y308731D01*
X31470Y308827D01*
X31468Y308923D01*
X33091Y311195D02*
X33298Y311294D01*
X33509Y311387D01*
X33721Y311475D01*
X33935Y311558D01*
X34151Y311636D01*
X34369Y311709D01*
X34589Y311777D01*
X34810Y311839D01*
X35033Y311896D01*
X35257Y311948D01*
X35482Y311994D01*
X35708Y312035D01*
X35935Y312070D01*
X36163Y312100D01*
X36392Y312125D01*
X36621Y312144D01*
X36850Y312158D01*
X37080Y312166D01*
X37310Y312169D01*
X33091Y311195D02*
X33001Y311162D01*
X32912Y311126D01*
X32824Y311086D01*
X32739Y311042D01*
X32655Y310995D01*
X32573Y310945D01*
X32493Y310891D01*
X32416Y310835D01*
X32340Y310775D01*
X32267Y310712D01*
X32197Y310647D01*
X32129Y310578D01*
X32065Y310507D01*
X32003Y310434D01*
X31944Y310358D01*
X31888Y310280D01*
X31835Y310199D01*
X31786Y310117D01*
X31740Y310033D01*
X31697Y309946D01*
X31658Y309859D01*
X31622Y309769D01*
X31590Y309679D01*
X31562Y309587D01*
X31537Y309494D01*
X31516Y309400D01*
X31499Y309306D01*
X31485Y309211D01*
X31476Y309115D01*
X31470Y309019D01*
X31468Y308923D01*
X34064Y306327D02*
X40556Y311520D01*
X36012Y317220D02*
X36012Y325010D01*
X31468Y330516D02*
X43152Y330516D01*
X43152Y333762D01*
X43150Y333875D01*
X43144Y333988D01*
X43134Y334101D01*
X43120Y334214D01*
X43103Y334326D01*
X43081Y334437D01*
X43056Y334547D01*
X43026Y334657D01*
X42993Y334765D01*
X42956Y334872D01*
X42916Y334978D01*
X42871Y335082D01*
X42823Y335185D01*
X42772Y335286D01*
X42717Y335385D01*
X42659Y335482D01*
X42597Y335577D01*
X42532Y335670D01*
X42464Y335760D01*
X42393Y335848D01*
X42318Y335934D01*
X42241Y336017D01*
X42161Y336097D01*
X42078Y336174D01*
X41992Y336249D01*
X41904Y336320D01*
X41814Y336388D01*
X41721Y336453D01*
X41626Y336515D01*
X41529Y336573D01*
X41430Y336628D01*
X41329Y336679D01*
X41226Y336727D01*
X41122Y336772D01*
X41016Y336812D01*
X40909Y336849D01*
X40801Y336882D01*
X40691Y336912D01*
X40581Y336937D01*
X40470Y336959D01*
X40358Y336976D01*
X40245Y336990D01*
X40132Y337000D01*
X40019Y337006D01*
X39906Y337008D01*
X39793Y337006D01*
X39680Y337000D01*
X39567Y336990D01*
X39454Y336976D01*
X39342Y336959D01*
X39231Y336937D01*
X39121Y336912D01*
X39011Y336882D01*
X38903Y336849D01*
X38796Y336812D01*
X38690Y336772D01*
X38586Y336727D01*
X38483Y336679D01*
X38382Y336628D01*
X38283Y336573D01*
X38186Y336515D01*
X38091Y336453D01*
X37998Y336388D01*
X37908Y336320D01*
X37820Y336249D01*
X37734Y336174D01*
X37651Y336097D01*
X37571Y336017D01*
X37494Y335934D01*
X37419Y335848D01*
X37348Y335760D01*
X37280Y335670D01*
X37215Y335577D01*
X37153Y335482D01*
X37095Y335385D01*
X37040Y335286D01*
X36989Y335185D01*
X36941Y335082D01*
X36896Y334978D01*
X36856Y334872D01*
X36819Y334765D01*
X36786Y334657D01*
X36756Y334547D01*
X36731Y334437D01*
X36709Y334326D01*
X36692Y334214D01*
X36678Y334101D01*
X36668Y333988D01*
X36662Y333875D01*
X36660Y333762D01*
X36661Y333762D02*
X36661Y330516D01*
X36661Y334411D02*
X31468Y337007D01*
X31468Y341873D02*
X31468Y345767D01*
X31470Y345866D01*
X31476Y345966D01*
X31485Y346065D01*
X31498Y346163D01*
X31515Y346261D01*
X31536Y346359D01*
X31561Y346455D01*
X31589Y346550D01*
X31621Y346644D01*
X31656Y346737D01*
X31695Y346829D01*
X31738Y346919D01*
X31783Y347007D01*
X31833Y347094D01*
X31885Y347178D01*
X31941Y347261D01*
X31999Y347341D01*
X32061Y347419D01*
X32126Y347494D01*
X32194Y347567D01*
X32264Y347637D01*
X32337Y347705D01*
X32412Y347770D01*
X32490Y347832D01*
X32570Y347890D01*
X32653Y347946D01*
X32737Y347998D01*
X32824Y348048D01*
X32912Y348093D01*
X33002Y348136D01*
X33094Y348175D01*
X33187Y348210D01*
X33281Y348242D01*
X33376Y348270D01*
X33472Y348295D01*
X33570Y348316D01*
X33668Y348333D01*
X33766Y348346D01*
X33865Y348355D01*
X33965Y348361D01*
X34064Y348363D01*
X34064Y348364D02*
X35363Y348364D01*
X35363Y348363D02*
X35462Y348361D01*
X35562Y348355D01*
X35661Y348346D01*
X35759Y348333D01*
X35857Y348316D01*
X35955Y348295D01*
X36051Y348270D01*
X36146Y348242D01*
X36240Y348210D01*
X36333Y348175D01*
X36425Y348136D01*
X36515Y348093D01*
X36603Y348048D01*
X36690Y347998D01*
X36774Y347946D01*
X36857Y347890D01*
X36937Y347832D01*
X37015Y347770D01*
X37090Y347705D01*
X37163Y347637D01*
X37233Y347567D01*
X37301Y347494D01*
X37366Y347419D01*
X37428Y347341D01*
X37486Y347261D01*
X37542Y347178D01*
X37594Y347094D01*
X37644Y347007D01*
X37689Y346919D01*
X37732Y346829D01*
X37771Y346737D01*
X37806Y346644D01*
X37838Y346550D01*
X37866Y346455D01*
X37891Y346359D01*
X37912Y346261D01*
X37929Y346163D01*
X37942Y346065D01*
X37951Y345966D01*
X37957Y345866D01*
X37959Y345767D01*
X37959Y341873D01*
X43152Y341873D01*
X43152Y348364D01*
X204008Y220903D02*
X204010Y221002D01*
X204016Y221102D01*
X204025Y221201D01*
X204038Y221299D01*
X204055Y221397D01*
X204076Y221495D01*
X204101Y221591D01*
X204129Y221686D01*
X204161Y221780D01*
X204196Y221873D01*
X204235Y221965D01*
X204278Y222055D01*
X204323Y222143D01*
X204373Y222230D01*
X204425Y222314D01*
X204481Y222397D01*
X204539Y222477D01*
X204601Y222555D01*
X204666Y222630D01*
X204734Y222703D01*
X204804Y222773D01*
X204877Y222841D01*
X204952Y222906D01*
X205030Y222968D01*
X205110Y223026D01*
X205193Y223082D01*
X205277Y223134D01*
X205364Y223184D01*
X205452Y223229D01*
X205542Y223272D01*
X205634Y223311D01*
X205727Y223346D01*
X205821Y223378D01*
X205916Y223406D01*
X206012Y223431D01*
X206110Y223452D01*
X206208Y223469D01*
X206306Y223482D01*
X206405Y223491D01*
X206505Y223497D01*
X206604Y223499D01*
X204008Y220903D02*
X204010Y220759D01*
X204016Y220614D01*
X204025Y220470D01*
X204038Y220327D01*
X204055Y220183D01*
X204076Y220040D01*
X204101Y219898D01*
X204129Y219757D01*
X204161Y219616D01*
X204197Y219476D01*
X204236Y219337D01*
X204279Y219199D01*
X204326Y219063D01*
X204376Y218927D01*
X204430Y218793D01*
X204487Y218661D01*
X204548Y218530D01*
X204612Y218401D01*
X204680Y218273D01*
X204750Y218147D01*
X204825Y218023D01*
X204902Y217902D01*
X204983Y217782D01*
X205066Y217664D01*
X205153Y217549D01*
X205243Y217436D01*
X205336Y217325D01*
X205431Y217217D01*
X205530Y217111D01*
X205631Y217008D01*
X213096Y217333D02*
X213195Y217335D01*
X213295Y217341D01*
X213394Y217350D01*
X213492Y217363D01*
X213590Y217380D01*
X213688Y217401D01*
X213784Y217426D01*
X213879Y217454D01*
X213973Y217486D01*
X214066Y217521D01*
X214158Y217560D01*
X214248Y217603D01*
X214336Y217648D01*
X214423Y217698D01*
X214507Y217750D01*
X214590Y217806D01*
X214670Y217864D01*
X214748Y217926D01*
X214823Y217991D01*
X214896Y218059D01*
X214966Y218129D01*
X215034Y218202D01*
X215099Y218277D01*
X215161Y218355D01*
X215219Y218435D01*
X215275Y218518D01*
X215327Y218602D01*
X215377Y218689D01*
X215422Y218777D01*
X215465Y218867D01*
X215504Y218959D01*
X215539Y219052D01*
X215571Y219146D01*
X215599Y219241D01*
X215624Y219338D01*
X215645Y219435D01*
X215662Y219533D01*
X215675Y219631D01*
X215684Y219730D01*
X215690Y219830D01*
X215692Y219929D01*
X215690Y220065D01*
X215684Y220201D01*
X215675Y220337D01*
X215662Y220473D01*
X215644Y220608D01*
X215624Y220742D01*
X215599Y220876D01*
X215571Y221010D01*
X215538Y221142D01*
X215503Y221273D01*
X215463Y221404D01*
X215420Y221533D01*
X215374Y221661D01*
X215323Y221787D01*
X215270Y221913D01*
X215212Y222036D01*
X215152Y222158D01*
X215088Y222278D01*
X215020Y222397D01*
X214950Y222513D01*
X214876Y222627D01*
X214799Y222740D01*
X214718Y222850D01*
X210824Y218631D02*
X210877Y218545D01*
X210934Y218461D01*
X210993Y218379D01*
X211056Y218299D01*
X211122Y218222D01*
X211190Y218147D01*
X211262Y218075D01*
X211336Y218006D01*
X211413Y217940D01*
X211492Y217877D01*
X211574Y217817D01*
X211658Y217760D01*
X211744Y217706D01*
X211832Y217656D01*
X211922Y217609D01*
X212013Y217565D01*
X212107Y217526D01*
X212201Y217489D01*
X212297Y217457D01*
X212395Y217428D01*
X212493Y217403D01*
X212592Y217382D01*
X212692Y217364D01*
X212792Y217351D01*
X212893Y217341D01*
X212995Y217335D01*
X213096Y217333D01*
X208876Y222201D02*
X208823Y222287D01*
X208766Y222371D01*
X208707Y222453D01*
X208644Y222533D01*
X208578Y222610D01*
X208510Y222685D01*
X208438Y222757D01*
X208364Y222826D01*
X208287Y222892D01*
X208208Y222955D01*
X208126Y223015D01*
X208042Y223072D01*
X207956Y223126D01*
X207868Y223176D01*
X207778Y223223D01*
X207687Y223267D01*
X207593Y223306D01*
X207499Y223343D01*
X207403Y223375D01*
X207305Y223404D01*
X207207Y223429D01*
X207108Y223450D01*
X207008Y223468D01*
X206908Y223481D01*
X206807Y223491D01*
X206705Y223497D01*
X206604Y223499D01*
X208876Y222201D02*
X210824Y218631D01*
X215692Y230541D02*
X204008Y230541D01*
X215692Y227295D02*
X215692Y233786D01*
X204008Y238367D02*
X204008Y243559D01*
X204008Y238367D02*
X215692Y238367D01*
X215692Y243559D01*
X210499Y242261D02*
X210499Y238367D01*
X215692Y248419D02*
X204008Y248419D01*
X215692Y248419D02*
X215692Y251665D01*
X215690Y251778D01*
X215684Y251891D01*
X215674Y252004D01*
X215660Y252117D01*
X215643Y252229D01*
X215621Y252340D01*
X215596Y252450D01*
X215566Y252560D01*
X215533Y252668D01*
X215496Y252775D01*
X215456Y252881D01*
X215411Y252985D01*
X215363Y253088D01*
X215312Y253189D01*
X215257Y253288D01*
X215199Y253385D01*
X215137Y253480D01*
X215072Y253573D01*
X215004Y253663D01*
X214933Y253751D01*
X214858Y253837D01*
X214781Y253920D01*
X214701Y254000D01*
X214618Y254077D01*
X214532Y254152D01*
X214444Y254223D01*
X214354Y254291D01*
X214261Y254356D01*
X214166Y254418D01*
X214069Y254476D01*
X213970Y254531D01*
X213869Y254582D01*
X213766Y254630D01*
X213662Y254675D01*
X213556Y254715D01*
X213449Y254752D01*
X213341Y254785D01*
X213231Y254815D01*
X213121Y254840D01*
X213010Y254862D01*
X212898Y254879D01*
X212785Y254893D01*
X212672Y254903D01*
X212559Y254909D01*
X212446Y254911D01*
X212333Y254909D01*
X212220Y254903D01*
X212107Y254893D01*
X211994Y254879D01*
X211882Y254862D01*
X211771Y254840D01*
X211661Y254815D01*
X211551Y254785D01*
X211443Y254752D01*
X211336Y254715D01*
X211230Y254675D01*
X211126Y254630D01*
X211023Y254582D01*
X210922Y254531D01*
X210823Y254476D01*
X210726Y254418D01*
X210631Y254356D01*
X210538Y254291D01*
X210448Y254223D01*
X210360Y254152D01*
X210274Y254077D01*
X210191Y254000D01*
X210111Y253920D01*
X210034Y253837D01*
X209959Y253751D01*
X209888Y253663D01*
X209820Y253573D01*
X209755Y253480D01*
X209693Y253385D01*
X209635Y253288D01*
X209580Y253189D01*
X209529Y253088D01*
X209481Y252985D01*
X209436Y252881D01*
X209396Y252775D01*
X209359Y252668D01*
X209326Y252560D01*
X209296Y252450D01*
X209271Y252340D01*
X209249Y252229D01*
X209232Y252117D01*
X209218Y252004D01*
X209208Y251891D01*
X209202Y251778D01*
X209200Y251665D01*
X209201Y251665D02*
X209201Y248419D01*
X204008Y259849D02*
X215692Y259849D01*
X215692Y263095D01*
X215690Y263208D01*
X215684Y263321D01*
X215674Y263434D01*
X215660Y263547D01*
X215643Y263659D01*
X215621Y263770D01*
X215596Y263880D01*
X215566Y263990D01*
X215533Y264098D01*
X215496Y264205D01*
X215456Y264311D01*
X215411Y264415D01*
X215363Y264518D01*
X215312Y264619D01*
X215257Y264718D01*
X215199Y264815D01*
X215137Y264910D01*
X215072Y265003D01*
X215004Y265093D01*
X214933Y265181D01*
X214858Y265267D01*
X214781Y265350D01*
X214701Y265430D01*
X214618Y265507D01*
X214532Y265582D01*
X214444Y265653D01*
X214354Y265721D01*
X214261Y265786D01*
X214166Y265848D01*
X214069Y265906D01*
X213970Y265961D01*
X213869Y266012D01*
X213766Y266060D01*
X213662Y266105D01*
X213556Y266145D01*
X213449Y266182D01*
X213341Y266215D01*
X213231Y266245D01*
X213121Y266270D01*
X213010Y266292D01*
X212898Y266309D01*
X212785Y266323D01*
X212672Y266333D01*
X212559Y266339D01*
X212446Y266341D01*
X212333Y266339D01*
X212220Y266333D01*
X212107Y266323D01*
X211994Y266309D01*
X211882Y266292D01*
X211771Y266270D01*
X211661Y266245D01*
X211551Y266215D01*
X211443Y266182D01*
X211336Y266145D01*
X211230Y266105D01*
X211126Y266060D01*
X211023Y266012D01*
X210922Y265961D01*
X210823Y265906D01*
X210726Y265848D01*
X210631Y265786D01*
X210538Y265721D01*
X210448Y265653D01*
X210360Y265582D01*
X210274Y265507D01*
X210191Y265430D01*
X210111Y265350D01*
X210034Y265267D01*
X209959Y265181D01*
X209888Y265093D01*
X209820Y265003D01*
X209755Y264910D01*
X209693Y264815D01*
X209635Y264718D01*
X209580Y264619D01*
X209529Y264518D01*
X209481Y264415D01*
X209436Y264311D01*
X209396Y264205D01*
X209359Y264098D01*
X209326Y263990D01*
X209296Y263880D01*
X209271Y263770D01*
X209249Y263659D01*
X209232Y263547D01*
X209218Y263434D01*
X209208Y263321D01*
X209202Y263208D01*
X209200Y263095D01*
X209201Y263095D02*
X209201Y259849D01*
X204008Y271132D02*
X204008Y276325D01*
X204008Y271132D02*
X215692Y271132D01*
X215692Y276325D01*
X210499Y275027D02*
X210499Y271132D01*
X215692Y281090D02*
X204008Y281090D01*
X215692Y281090D02*
X215692Y284335D01*
X215690Y284448D01*
X215684Y284561D01*
X215674Y284674D01*
X215660Y284787D01*
X215643Y284899D01*
X215621Y285010D01*
X215596Y285120D01*
X215566Y285230D01*
X215533Y285338D01*
X215496Y285445D01*
X215456Y285551D01*
X215411Y285655D01*
X215363Y285758D01*
X215312Y285859D01*
X215257Y285958D01*
X215199Y286055D01*
X215137Y286150D01*
X215072Y286243D01*
X215004Y286333D01*
X214933Y286421D01*
X214858Y286507D01*
X214781Y286590D01*
X214701Y286670D01*
X214618Y286747D01*
X214532Y286822D01*
X214444Y286893D01*
X214354Y286961D01*
X214261Y287026D01*
X214166Y287088D01*
X214069Y287146D01*
X213970Y287201D01*
X213869Y287252D01*
X213766Y287300D01*
X213662Y287345D01*
X213556Y287385D01*
X213449Y287422D01*
X213341Y287455D01*
X213231Y287485D01*
X213121Y287510D01*
X213010Y287532D01*
X212898Y287549D01*
X212785Y287563D01*
X212672Y287573D01*
X212559Y287579D01*
X212446Y287581D01*
X212333Y287579D01*
X212220Y287573D01*
X212107Y287563D01*
X211994Y287549D01*
X211882Y287532D01*
X211771Y287510D01*
X211661Y287485D01*
X211551Y287455D01*
X211443Y287422D01*
X211336Y287385D01*
X211230Y287345D01*
X211126Y287300D01*
X211023Y287252D01*
X210922Y287201D01*
X210823Y287146D01*
X210726Y287088D01*
X210631Y287026D01*
X210538Y286961D01*
X210448Y286893D01*
X210360Y286822D01*
X210274Y286747D01*
X210191Y286670D01*
X210111Y286590D01*
X210034Y286507D01*
X209959Y286421D01*
X209888Y286333D01*
X209820Y286243D01*
X209755Y286150D01*
X209693Y286055D01*
X209635Y285958D01*
X209580Y285859D01*
X209529Y285758D01*
X209481Y285655D01*
X209436Y285551D01*
X209396Y285445D01*
X209359Y285338D01*
X209326Y285230D01*
X209296Y285120D01*
X209271Y285010D01*
X209249Y284899D01*
X209232Y284787D01*
X209218Y284674D01*
X209208Y284561D01*
X209202Y284448D01*
X209200Y284335D01*
X209201Y284335D02*
X209201Y281090D01*
X209201Y284984D02*
X204008Y287581D01*
X213096Y292446D02*
X215692Y295691D01*
X204008Y295691D01*
X204008Y292446D02*
X204008Y298937D01*
D10*
X427500Y435000D02*
X427507Y435552D01*
X427527Y436104D01*
X427561Y436655D01*
X427608Y437205D01*
X427669Y437754D01*
X427744Y438301D01*
X427831Y438847D01*
X427932Y439390D01*
X428047Y439930D01*
X428174Y440467D01*
X428315Y441001D01*
X428469Y441531D01*
X428636Y442058D01*
X428815Y442580D01*
X429008Y443098D01*
X429213Y443610D01*
X429430Y444118D01*
X429660Y444620D01*
X429902Y445116D01*
X430157Y445606D01*
X430423Y446090D01*
X430701Y446567D01*
X430991Y447037D01*
X431292Y447500D01*
X431604Y447956D01*
X431928Y448403D01*
X432262Y448843D01*
X432607Y449274D01*
X432963Y449696D01*
X433329Y450110D01*
X433704Y450515D01*
X434090Y450910D01*
X434485Y451296D01*
X434890Y451671D01*
X435304Y452037D01*
X435726Y452393D01*
X436157Y452738D01*
X436597Y453072D01*
X437044Y453396D01*
X437500Y453708D01*
X437963Y454009D01*
X438433Y454299D01*
X438910Y454577D01*
X439394Y454843D01*
X439884Y455098D01*
X440380Y455340D01*
X440882Y455570D01*
X441390Y455787D01*
X441902Y455992D01*
X442420Y456185D01*
X442942Y456364D01*
X443469Y456531D01*
X443999Y456685D01*
X444533Y456826D01*
X445070Y456953D01*
X445610Y457068D01*
X446153Y457169D01*
X446699Y457256D01*
X447246Y457331D01*
X447795Y457392D01*
X448345Y457439D01*
X448896Y457473D01*
X449448Y457493D01*
X450000Y457500D01*
X450552Y457493D01*
X451104Y457473D01*
X451655Y457439D01*
X452205Y457392D01*
X452754Y457331D01*
X453301Y457256D01*
X453847Y457169D01*
X454390Y457068D01*
X454930Y456953D01*
X455467Y456826D01*
X456001Y456685D01*
X456531Y456531D01*
X457058Y456364D01*
X457580Y456185D01*
X458098Y455992D01*
X458610Y455787D01*
X459118Y455570D01*
X459620Y455340D01*
X460116Y455098D01*
X460606Y454843D01*
X461090Y454577D01*
X461567Y454299D01*
X462037Y454009D01*
X462500Y453708D01*
X462956Y453396D01*
X463403Y453072D01*
X463843Y452738D01*
X464274Y452393D01*
X464696Y452037D01*
X465110Y451671D01*
X465515Y451296D01*
X465910Y450910D01*
X466296Y450515D01*
X466671Y450110D01*
X467037Y449696D01*
X467393Y449274D01*
X467738Y448843D01*
X468072Y448403D01*
X468396Y447956D01*
X468708Y447500D01*
X469009Y447037D01*
X469299Y446567D01*
X469577Y446090D01*
X469843Y445606D01*
X470098Y445116D01*
X470340Y444620D01*
X470570Y444118D01*
X470787Y443610D01*
X470992Y443098D01*
X471185Y442580D01*
X471364Y442058D01*
X471531Y441531D01*
X471685Y441001D01*
X471826Y440467D01*
X471953Y439930D01*
X472068Y439390D01*
X472169Y438847D01*
X472256Y438301D01*
X472331Y437754D01*
X472392Y437205D01*
X472439Y436655D01*
X472473Y436104D01*
X472493Y435552D01*
X472500Y435000D01*
X472493Y434448D01*
X472473Y433896D01*
X472439Y433345D01*
X472392Y432795D01*
X472331Y432246D01*
X472256Y431699D01*
X472169Y431153D01*
X472068Y430610D01*
X471953Y430070D01*
X471826Y429533D01*
X471685Y428999D01*
X471531Y428469D01*
X471364Y427942D01*
X471185Y427420D01*
X470992Y426902D01*
X470787Y426390D01*
X470570Y425882D01*
X470340Y425380D01*
X470098Y424884D01*
X469843Y424394D01*
X469577Y423910D01*
X469299Y423433D01*
X469009Y422963D01*
X468708Y422500D01*
X468396Y422044D01*
X468072Y421597D01*
X467738Y421157D01*
X467393Y420726D01*
X467037Y420304D01*
X466671Y419890D01*
X466296Y419485D01*
X465910Y419090D01*
X465515Y418704D01*
X465110Y418329D01*
X464696Y417963D01*
X464274Y417607D01*
X463843Y417262D01*
X463403Y416928D01*
X462956Y416604D01*
X462500Y416292D01*
X462037Y415991D01*
X461567Y415701D01*
X461090Y415423D01*
X460606Y415157D01*
X460116Y414902D01*
X459620Y414660D01*
X459118Y414430D01*
X458610Y414213D01*
X458098Y414008D01*
X457580Y413815D01*
X457058Y413636D01*
X456531Y413469D01*
X456001Y413315D01*
X455467Y413174D01*
X454930Y413047D01*
X454390Y412932D01*
X453847Y412831D01*
X453301Y412744D01*
X452754Y412669D01*
X452205Y412608D01*
X451655Y412561D01*
X451104Y412527D01*
X450552Y412507D01*
X450000Y412500D01*
X449448Y412507D01*
X448896Y412527D01*
X448345Y412561D01*
X447795Y412608D01*
X447246Y412669D01*
X446699Y412744D01*
X446153Y412831D01*
X445610Y412932D01*
X445070Y413047D01*
X444533Y413174D01*
X443999Y413315D01*
X443469Y413469D01*
X442942Y413636D01*
X442420Y413815D01*
X441902Y414008D01*
X441390Y414213D01*
X440882Y414430D01*
X440380Y414660D01*
X439884Y414902D01*
X439394Y415157D01*
X438910Y415423D01*
X438433Y415701D01*
X437963Y415991D01*
X437500Y416292D01*
X437044Y416604D01*
X436597Y416928D01*
X436157Y417262D01*
X435726Y417607D01*
X435304Y417963D01*
X434890Y418329D01*
X434485Y418704D01*
X434090Y419090D01*
X433704Y419485D01*
X433329Y419890D01*
X432963Y420304D01*
X432607Y420726D01*
X432262Y421157D01*
X431928Y421597D01*
X431604Y422044D01*
X431292Y422500D01*
X430991Y422963D01*
X430701Y423433D01*
X430423Y423910D01*
X430157Y424394D01*
X429902Y424884D01*
X429660Y425380D01*
X429430Y425882D01*
X429213Y426390D01*
X429008Y426902D01*
X428815Y427420D01*
X428636Y427942D01*
X428469Y428469D01*
X428315Y428999D01*
X428174Y429533D01*
X428047Y430070D01*
X427932Y430610D01*
X427831Y431153D01*
X427744Y431699D01*
X427669Y432246D01*
X427608Y432795D01*
X427561Y433345D01*
X427527Y433896D01*
X427507Y434448D01*
X427500Y435000D01*
X427500Y165000D02*
X427507Y165552D01*
X427527Y166104D01*
X427561Y166655D01*
X427608Y167205D01*
X427669Y167754D01*
X427744Y168301D01*
X427831Y168847D01*
X427932Y169390D01*
X428047Y169930D01*
X428174Y170467D01*
X428315Y171001D01*
X428469Y171531D01*
X428636Y172058D01*
X428815Y172580D01*
X429008Y173098D01*
X429213Y173610D01*
X429430Y174118D01*
X429660Y174620D01*
X429902Y175116D01*
X430157Y175606D01*
X430423Y176090D01*
X430701Y176567D01*
X430991Y177037D01*
X431292Y177500D01*
X431604Y177956D01*
X431928Y178403D01*
X432262Y178843D01*
X432607Y179274D01*
X432963Y179696D01*
X433329Y180110D01*
X433704Y180515D01*
X434090Y180910D01*
X434485Y181296D01*
X434890Y181671D01*
X435304Y182037D01*
X435726Y182393D01*
X436157Y182738D01*
X436597Y183072D01*
X437044Y183396D01*
X437500Y183708D01*
X437963Y184009D01*
X438433Y184299D01*
X438910Y184577D01*
X439394Y184843D01*
X439884Y185098D01*
X440380Y185340D01*
X440882Y185570D01*
X441390Y185787D01*
X441902Y185992D01*
X442420Y186185D01*
X442942Y186364D01*
X443469Y186531D01*
X443999Y186685D01*
X444533Y186826D01*
X445070Y186953D01*
X445610Y187068D01*
X446153Y187169D01*
X446699Y187256D01*
X447246Y187331D01*
X447795Y187392D01*
X448345Y187439D01*
X448896Y187473D01*
X449448Y187493D01*
X450000Y187500D01*
X450552Y187493D01*
X451104Y187473D01*
X451655Y187439D01*
X452205Y187392D01*
X452754Y187331D01*
X453301Y187256D01*
X453847Y187169D01*
X454390Y187068D01*
X454930Y186953D01*
X455467Y186826D01*
X456001Y186685D01*
X456531Y186531D01*
X457058Y186364D01*
X457580Y186185D01*
X458098Y185992D01*
X458610Y185787D01*
X459118Y185570D01*
X459620Y185340D01*
X460116Y185098D01*
X460606Y184843D01*
X461090Y184577D01*
X461567Y184299D01*
X462037Y184009D01*
X462500Y183708D01*
X462956Y183396D01*
X463403Y183072D01*
X463843Y182738D01*
X464274Y182393D01*
X464696Y182037D01*
X465110Y181671D01*
X465515Y181296D01*
X465910Y180910D01*
X466296Y180515D01*
X466671Y180110D01*
X467037Y179696D01*
X467393Y179274D01*
X467738Y178843D01*
X468072Y178403D01*
X468396Y177956D01*
X468708Y177500D01*
X469009Y177037D01*
X469299Y176567D01*
X469577Y176090D01*
X469843Y175606D01*
X470098Y175116D01*
X470340Y174620D01*
X470570Y174118D01*
X470787Y173610D01*
X470992Y173098D01*
X471185Y172580D01*
X471364Y172058D01*
X471531Y171531D01*
X471685Y171001D01*
X471826Y170467D01*
X471953Y169930D01*
X472068Y169390D01*
X472169Y168847D01*
X472256Y168301D01*
X472331Y167754D01*
X472392Y167205D01*
X472439Y166655D01*
X472473Y166104D01*
X472493Y165552D01*
X472500Y165000D01*
X472493Y164448D01*
X472473Y163896D01*
X472439Y163345D01*
X472392Y162795D01*
X472331Y162246D01*
X472256Y161699D01*
X472169Y161153D01*
X472068Y160610D01*
X471953Y160070D01*
X471826Y159533D01*
X471685Y158999D01*
X471531Y158469D01*
X471364Y157942D01*
X471185Y157420D01*
X470992Y156902D01*
X470787Y156390D01*
X470570Y155882D01*
X470340Y155380D01*
X470098Y154884D01*
X469843Y154394D01*
X469577Y153910D01*
X469299Y153433D01*
X469009Y152963D01*
X468708Y152500D01*
X468396Y152044D01*
X468072Y151597D01*
X467738Y151157D01*
X467393Y150726D01*
X467037Y150304D01*
X466671Y149890D01*
X466296Y149485D01*
X465910Y149090D01*
X465515Y148704D01*
X465110Y148329D01*
X464696Y147963D01*
X464274Y147607D01*
X463843Y147262D01*
X463403Y146928D01*
X462956Y146604D01*
X462500Y146292D01*
X462037Y145991D01*
X461567Y145701D01*
X461090Y145423D01*
X460606Y145157D01*
X460116Y144902D01*
X459620Y144660D01*
X459118Y144430D01*
X458610Y144213D01*
X458098Y144008D01*
X457580Y143815D01*
X457058Y143636D01*
X456531Y143469D01*
X456001Y143315D01*
X455467Y143174D01*
X454930Y143047D01*
X454390Y142932D01*
X453847Y142831D01*
X453301Y142744D01*
X452754Y142669D01*
X452205Y142608D01*
X451655Y142561D01*
X451104Y142527D01*
X450552Y142507D01*
X450000Y142500D01*
X449448Y142507D01*
X448896Y142527D01*
X448345Y142561D01*
X447795Y142608D01*
X447246Y142669D01*
X446699Y142744D01*
X446153Y142831D01*
X445610Y142932D01*
X445070Y143047D01*
X444533Y143174D01*
X443999Y143315D01*
X443469Y143469D01*
X442942Y143636D01*
X442420Y143815D01*
X441902Y144008D01*
X441390Y144213D01*
X440882Y144430D01*
X440380Y144660D01*
X439884Y144902D01*
X439394Y145157D01*
X438910Y145423D01*
X438433Y145701D01*
X437963Y145991D01*
X437500Y146292D01*
X437044Y146604D01*
X436597Y146928D01*
X436157Y147262D01*
X435726Y147607D01*
X435304Y147963D01*
X434890Y148329D01*
X434485Y148704D01*
X434090Y149090D01*
X433704Y149485D01*
X433329Y149890D01*
X432963Y150304D01*
X432607Y150726D01*
X432262Y151157D01*
X431928Y151597D01*
X431604Y152044D01*
X431292Y152500D01*
X430991Y152963D01*
X430701Y153433D01*
X430423Y153910D01*
X430157Y154394D01*
X429902Y154884D01*
X429660Y155380D01*
X429430Y155882D01*
X429213Y156390D01*
X429008Y156902D01*
X428815Y157420D01*
X428636Y157942D01*
X428469Y158469D01*
X428315Y158999D01*
X428174Y159533D01*
X428047Y160070D01*
X427932Y160610D01*
X427831Y161153D01*
X427744Y161699D01*
X427669Y162246D01*
X427608Y162795D01*
X427561Y163345D01*
X427527Y163896D01*
X427507Y164448D01*
X427500Y165000D01*
X306540Y253000D02*
X306540Y347000D01*
X306541Y347000D02*
X307703Y350447D01*
X308950Y353863D01*
X310280Y357249D01*
X311693Y360601D01*
X313187Y363917D01*
X314761Y367196D01*
X316416Y370435D01*
X318149Y373633D01*
X319960Y376787D01*
X321848Y379896D01*
X323811Y382959D01*
X325848Y385972D01*
X327958Y388934D01*
X330141Y391844D01*
X332394Y394700D01*
X334716Y397499D01*
X337106Y400241D01*
X339562Y402924D01*
X342083Y405546D01*
X344668Y408105D01*
X347314Y410600D01*
X350021Y413030D01*
X352786Y415393D01*
X355608Y417687D01*
X358486Y419912D01*
X361417Y422066D01*
X364400Y424147D01*
X367433Y426155D01*
X370514Y428088D01*
X373642Y429945D01*
X376814Y431725D01*
X380028Y433427D01*
X383284Y435049D01*
X386578Y436592D01*
X389908Y438053D01*
X393274Y439433D01*
X396672Y440730D01*
X400101Y441943D01*
X403559Y443072D01*
X407043Y444116D01*
X410552Y445074D01*
X414083Y445947D01*
X417634Y446732D01*
X421204Y447431D01*
X424790Y448042D01*
X428389Y448565D01*
X432000Y449000D01*
X306540Y253000D02*
X307703Y249554D01*
X308950Y246137D01*
X310280Y242751D01*
X311693Y239399D01*
X313187Y236083D01*
X314761Y232804D01*
X316416Y229565D01*
X318149Y226367D01*
X319960Y223213D01*
X321847Y220104D01*
X323811Y217041D01*
X325848Y214028D01*
X327958Y211066D01*
X330141Y208156D01*
X332394Y205300D01*
X334716Y202501D01*
X337106Y199759D01*
X339562Y197076D01*
X342083Y194454D01*
X344668Y191895D01*
X347314Y189400D01*
X350021Y186970D01*
X352786Y184607D01*
X355608Y182313D01*
X358486Y180088D01*
X361417Y177934D01*
X364400Y175853D01*
X367433Y173845D01*
X370514Y171912D01*
X373642Y170055D01*
X376814Y168275D01*
X380028Y166573D01*
X383284Y164951D01*
X386578Y163408D01*
X389908Y161947D01*
X393274Y160567D01*
X396672Y159270D01*
X400101Y158057D01*
X403559Y156928D01*
X407043Y155884D01*
X410552Y154926D01*
X414083Y154053D01*
X417634Y153268D01*
X421204Y152569D01*
X424790Y151958D01*
X428389Y151435D01*
X432000Y151000D01*
D11*
X466040Y151000D02*
X469671Y151485D01*
X473289Y152058D01*
X476891Y152720D01*
X480477Y153470D01*
X484043Y154307D01*
X487587Y155231D01*
X491108Y156242D01*
X494603Y157339D01*
X498070Y158520D01*
X501507Y159786D01*
X504912Y161136D01*
X508283Y162569D01*
X511618Y164084D01*
X514915Y165680D01*
X518172Y167356D01*
X521387Y169111D01*
X524558Y170945D01*
X527684Y172855D01*
X530761Y174842D01*
X533789Y176903D01*
X536766Y179037D01*
X539690Y181244D01*
X542558Y183521D01*
X545371Y185868D01*
X548125Y188284D01*
X550819Y190765D01*
X553451Y193312D01*
X556020Y195923D01*
X558525Y198596D01*
X560964Y201329D01*
X563335Y204121D01*
X565637Y206970D01*
X567869Y209875D01*
X570028Y212833D01*
X572115Y215844D01*
X574128Y218904D01*
X576065Y222013D01*
X577926Y225168D01*
X579708Y228368D01*
X581412Y231610D01*
X583036Y234894D01*
X584580Y238216D01*
X586041Y241574D01*
X587420Y244968D01*
X588716Y248394D01*
X589927Y251851D01*
X591053Y255336D01*
X592094Y258848D01*
X593049Y262385D01*
X593916Y265943D01*
X594697Y269522D01*
X595389Y273119D01*
X595994Y276732D01*
X596510Y280358D01*
X596937Y283996D01*
X597275Y287644D01*
X597523Y291298D01*
X597682Y294958D01*
X597752Y298620D01*
X597731Y302283D01*
X597622Y305944D01*
X597422Y309602D01*
X597134Y313253D01*
X596756Y316897D01*
X596289Y320530D01*
X595733Y324150D01*
X595089Y327756D01*
X594357Y331345D01*
X593537Y334915D01*
X592630Y338464D01*
X591637Y341990D01*
X590558Y345490D01*
X589393Y348963D01*
X588144Y352406D01*
X586811Y355818D01*
X585394Y359196D01*
X583896Y362538D01*
X582316Y365843D01*
X580656Y369108D01*
X578917Y372332D01*
X577099Y375512D01*
X575204Y378647D01*
X573232Y381734D01*
X571186Y384772D01*
X569066Y387759D01*
X566874Y390694D01*
X564611Y393574D01*
X562277Y396397D01*
X559876Y399163D01*
X557407Y401869D01*
X554873Y404514D01*
X552275Y407097D01*
X549615Y409614D01*
X546894Y412066D01*
X544114Y414451D01*
X541276Y416767D01*
X538382Y419013D01*
X535434Y421187D01*
X532434Y423289D01*
X529384Y425317D01*
X526284Y427269D01*
X523138Y429145D01*
X519947Y430944D01*
X516713Y432663D01*
X513438Y434304D01*
X510124Y435863D01*
X506772Y437341D01*
X503386Y438737D01*
X499966Y440049D01*
X496515Y441277D01*
X493035Y442421D01*
X489528Y443479D01*
X485997Y444451D01*
X482442Y445336D01*
X478867Y446134D01*
X475274Y446844D01*
X471664Y447467D01*
X468040Y448000D01*
D12*
X563339Y254882D02*
X563339Y251636D01*
X563340Y254882D02*
X563338Y254995D01*
X563332Y255108D01*
X563322Y255221D01*
X563308Y255334D01*
X563291Y255446D01*
X563269Y255557D01*
X563244Y255667D01*
X563214Y255777D01*
X563181Y255885D01*
X563144Y255992D01*
X563104Y256098D01*
X563059Y256202D01*
X563011Y256305D01*
X562960Y256406D01*
X562905Y256505D01*
X562847Y256602D01*
X562785Y256697D01*
X562720Y256790D01*
X562652Y256880D01*
X562581Y256968D01*
X562506Y257054D01*
X562429Y257137D01*
X562349Y257217D01*
X562266Y257294D01*
X562180Y257369D01*
X562092Y257440D01*
X562002Y257508D01*
X561909Y257573D01*
X561814Y257635D01*
X561717Y257693D01*
X561618Y257748D01*
X561517Y257799D01*
X561414Y257847D01*
X561310Y257892D01*
X561204Y257932D01*
X561097Y257969D01*
X560989Y258002D01*
X560879Y258032D01*
X560769Y258057D01*
X560658Y258079D01*
X560546Y258096D01*
X560433Y258110D01*
X560320Y258120D01*
X560207Y258126D01*
X560094Y258128D01*
X559981Y258126D01*
X559868Y258120D01*
X559755Y258110D01*
X559642Y258096D01*
X559530Y258079D01*
X559419Y258057D01*
X559309Y258032D01*
X559199Y258002D01*
X559091Y257969D01*
X558984Y257932D01*
X558878Y257892D01*
X558774Y257847D01*
X558671Y257799D01*
X558570Y257748D01*
X558471Y257693D01*
X558374Y257635D01*
X558279Y257573D01*
X558186Y257508D01*
X558096Y257440D01*
X558008Y257369D01*
X557922Y257294D01*
X557839Y257217D01*
X557759Y257137D01*
X557682Y257054D01*
X557607Y256968D01*
X557536Y256880D01*
X557468Y256790D01*
X557403Y256697D01*
X557341Y256602D01*
X557283Y256505D01*
X557228Y256406D01*
X557177Y256305D01*
X557129Y256202D01*
X557084Y256098D01*
X557044Y255992D01*
X557007Y255885D01*
X556974Y255777D01*
X556944Y255667D01*
X556919Y255557D01*
X556897Y255446D01*
X556880Y255334D01*
X556866Y255221D01*
X556856Y255108D01*
X556850Y254995D01*
X556848Y254882D01*
X556848Y251636D01*
X568532Y251636D01*
X568532Y254882D01*
X568530Y254983D01*
X568524Y255083D01*
X568514Y255183D01*
X568501Y255283D01*
X568483Y255382D01*
X568462Y255481D01*
X568437Y255578D01*
X568408Y255675D01*
X568375Y255770D01*
X568339Y255864D01*
X568299Y255956D01*
X568256Y256047D01*
X568209Y256136D01*
X568159Y256223D01*
X568105Y256309D01*
X568048Y256392D01*
X567988Y256472D01*
X567925Y256551D01*
X567858Y256627D01*
X567789Y256700D01*
X567717Y256770D01*
X567643Y256838D01*
X567566Y256903D01*
X567486Y256964D01*
X567404Y257023D01*
X567320Y257078D01*
X567234Y257130D01*
X567146Y257179D01*
X567056Y257224D01*
X566964Y257266D01*
X566871Y257304D01*
X566776Y257338D01*
X566681Y257369D01*
X566584Y257396D01*
X566486Y257419D01*
X566387Y257439D01*
X566287Y257454D01*
X566187Y257466D01*
X566087Y257474D01*
X565986Y257478D01*
X565886Y257478D01*
X565785Y257474D01*
X565685Y257466D01*
X565585Y257454D01*
X565485Y257439D01*
X565386Y257419D01*
X565288Y257396D01*
X565191Y257369D01*
X565096Y257338D01*
X565001Y257304D01*
X564908Y257266D01*
X564816Y257224D01*
X564726Y257179D01*
X564638Y257130D01*
X564552Y257078D01*
X564468Y257023D01*
X564386Y256964D01*
X564306Y256903D01*
X564229Y256838D01*
X564155Y256770D01*
X564083Y256700D01*
X564014Y256627D01*
X563947Y256551D01*
X563884Y256472D01*
X563824Y256392D01*
X563767Y256309D01*
X563713Y256223D01*
X563663Y256136D01*
X563616Y256047D01*
X563573Y255956D01*
X563533Y255864D01*
X563497Y255770D01*
X563464Y255675D01*
X563435Y255578D01*
X563410Y255481D01*
X563389Y255382D01*
X563371Y255283D01*
X563358Y255183D01*
X563348Y255083D01*
X563342Y254983D01*
X563340Y254882D01*
X568532Y263066D02*
X556848Y263066D01*
X561392Y263066D02*
X568532Y269557D01*
X563988Y265663D02*
X556848Y269557D01*
X556848Y273297D02*
X568532Y277192D01*
X556848Y281086D01*
X559769Y280113D02*
X559769Y274271D01*
X556848Y285376D02*
X556848Y288622D01*
X556850Y288735D01*
X556856Y288848D01*
X556866Y288961D01*
X556880Y289074D01*
X556897Y289186D01*
X556919Y289297D01*
X556944Y289407D01*
X556974Y289517D01*
X557007Y289625D01*
X557044Y289732D01*
X557084Y289838D01*
X557129Y289942D01*
X557177Y290045D01*
X557228Y290146D01*
X557283Y290245D01*
X557341Y290342D01*
X557403Y290437D01*
X557468Y290530D01*
X557536Y290620D01*
X557607Y290708D01*
X557682Y290794D01*
X557759Y290877D01*
X557839Y290957D01*
X557922Y291034D01*
X558008Y291109D01*
X558096Y291180D01*
X558186Y291248D01*
X558279Y291313D01*
X558374Y291375D01*
X558471Y291433D01*
X558570Y291488D01*
X558671Y291539D01*
X558774Y291587D01*
X558878Y291632D01*
X558984Y291672D01*
X559091Y291709D01*
X559199Y291742D01*
X559309Y291772D01*
X559419Y291797D01*
X559530Y291819D01*
X559642Y291836D01*
X559755Y291850D01*
X559868Y291860D01*
X559981Y291866D01*
X560094Y291868D01*
X560207Y291866D01*
X560320Y291860D01*
X560433Y291850D01*
X560546Y291836D01*
X560658Y291819D01*
X560769Y291797D01*
X560879Y291772D01*
X560989Y291742D01*
X561097Y291709D01*
X561204Y291672D01*
X561310Y291632D01*
X561414Y291587D01*
X561517Y291539D01*
X561618Y291488D01*
X561717Y291433D01*
X561814Y291375D01*
X561909Y291313D01*
X562002Y291248D01*
X562092Y291180D01*
X562180Y291109D01*
X562266Y291034D01*
X562349Y290957D01*
X562429Y290877D01*
X562506Y290794D01*
X562581Y290708D01*
X562652Y290620D01*
X562720Y290530D01*
X562785Y290437D01*
X562847Y290342D01*
X562905Y290245D01*
X562960Y290146D01*
X563011Y290045D01*
X563059Y289942D01*
X563104Y289838D01*
X563144Y289732D01*
X563181Y289625D01*
X563214Y289517D01*
X563244Y289407D01*
X563269Y289297D01*
X563291Y289186D01*
X563308Y289074D01*
X563322Y288961D01*
X563332Y288848D01*
X563338Y288735D01*
X563340Y288622D01*
X568532Y289271D02*
X568532Y285376D01*
X568532Y289271D02*
X568530Y289372D01*
X568524Y289472D01*
X568514Y289572D01*
X568501Y289672D01*
X568483Y289771D01*
X568462Y289870D01*
X568437Y289967D01*
X568408Y290064D01*
X568375Y290159D01*
X568339Y290253D01*
X568299Y290345D01*
X568256Y290436D01*
X568209Y290525D01*
X568159Y290612D01*
X568105Y290698D01*
X568048Y290781D01*
X567988Y290861D01*
X567925Y290940D01*
X567858Y291016D01*
X567789Y291089D01*
X567717Y291159D01*
X567643Y291227D01*
X567566Y291292D01*
X567486Y291353D01*
X567404Y291412D01*
X567320Y291467D01*
X567234Y291519D01*
X567146Y291568D01*
X567056Y291613D01*
X566964Y291655D01*
X566871Y291693D01*
X566776Y291727D01*
X566681Y291758D01*
X566584Y291785D01*
X566486Y291808D01*
X566387Y291828D01*
X566287Y291843D01*
X566187Y291855D01*
X566087Y291863D01*
X565986Y291867D01*
X565886Y291867D01*
X565785Y291863D01*
X565685Y291855D01*
X565585Y291843D01*
X565485Y291828D01*
X565386Y291808D01*
X565288Y291785D01*
X565191Y291758D01*
X565096Y291727D01*
X565001Y291693D01*
X564908Y291655D01*
X564816Y291613D01*
X564726Y291568D01*
X564638Y291519D01*
X564552Y291467D01*
X564468Y291412D01*
X564386Y291353D01*
X564306Y291292D01*
X564229Y291227D01*
X564155Y291159D01*
X564083Y291089D01*
X564014Y291016D01*
X563947Y290940D01*
X563884Y290861D01*
X563824Y290781D01*
X563767Y290698D01*
X563713Y290612D01*
X563663Y290525D01*
X563616Y290436D01*
X563573Y290345D01*
X563533Y290253D01*
X563497Y290159D01*
X563464Y290064D01*
X563435Y289967D01*
X563410Y289870D01*
X563389Y289771D01*
X563371Y289672D01*
X563358Y289572D01*
X563348Y289472D01*
X563342Y289372D01*
X563340Y289271D01*
X563339Y289271D02*
X563339Y286674D01*
X562690Y296806D02*
X562920Y296809D01*
X563150Y296817D01*
X563379Y296831D01*
X563608Y296850D01*
X563837Y296875D01*
X564064Y296905D01*
X564292Y296940D01*
X564518Y296981D01*
X564743Y297027D01*
X564967Y297079D01*
X565189Y297136D01*
X565411Y297198D01*
X565630Y297266D01*
X565848Y297339D01*
X566065Y297417D01*
X566279Y297500D01*
X566491Y297588D01*
X566701Y297681D01*
X566909Y297780D01*
X566999Y297813D01*
X567088Y297849D01*
X567176Y297889D01*
X567261Y297933D01*
X567345Y297980D01*
X567427Y298030D01*
X567507Y298084D01*
X567584Y298140D01*
X567660Y298200D01*
X567733Y298263D01*
X567803Y298328D01*
X567871Y298397D01*
X567935Y298468D01*
X567997Y298541D01*
X568056Y298617D01*
X568112Y298695D01*
X568165Y298776D01*
X568214Y298858D01*
X568260Y298942D01*
X568303Y299029D01*
X568342Y299116D01*
X568378Y299206D01*
X568410Y299296D01*
X568438Y299388D01*
X568463Y299481D01*
X568484Y299575D01*
X568501Y299669D01*
X568515Y299764D01*
X568524Y299860D01*
X568530Y299956D01*
X568532Y300052D01*
X568530Y300148D01*
X568524Y300244D01*
X568515Y300340D01*
X568501Y300435D01*
X568484Y300529D01*
X568463Y300623D01*
X568438Y300716D01*
X568410Y300808D01*
X568378Y300898D01*
X568342Y300988D01*
X568303Y301075D01*
X568260Y301162D01*
X568214Y301246D01*
X568165Y301328D01*
X568112Y301409D01*
X568056Y301487D01*
X567997Y301563D01*
X567935Y301636D01*
X567871Y301707D01*
X567803Y301776D01*
X567733Y301841D01*
X567660Y301904D01*
X567584Y301964D01*
X567507Y302020D01*
X567427Y302074D01*
X567345Y302124D01*
X567261Y302171D01*
X567176Y302215D01*
X567088Y302255D01*
X566999Y302291D01*
X566909Y302324D01*
X566702Y302423D01*
X566492Y302516D01*
X566279Y302604D01*
X566065Y302687D01*
X565849Y302765D01*
X565631Y302838D01*
X565411Y302906D01*
X565190Y302968D01*
X564967Y303025D01*
X564743Y303077D01*
X564518Y303123D01*
X564292Y303164D01*
X564065Y303199D01*
X563837Y303229D01*
X563608Y303254D01*
X563379Y303273D01*
X563150Y303287D01*
X562920Y303295D01*
X562690Y303298D01*
X562690Y296806D02*
X562460Y296809D01*
X562230Y296817D01*
X562001Y296831D01*
X561772Y296850D01*
X561543Y296875D01*
X561315Y296905D01*
X561088Y296940D01*
X560862Y296981D01*
X560637Y297027D01*
X560413Y297079D01*
X560190Y297136D01*
X559969Y297198D01*
X559749Y297266D01*
X559531Y297339D01*
X559315Y297417D01*
X559101Y297500D01*
X558889Y297588D01*
X558678Y297681D01*
X558471Y297780D01*
X558381Y297813D01*
X558292Y297849D01*
X558204Y297890D01*
X558119Y297933D01*
X558035Y297980D01*
X557953Y298030D01*
X557873Y298084D01*
X557796Y298140D01*
X557720Y298200D01*
X557647Y298263D01*
X557577Y298328D01*
X557509Y298397D01*
X557445Y298468D01*
X557383Y298541D01*
X557324Y298617D01*
X557268Y298695D01*
X557215Y298776D01*
X557166Y298858D01*
X557120Y298942D01*
X557077Y299029D01*
X557038Y299116D01*
X557002Y299206D01*
X556970Y299296D01*
X556942Y299388D01*
X556917Y299481D01*
X556896Y299575D01*
X556879Y299669D01*
X556865Y299764D01*
X556856Y299860D01*
X556850Y299956D01*
X556848Y300052D01*
X558471Y302323D02*
X558678Y302422D01*
X558889Y302515D01*
X559101Y302603D01*
X559315Y302686D01*
X559531Y302764D01*
X559749Y302837D01*
X559969Y302905D01*
X560190Y302967D01*
X560413Y303024D01*
X560637Y303076D01*
X560862Y303122D01*
X561088Y303163D01*
X561315Y303198D01*
X561543Y303228D01*
X561772Y303253D01*
X562001Y303272D01*
X562230Y303286D01*
X562460Y303294D01*
X562690Y303297D01*
X558471Y302324D02*
X558381Y302291D01*
X558292Y302255D01*
X558204Y302215D01*
X558119Y302171D01*
X558035Y302124D01*
X557953Y302074D01*
X557873Y302020D01*
X557796Y301964D01*
X557720Y301904D01*
X557647Y301841D01*
X557577Y301776D01*
X557509Y301707D01*
X557445Y301636D01*
X557383Y301563D01*
X557324Y301487D01*
X557268Y301409D01*
X557215Y301328D01*
X557166Y301246D01*
X557120Y301162D01*
X557077Y301075D01*
X557038Y300988D01*
X557002Y300898D01*
X556970Y300808D01*
X556942Y300716D01*
X556917Y300623D01*
X556896Y300529D01*
X556879Y300435D01*
X556865Y300340D01*
X556856Y300244D01*
X556850Y300148D01*
X556848Y300052D01*
X559444Y297455D02*
X565936Y302648D01*
X561392Y308349D02*
X561392Y316138D01*
X556848Y321645D02*
X568532Y321645D01*
X568532Y324890D01*
X568530Y325003D01*
X568524Y325116D01*
X568514Y325229D01*
X568500Y325342D01*
X568483Y325454D01*
X568461Y325565D01*
X568436Y325675D01*
X568406Y325785D01*
X568373Y325893D01*
X568336Y326000D01*
X568296Y326106D01*
X568251Y326210D01*
X568203Y326313D01*
X568152Y326414D01*
X568097Y326513D01*
X568039Y326610D01*
X567977Y326705D01*
X567912Y326798D01*
X567844Y326888D01*
X567773Y326976D01*
X567698Y327062D01*
X567621Y327145D01*
X567541Y327225D01*
X567458Y327302D01*
X567372Y327377D01*
X567284Y327448D01*
X567194Y327516D01*
X567101Y327581D01*
X567006Y327643D01*
X566909Y327701D01*
X566810Y327756D01*
X566709Y327807D01*
X566606Y327855D01*
X566502Y327900D01*
X566396Y327940D01*
X566289Y327977D01*
X566181Y328010D01*
X566071Y328040D01*
X565961Y328065D01*
X565850Y328087D01*
X565738Y328104D01*
X565625Y328118D01*
X565512Y328128D01*
X565399Y328134D01*
X565286Y328136D01*
X565173Y328134D01*
X565060Y328128D01*
X564947Y328118D01*
X564834Y328104D01*
X564722Y328087D01*
X564611Y328065D01*
X564501Y328040D01*
X564391Y328010D01*
X564283Y327977D01*
X564176Y327940D01*
X564070Y327900D01*
X563966Y327855D01*
X563863Y327807D01*
X563762Y327756D01*
X563663Y327701D01*
X563566Y327643D01*
X563471Y327581D01*
X563378Y327516D01*
X563288Y327448D01*
X563200Y327377D01*
X563114Y327302D01*
X563031Y327225D01*
X562951Y327145D01*
X562874Y327062D01*
X562799Y326976D01*
X562728Y326888D01*
X562660Y326798D01*
X562595Y326705D01*
X562533Y326610D01*
X562475Y326513D01*
X562420Y326414D01*
X562369Y326313D01*
X562321Y326210D01*
X562276Y326106D01*
X562236Y326000D01*
X562199Y325893D01*
X562166Y325785D01*
X562136Y325675D01*
X562111Y325565D01*
X562089Y325454D01*
X562072Y325342D01*
X562058Y325229D01*
X562048Y325116D01*
X562042Y325003D01*
X562040Y324890D01*
X562041Y324890D02*
X562041Y321645D01*
X562041Y325539D02*
X556848Y328136D01*
X556848Y333001D02*
X556848Y336896D01*
X556850Y336995D01*
X556856Y337095D01*
X556865Y337194D01*
X556878Y337292D01*
X556895Y337390D01*
X556916Y337488D01*
X556941Y337584D01*
X556969Y337679D01*
X557001Y337773D01*
X557036Y337866D01*
X557075Y337958D01*
X557118Y338048D01*
X557163Y338136D01*
X557213Y338223D01*
X557265Y338307D01*
X557321Y338390D01*
X557379Y338470D01*
X557441Y338548D01*
X557506Y338623D01*
X557574Y338696D01*
X557644Y338766D01*
X557717Y338834D01*
X557792Y338899D01*
X557870Y338961D01*
X557950Y339019D01*
X558033Y339075D01*
X558117Y339127D01*
X558204Y339177D01*
X558292Y339222D01*
X558382Y339265D01*
X558474Y339304D01*
X558567Y339339D01*
X558661Y339371D01*
X558756Y339399D01*
X558852Y339424D01*
X558950Y339445D01*
X559048Y339462D01*
X559146Y339475D01*
X559245Y339484D01*
X559345Y339490D01*
X559444Y339492D01*
X560743Y339492D01*
X560842Y339490D01*
X560942Y339484D01*
X561041Y339475D01*
X561139Y339462D01*
X561237Y339445D01*
X561335Y339424D01*
X561431Y339399D01*
X561526Y339371D01*
X561620Y339339D01*
X561713Y339304D01*
X561805Y339265D01*
X561895Y339222D01*
X561983Y339177D01*
X562070Y339127D01*
X562154Y339075D01*
X562237Y339019D01*
X562317Y338961D01*
X562395Y338899D01*
X562470Y338834D01*
X562543Y338766D01*
X562613Y338696D01*
X562681Y338623D01*
X562746Y338548D01*
X562808Y338470D01*
X562866Y338390D01*
X562922Y338307D01*
X562974Y338223D01*
X563024Y338136D01*
X563069Y338048D01*
X563112Y337958D01*
X563151Y337866D01*
X563186Y337773D01*
X563218Y337679D01*
X563246Y337584D01*
X563271Y337488D01*
X563292Y337390D01*
X563309Y337292D01*
X563322Y337194D01*
X563331Y337095D01*
X563337Y336995D01*
X563339Y336896D01*
X563339Y333001D01*
X568532Y333001D01*
X568532Y339492D01*
X386904Y307554D02*
X386805Y307552D01*
X386705Y307546D01*
X386606Y307537D01*
X386508Y307524D01*
X386410Y307507D01*
X386312Y307486D01*
X386216Y307461D01*
X386121Y307433D01*
X386027Y307401D01*
X385934Y307366D01*
X385842Y307327D01*
X385752Y307284D01*
X385664Y307239D01*
X385577Y307189D01*
X385493Y307137D01*
X385410Y307081D01*
X385330Y307023D01*
X385252Y306961D01*
X385177Y306896D01*
X385104Y306828D01*
X385034Y306758D01*
X384966Y306685D01*
X384901Y306610D01*
X384839Y306532D01*
X384781Y306452D01*
X384725Y306369D01*
X384673Y306285D01*
X384623Y306198D01*
X384578Y306110D01*
X384535Y306020D01*
X384496Y305928D01*
X384461Y305835D01*
X384429Y305741D01*
X384401Y305646D01*
X384376Y305550D01*
X384355Y305452D01*
X384338Y305354D01*
X384325Y305256D01*
X384316Y305157D01*
X384310Y305057D01*
X384308Y304958D01*
X384310Y304814D01*
X384316Y304669D01*
X384325Y304525D01*
X384338Y304382D01*
X384355Y304238D01*
X384376Y304095D01*
X384401Y303953D01*
X384429Y303812D01*
X384461Y303671D01*
X384497Y303531D01*
X384536Y303392D01*
X384579Y303254D01*
X384626Y303118D01*
X384676Y302982D01*
X384730Y302848D01*
X384787Y302716D01*
X384848Y302585D01*
X384912Y302456D01*
X384980Y302328D01*
X385050Y302202D01*
X385125Y302078D01*
X385202Y301957D01*
X385283Y301837D01*
X385366Y301719D01*
X385453Y301604D01*
X385543Y301491D01*
X385636Y301380D01*
X385731Y301272D01*
X385830Y301166D01*
X385931Y301063D01*
X393396Y301388D02*
X393495Y301390D01*
X393595Y301396D01*
X393694Y301405D01*
X393792Y301418D01*
X393890Y301435D01*
X393988Y301456D01*
X394084Y301481D01*
X394179Y301509D01*
X394273Y301541D01*
X394366Y301576D01*
X394458Y301615D01*
X394548Y301658D01*
X394636Y301703D01*
X394723Y301753D01*
X394807Y301805D01*
X394890Y301861D01*
X394970Y301919D01*
X395048Y301981D01*
X395123Y302046D01*
X395196Y302114D01*
X395266Y302184D01*
X395334Y302257D01*
X395399Y302332D01*
X395461Y302410D01*
X395519Y302490D01*
X395575Y302573D01*
X395627Y302657D01*
X395677Y302744D01*
X395722Y302832D01*
X395765Y302922D01*
X395804Y303014D01*
X395839Y303107D01*
X395871Y303201D01*
X395899Y303296D01*
X395924Y303393D01*
X395945Y303490D01*
X395962Y303588D01*
X395975Y303686D01*
X395984Y303785D01*
X395990Y303885D01*
X395992Y303984D01*
X395990Y304120D01*
X395984Y304256D01*
X395975Y304392D01*
X395962Y304528D01*
X395944Y304663D01*
X395924Y304797D01*
X395899Y304931D01*
X395871Y305065D01*
X395838Y305197D01*
X395803Y305328D01*
X395763Y305459D01*
X395720Y305588D01*
X395674Y305716D01*
X395623Y305842D01*
X395570Y305968D01*
X395512Y306091D01*
X395452Y306213D01*
X395388Y306333D01*
X395320Y306452D01*
X395250Y306568D01*
X395176Y306682D01*
X395099Y306795D01*
X395018Y306905D01*
X391124Y302686D02*
X391177Y302600D01*
X391234Y302516D01*
X391293Y302434D01*
X391356Y302354D01*
X391422Y302277D01*
X391490Y302202D01*
X391562Y302130D01*
X391636Y302061D01*
X391713Y301995D01*
X391792Y301932D01*
X391874Y301872D01*
X391958Y301815D01*
X392044Y301761D01*
X392132Y301711D01*
X392222Y301664D01*
X392313Y301620D01*
X392407Y301581D01*
X392501Y301544D01*
X392597Y301512D01*
X392695Y301483D01*
X392793Y301458D01*
X392892Y301437D01*
X392992Y301419D01*
X393092Y301406D01*
X393193Y301396D01*
X393295Y301390D01*
X393396Y301388D01*
X389176Y306256D02*
X389123Y306342D01*
X389066Y306426D01*
X389007Y306508D01*
X388944Y306588D01*
X388878Y306665D01*
X388810Y306740D01*
X388738Y306812D01*
X388664Y306881D01*
X388587Y306947D01*
X388508Y307010D01*
X388426Y307070D01*
X388342Y307127D01*
X388256Y307181D01*
X388168Y307231D01*
X388078Y307278D01*
X387987Y307322D01*
X387893Y307361D01*
X387799Y307398D01*
X387703Y307430D01*
X387605Y307459D01*
X387507Y307484D01*
X387408Y307505D01*
X387308Y307523D01*
X387208Y307536D01*
X387107Y307546D01*
X387005Y307552D01*
X386904Y307554D01*
X389176Y306256D02*
X391124Y302686D01*
X395992Y314596D02*
X384308Y314596D01*
X395992Y311350D02*
X395992Y317841D01*
X384308Y322422D02*
X384308Y327614D01*
X384308Y322422D02*
X395992Y322422D01*
X395992Y327614D01*
X390799Y326316D02*
X390799Y322422D01*
X395992Y332474D02*
X384308Y332474D01*
X395992Y332474D02*
X395992Y335720D01*
X395990Y335833D01*
X395984Y335946D01*
X395974Y336059D01*
X395960Y336172D01*
X395943Y336284D01*
X395921Y336395D01*
X395896Y336505D01*
X395866Y336615D01*
X395833Y336723D01*
X395796Y336830D01*
X395756Y336936D01*
X395711Y337040D01*
X395663Y337143D01*
X395612Y337244D01*
X395557Y337343D01*
X395499Y337440D01*
X395437Y337535D01*
X395372Y337628D01*
X395304Y337718D01*
X395233Y337806D01*
X395158Y337892D01*
X395081Y337975D01*
X395001Y338055D01*
X394918Y338132D01*
X394832Y338207D01*
X394744Y338278D01*
X394654Y338346D01*
X394561Y338411D01*
X394466Y338473D01*
X394369Y338531D01*
X394270Y338586D01*
X394169Y338637D01*
X394066Y338685D01*
X393962Y338730D01*
X393856Y338770D01*
X393749Y338807D01*
X393641Y338840D01*
X393531Y338870D01*
X393421Y338895D01*
X393310Y338917D01*
X393198Y338934D01*
X393085Y338948D01*
X392972Y338958D01*
X392859Y338964D01*
X392746Y338966D01*
X392633Y338964D01*
X392520Y338958D01*
X392407Y338948D01*
X392294Y338934D01*
X392182Y338917D01*
X392071Y338895D01*
X391961Y338870D01*
X391851Y338840D01*
X391743Y338807D01*
X391636Y338770D01*
X391530Y338730D01*
X391426Y338685D01*
X391323Y338637D01*
X391222Y338586D01*
X391123Y338531D01*
X391026Y338473D01*
X390931Y338411D01*
X390838Y338346D01*
X390748Y338278D01*
X390660Y338207D01*
X390574Y338132D01*
X390491Y338055D01*
X390411Y337975D01*
X390334Y337892D01*
X390259Y337806D01*
X390188Y337718D01*
X390120Y337628D01*
X390055Y337535D01*
X389993Y337440D01*
X389935Y337343D01*
X389880Y337244D01*
X389829Y337143D01*
X389781Y337040D01*
X389736Y336936D01*
X389696Y336830D01*
X389659Y336723D01*
X389626Y336615D01*
X389596Y336505D01*
X389571Y336395D01*
X389549Y336284D01*
X389532Y336172D01*
X389518Y336059D01*
X389508Y335946D01*
X389502Y335833D01*
X389500Y335720D01*
X389501Y335720D02*
X389501Y332474D01*
X384308Y343904D02*
X395992Y343904D01*
X395992Y347150D01*
X395990Y347263D01*
X395984Y347376D01*
X395974Y347489D01*
X395960Y347602D01*
X395943Y347714D01*
X395921Y347825D01*
X395896Y347935D01*
X395866Y348045D01*
X395833Y348153D01*
X395796Y348260D01*
X395756Y348366D01*
X395711Y348470D01*
X395663Y348573D01*
X395612Y348674D01*
X395557Y348773D01*
X395499Y348870D01*
X395437Y348965D01*
X395372Y349058D01*
X395304Y349148D01*
X395233Y349236D01*
X395158Y349322D01*
X395081Y349405D01*
X395001Y349485D01*
X394918Y349562D01*
X394832Y349637D01*
X394744Y349708D01*
X394654Y349776D01*
X394561Y349841D01*
X394466Y349903D01*
X394369Y349961D01*
X394270Y350016D01*
X394169Y350067D01*
X394066Y350115D01*
X393962Y350160D01*
X393856Y350200D01*
X393749Y350237D01*
X393641Y350270D01*
X393531Y350300D01*
X393421Y350325D01*
X393310Y350347D01*
X393198Y350364D01*
X393085Y350378D01*
X392972Y350388D01*
X392859Y350394D01*
X392746Y350396D01*
X392633Y350394D01*
X392520Y350388D01*
X392407Y350378D01*
X392294Y350364D01*
X392182Y350347D01*
X392071Y350325D01*
X391961Y350300D01*
X391851Y350270D01*
X391743Y350237D01*
X391636Y350200D01*
X391530Y350160D01*
X391426Y350115D01*
X391323Y350067D01*
X391222Y350016D01*
X391123Y349961D01*
X391026Y349903D01*
X390931Y349841D01*
X390838Y349776D01*
X390748Y349708D01*
X390660Y349637D01*
X390574Y349562D01*
X390491Y349485D01*
X390411Y349405D01*
X390334Y349322D01*
X390259Y349236D01*
X390188Y349148D01*
X390120Y349058D01*
X390055Y348965D01*
X389993Y348870D01*
X389935Y348773D01*
X389880Y348674D01*
X389829Y348573D01*
X389781Y348470D01*
X389736Y348366D01*
X389696Y348260D01*
X389659Y348153D01*
X389626Y348045D01*
X389596Y347935D01*
X389571Y347825D01*
X389549Y347714D01*
X389532Y347602D01*
X389518Y347489D01*
X389508Y347376D01*
X389502Y347263D01*
X389500Y347150D01*
X389501Y347150D02*
X389501Y343904D01*
X384308Y355188D02*
X384308Y360380D01*
X384308Y355188D02*
X395992Y355188D01*
X395992Y360380D01*
X390799Y359082D02*
X390799Y355188D01*
X395992Y365145D02*
X384308Y365145D01*
X395992Y365145D02*
X395992Y368390D01*
X395990Y368503D01*
X395984Y368616D01*
X395974Y368729D01*
X395960Y368842D01*
X395943Y368954D01*
X395921Y369065D01*
X395896Y369175D01*
X395866Y369285D01*
X395833Y369393D01*
X395796Y369500D01*
X395756Y369606D01*
X395711Y369710D01*
X395663Y369813D01*
X395612Y369914D01*
X395557Y370013D01*
X395499Y370110D01*
X395437Y370205D01*
X395372Y370298D01*
X395304Y370388D01*
X395233Y370476D01*
X395158Y370562D01*
X395081Y370645D01*
X395001Y370725D01*
X394918Y370802D01*
X394832Y370877D01*
X394744Y370948D01*
X394654Y371016D01*
X394561Y371081D01*
X394466Y371143D01*
X394369Y371201D01*
X394270Y371256D01*
X394169Y371307D01*
X394066Y371355D01*
X393962Y371400D01*
X393856Y371440D01*
X393749Y371477D01*
X393641Y371510D01*
X393531Y371540D01*
X393421Y371565D01*
X393310Y371587D01*
X393198Y371604D01*
X393085Y371618D01*
X392972Y371628D01*
X392859Y371634D01*
X392746Y371636D01*
X392633Y371634D01*
X392520Y371628D01*
X392407Y371618D01*
X392294Y371604D01*
X392182Y371587D01*
X392071Y371565D01*
X391961Y371540D01*
X391851Y371510D01*
X391743Y371477D01*
X391636Y371440D01*
X391530Y371400D01*
X391426Y371355D01*
X391323Y371307D01*
X391222Y371256D01*
X391123Y371201D01*
X391026Y371143D01*
X390931Y371081D01*
X390838Y371016D01*
X390748Y370948D01*
X390660Y370877D01*
X390574Y370802D01*
X390491Y370725D01*
X390411Y370645D01*
X390334Y370562D01*
X390259Y370476D01*
X390188Y370388D01*
X390120Y370298D01*
X390055Y370205D01*
X389993Y370110D01*
X389935Y370013D01*
X389880Y369914D01*
X389829Y369813D01*
X389781Y369710D01*
X389736Y369606D01*
X389696Y369500D01*
X389659Y369393D01*
X389626Y369285D01*
X389596Y369175D01*
X389571Y369065D01*
X389549Y368954D01*
X389532Y368842D01*
X389518Y368729D01*
X389508Y368616D01*
X389502Y368503D01*
X389500Y368390D01*
X389501Y368390D02*
X389501Y365145D01*
X389501Y369039D02*
X384308Y371636D01*
X393071Y382992D02*
X393178Y382990D01*
X393284Y382984D01*
X393390Y382974D01*
X393496Y382961D01*
X393602Y382943D01*
X393706Y382922D01*
X393810Y382897D01*
X393913Y382868D01*
X394014Y382836D01*
X394114Y382799D01*
X394213Y382759D01*
X394311Y382716D01*
X394407Y382669D01*
X394501Y382618D01*
X394593Y382564D01*
X394683Y382507D01*
X394771Y382447D01*
X394856Y382383D01*
X394939Y382316D01*
X395020Y382246D01*
X395098Y382174D01*
X395174Y382098D01*
X395246Y382020D01*
X395316Y381939D01*
X395383Y381856D01*
X395447Y381771D01*
X395507Y381683D01*
X395564Y381593D01*
X395618Y381501D01*
X395669Y381407D01*
X395716Y381311D01*
X395759Y381213D01*
X395799Y381114D01*
X395836Y381014D01*
X395868Y380913D01*
X395897Y380810D01*
X395922Y380706D01*
X395943Y380602D01*
X395961Y380496D01*
X395974Y380390D01*
X395984Y380284D01*
X395990Y380178D01*
X395992Y380071D01*
X395990Y379950D01*
X395984Y379829D01*
X395974Y379709D01*
X395961Y379588D01*
X395943Y379469D01*
X395922Y379349D01*
X395897Y379231D01*
X395868Y379114D01*
X395835Y378997D01*
X395799Y378882D01*
X395758Y378768D01*
X395715Y378655D01*
X395667Y378543D01*
X395616Y378434D01*
X395561Y378326D01*
X395503Y378219D01*
X395442Y378115D01*
X395377Y378013D01*
X395309Y377913D01*
X395238Y377815D01*
X395164Y377719D01*
X395087Y377626D01*
X395006Y377536D01*
X394923Y377448D01*
X394837Y377363D01*
X394748Y377280D01*
X394657Y377201D01*
X394563Y377124D01*
X394467Y377051D01*
X394369Y376981D01*
X394268Y376914D01*
X394165Y376850D01*
X394060Y376790D01*
X393953Y376733D01*
X393845Y376679D01*
X393735Y376629D01*
X393623Y376583D01*
X393510Y376540D01*
X393395Y376501D01*
X390799Y382019D02*
X390876Y382098D01*
X390957Y382174D01*
X391040Y382247D01*
X391125Y382317D01*
X391213Y382384D01*
X391303Y382448D01*
X391395Y382508D01*
X391490Y382565D01*
X391586Y382619D01*
X391684Y382670D01*
X391784Y382717D01*
X391886Y382761D01*
X391989Y382801D01*
X392093Y382837D01*
X392199Y382869D01*
X392305Y382898D01*
X392413Y382923D01*
X392521Y382945D01*
X392631Y382962D01*
X392740Y382976D01*
X392850Y382985D01*
X392961Y382991D01*
X393071Y382993D01*
X390799Y382018D02*
X384308Y376501D01*
X384308Y382992D01*
D13*
X503200Y573650D02*
X503200Y586350D01*
X96800Y586350D02*
X96800Y573650D01*
X331750Y592700D02*
X344450Y592700D01*
X331750Y592700D02*
X325400Y586350D01*
X325400Y573650D02*
X331750Y567300D01*
X369850Y592700D02*
X376200Y586350D01*
X369850Y592700D02*
X357150Y592700D01*
X350800Y586350D01*
X350800Y573650D02*
X357150Y567300D01*
X369850Y567300D01*
X376200Y573650D01*
X350800Y586350D02*
X344450Y592700D01*
X350800Y573650D02*
X344450Y567300D01*
X331750Y567300D01*
X407950Y592700D02*
X420650Y592700D01*
X407950Y592700D02*
X401600Y586350D01*
X401600Y573650D02*
X407950Y567300D01*
X401600Y586350D02*
X395250Y592700D01*
X382550Y592700D01*
X376200Y586350D01*
X376200Y573650D02*
X382550Y567300D01*
X395250Y567300D01*
X401600Y573650D01*
X446050Y592700D02*
X452400Y586350D01*
X446050Y592700D02*
X433350Y592700D01*
X427000Y586350D01*
X427000Y573650D02*
X433350Y567300D01*
X446050Y567300D01*
X452400Y573650D01*
X427000Y586350D02*
X420650Y592700D01*
X427000Y573650D02*
X420650Y567300D01*
X407950Y567300D01*
X484150Y592700D02*
X496850Y592700D01*
X484150Y592700D02*
X477800Y586350D01*
X477800Y573650D02*
X484150Y567300D01*
X477800Y586350D02*
X471450Y592700D01*
X458750Y592700D01*
X452400Y586350D01*
X452400Y573650D02*
X458750Y567300D01*
X471450Y567300D01*
X477800Y573650D01*
X503200Y573650D02*
X503200Y586350D01*
X496850Y592700D01*
X503200Y573650D02*
X496850Y567300D01*
X484150Y567300D01*
X166650Y592700D02*
X153950Y592700D01*
X147600Y586350D01*
X147600Y573650D02*
X153950Y567300D01*
X192050Y592700D02*
X198400Y586350D01*
X192050Y592700D02*
X179350Y592700D01*
X173000Y586350D01*
X173000Y573650D02*
X179350Y567300D01*
X192050Y567300D01*
X198400Y573650D01*
X173000Y586350D02*
X166650Y592700D01*
X173000Y573650D02*
X166650Y567300D01*
X153950Y567300D01*
X230150Y592700D02*
X242850Y592700D01*
X230150Y592700D02*
X223800Y586350D01*
X223800Y573650D02*
X230150Y567300D01*
X223800Y586350D02*
X217450Y592700D01*
X204750Y592700D01*
X198400Y586350D01*
X198400Y573650D02*
X204750Y567300D01*
X217450Y567300D01*
X223800Y573650D01*
X268250Y592700D02*
X274600Y586350D01*
X268250Y592700D02*
X255550Y592700D01*
X249200Y586350D01*
X249200Y573650D02*
X255550Y567300D01*
X268250Y567300D01*
X274600Y573650D01*
X249200Y586350D02*
X242850Y592700D01*
X249200Y573650D02*
X242850Y567300D01*
X230150Y567300D01*
X306350Y592700D02*
X319050Y592700D01*
X306350Y592700D02*
X300000Y586350D01*
X300000Y573650D02*
X306350Y567300D01*
X300000Y586350D02*
X293650Y592700D01*
X280950Y592700D01*
X274600Y586350D01*
X274600Y573650D02*
X280950Y567300D01*
X293650Y567300D01*
X300000Y573650D01*
X319050Y592700D02*
X325400Y586350D01*
X325400Y573650D02*
X319050Y567300D01*
X306350Y567300D01*
X147600Y586350D02*
X141250Y592700D01*
X128550Y592700D01*
X122200Y586350D01*
X122200Y573650D02*
X128550Y567300D01*
X141250Y567300D01*
X147600Y573650D01*
X122200Y586350D02*
X115850Y592700D01*
X103150Y592700D01*
X96800Y586350D01*
X96800Y573650D01*
X103150Y567300D01*
X115850Y567300D01*
X122200Y573650D01*
D11*
X493788Y559101D02*
X493790Y559036D01*
X493796Y558972D01*
X493806Y558908D01*
X493819Y558844D01*
X493837Y558782D01*
X493858Y558721D01*
X493882Y558661D01*
X493911Y558603D01*
X493943Y558546D01*
X493978Y558492D01*
X494016Y558440D01*
X494058Y558390D01*
X494102Y558343D01*
X494149Y558299D01*
X494199Y558257D01*
X494251Y558219D01*
X494305Y558184D01*
X494362Y558152D01*
X494420Y558123D01*
X494480Y558099D01*
X494541Y558078D01*
X494603Y558060D01*
X494667Y558047D01*
X494731Y558037D01*
X494795Y558031D01*
X494860Y558029D01*
X494954Y558031D01*
X495048Y558037D01*
X495142Y558047D01*
X495235Y558060D01*
X495327Y558078D01*
X495419Y558099D01*
X495510Y558124D01*
X495600Y558153D01*
X495688Y558186D01*
X495775Y558222D01*
X495860Y558262D01*
X495944Y558305D01*
X496025Y558352D01*
X496105Y558402D01*
X496183Y558455D01*
X496258Y558512D01*
X496331Y558571D01*
X496401Y558634D01*
X496469Y558699D01*
X496335Y561783D02*
X496333Y561848D01*
X496327Y561912D01*
X496317Y561976D01*
X496304Y562040D01*
X496286Y562102D01*
X496265Y562163D01*
X496241Y562223D01*
X496212Y562281D01*
X496180Y562338D01*
X496145Y562392D01*
X496107Y562444D01*
X496065Y562494D01*
X496021Y562541D01*
X495974Y562585D01*
X495924Y562627D01*
X495872Y562665D01*
X495818Y562700D01*
X495761Y562732D01*
X495703Y562761D01*
X495643Y562785D01*
X495582Y562806D01*
X495520Y562824D01*
X495456Y562837D01*
X495392Y562847D01*
X495328Y562853D01*
X495263Y562855D01*
X495177Y562853D01*
X495091Y562848D01*
X495005Y562838D01*
X494920Y562825D01*
X494835Y562809D01*
X494751Y562789D01*
X494668Y562765D01*
X494586Y562738D01*
X494506Y562707D01*
X494426Y562673D01*
X494349Y562635D01*
X494273Y562594D01*
X494199Y562550D01*
X494126Y562503D01*
X494056Y562453D01*
X495799Y560845D02*
X495852Y560878D01*
X495903Y560915D01*
X495952Y560954D01*
X495999Y560996D01*
X496043Y561041D01*
X496084Y561088D01*
X496123Y561137D01*
X496159Y561189D01*
X496192Y561243D01*
X496221Y561298D01*
X496247Y561355D01*
X496270Y561414D01*
X496290Y561473D01*
X496306Y561534D01*
X496319Y561595D01*
X496328Y561658D01*
X496333Y561720D01*
X496335Y561783D01*
X494324Y560039D02*
X494271Y560006D01*
X494220Y559969D01*
X494171Y559930D01*
X494124Y559888D01*
X494080Y559843D01*
X494039Y559796D01*
X494000Y559747D01*
X493964Y559695D01*
X493931Y559641D01*
X493902Y559586D01*
X493876Y559529D01*
X493853Y559470D01*
X493833Y559411D01*
X493817Y559350D01*
X493804Y559289D01*
X493795Y559226D01*
X493790Y559164D01*
X493788Y559101D01*
X494324Y560040D02*
X495799Y560844D01*
X491434Y562855D02*
X489825Y558029D01*
X488216Y562855D01*
X485679Y561783D02*
X484339Y562855D01*
X484339Y558029D01*
X485679Y558029D02*
X482998Y558029D01*
D13*
X186456Y527936D02*
X186456Y470936D01*
X208456Y470936D01*
X230456Y470936D02*
X252456Y470936D01*
X252456Y527936D01*
X243456Y536936D02*
X230456Y536936D01*
X208456Y536936D02*
X195456Y536936D01*
X186456Y527936D01*
X243456Y536936D02*
X252456Y527936D01*
X209956Y533435D02*
X209242Y533195D01*
X208534Y532938D01*
X207833Y532663D01*
X207138Y532371D01*
X206451Y532063D01*
X205772Y531738D01*
X205100Y531396D01*
X204438Y531038D01*
X203784Y530664D01*
X203139Y530275D01*
X202504Y529869D01*
X201879Y529449D01*
X201265Y529013D01*
X200661Y528562D01*
X200069Y528097D01*
X199488Y527618D01*
X198919Y527124D01*
X198362Y526617D01*
X197817Y526096D01*
X197286Y525563D01*
X196767Y525016D01*
X196263Y524457D01*
X195771Y523886D01*
X195294Y523303D01*
X194832Y522709D01*
X194383Y522103D01*
X193950Y521487D01*
X193532Y520861D01*
X193129Y520224D01*
X192742Y519578D01*
X192371Y518923D01*
X192016Y518258D01*
X191677Y517586D01*
X191355Y516905D01*
X191049Y516216D01*
X190760Y515521D01*
X190488Y514818D01*
X190234Y514109D01*
X189996Y513394D01*
X189777Y512674D01*
X189574Y511948D01*
X189390Y511218D01*
X189223Y510483D01*
X189075Y509745D01*
X188944Y509003D01*
X188832Y508258D01*
X188737Y507511D01*
X188661Y506761D01*
X188604Y506010D01*
X188564Y505258D01*
X188543Y504505D01*
X188540Y503752D01*
X188556Y502999D01*
X188590Y502246D01*
X188642Y501495D01*
X188712Y500745D01*
X188801Y499997D01*
X188908Y499251D01*
X189033Y498509D01*
X189176Y497769D01*
X189337Y497033D01*
X189516Y496302D01*
X189713Y495574D01*
X189928Y494852D01*
X190160Y494136D01*
X190409Y493425D01*
X190676Y492720D01*
X190959Y492023D01*
X191260Y491332D01*
X191577Y490649D01*
X191911Y489974D01*
X192261Y489307D01*
X192628Y488649D01*
X193010Y488000D01*
X193408Y487360D01*
X193821Y486730D01*
X194250Y486111D01*
X194694Y485502D01*
X195152Y484904D01*
X195625Y484318D01*
X196112Y483743D01*
X196612Y483181D01*
X197127Y482630D01*
X197654Y482093D01*
X198195Y481568D01*
X198748Y481057D01*
X199313Y480559D01*
X199891Y480075D01*
X200480Y479606D01*
X201080Y479151D01*
X201691Y478710D01*
X202313Y478285D01*
X202945Y477875D01*
X203586Y477481D01*
X204238Y477102D01*
X204898Y476739D01*
X205567Y476393D01*
X206244Y476062D01*
X206928Y475749D01*
X207621Y475452D01*
X208320Y475172D01*
X209026Y474909D01*
X209738Y474664D01*
X210456Y474436D01*
X228956Y474437D02*
X229670Y474677D01*
X230378Y474934D01*
X231079Y475209D01*
X231774Y475501D01*
X232461Y475809D01*
X233140Y476134D01*
X233812Y476476D01*
X234474Y476834D01*
X235128Y477208D01*
X235773Y477597D01*
X236408Y478003D01*
X237033Y478423D01*
X237647Y478859D01*
X238251Y479310D01*
X238843Y479775D01*
X239424Y480254D01*
X239993Y480748D01*
X240550Y481255D01*
X241095Y481776D01*
X241626Y482309D01*
X242145Y482856D01*
X242649Y483415D01*
X243141Y483986D01*
X243618Y484569D01*
X244080Y485163D01*
X244529Y485769D01*
X244962Y486385D01*
X245380Y487011D01*
X245783Y487648D01*
X246170Y488294D01*
X246541Y488949D01*
X246896Y489614D01*
X247235Y490286D01*
X247557Y490967D01*
X247863Y491656D01*
X248152Y492351D01*
X248424Y493054D01*
X248678Y493763D01*
X248916Y494478D01*
X249135Y495198D01*
X249338Y495924D01*
X249522Y496654D01*
X249689Y497389D01*
X249837Y498127D01*
X249968Y498869D01*
X250080Y499614D01*
X250175Y500361D01*
X250251Y501111D01*
X250308Y501862D01*
X250348Y502614D01*
X250369Y503367D01*
X250372Y504120D01*
X250356Y504873D01*
X250322Y505626D01*
X250270Y506377D01*
X250200Y507127D01*
X250111Y507875D01*
X250004Y508621D01*
X249879Y509363D01*
X249736Y510103D01*
X249575Y510839D01*
X249396Y511570D01*
X249199Y512298D01*
X248984Y513020D01*
X248752Y513736D01*
X248503Y514447D01*
X248236Y515152D01*
X247953Y515849D01*
X247652Y516540D01*
X247335Y517223D01*
X247001Y517898D01*
X246651Y518565D01*
X246284Y519223D01*
X245902Y519872D01*
X245504Y520512D01*
X245091Y521142D01*
X244662Y521761D01*
X244218Y522370D01*
X243760Y522968D01*
X243287Y523554D01*
X242800Y524129D01*
X242300Y524691D01*
X241785Y525242D01*
X241258Y525779D01*
X240717Y526304D01*
X240164Y526815D01*
X239599Y527313D01*
X239021Y527797D01*
X238432Y528266D01*
X237832Y528721D01*
X237221Y529162D01*
X236599Y529587D01*
X235967Y529997D01*
X235326Y530391D01*
X234674Y530770D01*
X234014Y531133D01*
X233345Y531479D01*
X232668Y531810D01*
X231984Y532123D01*
X231291Y532420D01*
X230592Y532700D01*
X229886Y532963D01*
X229174Y533208D01*
X228456Y533436D01*
D12*
X197627Y545084D02*
X195595Y545084D01*
X197627Y545084D02*
X197716Y545086D01*
X197804Y545092D01*
X197892Y545101D01*
X197980Y545115D01*
X198067Y545132D01*
X198153Y545153D01*
X198238Y545178D01*
X198322Y545207D01*
X198405Y545239D01*
X198486Y545274D01*
X198565Y545314D01*
X198643Y545356D01*
X198719Y545402D01*
X198793Y545451D01*
X198864Y545504D01*
X198933Y545559D01*
X199000Y545618D01*
X199064Y545679D01*
X199125Y545743D01*
X199184Y545810D01*
X199239Y545879D01*
X199292Y545950D01*
X199341Y546024D01*
X199387Y546100D01*
X199429Y546178D01*
X199469Y546257D01*
X199504Y546338D01*
X199536Y546421D01*
X199565Y546505D01*
X199590Y546590D01*
X199611Y546676D01*
X199628Y546763D01*
X199642Y546851D01*
X199651Y546939D01*
X199657Y547027D01*
X199659Y547116D01*
X199659Y552196D01*
X199657Y552285D01*
X199651Y552373D01*
X199642Y552461D01*
X199628Y552549D01*
X199611Y552636D01*
X199590Y552722D01*
X199565Y552807D01*
X199536Y552891D01*
X199504Y552974D01*
X199469Y553055D01*
X199429Y553134D01*
X199387Y553212D01*
X199341Y553288D01*
X199292Y553362D01*
X199239Y553433D01*
X199184Y553502D01*
X199125Y553569D01*
X199064Y553633D01*
X199000Y553694D01*
X198933Y553753D01*
X198864Y553808D01*
X198793Y553861D01*
X198719Y553910D01*
X198643Y553956D01*
X198565Y553998D01*
X198486Y554038D01*
X198405Y554073D01*
X198322Y554105D01*
X198238Y554134D01*
X198153Y554159D01*
X198067Y554180D01*
X197980Y554197D01*
X197892Y554211D01*
X197804Y554220D01*
X197716Y554226D01*
X197627Y554228D01*
X195595Y554228D01*
X192009Y552196D02*
X189469Y554228D01*
X189469Y545084D01*
X192009Y545084D02*
X186929Y545084D01*
M02*
