G04 EAGLE Gerber X2 export*
%TF.Part,Single*%
%TF.FileFunction,Legend,Top,1*%
%TF.FilePolarity,Positive*%
%TF.GenerationSoftware,Autodesk,EAGLE,9.0.0*%
%TF.CreationDate,2018-09-03T19:42:11Z*%
G75*
%MOMM*%
%FSLAX34Y34*%
%LPD*%
%AMOC8*
5,1,8,0,0,1.08239X$1,22.5*%
G01*
%ADD10C,0.152400*%
%ADD11C,0.000000*%
%ADD12C,0.127000*%
%ADD13C,0.076200*%
%ADD14C,0.101600*%
%ADD15C,0.254000*%
%ADD16R,0.381000X0.508000*%

G36*
X321617Y156227D02*
X321617Y156227D01*
X321725Y156232D01*
X321737Y156237D01*
X321751Y156238D01*
X321851Y156282D01*
X321952Y156321D01*
X321966Y156332D01*
X321975Y156336D01*
X321991Y156350D01*
X322070Y156409D01*
X328390Y162139D01*
X328457Y162224D01*
X328528Y162307D01*
X328533Y162320D01*
X328541Y162331D01*
X328578Y162433D01*
X328618Y162533D01*
X328619Y162547D01*
X328624Y162560D01*
X328625Y162669D01*
X328631Y162777D01*
X328627Y162790D01*
X328628Y162804D01*
X328594Y162908D01*
X328565Y163012D01*
X328556Y163027D01*
X328553Y163037D01*
X328540Y163054D01*
X328490Y163139D01*
X322055Y171869D01*
X323184Y173702D01*
X323193Y173724D01*
X323223Y173775D01*
X324359Y176178D01*
X324366Y176201D01*
X324390Y176255D01*
X325090Y178290D01*
X335920Y178859D01*
X336026Y178882D01*
X336133Y178902D01*
X336145Y178908D01*
X336159Y178911D01*
X336252Y178967D01*
X336347Y179020D01*
X336356Y179030D01*
X336368Y179037D01*
X336438Y179120D01*
X336511Y179201D01*
X336516Y179213D01*
X336525Y179224D01*
X336565Y179325D01*
X336608Y179424D01*
X336610Y179442D01*
X336614Y179451D01*
X336615Y179473D01*
X336630Y179571D01*
X337046Y188090D01*
X337034Y188198D01*
X337025Y188306D01*
X337020Y188319D01*
X337018Y188333D01*
X336972Y188431D01*
X336929Y188531D01*
X336920Y188541D01*
X336914Y188553D01*
X336838Y188631D01*
X336766Y188712D01*
X336754Y188719D01*
X336744Y188729D01*
X336648Y188778D01*
X336553Y188831D01*
X336536Y188836D01*
X336527Y188840D01*
X336506Y188843D01*
X336410Y188868D01*
X325687Y190490D01*
X325189Y192585D01*
X325180Y192607D01*
X325165Y192664D01*
X324269Y195167D01*
X324258Y195188D01*
X324237Y195243D01*
X323293Y197177D01*
X330549Y205238D01*
X330607Y205329D01*
X330669Y205418D01*
X330673Y205432D01*
X330680Y205443D01*
X330706Y205549D01*
X330736Y205653D01*
X330735Y205667D01*
X330739Y205680D01*
X330729Y205789D01*
X330724Y205897D01*
X330719Y205909D01*
X330718Y205923D01*
X330674Y206023D01*
X330635Y206124D01*
X330624Y206138D01*
X330620Y206147D01*
X330606Y206163D01*
X330547Y206242D01*
X324817Y212562D01*
X324732Y212629D01*
X324649Y212700D01*
X324636Y212705D01*
X324625Y212713D01*
X324523Y212750D01*
X324423Y212790D01*
X324409Y212791D01*
X324396Y212796D01*
X324287Y212797D01*
X324179Y212803D01*
X324166Y212799D01*
X324152Y212800D01*
X324048Y212766D01*
X323944Y212737D01*
X323929Y212728D01*
X323919Y212725D01*
X323902Y212712D01*
X323817Y212662D01*
X315087Y206227D01*
X313254Y207356D01*
X313232Y207365D01*
X313181Y207395D01*
X310778Y208531D01*
X310755Y208538D01*
X310701Y208562D01*
X308666Y209262D01*
X308097Y220092D01*
X308074Y220198D01*
X308054Y220305D01*
X308048Y220317D01*
X308045Y220331D01*
X307989Y220424D01*
X307936Y220519D01*
X307926Y220528D01*
X307919Y220540D01*
X307836Y220610D01*
X307755Y220683D01*
X307743Y220688D01*
X307732Y220697D01*
X307631Y220737D01*
X307532Y220780D01*
X307514Y220782D01*
X307505Y220786D01*
X307483Y220787D01*
X307385Y220802D01*
X298866Y221218D01*
X298758Y221206D01*
X298650Y221197D01*
X298637Y221192D01*
X298623Y221190D01*
X298525Y221144D01*
X298425Y221101D01*
X298415Y221092D01*
X298403Y221086D01*
X298325Y221010D01*
X298244Y220938D01*
X298237Y220926D01*
X298227Y220916D01*
X298178Y220820D01*
X298125Y220725D01*
X298120Y220708D01*
X298116Y220699D01*
X298113Y220678D01*
X298088Y220582D01*
X296466Y209859D01*
X294371Y209361D01*
X294349Y209352D01*
X294292Y209337D01*
X291789Y208441D01*
X291768Y208430D01*
X291713Y208409D01*
X289779Y207465D01*
X281718Y214721D01*
X281627Y214779D01*
X281538Y214841D01*
X281524Y214845D01*
X281513Y214852D01*
X281407Y214878D01*
X281303Y214908D01*
X281289Y214907D01*
X281276Y214911D01*
X281167Y214901D01*
X281059Y214896D01*
X281047Y214891D01*
X281033Y214890D01*
X280933Y214846D01*
X280832Y214807D01*
X280818Y214796D01*
X280809Y214792D01*
X280793Y214778D01*
X280714Y214719D01*
X274394Y208989D01*
X274327Y208904D01*
X274256Y208821D01*
X274251Y208808D01*
X274243Y208797D01*
X274206Y208695D01*
X274166Y208595D01*
X274165Y208581D01*
X274160Y208568D01*
X274159Y208459D01*
X274153Y208351D01*
X274157Y208338D01*
X274156Y208324D01*
X274190Y208220D01*
X274219Y208116D01*
X274228Y208101D01*
X274231Y208091D01*
X274244Y208074D01*
X274294Y207989D01*
X280729Y199259D01*
X279600Y197426D01*
X279591Y197404D01*
X279561Y197353D01*
X278425Y194950D01*
X278418Y194927D01*
X278394Y194873D01*
X277694Y192838D01*
X266864Y192269D01*
X266758Y192246D01*
X266651Y192226D01*
X266639Y192220D01*
X266625Y192217D01*
X266532Y192161D01*
X266437Y192108D01*
X266428Y192098D01*
X266416Y192091D01*
X266346Y192008D01*
X266273Y191927D01*
X266268Y191915D01*
X266259Y191904D01*
X266219Y191803D01*
X266176Y191704D01*
X266174Y191686D01*
X266170Y191677D01*
X266169Y191655D01*
X266154Y191557D01*
X265738Y183038D01*
X265750Y182930D01*
X265759Y182822D01*
X265764Y182809D01*
X265766Y182795D01*
X265812Y182697D01*
X265855Y182597D01*
X265864Y182587D01*
X265870Y182575D01*
X265946Y182497D01*
X266018Y182416D01*
X266030Y182409D01*
X266040Y182399D01*
X266136Y182350D01*
X266231Y182297D01*
X266248Y182292D01*
X266257Y182288D01*
X266278Y182285D01*
X266374Y182260D01*
X277097Y180638D01*
X277595Y178543D01*
X277604Y178521D01*
X277619Y178464D01*
X278515Y175961D01*
X278526Y175940D01*
X278547Y175885D01*
X279491Y173951D01*
X272235Y165890D01*
X272177Y165799D01*
X272115Y165710D01*
X272111Y165696D01*
X272104Y165685D01*
X272078Y165579D01*
X272048Y165475D01*
X272049Y165461D01*
X272045Y165448D01*
X272055Y165339D01*
X272060Y165231D01*
X272065Y165219D01*
X272066Y165205D01*
X272110Y165105D01*
X272149Y165004D01*
X272160Y164990D01*
X272164Y164981D01*
X272178Y164965D01*
X272237Y164886D01*
X277967Y158566D01*
X278052Y158499D01*
X278135Y158428D01*
X278148Y158423D01*
X278159Y158415D01*
X278261Y158378D01*
X278361Y158338D01*
X278375Y158337D01*
X278388Y158332D01*
X278497Y158331D01*
X278605Y158325D01*
X278618Y158329D01*
X278632Y158328D01*
X278736Y158362D01*
X278840Y158391D01*
X278855Y158400D01*
X278865Y158403D01*
X278882Y158416D01*
X278967Y158466D01*
X287691Y164897D01*
X288941Y164103D01*
X288959Y164095D01*
X288994Y164072D01*
X290760Y163146D01*
X290798Y163133D01*
X290832Y163113D01*
X290913Y163095D01*
X290992Y163069D01*
X291032Y163070D01*
X291071Y163061D01*
X291153Y163070D01*
X291236Y163071D01*
X291273Y163084D01*
X291313Y163089D01*
X291388Y163124D01*
X291466Y163151D01*
X291498Y163176D01*
X291534Y163193D01*
X291593Y163250D01*
X291659Y163301D01*
X291681Y163335D01*
X291709Y163363D01*
X291785Y163489D01*
X297395Y175355D01*
X297426Y175466D01*
X297460Y175576D01*
X297460Y175583D01*
X297462Y175590D01*
X297456Y175705D01*
X297453Y175820D01*
X297450Y175826D01*
X297450Y175834D01*
X297407Y175941D01*
X297367Y176048D01*
X297363Y176054D01*
X297360Y176061D01*
X297285Y176149D01*
X297213Y176237D01*
X297206Y176243D01*
X297202Y176247D01*
X297189Y176255D01*
X297093Y176324D01*
X295558Y177215D01*
X294241Y178310D01*
X293127Y179610D01*
X292247Y181078D01*
X291625Y182673D01*
X291278Y184350D01*
X291218Y186058D01*
X291490Y187952D01*
X292111Y189759D01*
X293057Y191418D01*
X294297Y192871D01*
X295786Y194068D01*
X297472Y194965D01*
X299296Y195531D01*
X301194Y195747D01*
X303099Y195605D01*
X304943Y195110D01*
X306663Y194279D01*
X308198Y193142D01*
X309493Y191738D01*
X310503Y190116D01*
X311193Y188335D01*
X311538Y186457D01*
X311526Y184546D01*
X311158Y182672D01*
X310446Y180900D01*
X309416Y179291D01*
X308104Y177903D01*
X306556Y176785D01*
X304762Y175945D01*
X304670Y175882D01*
X304577Y175822D01*
X304570Y175813D01*
X304561Y175807D01*
X304494Y175718D01*
X304425Y175631D01*
X304421Y175621D01*
X304414Y175612D01*
X304380Y175506D01*
X304342Y175401D01*
X304342Y175390D01*
X304339Y175380D01*
X304340Y175268D01*
X304338Y175157D01*
X304342Y175144D01*
X304342Y175136D01*
X304348Y175117D01*
X304374Y175014D01*
X308799Y162657D01*
X308818Y162622D01*
X308829Y162584D01*
X308877Y162516D01*
X308917Y162444D01*
X308947Y162417D01*
X308970Y162384D01*
X309037Y162336D01*
X309098Y162280D01*
X309135Y162264D01*
X309167Y162240D01*
X309246Y162216D01*
X309322Y162183D01*
X309362Y162180D01*
X309400Y162168D01*
X309483Y162170D01*
X309565Y162163D01*
X309604Y162173D01*
X309644Y162174D01*
X309786Y162215D01*
X311633Y162965D01*
X311650Y162975D01*
X311690Y162990D01*
X313011Y163658D01*
X321066Y156407D01*
X321157Y156349D01*
X321246Y156287D01*
X321260Y156283D01*
X321271Y156276D01*
X321377Y156250D01*
X321481Y156220D01*
X321495Y156221D01*
X321508Y156217D01*
X321617Y156227D01*
G37*
D10*
X192906Y135466D02*
X192906Y148166D01*
X198550Y148166D01*
X198550Y142522D02*
X192906Y142522D01*
X203910Y143933D02*
X203910Y135466D01*
X203910Y143933D02*
X208144Y143933D01*
X208144Y142522D01*
X214750Y140405D02*
X217925Y140405D01*
X214750Y140404D02*
X214652Y140402D01*
X214554Y140396D01*
X214456Y140386D01*
X214359Y140373D01*
X214262Y140355D01*
X214166Y140334D01*
X214072Y140309D01*
X213978Y140280D01*
X213885Y140248D01*
X213794Y140211D01*
X213704Y140172D01*
X213616Y140128D01*
X213530Y140081D01*
X213445Y140031D01*
X213363Y139978D01*
X213283Y139921D01*
X213205Y139861D01*
X213130Y139798D01*
X213057Y139732D01*
X212987Y139663D01*
X212920Y139592D01*
X212855Y139518D01*
X212794Y139441D01*
X212735Y139362D01*
X212680Y139281D01*
X212628Y139198D01*
X212580Y139112D01*
X212535Y139025D01*
X212493Y138936D01*
X212455Y138846D01*
X212421Y138754D01*
X212390Y138661D01*
X212363Y138566D01*
X212340Y138471D01*
X212320Y138374D01*
X212305Y138278D01*
X212293Y138180D01*
X212285Y138082D01*
X212281Y137984D01*
X212281Y137886D01*
X212285Y137788D01*
X212293Y137690D01*
X212305Y137592D01*
X212320Y137496D01*
X212340Y137399D01*
X212363Y137304D01*
X212390Y137209D01*
X212421Y137116D01*
X212455Y137024D01*
X212493Y136934D01*
X212535Y136845D01*
X212580Y136758D01*
X212628Y136672D01*
X212680Y136589D01*
X212735Y136508D01*
X212794Y136429D01*
X212855Y136352D01*
X212920Y136278D01*
X212987Y136207D01*
X213057Y136138D01*
X213130Y136072D01*
X213205Y136009D01*
X213283Y135949D01*
X213363Y135892D01*
X213445Y135839D01*
X213530Y135789D01*
X213616Y135742D01*
X213704Y135698D01*
X213794Y135659D01*
X213885Y135622D01*
X213978Y135590D01*
X214072Y135561D01*
X214166Y135536D01*
X214262Y135515D01*
X214359Y135497D01*
X214456Y135484D01*
X214554Y135474D01*
X214652Y135468D01*
X214750Y135466D01*
X217925Y135466D01*
X217925Y141816D01*
X217923Y141906D01*
X217917Y141996D01*
X217908Y142085D01*
X217895Y142174D01*
X217877Y142262D01*
X217857Y142349D01*
X217832Y142436D01*
X217804Y142521D01*
X217772Y142605D01*
X217737Y142688D01*
X217698Y142769D01*
X217656Y142848D01*
X217611Y142926D01*
X217562Y143001D01*
X217510Y143075D01*
X217455Y143146D01*
X217397Y143215D01*
X217336Y143281D01*
X217273Y143344D01*
X217207Y143405D01*
X217138Y143463D01*
X217067Y143518D01*
X216993Y143570D01*
X216918Y143619D01*
X216840Y143664D01*
X216761Y143706D01*
X216680Y143745D01*
X216597Y143780D01*
X216513Y143812D01*
X216428Y143840D01*
X216341Y143865D01*
X216254Y143885D01*
X216166Y143903D01*
X216077Y143916D01*
X215988Y143925D01*
X215898Y143931D01*
X215808Y143933D01*
X212986Y143933D01*
X224306Y143933D02*
X224306Y135466D01*
X224306Y143933D02*
X227833Y143933D01*
X227923Y143931D01*
X228013Y143925D01*
X228102Y143916D01*
X228191Y143903D01*
X228279Y143885D01*
X228366Y143865D01*
X228453Y143840D01*
X228538Y143812D01*
X228622Y143780D01*
X228705Y143745D01*
X228786Y143706D01*
X228865Y143664D01*
X228943Y143619D01*
X229018Y143570D01*
X229092Y143518D01*
X229163Y143463D01*
X229232Y143405D01*
X229298Y143344D01*
X229361Y143281D01*
X229422Y143215D01*
X229480Y143146D01*
X229535Y143075D01*
X229587Y143001D01*
X229636Y142926D01*
X229681Y142848D01*
X229723Y142769D01*
X229762Y142688D01*
X229797Y142605D01*
X229829Y142521D01*
X229857Y142436D01*
X229882Y142349D01*
X229902Y142262D01*
X229920Y142174D01*
X229933Y142085D01*
X229942Y141996D01*
X229948Y141906D01*
X229950Y141816D01*
X229950Y135466D01*
X236431Y135466D02*
X236431Y148166D01*
X242076Y143933D02*
X236431Y139699D01*
X238901Y141463D02*
X242076Y135466D01*
X247980Y140405D02*
X251508Y138994D01*
X247981Y140405D02*
X247903Y140438D01*
X247827Y140475D01*
X247752Y140515D01*
X247680Y140559D01*
X247610Y140606D01*
X247541Y140656D01*
X247476Y140709D01*
X247413Y140765D01*
X247352Y140825D01*
X247294Y140886D01*
X247240Y140951D01*
X247188Y141018D01*
X247139Y141087D01*
X247094Y141158D01*
X247052Y141232D01*
X247013Y141307D01*
X246978Y141384D01*
X246947Y141463D01*
X246919Y141543D01*
X246895Y141624D01*
X246875Y141706D01*
X246858Y141789D01*
X246846Y141872D01*
X246837Y141957D01*
X246832Y142041D01*
X246831Y142126D01*
X246834Y142210D01*
X246841Y142294D01*
X246852Y142378D01*
X246867Y142462D01*
X246885Y142544D01*
X246907Y142626D01*
X246933Y142706D01*
X246963Y142786D01*
X246996Y142863D01*
X247033Y142939D01*
X247074Y143014D01*
X247118Y143086D01*
X247165Y143156D01*
X247215Y143224D01*
X247268Y143290D01*
X247325Y143353D01*
X247384Y143413D01*
X247446Y143471D01*
X247511Y143526D01*
X247578Y143577D01*
X247647Y143626D01*
X247718Y143671D01*
X247792Y143713D01*
X247867Y143751D01*
X247944Y143786D01*
X248023Y143817D01*
X248103Y143845D01*
X248184Y143869D01*
X248266Y143889D01*
X248349Y143905D01*
X248433Y143918D01*
X248517Y143926D01*
X248602Y143931D01*
X248686Y143932D01*
X248685Y143932D02*
X248878Y143927D01*
X249070Y143917D01*
X249263Y143903D01*
X249454Y143884D01*
X249645Y143861D01*
X249836Y143833D01*
X250026Y143800D01*
X250215Y143763D01*
X250403Y143721D01*
X250590Y143674D01*
X250776Y143624D01*
X250960Y143568D01*
X251144Y143509D01*
X251325Y143445D01*
X251505Y143376D01*
X251684Y143304D01*
X251860Y143227D01*
X251507Y138993D02*
X251585Y138960D01*
X251661Y138923D01*
X251736Y138883D01*
X251808Y138839D01*
X251878Y138792D01*
X251947Y138742D01*
X252012Y138689D01*
X252075Y138633D01*
X252136Y138573D01*
X252194Y138512D01*
X252248Y138447D01*
X252300Y138380D01*
X252349Y138311D01*
X252394Y138240D01*
X252436Y138166D01*
X252475Y138091D01*
X252510Y138014D01*
X252541Y137935D01*
X252569Y137855D01*
X252593Y137774D01*
X252613Y137692D01*
X252630Y137609D01*
X252642Y137526D01*
X252651Y137441D01*
X252656Y137357D01*
X252657Y137272D01*
X252654Y137188D01*
X252647Y137104D01*
X252636Y137020D01*
X252621Y136936D01*
X252603Y136854D01*
X252581Y136772D01*
X252555Y136692D01*
X252525Y136612D01*
X252492Y136535D01*
X252455Y136459D01*
X252414Y136384D01*
X252370Y136312D01*
X252323Y136242D01*
X252273Y136174D01*
X252220Y136108D01*
X252163Y136045D01*
X252104Y135985D01*
X252042Y135927D01*
X251977Y135872D01*
X251910Y135821D01*
X251841Y135772D01*
X251770Y135727D01*
X251696Y135685D01*
X251621Y135647D01*
X251544Y135612D01*
X251465Y135581D01*
X251385Y135553D01*
X251304Y135529D01*
X251222Y135509D01*
X251139Y135493D01*
X251055Y135480D01*
X250971Y135472D01*
X250886Y135467D01*
X250802Y135466D01*
X250519Y135474D01*
X250237Y135488D01*
X249954Y135508D01*
X249673Y135536D01*
X249392Y135570D01*
X249112Y135611D01*
X248833Y135658D01*
X248555Y135712D01*
X248278Y135772D01*
X248003Y135839D01*
X247730Y135913D01*
X247458Y135993D01*
X247189Y136079D01*
X246921Y136172D01*
X265448Y135466D02*
X265448Y148166D01*
X271093Y148166D01*
X271093Y142522D02*
X265448Y142522D01*
X276062Y137583D02*
X276062Y148166D01*
X276062Y137583D02*
X276064Y137493D01*
X276070Y137403D01*
X276079Y137314D01*
X276092Y137225D01*
X276110Y137137D01*
X276130Y137050D01*
X276155Y136963D01*
X276183Y136878D01*
X276215Y136794D01*
X276250Y136711D01*
X276289Y136630D01*
X276331Y136551D01*
X276376Y136473D01*
X276425Y136398D01*
X276477Y136324D01*
X276532Y136253D01*
X276590Y136184D01*
X276651Y136118D01*
X276714Y136055D01*
X276780Y135994D01*
X276849Y135936D01*
X276920Y135881D01*
X276994Y135829D01*
X277069Y135780D01*
X277147Y135735D01*
X277226Y135693D01*
X277307Y135654D01*
X277390Y135619D01*
X277474Y135587D01*
X277559Y135559D01*
X277646Y135534D01*
X277733Y135514D01*
X277821Y135496D01*
X277910Y135483D01*
X277999Y135474D01*
X278089Y135468D01*
X278179Y135466D01*
X282601Y135466D02*
X282601Y143933D01*
X282249Y147460D02*
X282249Y148166D01*
X282954Y148166D01*
X282954Y147460D01*
X282249Y147460D01*
X289926Y135466D02*
X293454Y135466D01*
X289926Y135466D02*
X289836Y135468D01*
X289746Y135474D01*
X289657Y135483D01*
X289568Y135496D01*
X289480Y135514D01*
X289393Y135534D01*
X289306Y135559D01*
X289221Y135587D01*
X289137Y135619D01*
X289054Y135654D01*
X288973Y135693D01*
X288894Y135735D01*
X288816Y135780D01*
X288741Y135829D01*
X288667Y135881D01*
X288596Y135936D01*
X288527Y135994D01*
X288461Y136055D01*
X288398Y136118D01*
X288337Y136184D01*
X288279Y136253D01*
X288224Y136324D01*
X288172Y136398D01*
X288123Y136473D01*
X288078Y136551D01*
X288036Y136630D01*
X287997Y136711D01*
X287962Y136794D01*
X287930Y136878D01*
X287902Y136963D01*
X287877Y137050D01*
X287857Y137137D01*
X287839Y137225D01*
X287826Y137314D01*
X287817Y137403D01*
X287811Y137493D01*
X287809Y137583D01*
X287810Y137583D02*
X287810Y141816D01*
X287809Y141816D02*
X287811Y141906D01*
X287817Y141996D01*
X287826Y142085D01*
X287839Y142174D01*
X287857Y142262D01*
X287877Y142349D01*
X287902Y142436D01*
X287930Y142521D01*
X287962Y142605D01*
X287997Y142688D01*
X288036Y142769D01*
X288078Y142848D01*
X288123Y142926D01*
X288172Y143001D01*
X288224Y143075D01*
X288279Y143146D01*
X288337Y143215D01*
X288398Y143281D01*
X288461Y143344D01*
X288527Y143405D01*
X288596Y143463D01*
X288667Y143518D01*
X288741Y143570D01*
X288816Y143619D01*
X288894Y143664D01*
X288973Y143706D01*
X289054Y143745D01*
X289137Y143780D01*
X289221Y143812D01*
X289306Y143840D01*
X289393Y143865D01*
X289480Y143885D01*
X289568Y143903D01*
X289657Y143916D01*
X289746Y143925D01*
X289836Y143931D01*
X289926Y143933D01*
X293454Y143933D01*
X293454Y133349D01*
X293452Y133259D01*
X293446Y133169D01*
X293437Y133080D01*
X293424Y132991D01*
X293406Y132903D01*
X293386Y132816D01*
X293361Y132729D01*
X293333Y132644D01*
X293301Y132560D01*
X293266Y132477D01*
X293227Y132396D01*
X293185Y132317D01*
X293140Y132239D01*
X293091Y132164D01*
X293039Y132090D01*
X292984Y132019D01*
X292926Y131950D01*
X292865Y131884D01*
X292802Y131821D01*
X292736Y131760D01*
X292667Y131702D01*
X292596Y131647D01*
X292522Y131595D01*
X292447Y131546D01*
X292369Y131501D01*
X292290Y131459D01*
X292209Y131420D01*
X292126Y131385D01*
X292042Y131353D01*
X291957Y131325D01*
X291870Y131300D01*
X291783Y131280D01*
X291695Y131262D01*
X291606Y131249D01*
X291517Y131240D01*
X291427Y131234D01*
X291337Y131232D01*
X291337Y131233D02*
X288515Y131233D01*
X299835Y135466D02*
X299835Y148166D01*
X299835Y143933D02*
X303363Y143933D01*
X303453Y143931D01*
X303543Y143925D01*
X303632Y143916D01*
X303721Y143903D01*
X303809Y143885D01*
X303896Y143865D01*
X303983Y143840D01*
X304068Y143812D01*
X304152Y143780D01*
X304235Y143745D01*
X304316Y143706D01*
X304395Y143664D01*
X304473Y143619D01*
X304548Y143570D01*
X304622Y143518D01*
X304693Y143463D01*
X304762Y143405D01*
X304828Y143344D01*
X304891Y143281D01*
X304952Y143215D01*
X305010Y143146D01*
X305065Y143075D01*
X305117Y143001D01*
X305166Y142926D01*
X305211Y142848D01*
X305253Y142769D01*
X305292Y142688D01*
X305327Y142605D01*
X305359Y142521D01*
X305387Y142436D01*
X305412Y142349D01*
X305432Y142262D01*
X305450Y142174D01*
X305463Y142085D01*
X305472Y141996D01*
X305478Y141906D01*
X305480Y141816D01*
X305479Y141816D02*
X305479Y135466D01*
X310234Y143933D02*
X314467Y143933D01*
X311645Y148166D02*
X311645Y137583D01*
X311647Y137493D01*
X311653Y137403D01*
X311662Y137314D01*
X311675Y137225D01*
X311693Y137137D01*
X311713Y137050D01*
X311738Y136963D01*
X311766Y136878D01*
X311798Y136794D01*
X311833Y136711D01*
X311872Y136630D01*
X311914Y136551D01*
X311959Y136473D01*
X312008Y136398D01*
X312060Y136324D01*
X312115Y136253D01*
X312173Y136184D01*
X312234Y136118D01*
X312297Y136055D01*
X312363Y135994D01*
X312432Y135936D01*
X312503Y135881D01*
X312577Y135829D01*
X312652Y135780D01*
X312730Y135735D01*
X312809Y135693D01*
X312890Y135654D01*
X312973Y135619D01*
X313057Y135587D01*
X313142Y135559D01*
X313229Y135534D01*
X313316Y135514D01*
X313404Y135496D01*
X313493Y135483D01*
X313582Y135474D01*
X313672Y135468D01*
X313762Y135466D01*
X314467Y135466D01*
X320522Y140405D02*
X324050Y138994D01*
X320523Y140405D02*
X320445Y140438D01*
X320369Y140475D01*
X320294Y140515D01*
X320222Y140559D01*
X320152Y140606D01*
X320083Y140656D01*
X320018Y140709D01*
X319955Y140765D01*
X319894Y140825D01*
X319836Y140886D01*
X319782Y140951D01*
X319730Y141018D01*
X319681Y141087D01*
X319636Y141158D01*
X319594Y141232D01*
X319555Y141307D01*
X319520Y141384D01*
X319489Y141463D01*
X319461Y141543D01*
X319437Y141624D01*
X319417Y141706D01*
X319400Y141789D01*
X319388Y141872D01*
X319379Y141957D01*
X319374Y142041D01*
X319373Y142126D01*
X319376Y142210D01*
X319383Y142294D01*
X319394Y142378D01*
X319409Y142462D01*
X319427Y142544D01*
X319449Y142626D01*
X319475Y142706D01*
X319505Y142786D01*
X319538Y142863D01*
X319575Y142939D01*
X319616Y143014D01*
X319660Y143086D01*
X319707Y143156D01*
X319757Y143224D01*
X319810Y143290D01*
X319867Y143353D01*
X319926Y143413D01*
X319988Y143471D01*
X320053Y143526D01*
X320120Y143577D01*
X320189Y143626D01*
X320260Y143671D01*
X320334Y143713D01*
X320409Y143751D01*
X320486Y143786D01*
X320565Y143817D01*
X320645Y143845D01*
X320726Y143869D01*
X320808Y143889D01*
X320891Y143905D01*
X320975Y143918D01*
X321059Y143926D01*
X321144Y143931D01*
X321228Y143932D01*
X321227Y143932D02*
X321420Y143927D01*
X321612Y143917D01*
X321805Y143903D01*
X321996Y143884D01*
X322187Y143861D01*
X322378Y143833D01*
X322568Y143800D01*
X322757Y143763D01*
X322945Y143721D01*
X323132Y143674D01*
X323318Y143624D01*
X323502Y143568D01*
X323686Y143509D01*
X323867Y143445D01*
X324047Y143376D01*
X324226Y143304D01*
X324402Y143227D01*
X324050Y138993D02*
X324128Y138960D01*
X324204Y138923D01*
X324279Y138883D01*
X324351Y138839D01*
X324421Y138792D01*
X324490Y138742D01*
X324555Y138689D01*
X324618Y138633D01*
X324679Y138573D01*
X324737Y138512D01*
X324791Y138447D01*
X324843Y138380D01*
X324892Y138311D01*
X324937Y138240D01*
X324979Y138166D01*
X325018Y138091D01*
X325053Y138014D01*
X325084Y137935D01*
X325112Y137855D01*
X325136Y137774D01*
X325156Y137692D01*
X325173Y137609D01*
X325185Y137526D01*
X325194Y137441D01*
X325199Y137357D01*
X325200Y137272D01*
X325197Y137188D01*
X325190Y137104D01*
X325179Y137020D01*
X325164Y136936D01*
X325146Y136854D01*
X325124Y136772D01*
X325098Y136692D01*
X325068Y136612D01*
X325035Y136535D01*
X324998Y136459D01*
X324957Y136384D01*
X324913Y136312D01*
X324866Y136242D01*
X324816Y136174D01*
X324763Y136108D01*
X324706Y136045D01*
X324647Y135985D01*
X324585Y135927D01*
X324520Y135872D01*
X324453Y135821D01*
X324384Y135772D01*
X324313Y135727D01*
X324239Y135685D01*
X324164Y135647D01*
X324087Y135612D01*
X324008Y135581D01*
X323928Y135553D01*
X323847Y135529D01*
X323765Y135509D01*
X323682Y135493D01*
X323598Y135480D01*
X323514Y135472D01*
X323429Y135467D01*
X323345Y135466D01*
X323344Y135466D02*
X323061Y135474D01*
X322779Y135488D01*
X322496Y135508D01*
X322215Y135536D01*
X321934Y135570D01*
X321654Y135611D01*
X321375Y135658D01*
X321097Y135712D01*
X320820Y135772D01*
X320545Y135839D01*
X320272Y135913D01*
X320000Y135993D01*
X319731Y136079D01*
X319463Y136172D01*
X330394Y135466D02*
X330394Y143933D01*
X330041Y147460D02*
X330041Y148166D01*
X330747Y148166D01*
X330747Y147460D01*
X330041Y147460D01*
X336402Y143933D02*
X336402Y135466D01*
X336402Y143933D02*
X342752Y143933D01*
X342842Y143931D01*
X342932Y143925D01*
X343021Y143916D01*
X343110Y143903D01*
X343198Y143885D01*
X343285Y143865D01*
X343372Y143840D01*
X343457Y143812D01*
X343541Y143780D01*
X343624Y143745D01*
X343705Y143706D01*
X343784Y143664D01*
X343862Y143619D01*
X343937Y143570D01*
X344011Y143518D01*
X344082Y143463D01*
X344151Y143405D01*
X344217Y143344D01*
X344280Y143281D01*
X344341Y143215D01*
X344399Y143146D01*
X344454Y143075D01*
X344506Y143001D01*
X344555Y142926D01*
X344600Y142848D01*
X344642Y142769D01*
X344681Y142688D01*
X344716Y142605D01*
X344748Y142521D01*
X344776Y142436D01*
X344801Y142349D01*
X344821Y142262D01*
X344839Y142174D01*
X344852Y142085D01*
X344861Y141996D01*
X344867Y141906D01*
X344869Y141816D01*
X344868Y141816D02*
X344868Y135466D01*
X340635Y135466D02*
X340635Y143933D01*
X358665Y142522D02*
X362193Y142522D01*
X362311Y142520D01*
X362429Y142514D01*
X362546Y142504D01*
X362663Y142491D01*
X362780Y142473D01*
X362896Y142451D01*
X363011Y142426D01*
X363125Y142397D01*
X363238Y142364D01*
X363350Y142327D01*
X363461Y142286D01*
X363570Y142242D01*
X363678Y142194D01*
X363784Y142143D01*
X363888Y142088D01*
X363991Y142029D01*
X364091Y141968D01*
X364190Y141903D01*
X364286Y141834D01*
X364379Y141763D01*
X364471Y141688D01*
X364560Y141611D01*
X364646Y141530D01*
X364729Y141447D01*
X364810Y141361D01*
X364887Y141272D01*
X364962Y141180D01*
X365033Y141087D01*
X365102Y140991D01*
X365167Y140892D01*
X365228Y140792D01*
X365287Y140689D01*
X365342Y140585D01*
X365393Y140479D01*
X365441Y140371D01*
X365485Y140262D01*
X365526Y140151D01*
X365563Y140039D01*
X365596Y139926D01*
X365625Y139812D01*
X365650Y139697D01*
X365672Y139581D01*
X365690Y139464D01*
X365703Y139347D01*
X365713Y139230D01*
X365719Y139112D01*
X365721Y138994D01*
X365719Y138876D01*
X365713Y138758D01*
X365703Y138641D01*
X365690Y138524D01*
X365672Y138407D01*
X365650Y138291D01*
X365625Y138176D01*
X365596Y138062D01*
X365563Y137949D01*
X365526Y137837D01*
X365485Y137726D01*
X365441Y137617D01*
X365393Y137509D01*
X365342Y137403D01*
X365287Y137299D01*
X365228Y137196D01*
X365167Y137096D01*
X365102Y136997D01*
X365033Y136901D01*
X364962Y136808D01*
X364887Y136716D01*
X364810Y136627D01*
X364729Y136541D01*
X364646Y136458D01*
X364560Y136377D01*
X364471Y136300D01*
X364379Y136225D01*
X364286Y136154D01*
X364190Y136085D01*
X364091Y136020D01*
X363991Y135959D01*
X363888Y135900D01*
X363784Y135845D01*
X363678Y135794D01*
X363570Y135746D01*
X363461Y135702D01*
X363350Y135661D01*
X363238Y135624D01*
X363125Y135591D01*
X363011Y135562D01*
X362896Y135537D01*
X362780Y135515D01*
X362663Y135497D01*
X362546Y135484D01*
X362429Y135474D01*
X362311Y135468D01*
X362193Y135466D01*
X358665Y135466D01*
X358665Y148166D01*
X362193Y148166D01*
X362299Y148164D01*
X362404Y148158D01*
X362509Y148148D01*
X362614Y148134D01*
X362718Y148117D01*
X362821Y148095D01*
X362923Y148070D01*
X363025Y148041D01*
X363125Y148008D01*
X363224Y147971D01*
X363321Y147931D01*
X363417Y147887D01*
X363512Y147839D01*
X363604Y147788D01*
X363694Y147733D01*
X363783Y147676D01*
X363869Y147615D01*
X363952Y147550D01*
X364034Y147483D01*
X364112Y147413D01*
X364188Y147339D01*
X364262Y147263D01*
X364332Y147185D01*
X364399Y147103D01*
X364464Y147020D01*
X364525Y146934D01*
X364582Y146845D01*
X364637Y146755D01*
X364688Y146663D01*
X364736Y146568D01*
X364780Y146472D01*
X364820Y146375D01*
X364857Y146276D01*
X364890Y146176D01*
X364919Y146074D01*
X364944Y145972D01*
X364966Y145869D01*
X364983Y145765D01*
X364997Y145660D01*
X365007Y145555D01*
X365013Y145450D01*
X365015Y145344D01*
X365013Y145238D01*
X365007Y145133D01*
X364997Y145028D01*
X364983Y144923D01*
X364966Y144819D01*
X364944Y144716D01*
X364919Y144614D01*
X364890Y144512D01*
X364857Y144412D01*
X364820Y144313D01*
X364780Y144216D01*
X364736Y144120D01*
X364688Y144025D01*
X364637Y143933D01*
X364582Y143843D01*
X364525Y143754D01*
X364464Y143668D01*
X364399Y143585D01*
X364332Y143503D01*
X364262Y143425D01*
X364188Y143349D01*
X364112Y143275D01*
X364034Y143205D01*
X363952Y143138D01*
X363869Y143073D01*
X363783Y143012D01*
X363694Y142955D01*
X363604Y142900D01*
X363512Y142849D01*
X363417Y142801D01*
X363321Y142757D01*
X363224Y142717D01*
X363125Y142680D01*
X363025Y142647D01*
X362923Y142618D01*
X362821Y142593D01*
X362718Y142571D01*
X362614Y142554D01*
X362509Y142540D01*
X362404Y142530D01*
X362299Y142524D01*
X362193Y142522D01*
X370670Y141110D02*
X370670Y138288D01*
X370670Y141110D02*
X370672Y141216D01*
X370678Y141321D01*
X370688Y141426D01*
X370702Y141531D01*
X370719Y141635D01*
X370741Y141738D01*
X370766Y141840D01*
X370795Y141942D01*
X370828Y142042D01*
X370865Y142141D01*
X370905Y142238D01*
X370949Y142334D01*
X370997Y142429D01*
X371048Y142521D01*
X371103Y142611D01*
X371160Y142700D01*
X371221Y142786D01*
X371286Y142869D01*
X371353Y142951D01*
X371423Y143029D01*
X371497Y143105D01*
X371573Y143179D01*
X371651Y143249D01*
X371733Y143316D01*
X371816Y143381D01*
X371902Y143442D01*
X371991Y143499D01*
X372081Y143554D01*
X372173Y143605D01*
X372268Y143653D01*
X372364Y143697D01*
X372461Y143737D01*
X372560Y143774D01*
X372660Y143807D01*
X372762Y143836D01*
X372864Y143861D01*
X372967Y143883D01*
X373071Y143900D01*
X373176Y143914D01*
X373281Y143924D01*
X373386Y143930D01*
X373492Y143932D01*
X373598Y143930D01*
X373703Y143924D01*
X373808Y143914D01*
X373913Y143900D01*
X374017Y143883D01*
X374120Y143861D01*
X374222Y143836D01*
X374324Y143807D01*
X374424Y143774D01*
X374523Y143737D01*
X374620Y143697D01*
X374716Y143653D01*
X374811Y143605D01*
X374903Y143554D01*
X374993Y143499D01*
X375082Y143442D01*
X375168Y143381D01*
X375251Y143316D01*
X375333Y143249D01*
X375411Y143179D01*
X375487Y143105D01*
X375561Y143029D01*
X375631Y142951D01*
X375698Y142869D01*
X375763Y142786D01*
X375824Y142700D01*
X375881Y142611D01*
X375936Y142521D01*
X375987Y142429D01*
X376035Y142334D01*
X376079Y142238D01*
X376119Y142141D01*
X376156Y142042D01*
X376189Y141942D01*
X376218Y141840D01*
X376243Y141738D01*
X376265Y141635D01*
X376282Y141531D01*
X376296Y141426D01*
X376306Y141321D01*
X376312Y141216D01*
X376314Y141110D01*
X376315Y141110D02*
X376315Y138288D01*
X376314Y138288D02*
X376312Y138182D01*
X376306Y138077D01*
X376296Y137972D01*
X376282Y137867D01*
X376265Y137763D01*
X376243Y137660D01*
X376218Y137558D01*
X376189Y137456D01*
X376156Y137356D01*
X376119Y137257D01*
X376079Y137160D01*
X376035Y137064D01*
X375987Y136969D01*
X375936Y136877D01*
X375881Y136787D01*
X375824Y136698D01*
X375763Y136612D01*
X375698Y136529D01*
X375631Y136447D01*
X375561Y136369D01*
X375487Y136293D01*
X375411Y136219D01*
X375333Y136149D01*
X375251Y136082D01*
X375168Y136017D01*
X375082Y135956D01*
X374993Y135899D01*
X374903Y135844D01*
X374811Y135793D01*
X374716Y135745D01*
X374620Y135701D01*
X374523Y135661D01*
X374424Y135624D01*
X374324Y135591D01*
X374222Y135562D01*
X374120Y135537D01*
X374017Y135515D01*
X373913Y135498D01*
X373808Y135484D01*
X373703Y135474D01*
X373598Y135468D01*
X373492Y135466D01*
X373386Y135468D01*
X373281Y135474D01*
X373176Y135484D01*
X373071Y135498D01*
X372967Y135515D01*
X372864Y135537D01*
X372762Y135562D01*
X372660Y135591D01*
X372560Y135624D01*
X372461Y135661D01*
X372364Y135701D01*
X372268Y135745D01*
X372173Y135793D01*
X372081Y135844D01*
X371991Y135899D01*
X371902Y135956D01*
X371816Y136017D01*
X371733Y136082D01*
X371651Y136149D01*
X371573Y136219D01*
X371497Y136293D01*
X371423Y136369D01*
X371353Y136447D01*
X371286Y136529D01*
X371221Y136612D01*
X371160Y136698D01*
X371103Y136787D01*
X371048Y136877D01*
X370997Y136969D01*
X370949Y137064D01*
X370905Y137160D01*
X370865Y137257D01*
X370828Y137356D01*
X370795Y137456D01*
X370766Y137558D01*
X370741Y137660D01*
X370719Y137763D01*
X370702Y137867D01*
X370688Y137972D01*
X370678Y138077D01*
X370672Y138182D01*
X370670Y138288D01*
X384157Y140405D02*
X387332Y140405D01*
X384157Y140404D02*
X384059Y140402D01*
X383961Y140396D01*
X383863Y140386D01*
X383766Y140373D01*
X383669Y140355D01*
X383573Y140334D01*
X383479Y140309D01*
X383385Y140280D01*
X383292Y140248D01*
X383201Y140211D01*
X383111Y140172D01*
X383023Y140128D01*
X382937Y140081D01*
X382852Y140031D01*
X382770Y139978D01*
X382690Y139921D01*
X382612Y139861D01*
X382537Y139798D01*
X382464Y139732D01*
X382394Y139663D01*
X382327Y139592D01*
X382262Y139518D01*
X382201Y139441D01*
X382142Y139362D01*
X382087Y139281D01*
X382035Y139198D01*
X381987Y139112D01*
X381942Y139025D01*
X381900Y138936D01*
X381862Y138846D01*
X381828Y138754D01*
X381797Y138661D01*
X381770Y138566D01*
X381747Y138471D01*
X381727Y138374D01*
X381712Y138278D01*
X381700Y138180D01*
X381692Y138082D01*
X381688Y137984D01*
X381688Y137886D01*
X381692Y137788D01*
X381700Y137690D01*
X381712Y137592D01*
X381727Y137496D01*
X381747Y137399D01*
X381770Y137304D01*
X381797Y137209D01*
X381828Y137116D01*
X381862Y137024D01*
X381900Y136934D01*
X381942Y136845D01*
X381987Y136758D01*
X382035Y136672D01*
X382087Y136589D01*
X382142Y136508D01*
X382201Y136429D01*
X382262Y136352D01*
X382327Y136278D01*
X382394Y136207D01*
X382464Y136138D01*
X382537Y136072D01*
X382612Y136009D01*
X382690Y135949D01*
X382770Y135892D01*
X382852Y135839D01*
X382937Y135789D01*
X383023Y135742D01*
X383111Y135698D01*
X383201Y135659D01*
X383292Y135622D01*
X383385Y135590D01*
X383479Y135561D01*
X383573Y135536D01*
X383669Y135515D01*
X383766Y135497D01*
X383863Y135484D01*
X383961Y135474D01*
X384059Y135468D01*
X384157Y135466D01*
X387332Y135466D01*
X387332Y141816D01*
X387333Y141816D02*
X387331Y141906D01*
X387325Y141996D01*
X387316Y142085D01*
X387303Y142174D01*
X387285Y142262D01*
X387265Y142349D01*
X387240Y142436D01*
X387212Y142521D01*
X387180Y142605D01*
X387145Y142688D01*
X387106Y142769D01*
X387064Y142848D01*
X387019Y142926D01*
X386970Y143001D01*
X386918Y143075D01*
X386863Y143146D01*
X386805Y143215D01*
X386744Y143281D01*
X386681Y143344D01*
X386615Y143405D01*
X386546Y143463D01*
X386475Y143518D01*
X386401Y143570D01*
X386326Y143619D01*
X386248Y143664D01*
X386169Y143706D01*
X386088Y143745D01*
X386005Y143780D01*
X385921Y143812D01*
X385836Y143840D01*
X385749Y143865D01*
X385662Y143885D01*
X385574Y143903D01*
X385485Y143916D01*
X385396Y143925D01*
X385306Y143931D01*
X385216Y143933D01*
X382393Y143933D01*
X393800Y143933D02*
X393800Y135466D01*
X393800Y143933D02*
X398033Y143933D01*
X398033Y142522D01*
X407815Y148166D02*
X407815Y135466D01*
X404287Y135466D01*
X404197Y135468D01*
X404107Y135474D01*
X404018Y135483D01*
X403929Y135496D01*
X403841Y135514D01*
X403754Y135534D01*
X403667Y135559D01*
X403582Y135587D01*
X403498Y135619D01*
X403415Y135654D01*
X403334Y135693D01*
X403255Y135735D01*
X403177Y135780D01*
X403102Y135829D01*
X403028Y135881D01*
X402957Y135936D01*
X402888Y135994D01*
X402822Y136055D01*
X402759Y136118D01*
X402698Y136184D01*
X402640Y136253D01*
X402585Y136324D01*
X402533Y136398D01*
X402484Y136473D01*
X402439Y136551D01*
X402397Y136630D01*
X402358Y136711D01*
X402323Y136794D01*
X402291Y136878D01*
X402263Y136963D01*
X402238Y137050D01*
X402218Y137137D01*
X402200Y137225D01*
X402187Y137314D01*
X402178Y137403D01*
X402172Y137493D01*
X402170Y137583D01*
X402170Y141816D01*
X402172Y141906D01*
X402178Y141996D01*
X402187Y142085D01*
X402200Y142174D01*
X402218Y142262D01*
X402238Y142349D01*
X402263Y142436D01*
X402291Y142521D01*
X402323Y142605D01*
X402358Y142688D01*
X402397Y142769D01*
X402439Y142848D01*
X402484Y142926D01*
X402533Y143001D01*
X402585Y143075D01*
X402640Y143146D01*
X402698Y143215D01*
X402759Y143281D01*
X402822Y143344D01*
X402888Y143405D01*
X402957Y143463D01*
X403028Y143518D01*
X403102Y143570D01*
X403177Y143619D01*
X403255Y143664D01*
X403334Y143706D01*
X403415Y143745D01*
X403498Y143780D01*
X403582Y143812D01*
X403667Y143840D01*
X403754Y143865D01*
X403841Y143885D01*
X403929Y143903D01*
X404018Y143916D01*
X404107Y143925D01*
X404197Y143931D01*
X404287Y143933D01*
X407815Y143933D01*
X414827Y140405D02*
X418355Y138994D01*
X414828Y140405D02*
X414750Y140438D01*
X414674Y140475D01*
X414599Y140515D01*
X414527Y140559D01*
X414457Y140606D01*
X414388Y140656D01*
X414323Y140709D01*
X414260Y140765D01*
X414199Y140825D01*
X414141Y140886D01*
X414087Y140951D01*
X414035Y141018D01*
X413986Y141087D01*
X413941Y141158D01*
X413899Y141232D01*
X413860Y141307D01*
X413825Y141384D01*
X413794Y141463D01*
X413766Y141543D01*
X413742Y141624D01*
X413722Y141706D01*
X413705Y141789D01*
X413693Y141872D01*
X413684Y141957D01*
X413679Y142041D01*
X413678Y142126D01*
X413681Y142210D01*
X413688Y142294D01*
X413699Y142378D01*
X413714Y142462D01*
X413732Y142544D01*
X413754Y142626D01*
X413780Y142706D01*
X413810Y142786D01*
X413843Y142863D01*
X413880Y142939D01*
X413921Y143014D01*
X413965Y143086D01*
X414012Y143156D01*
X414062Y143224D01*
X414115Y143290D01*
X414172Y143353D01*
X414231Y143413D01*
X414293Y143471D01*
X414358Y143526D01*
X414425Y143577D01*
X414494Y143626D01*
X414565Y143671D01*
X414639Y143713D01*
X414714Y143751D01*
X414791Y143786D01*
X414870Y143817D01*
X414950Y143845D01*
X415031Y143869D01*
X415113Y143889D01*
X415196Y143905D01*
X415280Y143918D01*
X415364Y143926D01*
X415449Y143931D01*
X415533Y143932D01*
X415532Y143932D02*
X415725Y143927D01*
X415917Y143917D01*
X416110Y143903D01*
X416301Y143884D01*
X416492Y143861D01*
X416683Y143833D01*
X416873Y143800D01*
X417062Y143763D01*
X417250Y143721D01*
X417437Y143674D01*
X417623Y143624D01*
X417807Y143568D01*
X417991Y143509D01*
X418172Y143445D01*
X418352Y143376D01*
X418531Y143304D01*
X418707Y143227D01*
X418354Y138993D02*
X418432Y138960D01*
X418508Y138923D01*
X418583Y138883D01*
X418655Y138839D01*
X418725Y138792D01*
X418794Y138742D01*
X418859Y138689D01*
X418922Y138633D01*
X418983Y138573D01*
X419041Y138512D01*
X419095Y138447D01*
X419147Y138380D01*
X419196Y138311D01*
X419241Y138240D01*
X419283Y138166D01*
X419322Y138091D01*
X419357Y138014D01*
X419388Y137935D01*
X419416Y137855D01*
X419440Y137774D01*
X419460Y137692D01*
X419477Y137609D01*
X419489Y137526D01*
X419498Y137441D01*
X419503Y137357D01*
X419504Y137272D01*
X419501Y137188D01*
X419494Y137104D01*
X419483Y137020D01*
X419468Y136936D01*
X419450Y136854D01*
X419428Y136772D01*
X419402Y136692D01*
X419372Y136612D01*
X419339Y136535D01*
X419302Y136459D01*
X419261Y136384D01*
X419217Y136312D01*
X419170Y136242D01*
X419120Y136174D01*
X419067Y136108D01*
X419010Y136045D01*
X418951Y135985D01*
X418889Y135927D01*
X418824Y135872D01*
X418757Y135821D01*
X418688Y135772D01*
X418617Y135727D01*
X418543Y135685D01*
X418468Y135647D01*
X418391Y135612D01*
X418312Y135581D01*
X418232Y135553D01*
X418151Y135529D01*
X418069Y135509D01*
X417986Y135493D01*
X417902Y135480D01*
X417818Y135472D01*
X417733Y135467D01*
X417649Y135466D01*
X417366Y135474D01*
X417084Y135488D01*
X416801Y135508D01*
X416520Y135536D01*
X416239Y135570D01*
X415959Y135611D01*
X415680Y135658D01*
X415402Y135712D01*
X415125Y135772D01*
X414850Y135839D01*
X414577Y135913D01*
X414305Y135993D01*
X414036Y136079D01*
X413768Y136172D01*
X271326Y99022D02*
X268842Y106473D01*
X273809Y106473D02*
X271326Y99022D01*
X278508Y104610D02*
X278511Y104830D01*
X278518Y105050D01*
X278532Y105269D01*
X278550Y105488D01*
X278574Y105707D01*
X278602Y105925D01*
X278636Y106142D01*
X278675Y106358D01*
X278720Y106574D01*
X278769Y106788D01*
X278824Y107001D01*
X278883Y107213D01*
X278948Y107423D01*
X279018Y107631D01*
X279092Y107838D01*
X279172Y108043D01*
X279256Y108246D01*
X279345Y108447D01*
X279439Y108646D01*
X279440Y108646D02*
X279473Y108735D01*
X279509Y108823D01*
X279549Y108909D01*
X279592Y108994D01*
X279639Y109076D01*
X279690Y109157D01*
X279743Y109235D01*
X279800Y109311D01*
X279860Y109385D01*
X279923Y109456D01*
X279988Y109525D01*
X280057Y109591D01*
X280128Y109653D01*
X280202Y109713D01*
X280278Y109770D01*
X280356Y109824D01*
X280437Y109874D01*
X280519Y109921D01*
X280604Y109964D01*
X280690Y110004D01*
X280778Y110041D01*
X280867Y110073D01*
X280957Y110102D01*
X281049Y110128D01*
X281141Y110149D01*
X281235Y110167D01*
X281329Y110180D01*
X281423Y110190D01*
X281518Y110196D01*
X281613Y110198D01*
X281708Y110196D01*
X281803Y110190D01*
X281897Y110180D01*
X281991Y110167D01*
X282085Y110149D01*
X282177Y110128D01*
X282269Y110102D01*
X282359Y110073D01*
X282448Y110041D01*
X282536Y110004D01*
X282622Y109964D01*
X282707Y109921D01*
X282789Y109874D01*
X282870Y109824D01*
X282948Y109770D01*
X283024Y109713D01*
X283098Y109653D01*
X283169Y109591D01*
X283238Y109525D01*
X283303Y109456D01*
X283366Y109385D01*
X283426Y109311D01*
X283483Y109235D01*
X283536Y109157D01*
X283587Y109076D01*
X283634Y108993D01*
X283677Y108909D01*
X283717Y108823D01*
X283753Y108735D01*
X283786Y108646D01*
X283880Y108447D01*
X283969Y108246D01*
X284053Y108043D01*
X284133Y107838D01*
X284207Y107631D01*
X284277Y107423D01*
X284342Y107213D01*
X284401Y107001D01*
X284456Y106788D01*
X284505Y106574D01*
X284550Y106358D01*
X284589Y106142D01*
X284623Y105925D01*
X284651Y105707D01*
X284675Y105488D01*
X284693Y105269D01*
X284707Y105050D01*
X284714Y104830D01*
X284717Y104610D01*
X278508Y104610D02*
X278511Y104390D01*
X278518Y104170D01*
X278532Y103951D01*
X278550Y103732D01*
X278574Y103513D01*
X278602Y103295D01*
X278636Y103078D01*
X278675Y102862D01*
X278720Y102646D01*
X278769Y102432D01*
X278824Y102219D01*
X278883Y102008D01*
X278948Y101797D01*
X279018Y101589D01*
X279092Y101382D01*
X279172Y101177D01*
X279256Y100974D01*
X279345Y100773D01*
X279439Y100574D01*
X279440Y100574D02*
X279473Y100485D01*
X279509Y100397D01*
X279549Y100311D01*
X279592Y100226D01*
X279639Y100144D01*
X279690Y100063D01*
X279743Y99985D01*
X279800Y99909D01*
X279860Y99835D01*
X279923Y99764D01*
X279988Y99695D01*
X280057Y99629D01*
X280128Y99567D01*
X280202Y99507D01*
X280278Y99450D01*
X280356Y99396D01*
X280437Y99346D01*
X280519Y99299D01*
X280604Y99256D01*
X280690Y99216D01*
X280778Y99179D01*
X280867Y99147D01*
X280957Y99118D01*
X281049Y99092D01*
X281141Y99071D01*
X281235Y99053D01*
X281329Y99040D01*
X281423Y99030D01*
X281518Y99024D01*
X281613Y99022D01*
X283786Y100574D02*
X283880Y100773D01*
X283969Y100974D01*
X284053Y101177D01*
X284133Y101382D01*
X284207Y101589D01*
X284277Y101797D01*
X284342Y102007D01*
X284401Y102219D01*
X284456Y102432D01*
X284505Y102646D01*
X284550Y102862D01*
X284589Y103078D01*
X284623Y103295D01*
X284651Y103513D01*
X284675Y103732D01*
X284693Y103951D01*
X284707Y104170D01*
X284714Y104390D01*
X284717Y104610D01*
X283786Y100574D02*
X283753Y100485D01*
X283717Y100397D01*
X283677Y100311D01*
X283634Y100226D01*
X283587Y100144D01*
X283536Y100063D01*
X283483Y99985D01*
X283426Y99909D01*
X283366Y99835D01*
X283303Y99764D01*
X283238Y99695D01*
X283169Y99629D01*
X283098Y99567D01*
X283024Y99507D01*
X282948Y99450D01*
X282870Y99396D01*
X282789Y99346D01*
X282707Y99299D01*
X282622Y99256D01*
X282536Y99216D01*
X282448Y99179D01*
X282359Y99147D01*
X282269Y99118D01*
X282177Y99092D01*
X282085Y99071D01*
X281991Y99053D01*
X281897Y99040D01*
X281803Y99030D01*
X281708Y99024D01*
X281613Y99022D01*
X279129Y101506D02*
X284096Y107714D01*
X289303Y99643D02*
X289303Y99022D01*
X289303Y99643D02*
X289924Y99643D01*
X289924Y99022D01*
X289303Y99022D01*
X297925Y110198D02*
X298029Y110196D01*
X298134Y110190D01*
X298238Y110180D01*
X298341Y110167D01*
X298444Y110149D01*
X298547Y110128D01*
X298648Y110103D01*
X298749Y110074D01*
X298848Y110041D01*
X298946Y110005D01*
X299042Y109965D01*
X299137Y109921D01*
X299231Y109874D01*
X299322Y109824D01*
X299411Y109770D01*
X299499Y109713D01*
X299584Y109652D01*
X299667Y109588D01*
X299747Y109522D01*
X299825Y109452D01*
X299901Y109380D01*
X299973Y109304D01*
X300043Y109226D01*
X300109Y109146D01*
X300173Y109063D01*
X300234Y108978D01*
X300291Y108890D01*
X300345Y108801D01*
X300395Y108710D01*
X300442Y108616D01*
X300486Y108521D01*
X300526Y108425D01*
X300562Y108327D01*
X300595Y108228D01*
X300624Y108127D01*
X300649Y108026D01*
X300670Y107923D01*
X300688Y107820D01*
X300701Y107717D01*
X300711Y107613D01*
X300717Y107508D01*
X300719Y107404D01*
X297925Y110199D02*
X297806Y110197D01*
X297688Y110191D01*
X297569Y110181D01*
X297451Y110168D01*
X297334Y110150D01*
X297217Y110128D01*
X297101Y110103D01*
X296986Y110074D01*
X296871Y110041D01*
X296758Y110004D01*
X296647Y109964D01*
X296536Y109920D01*
X296428Y109872D01*
X296321Y109821D01*
X296215Y109766D01*
X296112Y109707D01*
X296010Y109646D01*
X295911Y109581D01*
X295813Y109512D01*
X295719Y109441D01*
X295626Y109366D01*
X295536Y109289D01*
X295449Y109208D01*
X295364Y109125D01*
X295282Y109039D01*
X295203Y108950D01*
X295127Y108859D01*
X295054Y108765D01*
X294985Y108669D01*
X294918Y108570D01*
X294855Y108470D01*
X294795Y108367D01*
X294738Y108263D01*
X294686Y108156D01*
X294636Y108048D01*
X294590Y107939D01*
X294548Y107827D01*
X294510Y107715D01*
X299788Y105231D02*
X299863Y105305D01*
X299935Y105382D01*
X300005Y105461D01*
X300072Y105543D01*
X300136Y105627D01*
X300197Y105713D01*
X300255Y105801D01*
X300310Y105892D01*
X300362Y105984D01*
X300410Y106078D01*
X300455Y106173D01*
X300497Y106271D01*
X300535Y106369D01*
X300570Y106469D01*
X300601Y106570D01*
X300628Y106672D01*
X300652Y106775D01*
X300673Y106878D01*
X300689Y106983D01*
X300702Y107088D01*
X300712Y107193D01*
X300717Y107298D01*
X300719Y107404D01*
X299788Y105231D02*
X294510Y99022D01*
X300719Y99022D01*
X192906Y116990D02*
X192906Y128166D01*
X196631Y121957D01*
X200357Y128166D01*
X200357Y116990D01*
X205959Y119474D02*
X205959Y121957D01*
X205958Y121957D02*
X205960Y122056D01*
X205966Y122154D01*
X205976Y122253D01*
X205989Y122350D01*
X206007Y122448D01*
X206028Y122544D01*
X206054Y122640D01*
X206083Y122734D01*
X206115Y122827D01*
X206152Y122919D01*
X206192Y123009D01*
X206236Y123098D01*
X206283Y123185D01*
X206333Y123270D01*
X206387Y123352D01*
X206444Y123433D01*
X206504Y123511D01*
X206568Y123587D01*
X206634Y123660D01*
X206703Y123731D01*
X206775Y123799D01*
X206850Y123863D01*
X206927Y123925D01*
X207006Y123984D01*
X207088Y124039D01*
X207172Y124092D01*
X207257Y124140D01*
X207345Y124186D01*
X207435Y124228D01*
X207526Y124266D01*
X207618Y124300D01*
X207712Y124331D01*
X207807Y124358D01*
X207903Y124382D01*
X208000Y124401D01*
X208097Y124417D01*
X208195Y124429D01*
X208294Y124437D01*
X208393Y124441D01*
X208491Y124441D01*
X208590Y124437D01*
X208689Y124429D01*
X208787Y124417D01*
X208884Y124401D01*
X208981Y124382D01*
X209077Y124358D01*
X209172Y124331D01*
X209266Y124300D01*
X209358Y124266D01*
X209449Y124228D01*
X209539Y124186D01*
X209627Y124140D01*
X209712Y124092D01*
X209796Y124039D01*
X209878Y123984D01*
X209957Y123925D01*
X210034Y123863D01*
X210109Y123799D01*
X210181Y123731D01*
X210250Y123660D01*
X210316Y123587D01*
X210380Y123511D01*
X210440Y123433D01*
X210497Y123352D01*
X210551Y123270D01*
X210601Y123185D01*
X210648Y123098D01*
X210692Y123009D01*
X210732Y122919D01*
X210769Y122827D01*
X210801Y122734D01*
X210830Y122640D01*
X210856Y122544D01*
X210877Y122448D01*
X210895Y122350D01*
X210908Y122253D01*
X210918Y122154D01*
X210924Y122056D01*
X210926Y121957D01*
X210926Y119474D01*
X210924Y119375D01*
X210918Y119277D01*
X210908Y119178D01*
X210895Y119081D01*
X210877Y118983D01*
X210856Y118887D01*
X210830Y118791D01*
X210801Y118697D01*
X210769Y118604D01*
X210732Y118512D01*
X210692Y118422D01*
X210648Y118333D01*
X210601Y118246D01*
X210551Y118161D01*
X210497Y118079D01*
X210440Y117998D01*
X210380Y117920D01*
X210316Y117844D01*
X210250Y117771D01*
X210181Y117700D01*
X210109Y117632D01*
X210034Y117568D01*
X209957Y117506D01*
X209878Y117447D01*
X209796Y117392D01*
X209712Y117339D01*
X209627Y117291D01*
X209539Y117245D01*
X209449Y117203D01*
X209358Y117165D01*
X209266Y117131D01*
X209172Y117100D01*
X209077Y117073D01*
X208981Y117049D01*
X208884Y117030D01*
X208787Y117014D01*
X208689Y117002D01*
X208590Y116994D01*
X208491Y116990D01*
X208393Y116990D01*
X208294Y116994D01*
X208195Y117002D01*
X208097Y117014D01*
X208000Y117030D01*
X207903Y117049D01*
X207807Y117073D01*
X207712Y117100D01*
X207618Y117131D01*
X207526Y117165D01*
X207435Y117203D01*
X207345Y117245D01*
X207257Y117291D01*
X207172Y117339D01*
X207088Y117392D01*
X207006Y117447D01*
X206927Y117506D01*
X206850Y117568D01*
X206775Y117632D01*
X206703Y117700D01*
X206634Y117771D01*
X206568Y117844D01*
X206504Y117920D01*
X206444Y117998D01*
X206387Y118079D01*
X206333Y118161D01*
X206283Y118246D01*
X206236Y118333D01*
X206192Y118422D01*
X206152Y118512D01*
X206115Y118604D01*
X206083Y118697D01*
X206054Y118791D01*
X206028Y118887D01*
X206007Y118983D01*
X205989Y119081D01*
X205976Y119178D01*
X205966Y119277D01*
X205960Y119375D01*
X205958Y119474D01*
X214846Y124441D02*
X218571Y124441D01*
X216088Y128166D02*
X216088Y118853D01*
X216090Y118769D01*
X216095Y118686D01*
X216105Y118603D01*
X216118Y118520D01*
X216135Y118438D01*
X216155Y118357D01*
X216179Y118277D01*
X216207Y118198D01*
X216238Y118121D01*
X216272Y118045D01*
X216310Y117970D01*
X216352Y117897D01*
X216396Y117827D01*
X216444Y117758D01*
X216494Y117691D01*
X216548Y117627D01*
X216604Y117566D01*
X216664Y117506D01*
X216725Y117450D01*
X216789Y117396D01*
X216856Y117346D01*
X216925Y117298D01*
X216995Y117254D01*
X217068Y117212D01*
X217143Y117174D01*
X217219Y117140D01*
X217296Y117109D01*
X217375Y117081D01*
X217455Y117057D01*
X217536Y117037D01*
X217618Y117020D01*
X217701Y117007D01*
X217784Y116997D01*
X217867Y116992D01*
X217951Y116990D01*
X218571Y116990D01*
X223104Y119474D02*
X223104Y121957D01*
X223103Y121957D02*
X223105Y122056D01*
X223111Y122154D01*
X223121Y122253D01*
X223134Y122350D01*
X223152Y122448D01*
X223173Y122544D01*
X223199Y122640D01*
X223228Y122734D01*
X223260Y122827D01*
X223297Y122919D01*
X223337Y123009D01*
X223381Y123098D01*
X223428Y123185D01*
X223478Y123270D01*
X223532Y123352D01*
X223589Y123433D01*
X223649Y123511D01*
X223713Y123587D01*
X223779Y123660D01*
X223848Y123731D01*
X223920Y123799D01*
X223995Y123863D01*
X224072Y123925D01*
X224151Y123984D01*
X224233Y124039D01*
X224317Y124092D01*
X224402Y124140D01*
X224490Y124186D01*
X224580Y124228D01*
X224671Y124266D01*
X224763Y124300D01*
X224857Y124331D01*
X224952Y124358D01*
X225048Y124382D01*
X225145Y124401D01*
X225242Y124417D01*
X225340Y124429D01*
X225439Y124437D01*
X225538Y124441D01*
X225636Y124441D01*
X225735Y124437D01*
X225834Y124429D01*
X225932Y124417D01*
X226029Y124401D01*
X226126Y124382D01*
X226222Y124358D01*
X226317Y124331D01*
X226411Y124300D01*
X226503Y124266D01*
X226594Y124228D01*
X226684Y124186D01*
X226772Y124140D01*
X226857Y124092D01*
X226941Y124039D01*
X227023Y123984D01*
X227102Y123925D01*
X227179Y123863D01*
X227254Y123799D01*
X227326Y123731D01*
X227395Y123660D01*
X227461Y123587D01*
X227525Y123511D01*
X227585Y123433D01*
X227642Y123352D01*
X227696Y123270D01*
X227746Y123185D01*
X227793Y123098D01*
X227837Y123009D01*
X227877Y122919D01*
X227914Y122827D01*
X227946Y122734D01*
X227975Y122640D01*
X228001Y122544D01*
X228022Y122448D01*
X228040Y122350D01*
X228053Y122253D01*
X228063Y122154D01*
X228069Y122056D01*
X228071Y121957D01*
X228071Y119474D01*
X228069Y119375D01*
X228063Y119277D01*
X228053Y119178D01*
X228040Y119081D01*
X228022Y118983D01*
X228001Y118887D01*
X227975Y118791D01*
X227946Y118697D01*
X227914Y118604D01*
X227877Y118512D01*
X227837Y118422D01*
X227793Y118333D01*
X227746Y118246D01*
X227696Y118161D01*
X227642Y118079D01*
X227585Y117998D01*
X227525Y117920D01*
X227461Y117844D01*
X227395Y117771D01*
X227326Y117700D01*
X227254Y117632D01*
X227179Y117568D01*
X227102Y117506D01*
X227023Y117447D01*
X226941Y117392D01*
X226857Y117339D01*
X226772Y117291D01*
X226684Y117245D01*
X226594Y117203D01*
X226503Y117165D01*
X226411Y117131D01*
X226317Y117100D01*
X226222Y117073D01*
X226126Y117049D01*
X226029Y117030D01*
X225932Y117014D01*
X225834Y117002D01*
X225735Y116994D01*
X225636Y116990D01*
X225538Y116990D01*
X225439Y116994D01*
X225340Y117002D01*
X225242Y117014D01*
X225145Y117030D01*
X225048Y117049D01*
X224952Y117073D01*
X224857Y117100D01*
X224763Y117131D01*
X224671Y117165D01*
X224580Y117203D01*
X224490Y117245D01*
X224402Y117291D01*
X224317Y117339D01*
X224233Y117392D01*
X224151Y117447D01*
X224072Y117506D01*
X223995Y117568D01*
X223920Y117632D01*
X223848Y117700D01*
X223779Y117771D01*
X223713Y117844D01*
X223649Y117920D01*
X223589Y117998D01*
X223532Y118079D01*
X223478Y118161D01*
X223428Y118246D01*
X223381Y118333D01*
X223337Y118422D01*
X223297Y118512D01*
X223260Y118604D01*
X223228Y118697D01*
X223199Y118791D01*
X223173Y118887D01*
X223152Y118983D01*
X223134Y119081D01*
X223121Y119178D01*
X223111Y119277D01*
X223105Y119375D01*
X223103Y119474D01*
X233474Y116990D02*
X233474Y124441D01*
X237199Y124441D01*
X237199Y123199D01*
X240630Y115748D02*
X245597Y115748D01*
X250609Y116990D02*
X250609Y128166D01*
X250609Y116990D02*
X253714Y116990D01*
X253798Y116992D01*
X253881Y116998D01*
X253964Y117007D01*
X254047Y117020D01*
X254129Y117037D01*
X254210Y117057D01*
X254290Y117081D01*
X254369Y117109D01*
X254446Y117140D01*
X254522Y117174D01*
X254597Y117212D01*
X254670Y117254D01*
X254740Y117298D01*
X254809Y117346D01*
X254876Y117396D01*
X254940Y117450D01*
X255001Y117506D01*
X255061Y117566D01*
X255117Y117627D01*
X255171Y117691D01*
X255221Y117758D01*
X255269Y117827D01*
X255313Y117897D01*
X255355Y117970D01*
X255393Y118045D01*
X255427Y118121D01*
X255458Y118198D01*
X255486Y118277D01*
X255510Y118357D01*
X255530Y118438D01*
X255547Y118520D01*
X255560Y118603D01*
X255570Y118686D01*
X255575Y118769D01*
X255577Y118853D01*
X255576Y118853D02*
X255576Y122578D01*
X255577Y122578D02*
X255575Y122662D01*
X255570Y122745D01*
X255560Y122828D01*
X255547Y122911D01*
X255530Y122993D01*
X255510Y123074D01*
X255486Y123154D01*
X255458Y123233D01*
X255427Y123310D01*
X255393Y123386D01*
X255355Y123461D01*
X255313Y123534D01*
X255269Y123604D01*
X255221Y123673D01*
X255171Y123740D01*
X255117Y123804D01*
X255061Y123865D01*
X255001Y123925D01*
X254940Y123981D01*
X254876Y124035D01*
X254809Y124085D01*
X254740Y124133D01*
X254670Y124177D01*
X254597Y124219D01*
X254522Y124257D01*
X254446Y124291D01*
X254369Y124322D01*
X254290Y124350D01*
X254210Y124374D01*
X254129Y124394D01*
X254047Y124411D01*
X253964Y124424D01*
X253881Y124434D01*
X253798Y124439D01*
X253714Y124441D01*
X250609Y124441D01*
X260442Y121957D02*
X260442Y119474D01*
X260441Y121957D02*
X260443Y122056D01*
X260449Y122154D01*
X260459Y122253D01*
X260472Y122350D01*
X260490Y122448D01*
X260511Y122544D01*
X260537Y122640D01*
X260566Y122734D01*
X260598Y122827D01*
X260635Y122919D01*
X260675Y123009D01*
X260719Y123098D01*
X260766Y123185D01*
X260816Y123270D01*
X260870Y123352D01*
X260927Y123433D01*
X260987Y123511D01*
X261051Y123587D01*
X261117Y123660D01*
X261186Y123731D01*
X261258Y123799D01*
X261333Y123863D01*
X261410Y123925D01*
X261489Y123984D01*
X261571Y124039D01*
X261655Y124092D01*
X261740Y124140D01*
X261828Y124186D01*
X261918Y124228D01*
X262009Y124266D01*
X262101Y124300D01*
X262195Y124331D01*
X262290Y124358D01*
X262386Y124382D01*
X262483Y124401D01*
X262580Y124417D01*
X262678Y124429D01*
X262777Y124437D01*
X262876Y124441D01*
X262974Y124441D01*
X263073Y124437D01*
X263172Y124429D01*
X263270Y124417D01*
X263367Y124401D01*
X263464Y124382D01*
X263560Y124358D01*
X263655Y124331D01*
X263749Y124300D01*
X263841Y124266D01*
X263932Y124228D01*
X264022Y124186D01*
X264110Y124140D01*
X264195Y124092D01*
X264279Y124039D01*
X264361Y123984D01*
X264440Y123925D01*
X264517Y123863D01*
X264592Y123799D01*
X264664Y123731D01*
X264733Y123660D01*
X264799Y123587D01*
X264863Y123511D01*
X264923Y123433D01*
X264980Y123352D01*
X265034Y123270D01*
X265084Y123185D01*
X265131Y123098D01*
X265175Y123009D01*
X265215Y122919D01*
X265252Y122827D01*
X265284Y122734D01*
X265313Y122640D01*
X265339Y122544D01*
X265360Y122448D01*
X265378Y122350D01*
X265391Y122253D01*
X265401Y122154D01*
X265407Y122056D01*
X265409Y121957D01*
X265409Y119474D01*
X265407Y119375D01*
X265401Y119277D01*
X265391Y119178D01*
X265378Y119081D01*
X265360Y118983D01*
X265339Y118887D01*
X265313Y118791D01*
X265284Y118697D01*
X265252Y118604D01*
X265215Y118512D01*
X265175Y118422D01*
X265131Y118333D01*
X265084Y118246D01*
X265034Y118161D01*
X264980Y118079D01*
X264923Y117998D01*
X264863Y117920D01*
X264799Y117844D01*
X264733Y117771D01*
X264664Y117700D01*
X264592Y117632D01*
X264517Y117568D01*
X264440Y117506D01*
X264361Y117447D01*
X264279Y117392D01*
X264195Y117339D01*
X264110Y117291D01*
X264022Y117245D01*
X263932Y117203D01*
X263841Y117165D01*
X263749Y117131D01*
X263655Y117100D01*
X263560Y117073D01*
X263464Y117049D01*
X263367Y117030D01*
X263270Y117014D01*
X263172Y117002D01*
X263073Y116994D01*
X262974Y116990D01*
X262876Y116990D01*
X262777Y116994D01*
X262678Y117002D01*
X262580Y117014D01*
X262483Y117030D01*
X262386Y117049D01*
X262290Y117073D01*
X262195Y117100D01*
X262101Y117131D01*
X262009Y117165D01*
X261918Y117203D01*
X261828Y117245D01*
X261740Y117291D01*
X261655Y117339D01*
X261571Y117392D01*
X261489Y117447D01*
X261410Y117506D01*
X261333Y117568D01*
X261258Y117632D01*
X261186Y117700D01*
X261117Y117771D01*
X261051Y117844D01*
X260987Y117920D01*
X260927Y117998D01*
X260870Y118079D01*
X260816Y118161D01*
X260766Y118246D01*
X260719Y118333D01*
X260675Y118422D01*
X260635Y118512D01*
X260598Y118604D01*
X260566Y118697D01*
X260537Y118791D01*
X260511Y118887D01*
X260490Y118983D01*
X260472Y119081D01*
X260459Y119178D01*
X260449Y119277D01*
X260443Y119375D01*
X260441Y119474D01*
X272447Y121336D02*
X275241Y121336D01*
X272447Y121336D02*
X272355Y121334D01*
X272263Y121328D01*
X272171Y121318D01*
X272080Y121305D01*
X271989Y121287D01*
X271899Y121266D01*
X271811Y121241D01*
X271723Y121212D01*
X271637Y121179D01*
X271552Y121143D01*
X271469Y121103D01*
X271387Y121060D01*
X271308Y121013D01*
X271230Y120963D01*
X271155Y120910D01*
X271082Y120854D01*
X271011Y120794D01*
X270943Y120732D01*
X270878Y120667D01*
X270816Y120599D01*
X270756Y120528D01*
X270700Y120455D01*
X270647Y120380D01*
X270597Y120302D01*
X270550Y120223D01*
X270507Y120141D01*
X270467Y120058D01*
X270431Y119973D01*
X270398Y119887D01*
X270369Y119799D01*
X270344Y119711D01*
X270323Y119621D01*
X270305Y119530D01*
X270292Y119439D01*
X270282Y119347D01*
X270276Y119255D01*
X270274Y119163D01*
X270276Y119071D01*
X270282Y118979D01*
X270292Y118887D01*
X270305Y118796D01*
X270323Y118705D01*
X270344Y118615D01*
X270369Y118527D01*
X270398Y118439D01*
X270431Y118353D01*
X270467Y118268D01*
X270507Y118185D01*
X270550Y118103D01*
X270597Y118024D01*
X270647Y117946D01*
X270700Y117871D01*
X270756Y117798D01*
X270816Y117727D01*
X270878Y117659D01*
X270943Y117594D01*
X271011Y117532D01*
X271082Y117472D01*
X271155Y117416D01*
X271230Y117363D01*
X271308Y117313D01*
X271387Y117266D01*
X271469Y117223D01*
X271552Y117183D01*
X271637Y117147D01*
X271723Y117114D01*
X271811Y117085D01*
X271899Y117060D01*
X271989Y117039D01*
X272080Y117021D01*
X272171Y117008D01*
X272263Y116998D01*
X272355Y116992D01*
X272447Y116990D01*
X275241Y116990D01*
X275241Y122578D01*
X275239Y122662D01*
X275234Y122745D01*
X275224Y122828D01*
X275211Y122911D01*
X275194Y122993D01*
X275174Y123074D01*
X275150Y123154D01*
X275122Y123233D01*
X275091Y123310D01*
X275057Y123386D01*
X275019Y123461D01*
X274977Y123534D01*
X274933Y123604D01*
X274885Y123673D01*
X274835Y123740D01*
X274781Y123804D01*
X274725Y123865D01*
X274665Y123925D01*
X274604Y123981D01*
X274540Y124035D01*
X274473Y124085D01*
X274404Y124133D01*
X274334Y124177D01*
X274261Y124219D01*
X274186Y124257D01*
X274110Y124291D01*
X274033Y124322D01*
X273954Y124350D01*
X273874Y124374D01*
X273793Y124394D01*
X273711Y124411D01*
X273628Y124424D01*
X273545Y124434D01*
X273462Y124439D01*
X273378Y124441D01*
X270895Y124441D01*
X281099Y124441D02*
X281099Y116990D01*
X281099Y124441D02*
X284824Y124441D01*
X284824Y123199D01*
X293529Y128166D02*
X293529Y116990D01*
X290425Y116990D01*
X290341Y116992D01*
X290258Y116997D01*
X290175Y117007D01*
X290092Y117020D01*
X290010Y117037D01*
X289929Y117057D01*
X289849Y117081D01*
X289770Y117109D01*
X289693Y117140D01*
X289617Y117174D01*
X289542Y117212D01*
X289469Y117254D01*
X289399Y117298D01*
X289330Y117346D01*
X289263Y117396D01*
X289199Y117450D01*
X289138Y117506D01*
X289078Y117566D01*
X289022Y117627D01*
X288968Y117691D01*
X288918Y117758D01*
X288870Y117827D01*
X288826Y117897D01*
X288784Y117970D01*
X288746Y118045D01*
X288712Y118121D01*
X288681Y118198D01*
X288653Y118277D01*
X288629Y118357D01*
X288609Y118438D01*
X288592Y118520D01*
X288579Y118603D01*
X288569Y118686D01*
X288564Y118769D01*
X288562Y118853D01*
X288562Y122578D01*
X288561Y122578D02*
X288563Y122662D01*
X288569Y122745D01*
X288578Y122828D01*
X288591Y122911D01*
X288608Y122993D01*
X288628Y123074D01*
X288652Y123154D01*
X288680Y123233D01*
X288711Y123310D01*
X288745Y123386D01*
X288783Y123461D01*
X288825Y123534D01*
X288869Y123604D01*
X288917Y123673D01*
X288967Y123740D01*
X289021Y123804D01*
X289077Y123865D01*
X289137Y123925D01*
X289198Y123981D01*
X289262Y124035D01*
X289329Y124085D01*
X289398Y124133D01*
X289468Y124177D01*
X289541Y124219D01*
X289616Y124257D01*
X289692Y124291D01*
X289769Y124322D01*
X289848Y124350D01*
X289928Y124374D01*
X290009Y124394D01*
X290091Y124411D01*
X290174Y124424D01*
X290257Y124434D01*
X290340Y124439D01*
X290424Y124441D01*
X290425Y124441D02*
X293529Y124441D01*
X298541Y115748D02*
X303509Y115748D01*
X314416Y125372D02*
X314414Y125476D01*
X314408Y125581D01*
X314398Y125685D01*
X314385Y125788D01*
X314367Y125891D01*
X314346Y125994D01*
X314321Y126095D01*
X314292Y126196D01*
X314259Y126295D01*
X314223Y126393D01*
X314183Y126489D01*
X314139Y126584D01*
X314092Y126678D01*
X314042Y126769D01*
X313988Y126858D01*
X313931Y126946D01*
X313870Y127031D01*
X313806Y127114D01*
X313740Y127194D01*
X313670Y127272D01*
X313598Y127348D01*
X313522Y127420D01*
X313444Y127490D01*
X313364Y127556D01*
X313281Y127620D01*
X313196Y127681D01*
X313108Y127738D01*
X313019Y127792D01*
X312928Y127842D01*
X312834Y127889D01*
X312739Y127933D01*
X312643Y127973D01*
X312545Y128009D01*
X312446Y128042D01*
X312345Y128071D01*
X312244Y128096D01*
X312141Y128117D01*
X312038Y128135D01*
X311935Y128148D01*
X311831Y128158D01*
X311726Y128164D01*
X311622Y128166D01*
X311622Y128167D02*
X311503Y128165D01*
X311385Y128159D01*
X311266Y128149D01*
X311148Y128136D01*
X311031Y128118D01*
X310914Y128096D01*
X310798Y128071D01*
X310683Y128042D01*
X310568Y128009D01*
X310455Y127972D01*
X310344Y127932D01*
X310233Y127888D01*
X310125Y127840D01*
X310018Y127789D01*
X309912Y127734D01*
X309809Y127675D01*
X309707Y127614D01*
X309608Y127549D01*
X309510Y127480D01*
X309416Y127409D01*
X309323Y127334D01*
X309233Y127257D01*
X309146Y127176D01*
X309061Y127093D01*
X308979Y127007D01*
X308900Y126918D01*
X308824Y126827D01*
X308751Y126733D01*
X308682Y126637D01*
X308615Y126538D01*
X308552Y126438D01*
X308492Y126335D01*
X308435Y126231D01*
X308383Y126124D01*
X308333Y126016D01*
X308287Y125907D01*
X308245Y125795D01*
X308207Y125683D01*
X313485Y123199D02*
X313560Y123273D01*
X313632Y123350D01*
X313702Y123429D01*
X313769Y123511D01*
X313833Y123595D01*
X313894Y123681D01*
X313952Y123769D01*
X314007Y123860D01*
X314059Y123952D01*
X314107Y124046D01*
X314152Y124141D01*
X314194Y124239D01*
X314232Y124337D01*
X314267Y124437D01*
X314298Y124538D01*
X314325Y124640D01*
X314349Y124743D01*
X314370Y124846D01*
X314386Y124951D01*
X314399Y125056D01*
X314409Y125161D01*
X314414Y125266D01*
X314416Y125372D01*
X313485Y123199D02*
X308208Y116990D01*
X314416Y116990D01*
X319115Y115748D02*
X324083Y115748D01*
X328782Y116990D02*
X332507Y116990D01*
X332605Y116992D01*
X332702Y116998D01*
X332799Y117007D01*
X332896Y117021D01*
X332992Y117038D01*
X333087Y117059D01*
X333181Y117083D01*
X333275Y117112D01*
X333367Y117144D01*
X333458Y117179D01*
X333547Y117218D01*
X333635Y117261D01*
X333721Y117307D01*
X333805Y117356D01*
X333887Y117409D01*
X333967Y117464D01*
X334045Y117523D01*
X334120Y117585D01*
X334193Y117650D01*
X334263Y117718D01*
X334331Y117788D01*
X334396Y117861D01*
X334458Y117936D01*
X334517Y118014D01*
X334572Y118094D01*
X334625Y118176D01*
X334674Y118260D01*
X334720Y118346D01*
X334763Y118434D01*
X334802Y118523D01*
X334837Y118614D01*
X334869Y118706D01*
X334898Y118800D01*
X334922Y118894D01*
X334943Y118989D01*
X334960Y119085D01*
X334974Y119182D01*
X334983Y119279D01*
X334989Y119376D01*
X334991Y119474D01*
X334990Y119474D02*
X334990Y120715D01*
X334991Y120715D02*
X334989Y120813D01*
X334983Y120910D01*
X334974Y121007D01*
X334960Y121104D01*
X334943Y121200D01*
X334922Y121295D01*
X334898Y121389D01*
X334869Y121483D01*
X334837Y121575D01*
X334802Y121666D01*
X334763Y121755D01*
X334720Y121843D01*
X334674Y121929D01*
X334625Y122013D01*
X334572Y122095D01*
X334517Y122175D01*
X334458Y122253D01*
X334396Y122328D01*
X334331Y122401D01*
X334263Y122471D01*
X334193Y122539D01*
X334120Y122604D01*
X334045Y122666D01*
X333967Y122725D01*
X333887Y122780D01*
X333805Y122833D01*
X333721Y122882D01*
X333635Y122928D01*
X333547Y122971D01*
X333458Y123010D01*
X333367Y123045D01*
X333275Y123077D01*
X333181Y123106D01*
X333087Y123130D01*
X332992Y123151D01*
X332896Y123168D01*
X332799Y123182D01*
X332702Y123191D01*
X332605Y123197D01*
X332507Y123199D01*
X328782Y123199D01*
X328782Y128166D01*
X334990Y128166D01*
X192906Y110198D02*
X192906Y99022D01*
X192906Y110198D02*
X196010Y110198D01*
X196121Y110196D01*
X196231Y110190D01*
X196342Y110180D01*
X196452Y110166D01*
X196561Y110149D01*
X196670Y110127D01*
X196778Y110102D01*
X196884Y110072D01*
X196990Y110039D01*
X197095Y110002D01*
X197198Y109962D01*
X197299Y109917D01*
X197399Y109870D01*
X197498Y109818D01*
X197594Y109763D01*
X197688Y109705D01*
X197780Y109644D01*
X197870Y109579D01*
X197958Y109511D01*
X198043Y109440D01*
X198125Y109366D01*
X198205Y109289D01*
X198282Y109209D01*
X198356Y109127D01*
X198427Y109042D01*
X198495Y108954D01*
X198560Y108864D01*
X198621Y108772D01*
X198679Y108678D01*
X198734Y108582D01*
X198786Y108483D01*
X198833Y108383D01*
X198878Y108282D01*
X198918Y108179D01*
X198955Y108074D01*
X198988Y107968D01*
X199018Y107862D01*
X199043Y107754D01*
X199065Y107645D01*
X199082Y107536D01*
X199096Y107426D01*
X199106Y107315D01*
X199112Y107205D01*
X199114Y107094D01*
X199112Y106983D01*
X199106Y106873D01*
X199096Y106762D01*
X199082Y106652D01*
X199065Y106543D01*
X199043Y106434D01*
X199018Y106326D01*
X198988Y106220D01*
X198955Y106114D01*
X198918Y106009D01*
X198878Y105906D01*
X198833Y105805D01*
X198786Y105705D01*
X198734Y105606D01*
X198679Y105510D01*
X198621Y105416D01*
X198560Y105324D01*
X198495Y105234D01*
X198427Y105146D01*
X198356Y105061D01*
X198282Y104979D01*
X198205Y104899D01*
X198125Y104822D01*
X198043Y104748D01*
X197958Y104677D01*
X197870Y104609D01*
X197780Y104544D01*
X197688Y104483D01*
X197594Y104425D01*
X197498Y104370D01*
X197399Y104318D01*
X197299Y104271D01*
X197198Y104226D01*
X197095Y104186D01*
X196990Y104149D01*
X196884Y104116D01*
X196778Y104086D01*
X196670Y104061D01*
X196561Y104039D01*
X196452Y104022D01*
X196342Y104008D01*
X196231Y103998D01*
X196121Y103992D01*
X196010Y103990D01*
X196010Y103989D02*
X192906Y103989D01*
X196631Y103989D02*
X199115Y99022D01*
X205966Y99022D02*
X209070Y99022D01*
X205966Y99022D02*
X205882Y99024D01*
X205799Y99029D01*
X205716Y99039D01*
X205633Y99052D01*
X205551Y99069D01*
X205470Y99089D01*
X205390Y99113D01*
X205311Y99141D01*
X205234Y99172D01*
X205158Y99206D01*
X205083Y99244D01*
X205010Y99286D01*
X204940Y99330D01*
X204871Y99378D01*
X204804Y99428D01*
X204740Y99482D01*
X204679Y99538D01*
X204619Y99598D01*
X204563Y99659D01*
X204509Y99723D01*
X204459Y99790D01*
X204411Y99859D01*
X204367Y99929D01*
X204325Y100002D01*
X204287Y100077D01*
X204253Y100153D01*
X204222Y100230D01*
X204194Y100309D01*
X204170Y100389D01*
X204150Y100470D01*
X204133Y100552D01*
X204120Y100635D01*
X204110Y100718D01*
X204105Y100801D01*
X204103Y100885D01*
X204103Y103989D01*
X204102Y103989D02*
X204104Y104088D01*
X204110Y104186D01*
X204120Y104285D01*
X204133Y104382D01*
X204151Y104480D01*
X204172Y104576D01*
X204198Y104672D01*
X204227Y104766D01*
X204259Y104859D01*
X204296Y104951D01*
X204336Y105041D01*
X204380Y105130D01*
X204427Y105217D01*
X204477Y105302D01*
X204531Y105384D01*
X204588Y105465D01*
X204648Y105543D01*
X204712Y105619D01*
X204778Y105692D01*
X204847Y105763D01*
X204919Y105831D01*
X204994Y105895D01*
X205071Y105957D01*
X205150Y106016D01*
X205232Y106071D01*
X205316Y106124D01*
X205401Y106172D01*
X205489Y106218D01*
X205579Y106260D01*
X205670Y106298D01*
X205762Y106332D01*
X205856Y106363D01*
X205951Y106390D01*
X206047Y106414D01*
X206144Y106433D01*
X206241Y106449D01*
X206339Y106461D01*
X206438Y106469D01*
X206537Y106473D01*
X206635Y106473D01*
X206734Y106469D01*
X206833Y106461D01*
X206931Y106449D01*
X207028Y106433D01*
X207125Y106414D01*
X207221Y106390D01*
X207316Y106363D01*
X207410Y106332D01*
X207502Y106298D01*
X207593Y106260D01*
X207683Y106218D01*
X207771Y106172D01*
X207856Y106124D01*
X207940Y106071D01*
X208022Y106016D01*
X208101Y105957D01*
X208178Y105895D01*
X208253Y105831D01*
X208325Y105763D01*
X208394Y105692D01*
X208460Y105619D01*
X208524Y105543D01*
X208584Y105465D01*
X208641Y105384D01*
X208695Y105302D01*
X208745Y105217D01*
X208792Y105130D01*
X208836Y105041D01*
X208876Y104951D01*
X208913Y104859D01*
X208945Y104766D01*
X208974Y104672D01*
X209000Y104576D01*
X209021Y104480D01*
X209039Y104382D01*
X209052Y104285D01*
X209062Y104186D01*
X209068Y104088D01*
X209070Y103989D01*
X209070Y102747D01*
X204103Y102747D01*
X213628Y106473D02*
X216111Y99022D01*
X218595Y106473D01*
X222969Y106473D02*
X222969Y99022D01*
X222659Y109577D02*
X222659Y110198D01*
X223280Y110198D01*
X223280Y109577D01*
X222659Y109577D01*
X228656Y103368D02*
X231761Y102126D01*
X228656Y103368D02*
X228584Y103399D01*
X228514Y103433D01*
X228445Y103471D01*
X228378Y103512D01*
X228313Y103556D01*
X228251Y103604D01*
X228191Y103654D01*
X228133Y103707D01*
X228078Y103763D01*
X228026Y103822D01*
X227977Y103883D01*
X227931Y103946D01*
X227888Y104011D01*
X227848Y104079D01*
X227811Y104148D01*
X227778Y104219D01*
X227749Y104292D01*
X227723Y104366D01*
X227700Y104441D01*
X227682Y104517D01*
X227667Y104594D01*
X227655Y104672D01*
X227648Y104750D01*
X227644Y104828D01*
X227645Y104906D01*
X227649Y104985D01*
X227656Y105063D01*
X227668Y105140D01*
X227683Y105217D01*
X227703Y105293D01*
X227725Y105368D01*
X227752Y105442D01*
X227782Y105514D01*
X227815Y105585D01*
X227852Y105654D01*
X227892Y105722D01*
X227936Y105787D01*
X227982Y105850D01*
X228032Y105911D01*
X228084Y105969D01*
X228139Y106025D01*
X228197Y106078D01*
X228258Y106128D01*
X228320Y106175D01*
X228385Y106218D01*
X228452Y106259D01*
X228521Y106297D01*
X228592Y106330D01*
X228664Y106361D01*
X228738Y106388D01*
X228812Y106411D01*
X228888Y106431D01*
X228965Y106447D01*
X229042Y106459D01*
X229120Y106467D01*
X229199Y106472D01*
X229277Y106473D01*
X229277Y106472D02*
X229446Y106468D01*
X229616Y106459D01*
X229785Y106447D01*
X229953Y106430D01*
X230122Y106409D01*
X230289Y106385D01*
X230456Y106356D01*
X230623Y106323D01*
X230788Y106286D01*
X230953Y106245D01*
X231116Y106201D01*
X231279Y106152D01*
X231440Y106100D01*
X231600Y106043D01*
X231758Y105983D01*
X231915Y105919D01*
X232071Y105851D01*
X231761Y102127D02*
X231833Y102096D01*
X231903Y102062D01*
X231972Y102024D01*
X232039Y101983D01*
X232104Y101939D01*
X232166Y101891D01*
X232226Y101841D01*
X232284Y101788D01*
X232339Y101732D01*
X232391Y101673D01*
X232440Y101612D01*
X232486Y101549D01*
X232529Y101484D01*
X232569Y101416D01*
X232606Y101347D01*
X232639Y101276D01*
X232668Y101203D01*
X232694Y101129D01*
X232717Y101054D01*
X232735Y100978D01*
X232750Y100901D01*
X232762Y100823D01*
X232769Y100745D01*
X232773Y100667D01*
X232772Y100589D01*
X232768Y100510D01*
X232761Y100432D01*
X232749Y100355D01*
X232734Y100278D01*
X232714Y100202D01*
X232692Y100127D01*
X232665Y100053D01*
X232635Y99981D01*
X232602Y99910D01*
X232565Y99841D01*
X232525Y99773D01*
X232481Y99708D01*
X232435Y99645D01*
X232385Y99584D01*
X232333Y99526D01*
X232278Y99470D01*
X232220Y99417D01*
X232159Y99367D01*
X232097Y99320D01*
X232032Y99277D01*
X231965Y99236D01*
X231896Y99198D01*
X231825Y99165D01*
X231753Y99134D01*
X231679Y99107D01*
X231605Y99084D01*
X231529Y99064D01*
X231452Y99048D01*
X231375Y99036D01*
X231297Y99028D01*
X231218Y99023D01*
X231140Y99022D01*
X231139Y99022D02*
X230890Y99029D01*
X230642Y99041D01*
X230393Y99059D01*
X230145Y99083D01*
X229898Y99113D01*
X229652Y99149D01*
X229406Y99191D01*
X229162Y99238D01*
X228918Y99292D01*
X228676Y99350D01*
X228436Y99415D01*
X228197Y99485D01*
X227960Y99561D01*
X227725Y99643D01*
X237447Y99022D02*
X237447Y106473D01*
X237137Y109577D02*
X237137Y110198D01*
X237758Y110198D01*
X237758Y109577D01*
X237137Y109577D01*
X242203Y103989D02*
X242203Y101506D01*
X242202Y103989D02*
X242204Y104088D01*
X242210Y104186D01*
X242220Y104285D01*
X242233Y104382D01*
X242251Y104480D01*
X242272Y104576D01*
X242298Y104672D01*
X242327Y104766D01*
X242359Y104859D01*
X242396Y104951D01*
X242436Y105041D01*
X242480Y105130D01*
X242527Y105217D01*
X242577Y105302D01*
X242631Y105384D01*
X242688Y105465D01*
X242748Y105543D01*
X242812Y105619D01*
X242878Y105692D01*
X242947Y105763D01*
X243019Y105831D01*
X243094Y105895D01*
X243171Y105957D01*
X243250Y106016D01*
X243332Y106071D01*
X243416Y106124D01*
X243501Y106172D01*
X243589Y106218D01*
X243679Y106260D01*
X243770Y106298D01*
X243862Y106332D01*
X243956Y106363D01*
X244051Y106390D01*
X244147Y106414D01*
X244244Y106433D01*
X244341Y106449D01*
X244439Y106461D01*
X244538Y106469D01*
X244637Y106473D01*
X244735Y106473D01*
X244834Y106469D01*
X244933Y106461D01*
X245031Y106449D01*
X245128Y106433D01*
X245225Y106414D01*
X245321Y106390D01*
X245416Y106363D01*
X245510Y106332D01*
X245602Y106298D01*
X245693Y106260D01*
X245783Y106218D01*
X245871Y106172D01*
X245956Y106124D01*
X246040Y106071D01*
X246122Y106016D01*
X246201Y105957D01*
X246278Y105895D01*
X246353Y105831D01*
X246425Y105763D01*
X246494Y105692D01*
X246560Y105619D01*
X246624Y105543D01*
X246684Y105465D01*
X246741Y105384D01*
X246795Y105302D01*
X246845Y105217D01*
X246892Y105130D01*
X246936Y105041D01*
X246976Y104951D01*
X247013Y104859D01*
X247045Y104766D01*
X247074Y104672D01*
X247100Y104576D01*
X247121Y104480D01*
X247139Y104382D01*
X247152Y104285D01*
X247162Y104186D01*
X247168Y104088D01*
X247170Y103989D01*
X247170Y101506D01*
X247168Y101407D01*
X247162Y101309D01*
X247152Y101210D01*
X247139Y101113D01*
X247121Y101015D01*
X247100Y100919D01*
X247074Y100823D01*
X247045Y100729D01*
X247013Y100636D01*
X246976Y100544D01*
X246936Y100454D01*
X246892Y100365D01*
X246845Y100278D01*
X246795Y100193D01*
X246741Y100111D01*
X246684Y100030D01*
X246624Y99952D01*
X246560Y99876D01*
X246494Y99803D01*
X246425Y99732D01*
X246353Y99664D01*
X246278Y99600D01*
X246201Y99538D01*
X246122Y99479D01*
X246040Y99424D01*
X245956Y99371D01*
X245871Y99323D01*
X245783Y99277D01*
X245693Y99235D01*
X245602Y99197D01*
X245510Y99163D01*
X245416Y99132D01*
X245321Y99105D01*
X245225Y99081D01*
X245128Y99062D01*
X245031Y99046D01*
X244933Y99034D01*
X244834Y99026D01*
X244735Y99022D01*
X244637Y99022D01*
X244538Y99026D01*
X244439Y99034D01*
X244341Y99046D01*
X244244Y99062D01*
X244147Y99081D01*
X244051Y99105D01*
X243956Y99132D01*
X243862Y99163D01*
X243770Y99197D01*
X243679Y99235D01*
X243589Y99277D01*
X243501Y99323D01*
X243416Y99371D01*
X243332Y99424D01*
X243250Y99479D01*
X243171Y99538D01*
X243094Y99600D01*
X243019Y99664D01*
X242947Y99732D01*
X242878Y99803D01*
X242812Y99876D01*
X242748Y99952D01*
X242688Y100030D01*
X242631Y100111D01*
X242577Y100193D01*
X242527Y100278D01*
X242480Y100365D01*
X242436Y100454D01*
X242396Y100544D01*
X242359Y100636D01*
X242327Y100729D01*
X242298Y100823D01*
X242272Y100919D01*
X242251Y101015D01*
X242233Y101113D01*
X242220Y101210D01*
X242210Y101309D01*
X242204Y101407D01*
X242202Y101506D01*
X252490Y99022D02*
X252490Y106473D01*
X255594Y106473D01*
X255678Y106471D01*
X255761Y106466D01*
X255844Y106456D01*
X255927Y106443D01*
X256009Y106426D01*
X256090Y106406D01*
X256170Y106382D01*
X256249Y106354D01*
X256326Y106323D01*
X256402Y106289D01*
X256477Y106251D01*
X256550Y106209D01*
X256620Y106165D01*
X256689Y106117D01*
X256756Y106067D01*
X256820Y106013D01*
X256881Y105957D01*
X256941Y105897D01*
X256997Y105836D01*
X257051Y105772D01*
X257101Y105705D01*
X257149Y105636D01*
X257193Y105566D01*
X257235Y105493D01*
X257273Y105418D01*
X257307Y105342D01*
X257338Y105265D01*
X257366Y105186D01*
X257390Y105106D01*
X257410Y105025D01*
X257427Y104943D01*
X257440Y104860D01*
X257450Y104777D01*
X257455Y104694D01*
X257457Y104610D01*
X257457Y99022D01*
X262664Y99953D02*
X262664Y100574D01*
X263285Y100574D01*
X263285Y99953D01*
X262664Y99953D01*
X262664Y104920D02*
X262664Y105541D01*
X263285Y105541D01*
X263285Y104920D01*
X262664Y104920D01*
D11*
X35000Y450000D02*
X30000Y450000D01*
X35000Y450000D02*
X40000Y450000D01*
X35000Y450000D02*
X35000Y445000D01*
X35000Y450000D02*
X35000Y455000D01*
D12*
X23400Y470000D02*
X46600Y470000D01*
X58100Y450000D01*
X46600Y430000D01*
X23400Y430000D01*
X11900Y450000D01*
X23400Y470000D01*
X25000Y450000D02*
X25003Y450245D01*
X25012Y450491D01*
X25027Y450736D01*
X25048Y450980D01*
X25075Y451224D01*
X25108Y451467D01*
X25147Y451710D01*
X25192Y451951D01*
X25243Y452191D01*
X25300Y452430D01*
X25362Y452667D01*
X25431Y452903D01*
X25505Y453137D01*
X25585Y453369D01*
X25670Y453599D01*
X25761Y453827D01*
X25858Y454052D01*
X25960Y454276D01*
X26068Y454496D01*
X26181Y454714D01*
X26299Y454929D01*
X26423Y455141D01*
X26551Y455350D01*
X26685Y455556D01*
X26824Y455758D01*
X26968Y455957D01*
X27117Y456152D01*
X27270Y456344D01*
X27428Y456532D01*
X27590Y456716D01*
X27758Y456895D01*
X27929Y457071D01*
X28105Y457242D01*
X28284Y457410D01*
X28468Y457572D01*
X28656Y457730D01*
X28848Y457883D01*
X29043Y458032D01*
X29242Y458176D01*
X29444Y458315D01*
X29650Y458449D01*
X29859Y458577D01*
X30071Y458701D01*
X30286Y458819D01*
X30504Y458932D01*
X30724Y459040D01*
X30948Y459142D01*
X31173Y459239D01*
X31401Y459330D01*
X31631Y459415D01*
X31863Y459495D01*
X32097Y459569D01*
X32333Y459638D01*
X32570Y459700D01*
X32809Y459757D01*
X33049Y459808D01*
X33290Y459853D01*
X33533Y459892D01*
X33776Y459925D01*
X34020Y459952D01*
X34264Y459973D01*
X34509Y459988D01*
X34755Y459997D01*
X35000Y460000D01*
X35245Y459997D01*
X35491Y459988D01*
X35736Y459973D01*
X35980Y459952D01*
X36224Y459925D01*
X36467Y459892D01*
X36710Y459853D01*
X36951Y459808D01*
X37191Y459757D01*
X37430Y459700D01*
X37667Y459638D01*
X37903Y459569D01*
X38137Y459495D01*
X38369Y459415D01*
X38599Y459330D01*
X38827Y459239D01*
X39052Y459142D01*
X39276Y459040D01*
X39496Y458932D01*
X39714Y458819D01*
X39929Y458701D01*
X40141Y458577D01*
X40350Y458449D01*
X40556Y458315D01*
X40758Y458176D01*
X40957Y458032D01*
X41152Y457883D01*
X41344Y457730D01*
X41532Y457572D01*
X41716Y457410D01*
X41895Y457242D01*
X42071Y457071D01*
X42242Y456895D01*
X42410Y456716D01*
X42572Y456532D01*
X42730Y456344D01*
X42883Y456152D01*
X43032Y455957D01*
X43176Y455758D01*
X43315Y455556D01*
X43449Y455350D01*
X43577Y455141D01*
X43701Y454929D01*
X43819Y454714D01*
X43932Y454496D01*
X44040Y454276D01*
X44142Y454052D01*
X44239Y453827D01*
X44330Y453599D01*
X44415Y453369D01*
X44495Y453137D01*
X44569Y452903D01*
X44638Y452667D01*
X44700Y452430D01*
X44757Y452191D01*
X44808Y451951D01*
X44853Y451710D01*
X44892Y451467D01*
X44925Y451224D01*
X44952Y450980D01*
X44973Y450736D01*
X44988Y450491D01*
X44997Y450245D01*
X45000Y450000D01*
X44997Y449755D01*
X44988Y449509D01*
X44973Y449264D01*
X44952Y449020D01*
X44925Y448776D01*
X44892Y448533D01*
X44853Y448290D01*
X44808Y448049D01*
X44757Y447809D01*
X44700Y447570D01*
X44638Y447333D01*
X44569Y447097D01*
X44495Y446863D01*
X44415Y446631D01*
X44330Y446401D01*
X44239Y446173D01*
X44142Y445948D01*
X44040Y445724D01*
X43932Y445504D01*
X43819Y445286D01*
X43701Y445071D01*
X43577Y444859D01*
X43449Y444650D01*
X43315Y444444D01*
X43176Y444242D01*
X43032Y444043D01*
X42883Y443848D01*
X42730Y443656D01*
X42572Y443468D01*
X42410Y443284D01*
X42242Y443105D01*
X42071Y442929D01*
X41895Y442758D01*
X41716Y442590D01*
X41532Y442428D01*
X41344Y442270D01*
X41152Y442117D01*
X40957Y441968D01*
X40758Y441824D01*
X40556Y441685D01*
X40350Y441551D01*
X40141Y441423D01*
X39929Y441299D01*
X39714Y441181D01*
X39496Y441068D01*
X39276Y440960D01*
X39052Y440858D01*
X38827Y440761D01*
X38599Y440670D01*
X38369Y440585D01*
X38137Y440505D01*
X37903Y440431D01*
X37667Y440362D01*
X37430Y440300D01*
X37191Y440243D01*
X36951Y440192D01*
X36710Y440147D01*
X36467Y440108D01*
X36224Y440075D01*
X35980Y440048D01*
X35736Y440027D01*
X35491Y440012D01*
X35245Y440003D01*
X35000Y440000D01*
X34755Y440003D01*
X34509Y440012D01*
X34264Y440027D01*
X34020Y440048D01*
X33776Y440075D01*
X33533Y440108D01*
X33290Y440147D01*
X33049Y440192D01*
X32809Y440243D01*
X32570Y440300D01*
X32333Y440362D01*
X32097Y440431D01*
X31863Y440505D01*
X31631Y440585D01*
X31401Y440670D01*
X31173Y440761D01*
X30948Y440858D01*
X30724Y440960D01*
X30504Y441068D01*
X30286Y441181D01*
X30071Y441299D01*
X29859Y441423D01*
X29650Y441551D01*
X29444Y441685D01*
X29242Y441824D01*
X29043Y441968D01*
X28848Y442117D01*
X28656Y442270D01*
X28468Y442428D01*
X28284Y442590D01*
X28105Y442758D01*
X27929Y442929D01*
X27758Y443105D01*
X27590Y443284D01*
X27428Y443468D01*
X27270Y443656D01*
X27117Y443848D01*
X26968Y444043D01*
X26824Y444242D01*
X26685Y444444D01*
X26551Y444650D01*
X26423Y444859D01*
X26299Y445071D01*
X26181Y445286D01*
X26068Y445504D01*
X25960Y445724D01*
X25858Y445948D01*
X25761Y446173D01*
X25670Y446401D01*
X25585Y446631D01*
X25505Y446863D01*
X25431Y447097D01*
X25362Y447333D01*
X25300Y447570D01*
X25243Y447809D01*
X25192Y448049D01*
X25147Y448290D01*
X25108Y448533D01*
X25075Y448776D01*
X25048Y449020D01*
X25027Y449264D01*
X25012Y449509D01*
X25003Y449755D01*
X25000Y450000D01*
D11*
X30000Y150000D02*
X35000Y150000D01*
X40000Y150000D01*
X35000Y150000D02*
X35000Y145000D01*
X35000Y150000D02*
X35000Y155000D01*
D12*
X23400Y170000D02*
X46600Y170000D01*
X58100Y150000D01*
X46600Y130000D01*
X23400Y130000D01*
X11900Y150000D01*
X23400Y170000D01*
X25000Y150000D02*
X25003Y150245D01*
X25012Y150491D01*
X25027Y150736D01*
X25048Y150980D01*
X25075Y151224D01*
X25108Y151467D01*
X25147Y151710D01*
X25192Y151951D01*
X25243Y152191D01*
X25300Y152430D01*
X25362Y152667D01*
X25431Y152903D01*
X25505Y153137D01*
X25585Y153369D01*
X25670Y153599D01*
X25761Y153827D01*
X25858Y154052D01*
X25960Y154276D01*
X26068Y154496D01*
X26181Y154714D01*
X26299Y154929D01*
X26423Y155141D01*
X26551Y155350D01*
X26685Y155556D01*
X26824Y155758D01*
X26968Y155957D01*
X27117Y156152D01*
X27270Y156344D01*
X27428Y156532D01*
X27590Y156716D01*
X27758Y156895D01*
X27929Y157071D01*
X28105Y157242D01*
X28284Y157410D01*
X28468Y157572D01*
X28656Y157730D01*
X28848Y157883D01*
X29043Y158032D01*
X29242Y158176D01*
X29444Y158315D01*
X29650Y158449D01*
X29859Y158577D01*
X30071Y158701D01*
X30286Y158819D01*
X30504Y158932D01*
X30724Y159040D01*
X30948Y159142D01*
X31173Y159239D01*
X31401Y159330D01*
X31631Y159415D01*
X31863Y159495D01*
X32097Y159569D01*
X32333Y159638D01*
X32570Y159700D01*
X32809Y159757D01*
X33049Y159808D01*
X33290Y159853D01*
X33533Y159892D01*
X33776Y159925D01*
X34020Y159952D01*
X34264Y159973D01*
X34509Y159988D01*
X34755Y159997D01*
X35000Y160000D01*
X35245Y159997D01*
X35491Y159988D01*
X35736Y159973D01*
X35980Y159952D01*
X36224Y159925D01*
X36467Y159892D01*
X36710Y159853D01*
X36951Y159808D01*
X37191Y159757D01*
X37430Y159700D01*
X37667Y159638D01*
X37903Y159569D01*
X38137Y159495D01*
X38369Y159415D01*
X38599Y159330D01*
X38827Y159239D01*
X39052Y159142D01*
X39276Y159040D01*
X39496Y158932D01*
X39714Y158819D01*
X39929Y158701D01*
X40141Y158577D01*
X40350Y158449D01*
X40556Y158315D01*
X40758Y158176D01*
X40957Y158032D01*
X41152Y157883D01*
X41344Y157730D01*
X41532Y157572D01*
X41716Y157410D01*
X41895Y157242D01*
X42071Y157071D01*
X42242Y156895D01*
X42410Y156716D01*
X42572Y156532D01*
X42730Y156344D01*
X42883Y156152D01*
X43032Y155957D01*
X43176Y155758D01*
X43315Y155556D01*
X43449Y155350D01*
X43577Y155141D01*
X43701Y154929D01*
X43819Y154714D01*
X43932Y154496D01*
X44040Y154276D01*
X44142Y154052D01*
X44239Y153827D01*
X44330Y153599D01*
X44415Y153369D01*
X44495Y153137D01*
X44569Y152903D01*
X44638Y152667D01*
X44700Y152430D01*
X44757Y152191D01*
X44808Y151951D01*
X44853Y151710D01*
X44892Y151467D01*
X44925Y151224D01*
X44952Y150980D01*
X44973Y150736D01*
X44988Y150491D01*
X44997Y150245D01*
X45000Y150000D01*
X44997Y149755D01*
X44988Y149509D01*
X44973Y149264D01*
X44952Y149020D01*
X44925Y148776D01*
X44892Y148533D01*
X44853Y148290D01*
X44808Y148049D01*
X44757Y147809D01*
X44700Y147570D01*
X44638Y147333D01*
X44569Y147097D01*
X44495Y146863D01*
X44415Y146631D01*
X44330Y146401D01*
X44239Y146173D01*
X44142Y145948D01*
X44040Y145724D01*
X43932Y145504D01*
X43819Y145286D01*
X43701Y145071D01*
X43577Y144859D01*
X43449Y144650D01*
X43315Y144444D01*
X43176Y144242D01*
X43032Y144043D01*
X42883Y143848D01*
X42730Y143656D01*
X42572Y143468D01*
X42410Y143284D01*
X42242Y143105D01*
X42071Y142929D01*
X41895Y142758D01*
X41716Y142590D01*
X41532Y142428D01*
X41344Y142270D01*
X41152Y142117D01*
X40957Y141968D01*
X40758Y141824D01*
X40556Y141685D01*
X40350Y141551D01*
X40141Y141423D01*
X39929Y141299D01*
X39714Y141181D01*
X39496Y141068D01*
X39276Y140960D01*
X39052Y140858D01*
X38827Y140761D01*
X38599Y140670D01*
X38369Y140585D01*
X38137Y140505D01*
X37903Y140431D01*
X37667Y140362D01*
X37430Y140300D01*
X37191Y140243D01*
X36951Y140192D01*
X36710Y140147D01*
X36467Y140108D01*
X36224Y140075D01*
X35980Y140048D01*
X35736Y140027D01*
X35491Y140012D01*
X35245Y140003D01*
X35000Y140000D01*
X34755Y140003D01*
X34509Y140012D01*
X34264Y140027D01*
X34020Y140048D01*
X33776Y140075D01*
X33533Y140108D01*
X33290Y140147D01*
X33049Y140192D01*
X32809Y140243D01*
X32570Y140300D01*
X32333Y140362D01*
X32097Y140431D01*
X31863Y140505D01*
X31631Y140585D01*
X31401Y140670D01*
X31173Y140761D01*
X30948Y140858D01*
X30724Y140960D01*
X30504Y141068D01*
X30286Y141181D01*
X30071Y141299D01*
X29859Y141423D01*
X29650Y141551D01*
X29444Y141685D01*
X29242Y141824D01*
X29043Y141968D01*
X28848Y142117D01*
X28656Y142270D01*
X28468Y142428D01*
X28284Y142590D01*
X28105Y142758D01*
X27929Y142929D01*
X27758Y143105D01*
X27590Y143284D01*
X27428Y143468D01*
X27270Y143656D01*
X27117Y143848D01*
X26968Y144043D01*
X26824Y144242D01*
X26685Y144444D01*
X26551Y144650D01*
X26423Y144859D01*
X26299Y145071D01*
X26181Y145286D01*
X26068Y145504D01*
X25960Y145724D01*
X25858Y145948D01*
X25761Y146173D01*
X25670Y146401D01*
X25585Y146631D01*
X25505Y146863D01*
X25431Y147097D01*
X25362Y147333D01*
X25300Y147570D01*
X25243Y147809D01*
X25192Y148049D01*
X25147Y148290D01*
X25108Y148533D01*
X25075Y148776D01*
X25048Y149020D01*
X25027Y149264D01*
X25012Y149509D01*
X25003Y149755D01*
X25000Y150000D01*
D11*
X560000Y450000D02*
X565000Y450000D01*
X570000Y450000D01*
X565000Y450000D02*
X565000Y445000D01*
X565000Y450000D02*
X565000Y455000D01*
D12*
X553400Y470000D02*
X576600Y470000D01*
X588100Y450000D01*
X576600Y430000D01*
X553400Y430000D01*
X541900Y450000D01*
X553400Y470000D01*
X555000Y450000D02*
X555003Y450245D01*
X555012Y450491D01*
X555027Y450736D01*
X555048Y450980D01*
X555075Y451224D01*
X555108Y451467D01*
X555147Y451710D01*
X555192Y451951D01*
X555243Y452191D01*
X555300Y452430D01*
X555362Y452667D01*
X555431Y452903D01*
X555505Y453137D01*
X555585Y453369D01*
X555670Y453599D01*
X555761Y453827D01*
X555858Y454052D01*
X555960Y454276D01*
X556068Y454496D01*
X556181Y454714D01*
X556299Y454929D01*
X556423Y455141D01*
X556551Y455350D01*
X556685Y455556D01*
X556824Y455758D01*
X556968Y455957D01*
X557117Y456152D01*
X557270Y456344D01*
X557428Y456532D01*
X557590Y456716D01*
X557758Y456895D01*
X557929Y457071D01*
X558105Y457242D01*
X558284Y457410D01*
X558468Y457572D01*
X558656Y457730D01*
X558848Y457883D01*
X559043Y458032D01*
X559242Y458176D01*
X559444Y458315D01*
X559650Y458449D01*
X559859Y458577D01*
X560071Y458701D01*
X560286Y458819D01*
X560504Y458932D01*
X560724Y459040D01*
X560948Y459142D01*
X561173Y459239D01*
X561401Y459330D01*
X561631Y459415D01*
X561863Y459495D01*
X562097Y459569D01*
X562333Y459638D01*
X562570Y459700D01*
X562809Y459757D01*
X563049Y459808D01*
X563290Y459853D01*
X563533Y459892D01*
X563776Y459925D01*
X564020Y459952D01*
X564264Y459973D01*
X564509Y459988D01*
X564755Y459997D01*
X565000Y460000D01*
X565245Y459997D01*
X565491Y459988D01*
X565736Y459973D01*
X565980Y459952D01*
X566224Y459925D01*
X566467Y459892D01*
X566710Y459853D01*
X566951Y459808D01*
X567191Y459757D01*
X567430Y459700D01*
X567667Y459638D01*
X567903Y459569D01*
X568137Y459495D01*
X568369Y459415D01*
X568599Y459330D01*
X568827Y459239D01*
X569052Y459142D01*
X569276Y459040D01*
X569496Y458932D01*
X569714Y458819D01*
X569929Y458701D01*
X570141Y458577D01*
X570350Y458449D01*
X570556Y458315D01*
X570758Y458176D01*
X570957Y458032D01*
X571152Y457883D01*
X571344Y457730D01*
X571532Y457572D01*
X571716Y457410D01*
X571895Y457242D01*
X572071Y457071D01*
X572242Y456895D01*
X572410Y456716D01*
X572572Y456532D01*
X572730Y456344D01*
X572883Y456152D01*
X573032Y455957D01*
X573176Y455758D01*
X573315Y455556D01*
X573449Y455350D01*
X573577Y455141D01*
X573701Y454929D01*
X573819Y454714D01*
X573932Y454496D01*
X574040Y454276D01*
X574142Y454052D01*
X574239Y453827D01*
X574330Y453599D01*
X574415Y453369D01*
X574495Y453137D01*
X574569Y452903D01*
X574638Y452667D01*
X574700Y452430D01*
X574757Y452191D01*
X574808Y451951D01*
X574853Y451710D01*
X574892Y451467D01*
X574925Y451224D01*
X574952Y450980D01*
X574973Y450736D01*
X574988Y450491D01*
X574997Y450245D01*
X575000Y450000D01*
X574997Y449755D01*
X574988Y449509D01*
X574973Y449264D01*
X574952Y449020D01*
X574925Y448776D01*
X574892Y448533D01*
X574853Y448290D01*
X574808Y448049D01*
X574757Y447809D01*
X574700Y447570D01*
X574638Y447333D01*
X574569Y447097D01*
X574495Y446863D01*
X574415Y446631D01*
X574330Y446401D01*
X574239Y446173D01*
X574142Y445948D01*
X574040Y445724D01*
X573932Y445504D01*
X573819Y445286D01*
X573701Y445071D01*
X573577Y444859D01*
X573449Y444650D01*
X573315Y444444D01*
X573176Y444242D01*
X573032Y444043D01*
X572883Y443848D01*
X572730Y443656D01*
X572572Y443468D01*
X572410Y443284D01*
X572242Y443105D01*
X572071Y442929D01*
X571895Y442758D01*
X571716Y442590D01*
X571532Y442428D01*
X571344Y442270D01*
X571152Y442117D01*
X570957Y441968D01*
X570758Y441824D01*
X570556Y441685D01*
X570350Y441551D01*
X570141Y441423D01*
X569929Y441299D01*
X569714Y441181D01*
X569496Y441068D01*
X569276Y440960D01*
X569052Y440858D01*
X568827Y440761D01*
X568599Y440670D01*
X568369Y440585D01*
X568137Y440505D01*
X567903Y440431D01*
X567667Y440362D01*
X567430Y440300D01*
X567191Y440243D01*
X566951Y440192D01*
X566710Y440147D01*
X566467Y440108D01*
X566224Y440075D01*
X565980Y440048D01*
X565736Y440027D01*
X565491Y440012D01*
X565245Y440003D01*
X565000Y440000D01*
X564755Y440003D01*
X564509Y440012D01*
X564264Y440027D01*
X564020Y440048D01*
X563776Y440075D01*
X563533Y440108D01*
X563290Y440147D01*
X563049Y440192D01*
X562809Y440243D01*
X562570Y440300D01*
X562333Y440362D01*
X562097Y440431D01*
X561863Y440505D01*
X561631Y440585D01*
X561401Y440670D01*
X561173Y440761D01*
X560948Y440858D01*
X560724Y440960D01*
X560504Y441068D01*
X560286Y441181D01*
X560071Y441299D01*
X559859Y441423D01*
X559650Y441551D01*
X559444Y441685D01*
X559242Y441824D01*
X559043Y441968D01*
X558848Y442117D01*
X558656Y442270D01*
X558468Y442428D01*
X558284Y442590D01*
X558105Y442758D01*
X557929Y442929D01*
X557758Y443105D01*
X557590Y443284D01*
X557428Y443468D01*
X557270Y443656D01*
X557117Y443848D01*
X556968Y444043D01*
X556824Y444242D01*
X556685Y444444D01*
X556551Y444650D01*
X556423Y444859D01*
X556299Y445071D01*
X556181Y445286D01*
X556068Y445504D01*
X555960Y445724D01*
X555858Y445948D01*
X555761Y446173D01*
X555670Y446401D01*
X555585Y446631D01*
X555505Y446863D01*
X555431Y447097D01*
X555362Y447333D01*
X555300Y447570D01*
X555243Y447809D01*
X555192Y448049D01*
X555147Y448290D01*
X555108Y448533D01*
X555075Y448776D01*
X555048Y449020D01*
X555027Y449264D01*
X555012Y449509D01*
X555003Y449755D01*
X555000Y450000D01*
D11*
X560000Y150000D02*
X565000Y150000D01*
X570000Y150000D01*
X565000Y150000D02*
X565000Y145000D01*
X565000Y150000D02*
X565000Y155000D01*
D12*
X553400Y170000D02*
X576600Y170000D01*
X588100Y150000D01*
X576600Y130000D01*
X553400Y130000D01*
X541900Y150000D01*
X553400Y170000D01*
X555000Y150000D02*
X555003Y150245D01*
X555012Y150491D01*
X555027Y150736D01*
X555048Y150980D01*
X555075Y151224D01*
X555108Y151467D01*
X555147Y151710D01*
X555192Y151951D01*
X555243Y152191D01*
X555300Y152430D01*
X555362Y152667D01*
X555431Y152903D01*
X555505Y153137D01*
X555585Y153369D01*
X555670Y153599D01*
X555761Y153827D01*
X555858Y154052D01*
X555960Y154276D01*
X556068Y154496D01*
X556181Y154714D01*
X556299Y154929D01*
X556423Y155141D01*
X556551Y155350D01*
X556685Y155556D01*
X556824Y155758D01*
X556968Y155957D01*
X557117Y156152D01*
X557270Y156344D01*
X557428Y156532D01*
X557590Y156716D01*
X557758Y156895D01*
X557929Y157071D01*
X558105Y157242D01*
X558284Y157410D01*
X558468Y157572D01*
X558656Y157730D01*
X558848Y157883D01*
X559043Y158032D01*
X559242Y158176D01*
X559444Y158315D01*
X559650Y158449D01*
X559859Y158577D01*
X560071Y158701D01*
X560286Y158819D01*
X560504Y158932D01*
X560724Y159040D01*
X560948Y159142D01*
X561173Y159239D01*
X561401Y159330D01*
X561631Y159415D01*
X561863Y159495D01*
X562097Y159569D01*
X562333Y159638D01*
X562570Y159700D01*
X562809Y159757D01*
X563049Y159808D01*
X563290Y159853D01*
X563533Y159892D01*
X563776Y159925D01*
X564020Y159952D01*
X564264Y159973D01*
X564509Y159988D01*
X564755Y159997D01*
X565000Y160000D01*
X565245Y159997D01*
X565491Y159988D01*
X565736Y159973D01*
X565980Y159952D01*
X566224Y159925D01*
X566467Y159892D01*
X566710Y159853D01*
X566951Y159808D01*
X567191Y159757D01*
X567430Y159700D01*
X567667Y159638D01*
X567903Y159569D01*
X568137Y159495D01*
X568369Y159415D01*
X568599Y159330D01*
X568827Y159239D01*
X569052Y159142D01*
X569276Y159040D01*
X569496Y158932D01*
X569714Y158819D01*
X569929Y158701D01*
X570141Y158577D01*
X570350Y158449D01*
X570556Y158315D01*
X570758Y158176D01*
X570957Y158032D01*
X571152Y157883D01*
X571344Y157730D01*
X571532Y157572D01*
X571716Y157410D01*
X571895Y157242D01*
X572071Y157071D01*
X572242Y156895D01*
X572410Y156716D01*
X572572Y156532D01*
X572730Y156344D01*
X572883Y156152D01*
X573032Y155957D01*
X573176Y155758D01*
X573315Y155556D01*
X573449Y155350D01*
X573577Y155141D01*
X573701Y154929D01*
X573819Y154714D01*
X573932Y154496D01*
X574040Y154276D01*
X574142Y154052D01*
X574239Y153827D01*
X574330Y153599D01*
X574415Y153369D01*
X574495Y153137D01*
X574569Y152903D01*
X574638Y152667D01*
X574700Y152430D01*
X574757Y152191D01*
X574808Y151951D01*
X574853Y151710D01*
X574892Y151467D01*
X574925Y151224D01*
X574952Y150980D01*
X574973Y150736D01*
X574988Y150491D01*
X574997Y150245D01*
X575000Y150000D01*
X574997Y149755D01*
X574988Y149509D01*
X574973Y149264D01*
X574952Y149020D01*
X574925Y148776D01*
X574892Y148533D01*
X574853Y148290D01*
X574808Y148049D01*
X574757Y147809D01*
X574700Y147570D01*
X574638Y147333D01*
X574569Y147097D01*
X574495Y146863D01*
X574415Y146631D01*
X574330Y146401D01*
X574239Y146173D01*
X574142Y145948D01*
X574040Y145724D01*
X573932Y145504D01*
X573819Y145286D01*
X573701Y145071D01*
X573577Y144859D01*
X573449Y144650D01*
X573315Y144444D01*
X573176Y144242D01*
X573032Y144043D01*
X572883Y143848D01*
X572730Y143656D01*
X572572Y143468D01*
X572410Y143284D01*
X572242Y143105D01*
X572071Y142929D01*
X571895Y142758D01*
X571716Y142590D01*
X571532Y142428D01*
X571344Y142270D01*
X571152Y142117D01*
X570957Y141968D01*
X570758Y141824D01*
X570556Y141685D01*
X570350Y141551D01*
X570141Y141423D01*
X569929Y141299D01*
X569714Y141181D01*
X569496Y141068D01*
X569276Y140960D01*
X569052Y140858D01*
X568827Y140761D01*
X568599Y140670D01*
X568369Y140585D01*
X568137Y140505D01*
X567903Y140431D01*
X567667Y140362D01*
X567430Y140300D01*
X567191Y140243D01*
X566951Y140192D01*
X566710Y140147D01*
X566467Y140108D01*
X566224Y140075D01*
X565980Y140048D01*
X565736Y140027D01*
X565491Y140012D01*
X565245Y140003D01*
X565000Y140000D01*
X564755Y140003D01*
X564509Y140012D01*
X564264Y140027D01*
X564020Y140048D01*
X563776Y140075D01*
X563533Y140108D01*
X563290Y140147D01*
X563049Y140192D01*
X562809Y140243D01*
X562570Y140300D01*
X562333Y140362D01*
X562097Y140431D01*
X561863Y140505D01*
X561631Y140585D01*
X561401Y140670D01*
X561173Y140761D01*
X560948Y140858D01*
X560724Y140960D01*
X560504Y141068D01*
X560286Y141181D01*
X560071Y141299D01*
X559859Y141423D01*
X559650Y141551D01*
X559444Y141685D01*
X559242Y141824D01*
X559043Y141968D01*
X558848Y142117D01*
X558656Y142270D01*
X558468Y142428D01*
X558284Y142590D01*
X558105Y142758D01*
X557929Y142929D01*
X557758Y143105D01*
X557590Y143284D01*
X557428Y143468D01*
X557270Y143656D01*
X557117Y143848D01*
X556968Y144043D01*
X556824Y144242D01*
X556685Y144444D01*
X556551Y144650D01*
X556423Y144859D01*
X556299Y145071D01*
X556181Y145286D01*
X556068Y145504D01*
X555960Y145724D01*
X555858Y145948D01*
X555761Y146173D01*
X555670Y146401D01*
X555585Y146631D01*
X555505Y146863D01*
X555431Y147097D01*
X555362Y147333D01*
X555300Y147570D01*
X555243Y147809D01*
X555192Y148049D01*
X555147Y148290D01*
X555108Y148533D01*
X555075Y148776D01*
X555048Y149020D01*
X555027Y149264D01*
X555012Y149509D01*
X555003Y149755D01*
X555000Y150000D01*
X281000Y382400D02*
X281000Y481200D01*
X286000Y481200D01*
X319000Y481200D01*
X319000Y382400D01*
X286000Y382400D02*
X286000Y481200D01*
X286000Y382400D02*
X319000Y382400D01*
X286000Y382400D02*
X281000Y382400D01*
D13*
X293412Y485267D02*
X293412Y492633D01*
X292594Y485267D02*
X294231Y485267D01*
X294231Y492633D02*
X292594Y492633D01*
X298832Y485267D02*
X300469Y485267D01*
X298832Y485267D02*
X298754Y485269D01*
X298676Y485274D01*
X298599Y485284D01*
X298522Y485297D01*
X298446Y485313D01*
X298371Y485333D01*
X298297Y485357D01*
X298224Y485384D01*
X298152Y485415D01*
X298082Y485449D01*
X298014Y485486D01*
X297947Y485527D01*
X297882Y485571D01*
X297820Y485617D01*
X297760Y485667D01*
X297702Y485719D01*
X297647Y485774D01*
X297595Y485832D01*
X297545Y485892D01*
X297499Y485954D01*
X297455Y486019D01*
X297414Y486086D01*
X297377Y486154D01*
X297343Y486224D01*
X297312Y486296D01*
X297285Y486369D01*
X297261Y486443D01*
X297241Y486518D01*
X297225Y486594D01*
X297212Y486671D01*
X297202Y486748D01*
X297197Y486826D01*
X297195Y486904D01*
X297195Y490996D01*
X297197Y491076D01*
X297203Y491156D01*
X297213Y491236D01*
X297226Y491315D01*
X297244Y491394D01*
X297265Y491471D01*
X297291Y491547D01*
X297320Y491622D01*
X297352Y491696D01*
X297388Y491768D01*
X297428Y491838D01*
X297471Y491905D01*
X297517Y491971D01*
X297567Y492034D01*
X297619Y492095D01*
X297674Y492154D01*
X297733Y492209D01*
X297793Y492261D01*
X297857Y492311D01*
X297923Y492357D01*
X297990Y492400D01*
X298060Y492440D01*
X298132Y492476D01*
X298206Y492508D01*
X298280Y492537D01*
X298357Y492563D01*
X298434Y492584D01*
X298513Y492602D01*
X298592Y492615D01*
X298672Y492625D01*
X298752Y492631D01*
X298832Y492633D01*
X300469Y492633D01*
X303314Y490996D02*
X305360Y492633D01*
X305360Y485267D01*
X303314Y485267D02*
X307406Y485267D01*
D12*
X289000Y476250D02*
X289002Y476339D01*
X289008Y476428D01*
X289018Y476517D01*
X289032Y476605D01*
X289049Y476692D01*
X289071Y476778D01*
X289097Y476864D01*
X289126Y476948D01*
X289159Y477031D01*
X289195Y477112D01*
X289236Y477192D01*
X289279Y477269D01*
X289326Y477345D01*
X289377Y477418D01*
X289430Y477489D01*
X289487Y477558D01*
X289547Y477624D01*
X289610Y477688D01*
X289675Y477748D01*
X289743Y477806D01*
X289814Y477860D01*
X289887Y477911D01*
X289962Y477959D01*
X290039Y478004D01*
X290118Y478045D01*
X290199Y478082D01*
X290281Y478116D01*
X290365Y478147D01*
X290450Y478173D01*
X290536Y478196D01*
X290623Y478214D01*
X290711Y478229D01*
X290800Y478240D01*
X290889Y478247D01*
X290978Y478250D01*
X291067Y478249D01*
X291156Y478244D01*
X291244Y478235D01*
X291333Y478222D01*
X291420Y478205D01*
X291507Y478185D01*
X291593Y478160D01*
X291677Y478132D01*
X291760Y478100D01*
X291842Y478064D01*
X291922Y478025D01*
X292000Y477982D01*
X292076Y477936D01*
X292150Y477886D01*
X292222Y477833D01*
X292291Y477777D01*
X292358Y477718D01*
X292422Y477656D01*
X292483Y477592D01*
X292542Y477524D01*
X292597Y477454D01*
X292649Y477382D01*
X292698Y477307D01*
X292743Y477231D01*
X292785Y477152D01*
X292823Y477072D01*
X292858Y476990D01*
X292889Y476906D01*
X292917Y476821D01*
X292940Y476735D01*
X292960Y476648D01*
X292976Y476561D01*
X292988Y476472D01*
X292996Y476384D01*
X293000Y476295D01*
X293000Y476205D01*
X292996Y476116D01*
X292988Y476028D01*
X292976Y475939D01*
X292960Y475852D01*
X292940Y475765D01*
X292917Y475679D01*
X292889Y475594D01*
X292858Y475510D01*
X292823Y475428D01*
X292785Y475348D01*
X292743Y475269D01*
X292698Y475193D01*
X292649Y475118D01*
X292597Y475046D01*
X292542Y474976D01*
X292483Y474908D01*
X292422Y474844D01*
X292358Y474782D01*
X292291Y474723D01*
X292222Y474667D01*
X292150Y474614D01*
X292076Y474564D01*
X292000Y474518D01*
X291922Y474475D01*
X291842Y474436D01*
X291760Y474400D01*
X291677Y474368D01*
X291593Y474340D01*
X291507Y474315D01*
X291420Y474295D01*
X291333Y474278D01*
X291244Y474265D01*
X291156Y474256D01*
X291067Y474251D01*
X290978Y474250D01*
X290889Y474253D01*
X290800Y474260D01*
X290711Y474271D01*
X290623Y474286D01*
X290536Y474304D01*
X290450Y474327D01*
X290365Y474353D01*
X290281Y474384D01*
X290199Y474418D01*
X290118Y474455D01*
X290039Y474496D01*
X289962Y474541D01*
X289887Y474589D01*
X289814Y474640D01*
X289743Y474694D01*
X289675Y474752D01*
X289610Y474812D01*
X289547Y474876D01*
X289487Y474942D01*
X289430Y475011D01*
X289377Y475082D01*
X289326Y475155D01*
X289279Y475231D01*
X289236Y475308D01*
X289195Y475388D01*
X289159Y475469D01*
X289126Y475552D01*
X289097Y475636D01*
X289071Y475722D01*
X289049Y475808D01*
X289032Y475895D01*
X289018Y475983D01*
X289008Y476072D01*
X289002Y476161D01*
X289000Y476250D01*
D14*
X347472Y457200D02*
X359156Y457200D01*
X347472Y457200D02*
X347472Y460446D01*
X347474Y460559D01*
X347480Y460672D01*
X347490Y460785D01*
X347504Y460898D01*
X347521Y461010D01*
X347543Y461121D01*
X347568Y461231D01*
X347598Y461341D01*
X347631Y461449D01*
X347668Y461556D01*
X347708Y461662D01*
X347753Y461766D01*
X347801Y461869D01*
X347852Y461970D01*
X347907Y462069D01*
X347965Y462166D01*
X348027Y462261D01*
X348092Y462354D01*
X348160Y462444D01*
X348231Y462532D01*
X348306Y462618D01*
X348383Y462701D01*
X348463Y462781D01*
X348546Y462858D01*
X348632Y462933D01*
X348720Y463004D01*
X348810Y463072D01*
X348903Y463137D01*
X348998Y463199D01*
X349095Y463257D01*
X349194Y463312D01*
X349295Y463363D01*
X349398Y463411D01*
X349502Y463456D01*
X349608Y463496D01*
X349715Y463533D01*
X349823Y463566D01*
X349933Y463596D01*
X350043Y463621D01*
X350154Y463643D01*
X350266Y463660D01*
X350379Y463674D01*
X350492Y463684D01*
X350605Y463690D01*
X350718Y463692D01*
X350831Y463690D01*
X350944Y463684D01*
X351057Y463674D01*
X351170Y463660D01*
X351282Y463643D01*
X351393Y463621D01*
X351503Y463596D01*
X351613Y463566D01*
X351721Y463533D01*
X351828Y463496D01*
X351934Y463456D01*
X352038Y463411D01*
X352141Y463363D01*
X352242Y463312D01*
X352341Y463257D01*
X352438Y463199D01*
X352533Y463137D01*
X352626Y463072D01*
X352716Y463004D01*
X352804Y462933D01*
X352890Y462858D01*
X352973Y462781D01*
X353053Y462701D01*
X353130Y462618D01*
X353205Y462532D01*
X353276Y462444D01*
X353344Y462354D01*
X353409Y462261D01*
X353471Y462166D01*
X353529Y462069D01*
X353584Y461970D01*
X353635Y461869D01*
X353683Y461766D01*
X353728Y461662D01*
X353768Y461556D01*
X353805Y461449D01*
X353838Y461341D01*
X353868Y461231D01*
X353893Y461121D01*
X353915Y461010D01*
X353932Y460898D01*
X353946Y460785D01*
X353956Y460672D01*
X353962Y460559D01*
X353964Y460446D01*
X353963Y460446D02*
X353963Y457200D01*
X353963Y461095D02*
X359156Y463691D01*
X353963Y471153D02*
X353963Y475047D01*
X353963Y471153D02*
X353961Y471054D01*
X353955Y470954D01*
X353946Y470855D01*
X353933Y470757D01*
X353916Y470659D01*
X353895Y470561D01*
X353870Y470465D01*
X353842Y470370D01*
X353810Y470276D01*
X353775Y470183D01*
X353736Y470091D01*
X353693Y470001D01*
X353648Y469913D01*
X353598Y469826D01*
X353546Y469742D01*
X353490Y469659D01*
X353432Y469579D01*
X353370Y469501D01*
X353305Y469426D01*
X353237Y469353D01*
X353167Y469283D01*
X353094Y469215D01*
X353019Y469150D01*
X352941Y469088D01*
X352861Y469030D01*
X352778Y468974D01*
X352694Y468922D01*
X352607Y468872D01*
X352519Y468827D01*
X352429Y468784D01*
X352337Y468745D01*
X352244Y468710D01*
X352150Y468678D01*
X352055Y468650D01*
X351959Y468625D01*
X351861Y468604D01*
X351763Y468587D01*
X351665Y468574D01*
X351566Y468565D01*
X351466Y468559D01*
X351367Y468557D01*
X351367Y468556D02*
X350718Y468556D01*
X350605Y468558D01*
X350492Y468564D01*
X350379Y468574D01*
X350266Y468588D01*
X350154Y468605D01*
X350043Y468627D01*
X349933Y468652D01*
X349823Y468682D01*
X349715Y468715D01*
X349608Y468752D01*
X349502Y468792D01*
X349398Y468837D01*
X349295Y468885D01*
X349194Y468936D01*
X349095Y468991D01*
X348998Y469049D01*
X348903Y469111D01*
X348810Y469176D01*
X348720Y469244D01*
X348632Y469315D01*
X348546Y469390D01*
X348463Y469467D01*
X348383Y469547D01*
X348306Y469630D01*
X348231Y469716D01*
X348160Y469804D01*
X348092Y469894D01*
X348027Y469987D01*
X347965Y470082D01*
X347907Y470179D01*
X347852Y470278D01*
X347801Y470379D01*
X347753Y470482D01*
X347708Y470586D01*
X347668Y470692D01*
X347631Y470799D01*
X347598Y470907D01*
X347568Y471017D01*
X347543Y471127D01*
X347521Y471238D01*
X347504Y471350D01*
X347490Y471463D01*
X347480Y471576D01*
X347474Y471689D01*
X347472Y471802D01*
X347474Y471915D01*
X347480Y472028D01*
X347490Y472141D01*
X347504Y472254D01*
X347521Y472366D01*
X347543Y472477D01*
X347568Y472587D01*
X347598Y472697D01*
X347631Y472805D01*
X347668Y472912D01*
X347708Y473018D01*
X347753Y473122D01*
X347801Y473225D01*
X347852Y473326D01*
X347907Y473425D01*
X347965Y473522D01*
X348027Y473617D01*
X348092Y473710D01*
X348160Y473800D01*
X348231Y473888D01*
X348306Y473974D01*
X348383Y474057D01*
X348463Y474137D01*
X348546Y474214D01*
X348632Y474289D01*
X348720Y474360D01*
X348810Y474428D01*
X348903Y474493D01*
X348998Y474555D01*
X349095Y474613D01*
X349194Y474668D01*
X349295Y474719D01*
X349398Y474767D01*
X349502Y474812D01*
X349608Y474852D01*
X349715Y474889D01*
X349823Y474922D01*
X349933Y474952D01*
X350043Y474977D01*
X350154Y474999D01*
X350266Y475016D01*
X350379Y475030D01*
X350492Y475040D01*
X350605Y475046D01*
X350718Y475048D01*
X350718Y475047D02*
X353963Y475047D01*
X353963Y475048D02*
X354106Y475046D01*
X354249Y475040D01*
X354392Y475030D01*
X354534Y475016D01*
X354676Y474999D01*
X354818Y474977D01*
X354959Y474952D01*
X355099Y474922D01*
X355238Y474889D01*
X355376Y474852D01*
X355513Y474811D01*
X355649Y474767D01*
X355784Y474718D01*
X355917Y474666D01*
X356049Y474611D01*
X356179Y474551D01*
X356308Y474488D01*
X356435Y474422D01*
X356560Y474352D01*
X356682Y474279D01*
X356803Y474202D01*
X356922Y474122D01*
X357038Y474039D01*
X357153Y473953D01*
X357264Y473864D01*
X357374Y473771D01*
X357480Y473676D01*
X357584Y473577D01*
X357685Y473476D01*
X357784Y473372D01*
X357879Y473266D01*
X357972Y473156D01*
X358061Y473045D01*
X358147Y472930D01*
X358230Y472814D01*
X358310Y472695D01*
X358387Y472574D01*
X358460Y472452D01*
X358530Y472327D01*
X358596Y472200D01*
X358659Y472071D01*
X358719Y471941D01*
X358774Y471809D01*
X358826Y471676D01*
X358875Y471541D01*
X358919Y471405D01*
X358960Y471268D01*
X358997Y471130D01*
X359030Y470991D01*
X359060Y470851D01*
X359085Y470710D01*
X359107Y470568D01*
X359124Y470426D01*
X359138Y470284D01*
X359148Y470141D01*
X359154Y469998D01*
X359156Y469855D01*
X348601Y542544D02*
X346004Y542544D01*
X345905Y542546D01*
X345805Y542552D01*
X345706Y542561D01*
X345608Y542574D01*
X345510Y542591D01*
X345412Y542612D01*
X345316Y542637D01*
X345221Y542665D01*
X345127Y542697D01*
X345034Y542732D01*
X344942Y542771D01*
X344852Y542814D01*
X344764Y542859D01*
X344677Y542909D01*
X344593Y542961D01*
X344510Y543017D01*
X344430Y543075D01*
X344352Y543137D01*
X344277Y543202D01*
X344204Y543270D01*
X344134Y543340D01*
X344066Y543413D01*
X344001Y543488D01*
X343939Y543566D01*
X343881Y543646D01*
X343825Y543729D01*
X343773Y543813D01*
X343723Y543900D01*
X343678Y543988D01*
X343635Y544078D01*
X343596Y544170D01*
X343561Y544263D01*
X343529Y544357D01*
X343501Y544452D01*
X343476Y544548D01*
X343455Y544646D01*
X343438Y544744D01*
X343425Y544842D01*
X343416Y544941D01*
X343410Y545041D01*
X343408Y545140D01*
X343408Y551632D01*
X343410Y551731D01*
X343416Y551831D01*
X343425Y551930D01*
X343438Y552028D01*
X343455Y552126D01*
X343476Y552224D01*
X343501Y552320D01*
X343529Y552415D01*
X343561Y552509D01*
X343596Y552602D01*
X343635Y552694D01*
X343678Y552784D01*
X343723Y552872D01*
X343773Y552959D01*
X343825Y553043D01*
X343881Y553126D01*
X343939Y553206D01*
X344001Y553284D01*
X344066Y553359D01*
X344134Y553432D01*
X344204Y553502D01*
X344277Y553570D01*
X344352Y553635D01*
X344430Y553697D01*
X344510Y553755D01*
X344593Y553811D01*
X344677Y553863D01*
X344764Y553913D01*
X344852Y553958D01*
X344942Y554001D01*
X345034Y554040D01*
X345126Y554075D01*
X345221Y554107D01*
X345316Y554135D01*
X345412Y554160D01*
X345510Y554181D01*
X345608Y554198D01*
X345706Y554211D01*
X345805Y554220D01*
X345905Y554226D01*
X346004Y554228D01*
X348601Y554228D01*
X352966Y542544D02*
X356212Y542544D01*
X356325Y542546D01*
X356438Y542552D01*
X356551Y542562D01*
X356664Y542576D01*
X356776Y542593D01*
X356887Y542615D01*
X356997Y542640D01*
X357107Y542670D01*
X357215Y542703D01*
X357322Y542740D01*
X357428Y542780D01*
X357532Y542825D01*
X357635Y542873D01*
X357736Y542924D01*
X357835Y542979D01*
X357932Y543037D01*
X358027Y543099D01*
X358120Y543164D01*
X358210Y543232D01*
X358298Y543303D01*
X358384Y543378D01*
X358467Y543455D01*
X358547Y543535D01*
X358624Y543618D01*
X358699Y543704D01*
X358770Y543792D01*
X358838Y543882D01*
X358903Y543975D01*
X358965Y544070D01*
X359023Y544167D01*
X359078Y544266D01*
X359129Y544367D01*
X359177Y544470D01*
X359222Y544574D01*
X359262Y544680D01*
X359299Y544787D01*
X359332Y544895D01*
X359362Y545005D01*
X359387Y545115D01*
X359409Y545226D01*
X359426Y545338D01*
X359440Y545451D01*
X359450Y545564D01*
X359456Y545677D01*
X359458Y545790D01*
X359456Y545903D01*
X359450Y546016D01*
X359440Y546129D01*
X359426Y546242D01*
X359409Y546354D01*
X359387Y546465D01*
X359362Y546575D01*
X359332Y546685D01*
X359299Y546793D01*
X359262Y546900D01*
X359222Y547006D01*
X359177Y547110D01*
X359129Y547213D01*
X359078Y547314D01*
X359023Y547413D01*
X358965Y547510D01*
X358903Y547605D01*
X358838Y547698D01*
X358770Y547788D01*
X358699Y547876D01*
X358624Y547962D01*
X358547Y548045D01*
X358467Y548125D01*
X358384Y548202D01*
X358298Y548277D01*
X358210Y548348D01*
X358120Y548416D01*
X358027Y548481D01*
X357932Y548543D01*
X357835Y548601D01*
X357736Y548656D01*
X357635Y548707D01*
X357532Y548755D01*
X357428Y548800D01*
X357322Y548840D01*
X357215Y548877D01*
X357107Y548910D01*
X356997Y548940D01*
X356887Y548965D01*
X356776Y548987D01*
X356664Y549004D01*
X356551Y549018D01*
X356438Y549028D01*
X356325Y549034D01*
X356212Y549036D01*
X356861Y554228D02*
X352966Y554228D01*
X356861Y554228D02*
X356962Y554226D01*
X357062Y554220D01*
X357162Y554210D01*
X357262Y554197D01*
X357361Y554179D01*
X357460Y554158D01*
X357557Y554133D01*
X357654Y554104D01*
X357749Y554071D01*
X357843Y554035D01*
X357935Y553995D01*
X358026Y553952D01*
X358115Y553905D01*
X358202Y553855D01*
X358288Y553801D01*
X358371Y553744D01*
X358451Y553684D01*
X358530Y553621D01*
X358606Y553554D01*
X358679Y553485D01*
X358749Y553413D01*
X358817Y553339D01*
X358882Y553262D01*
X358943Y553182D01*
X359002Y553100D01*
X359057Y553016D01*
X359109Y552930D01*
X359158Y552842D01*
X359203Y552752D01*
X359245Y552660D01*
X359283Y552567D01*
X359317Y552472D01*
X359348Y552377D01*
X359375Y552280D01*
X359398Y552182D01*
X359418Y552083D01*
X359433Y551983D01*
X359445Y551883D01*
X359453Y551783D01*
X359457Y551682D01*
X359457Y551582D01*
X359453Y551481D01*
X359445Y551381D01*
X359433Y551281D01*
X359418Y551181D01*
X359398Y551082D01*
X359375Y550984D01*
X359348Y550887D01*
X359317Y550792D01*
X359283Y550697D01*
X359245Y550604D01*
X359203Y550512D01*
X359158Y550422D01*
X359109Y550334D01*
X359057Y550248D01*
X359002Y550164D01*
X358943Y550082D01*
X358882Y550002D01*
X358817Y549925D01*
X358749Y549851D01*
X358679Y549779D01*
X358606Y549710D01*
X358530Y549643D01*
X358451Y549580D01*
X358371Y549520D01*
X358288Y549463D01*
X358202Y549409D01*
X358115Y549359D01*
X358026Y549312D01*
X357935Y549269D01*
X357843Y549229D01*
X357749Y549193D01*
X357654Y549160D01*
X357557Y549131D01*
X357460Y549106D01*
X357361Y549085D01*
X357262Y549067D01*
X357162Y549054D01*
X357062Y549044D01*
X356962Y549038D01*
X356861Y549036D01*
X356861Y549035D02*
X354264Y549035D01*
D13*
X297930Y357837D02*
X295841Y357837D01*
X295752Y357839D01*
X295664Y357845D01*
X295576Y357854D01*
X295488Y357867D01*
X295401Y357884D01*
X295315Y357904D01*
X295230Y357929D01*
X295145Y357956D01*
X295062Y357988D01*
X294981Y358022D01*
X294901Y358061D01*
X294823Y358102D01*
X294746Y358147D01*
X294672Y358195D01*
X294599Y358246D01*
X294529Y358300D01*
X294462Y358358D01*
X294396Y358418D01*
X294334Y358480D01*
X294274Y358546D01*
X294216Y358613D01*
X294162Y358683D01*
X294111Y358756D01*
X294063Y358830D01*
X294018Y358907D01*
X293977Y358985D01*
X293938Y359065D01*
X293904Y359146D01*
X293872Y359229D01*
X293845Y359314D01*
X293820Y359399D01*
X293800Y359485D01*
X293783Y359572D01*
X293770Y359660D01*
X293761Y359748D01*
X293755Y359836D01*
X293753Y359925D01*
X293753Y365147D01*
X293755Y365238D01*
X293761Y365329D01*
X293771Y365420D01*
X293785Y365510D01*
X293802Y365599D01*
X293824Y365687D01*
X293850Y365775D01*
X293879Y365861D01*
X293912Y365946D01*
X293949Y366029D01*
X293989Y366111D01*
X294033Y366191D01*
X294080Y366269D01*
X294131Y366345D01*
X294184Y366418D01*
X294241Y366489D01*
X294302Y366558D01*
X294365Y366623D01*
X294430Y366686D01*
X294499Y366746D01*
X294570Y366804D01*
X294643Y366857D01*
X294719Y366908D01*
X294797Y366955D01*
X294877Y366999D01*
X294959Y367039D01*
X295042Y367076D01*
X295127Y367109D01*
X295213Y367138D01*
X295301Y367164D01*
X295389Y367186D01*
X295478Y367203D01*
X295568Y367217D01*
X295659Y367227D01*
X295750Y367233D01*
X295841Y367235D01*
X297930Y367235D01*
X303487Y367235D02*
X301399Y359925D01*
X306620Y359925D01*
X305053Y357837D02*
X305053Y362014D01*
D15*
X137175Y55922D02*
X134635Y51523D01*
X145303Y70001D02*
X147589Y73960D01*
D14*
X137493Y32611D02*
X132921Y24692D01*
X137493Y32611D02*
X139693Y31341D01*
X139778Y31289D01*
X139862Y31234D01*
X139943Y31176D01*
X140021Y31115D01*
X140098Y31051D01*
X140171Y30983D01*
X140242Y30913D01*
X140311Y30841D01*
X140376Y30765D01*
X140438Y30687D01*
X140497Y30607D01*
X140553Y30524D01*
X140606Y30440D01*
X140655Y30353D01*
X140701Y30264D01*
X140743Y30174D01*
X140782Y30082D01*
X140817Y29989D01*
X140849Y29894D01*
X140876Y29798D01*
X140900Y29702D01*
X140920Y29604D01*
X140937Y29505D01*
X140949Y29407D01*
X140958Y29307D01*
X140962Y29208D01*
X140963Y29108D01*
X140960Y29008D01*
X140952Y28909D01*
X140941Y28809D01*
X140926Y28711D01*
X140908Y28613D01*
X140885Y28516D01*
X140858Y28420D01*
X140828Y28325D01*
X140794Y28231D01*
X140757Y28138D01*
X140716Y28048D01*
X140671Y27958D01*
X140623Y27871D01*
X140622Y27871D02*
X138590Y24352D01*
X138591Y24352D02*
X138539Y24267D01*
X138484Y24183D01*
X138426Y24102D01*
X138365Y24024D01*
X138301Y23947D01*
X138233Y23874D01*
X138163Y23803D01*
X138091Y23734D01*
X138015Y23669D01*
X137937Y23607D01*
X137857Y23548D01*
X137774Y23492D01*
X137690Y23439D01*
X137603Y23390D01*
X137514Y23344D01*
X137424Y23302D01*
X137332Y23263D01*
X137239Y23228D01*
X137144Y23196D01*
X137048Y23169D01*
X136952Y23145D01*
X136854Y23125D01*
X136755Y23108D01*
X136657Y23096D01*
X136557Y23087D01*
X136457Y23083D01*
X136358Y23082D01*
X136258Y23085D01*
X136159Y23093D01*
X136059Y23104D01*
X135961Y23119D01*
X135863Y23138D01*
X135766Y23160D01*
X135670Y23187D01*
X135575Y23217D01*
X135481Y23251D01*
X135388Y23288D01*
X135297Y23329D01*
X135208Y23374D01*
X135121Y23422D01*
X132921Y24692D01*
X144660Y26127D02*
X147875Y26616D01*
X143303Y18698D01*
X141104Y19968D02*
X145503Y17428D01*
D15*
X467411Y73960D02*
X469951Y69561D01*
X478079Y55482D02*
X480365Y51523D01*
D14*
X437493Y71917D02*
X432921Y79836D01*
X435121Y81106D01*
X435208Y81154D01*
X435297Y81199D01*
X435388Y81240D01*
X435481Y81277D01*
X435575Y81311D01*
X435670Y81341D01*
X435766Y81368D01*
X435863Y81390D01*
X435961Y81409D01*
X436059Y81424D01*
X436159Y81435D01*
X436258Y81443D01*
X436358Y81446D01*
X436457Y81445D01*
X436557Y81441D01*
X436657Y81432D01*
X436755Y81420D01*
X436854Y81403D01*
X436952Y81383D01*
X437048Y81359D01*
X437144Y81332D01*
X437239Y81300D01*
X437332Y81265D01*
X437424Y81226D01*
X437514Y81184D01*
X437603Y81138D01*
X437690Y81089D01*
X437774Y81036D01*
X437857Y80980D01*
X437937Y80921D01*
X438015Y80859D01*
X438091Y80794D01*
X438163Y80725D01*
X438233Y80654D01*
X438301Y80581D01*
X438365Y80504D01*
X438426Y80426D01*
X438484Y80345D01*
X438539Y80261D01*
X438591Y80176D01*
X438590Y80176D02*
X440622Y76657D01*
X440623Y76657D02*
X440671Y76570D01*
X440716Y76481D01*
X440757Y76390D01*
X440794Y76297D01*
X440828Y76203D01*
X440858Y76108D01*
X440885Y76012D01*
X440907Y75915D01*
X440926Y75817D01*
X440941Y75719D01*
X440952Y75619D01*
X440960Y75520D01*
X440963Y75420D01*
X440962Y75321D01*
X440958Y75221D01*
X440949Y75121D01*
X440937Y75023D01*
X440920Y74924D01*
X440900Y74826D01*
X440876Y74730D01*
X440849Y74634D01*
X440817Y74539D01*
X440782Y74446D01*
X440743Y74354D01*
X440701Y74264D01*
X440655Y74175D01*
X440606Y74088D01*
X440553Y74004D01*
X440497Y73921D01*
X440438Y73841D01*
X440376Y73763D01*
X440311Y73687D01*
X440242Y73615D01*
X440171Y73545D01*
X440098Y73477D01*
X440021Y73413D01*
X439943Y73352D01*
X439862Y73294D01*
X439778Y73239D01*
X439693Y73187D01*
X437493Y71917D01*
X443523Y85958D02*
X443606Y86003D01*
X443690Y86045D01*
X443777Y86084D01*
X443864Y86119D01*
X443954Y86150D01*
X444044Y86178D01*
X444135Y86202D01*
X444228Y86222D01*
X444321Y86238D01*
X444414Y86250D01*
X444509Y86259D01*
X444603Y86263D01*
X444697Y86264D01*
X444792Y86261D01*
X444886Y86253D01*
X444980Y86242D01*
X445073Y86227D01*
X445166Y86209D01*
X445258Y86186D01*
X445348Y86160D01*
X445438Y86130D01*
X445526Y86096D01*
X445613Y86059D01*
X445698Y86018D01*
X445782Y85973D01*
X445863Y85925D01*
X445943Y85874D01*
X446020Y85820D01*
X446095Y85762D01*
X446167Y85702D01*
X446237Y85638D01*
X446305Y85572D01*
X446369Y85503D01*
X446431Y85431D01*
X446489Y85357D01*
X446545Y85281D01*
X446597Y85202D01*
X446646Y85121D01*
X443523Y85957D02*
X443433Y85903D01*
X443345Y85845D01*
X443258Y85785D01*
X443174Y85721D01*
X443093Y85654D01*
X443013Y85584D01*
X442937Y85512D01*
X442863Y85437D01*
X442791Y85359D01*
X442723Y85279D01*
X442657Y85196D01*
X442595Y85111D01*
X442535Y85024D01*
X442479Y84934D01*
X442426Y84843D01*
X442377Y84750D01*
X442330Y84655D01*
X442287Y84559D01*
X442248Y84461D01*
X442212Y84362D01*
X442180Y84261D01*
X442151Y84160D01*
X442126Y84057D01*
X442105Y83954D01*
X442088Y83850D01*
X442074Y83745D01*
X442064Y83640D01*
X442057Y83535D01*
X442055Y83429D01*
X442056Y83324D01*
X442062Y83218D01*
X442070Y83113D01*
X442083Y83008D01*
X442100Y82904D01*
X442120Y82801D01*
X446875Y83200D02*
X446900Y83291D01*
X446922Y83383D01*
X446939Y83476D01*
X446954Y83570D01*
X446964Y83664D01*
X446971Y83758D01*
X446975Y83853D01*
X446974Y83948D01*
X446970Y84042D01*
X446963Y84137D01*
X446952Y84231D01*
X446937Y84324D01*
X446918Y84417D01*
X446896Y84509D01*
X446871Y84600D01*
X446842Y84690D01*
X446809Y84779D01*
X446774Y84867D01*
X446734Y84953D01*
X446692Y85038D01*
X446646Y85120D01*
X446875Y83200D02*
X445676Y76641D01*
X450075Y79181D01*
D10*
X269748Y85344D02*
X269648Y85342D01*
X269549Y85336D01*
X269449Y85326D01*
X269351Y85313D01*
X269252Y85295D01*
X269155Y85274D01*
X269059Y85249D01*
X268963Y85220D01*
X268869Y85187D01*
X268776Y85151D01*
X268685Y85111D01*
X268595Y85067D01*
X268507Y85020D01*
X268421Y84970D01*
X268337Y84916D01*
X268255Y84859D01*
X268176Y84799D01*
X268098Y84735D01*
X268024Y84669D01*
X267952Y84600D01*
X267883Y84528D01*
X267817Y84454D01*
X267753Y84376D01*
X267693Y84297D01*
X267636Y84215D01*
X267582Y84131D01*
X267532Y84045D01*
X267485Y83957D01*
X267441Y83867D01*
X267401Y83776D01*
X267365Y83683D01*
X267332Y83589D01*
X267303Y83493D01*
X267278Y83397D01*
X267257Y83300D01*
X267239Y83201D01*
X267226Y83103D01*
X267216Y83003D01*
X267210Y82904D01*
X267208Y82804D01*
X267208Y67564D02*
X267210Y67464D01*
X267216Y67365D01*
X267226Y67265D01*
X267239Y67167D01*
X267257Y67068D01*
X267278Y66971D01*
X267303Y66875D01*
X267332Y66779D01*
X267365Y66685D01*
X267401Y66592D01*
X267441Y66501D01*
X267485Y66411D01*
X267532Y66323D01*
X267582Y66237D01*
X267636Y66153D01*
X267693Y66071D01*
X267753Y65992D01*
X267817Y65914D01*
X267883Y65840D01*
X267952Y65768D01*
X268024Y65699D01*
X268098Y65633D01*
X268176Y65569D01*
X268255Y65509D01*
X268337Y65452D01*
X268421Y65398D01*
X268507Y65348D01*
X268595Y65301D01*
X268685Y65257D01*
X268776Y65217D01*
X268869Y65181D01*
X268963Y65148D01*
X269059Y65119D01*
X269155Y65094D01*
X269252Y65073D01*
X269351Y65055D01*
X269449Y65042D01*
X269549Y65032D01*
X269648Y65026D01*
X269748Y65024D01*
X315468Y65024D02*
X315568Y65026D01*
X315667Y65032D01*
X315767Y65042D01*
X315865Y65055D01*
X315964Y65073D01*
X316061Y65094D01*
X316157Y65119D01*
X316253Y65148D01*
X316347Y65181D01*
X316440Y65217D01*
X316531Y65257D01*
X316621Y65301D01*
X316709Y65348D01*
X316795Y65398D01*
X316879Y65452D01*
X316961Y65509D01*
X317040Y65569D01*
X317118Y65633D01*
X317192Y65699D01*
X317264Y65768D01*
X317333Y65840D01*
X317399Y65914D01*
X317463Y65992D01*
X317523Y66071D01*
X317580Y66153D01*
X317634Y66237D01*
X317684Y66323D01*
X317731Y66411D01*
X317775Y66501D01*
X317815Y66592D01*
X317851Y66685D01*
X317884Y66779D01*
X317913Y66875D01*
X317938Y66971D01*
X317959Y67068D01*
X317977Y67167D01*
X317990Y67265D01*
X318000Y67365D01*
X318006Y67464D01*
X318008Y67564D01*
X318008Y82804D02*
X318006Y82904D01*
X318000Y83003D01*
X317990Y83103D01*
X317977Y83201D01*
X317959Y83300D01*
X317938Y83397D01*
X317913Y83493D01*
X317884Y83589D01*
X317851Y83683D01*
X317815Y83776D01*
X317775Y83867D01*
X317731Y83957D01*
X317684Y84045D01*
X317634Y84131D01*
X317580Y84215D01*
X317523Y84297D01*
X317463Y84376D01*
X317399Y84454D01*
X317333Y84528D01*
X317264Y84600D01*
X317192Y84669D01*
X317118Y84735D01*
X317040Y84799D01*
X316961Y84859D01*
X316879Y84916D01*
X316795Y84970D01*
X316709Y85020D01*
X316621Y85067D01*
X316531Y85111D01*
X316440Y85151D01*
X316347Y85187D01*
X316253Y85220D01*
X316157Y85249D01*
X316061Y85274D01*
X315964Y85295D01*
X315865Y85313D01*
X315767Y85326D01*
X315667Y85336D01*
X315568Y85342D01*
X315468Y85344D01*
X267208Y82804D02*
X267208Y67564D01*
X269748Y85344D02*
X273558Y85344D01*
X274828Y84074D01*
X273558Y65024D02*
X269748Y65024D01*
X273558Y65024D02*
X274828Y66294D01*
X310388Y84074D02*
X311658Y85344D01*
X310388Y84074D02*
X274828Y84074D01*
X310388Y66294D02*
X311658Y65024D01*
X310388Y66294D02*
X274828Y66294D01*
X311658Y85344D02*
X315468Y85344D01*
X315468Y65024D02*
X311658Y65024D01*
X318008Y67564D02*
X318008Y82804D01*
D16*
X319913Y75184D03*
X265303Y75184D03*
D14*
X302260Y58928D02*
X302260Y50038D01*
X302260Y58928D02*
X304729Y58928D01*
X304827Y58926D01*
X304925Y58920D01*
X305023Y58910D01*
X305120Y58897D01*
X305217Y58879D01*
X305313Y58858D01*
X305407Y58833D01*
X305501Y58804D01*
X305594Y58772D01*
X305685Y58735D01*
X305775Y58696D01*
X305863Y58652D01*
X305949Y58605D01*
X306034Y58555D01*
X306116Y58502D01*
X306196Y58445D01*
X306274Y58385D01*
X306349Y58322D01*
X306422Y58256D01*
X306492Y58187D01*
X306559Y58116D01*
X306624Y58042D01*
X306685Y57965D01*
X306744Y57886D01*
X306799Y57805D01*
X306851Y57722D01*
X306899Y57636D01*
X306944Y57549D01*
X306986Y57460D01*
X307024Y57370D01*
X307058Y57278D01*
X307089Y57185D01*
X307116Y57090D01*
X307139Y56995D01*
X307159Y56898D01*
X307174Y56802D01*
X307186Y56704D01*
X307194Y56606D01*
X307198Y56508D01*
X307198Y56410D01*
X307194Y56312D01*
X307186Y56214D01*
X307174Y56116D01*
X307159Y56020D01*
X307139Y55923D01*
X307116Y55828D01*
X307089Y55733D01*
X307058Y55640D01*
X307024Y55548D01*
X306986Y55458D01*
X306944Y55369D01*
X306899Y55282D01*
X306851Y55196D01*
X306799Y55113D01*
X306744Y55032D01*
X306685Y54953D01*
X306624Y54876D01*
X306559Y54802D01*
X306492Y54731D01*
X306422Y54662D01*
X306349Y54596D01*
X306274Y54533D01*
X306196Y54473D01*
X306116Y54416D01*
X306034Y54363D01*
X305949Y54313D01*
X305863Y54266D01*
X305775Y54222D01*
X305685Y54183D01*
X305594Y54146D01*
X305501Y54114D01*
X305407Y54085D01*
X305313Y54060D01*
X305217Y54039D01*
X305120Y54021D01*
X305023Y54008D01*
X304925Y53998D01*
X304827Y53992D01*
X304729Y53990D01*
X304729Y53989D02*
X302260Y53989D01*
X305223Y53989D02*
X307199Y50038D01*
X311110Y56952D02*
X313579Y58928D01*
X313579Y50038D01*
X311110Y50038D02*
X316049Y50038D01*
M02*
