G04 EAGLE Gerber X2 export*
%TF.Part,Single*%
%TF.FileFunction,Soldermask,Bot,1*%
%TF.FilePolarity,Negative*%
%TF.GenerationSoftware,Autodesk,EAGLE,9.0.0*%
%TF.CreationDate,2018-09-03T19:42:11Z*%
G75*
%MOMM*%
%FSLAX34Y34*%
%LPD*%
%AMOC8*
5,1,8,0,0,1.08239X$1,22.5*%
G01*
%ADD10C,2.703200*%
%ADD11C,1.473200*%
%ADD12C,3.203200*%
%ADD13C,3.403200*%
%ADD14C,2.503200*%
%ADD15C,2.603200*%
%ADD16C,2.082800*%
%ADD17R,1.803200X3.703200*%
%ADD18C,1.524000*%
%ADD19P,1.649562X8X22.500000*%
%ADD20C,0.959600*%


D10*
X150000Y435000D03*
X150000Y165000D03*
D11*
X188500Y414250D03*
X188500Y185750D03*
X111500Y185750D03*
X111500Y414250D03*
D12*
X90000Y300000D03*
D13*
X257500Y300000D03*
D14*
X65000Y385000D03*
X65000Y215000D03*
D10*
X450000Y165000D03*
X450000Y435000D03*
D11*
X411500Y185750D03*
X411500Y414250D03*
X488500Y414250D03*
X488500Y185750D03*
D12*
X510000Y300000D03*
D13*
X342500Y300000D03*
D14*
X535000Y215000D03*
X535000Y385000D03*
D15*
X35000Y450000D03*
X35000Y150000D03*
X565000Y450000D03*
X565000Y150000D03*
D16*
X490500Y580000D03*
X465100Y580000D03*
X439700Y580000D03*
X414300Y580000D03*
X388900Y580000D03*
X363500Y580000D03*
X338100Y580000D03*
X312700Y580000D03*
X287300Y580000D03*
X261900Y580000D03*
X236500Y580000D03*
X211100Y580000D03*
X185700Y580000D03*
X160300Y580000D03*
X134900Y580000D03*
X109500Y580000D03*
D17*
X219456Y530936D03*
X219456Y476936D03*
D18*
X168499Y46930D03*
X146501Y59630D03*
X446501Y46930D03*
X468499Y59630D03*
D19*
X254508Y75184D03*
X330708Y75184D03*
D20*
X203200Y365760D03*
X178816Y365760D03*
X235712Y426720D03*
X235712Y447040D03*
X327152Y501904D03*
X294640Y373888D03*
X160528Y475488D03*
M02*
