G04 EAGLE Gerber X2 export*
%TF.Part,Single*%
%TF.FileFunction,Paste,Top*%
%TF.FilePolarity,Positive*%
%TF.GenerationSoftware,Autodesk,EAGLE,9.0.0*%
%TF.CreationDate,2018-09-03T19:42:11Z*%
G75*
%MOMM*%
%FSLAX34Y34*%
%LPD*%
%AMOC8*
5,1,8,0,0,1.08239X$1,22.5*%
G01*
%ADD10C,0.120000*%
%ADD11R,1.600000X1.300000*%
%ADD12R,1.500000X2.000000*%


D10*
X264600Y461150D02*
X264600Y465950D01*
X283400Y465950D01*
X283400Y461150D01*
X264600Y461150D01*
X264600Y462349D02*
X283400Y462349D01*
X283400Y463548D02*
X264600Y463548D01*
X264600Y464747D02*
X283400Y464747D01*
X283400Y465946D02*
X264600Y465946D01*
X316600Y440550D02*
X316600Y435750D01*
X316600Y440550D02*
X335400Y440550D01*
X335400Y435750D01*
X316600Y435750D01*
X316600Y436949D02*
X335400Y436949D01*
X335400Y438148D02*
X316600Y438148D01*
X316600Y439347D02*
X335400Y439347D01*
X335400Y440546D02*
X316600Y440546D01*
X264600Y473850D02*
X264600Y478650D01*
X283400Y478650D01*
X283400Y473850D01*
X264600Y473850D01*
X264600Y475049D02*
X283400Y475049D01*
X283400Y476248D02*
X264600Y476248D01*
X264600Y477447D02*
X283400Y477447D01*
X283400Y478646D02*
X264600Y478646D01*
X264600Y453250D02*
X264600Y448450D01*
X264600Y453250D02*
X283400Y453250D01*
X283400Y448450D01*
X264600Y448450D01*
X264600Y449649D02*
X283400Y449649D01*
X283400Y450848D02*
X264600Y450848D01*
X264600Y452047D02*
X283400Y452047D01*
X283400Y453246D02*
X264600Y453246D01*
X264600Y440550D02*
X264600Y435750D01*
X264600Y440550D02*
X283400Y440550D01*
X283400Y435750D01*
X264600Y435750D01*
X264600Y436949D02*
X283400Y436949D01*
X283400Y438148D02*
X264600Y438148D01*
X264600Y439347D02*
X283400Y439347D01*
X283400Y440546D02*
X264600Y440546D01*
X316600Y448450D02*
X316600Y453250D01*
X335400Y453250D01*
X335400Y448450D01*
X316600Y448450D01*
X316600Y449649D02*
X335400Y449649D01*
X335400Y450848D02*
X316600Y450848D01*
X316600Y452047D02*
X335400Y452047D01*
X335400Y453246D02*
X316600Y453246D01*
X316600Y427850D02*
X316600Y423050D01*
X316600Y427850D02*
X335400Y427850D01*
X335400Y423050D01*
X316600Y423050D01*
X316600Y424249D02*
X335400Y424249D01*
X335400Y425448D02*
X316600Y425448D01*
X316600Y426647D02*
X335400Y426647D01*
X335400Y427846D02*
X316600Y427846D01*
X316600Y415150D02*
X316600Y410350D01*
X316600Y415150D02*
X335400Y415150D01*
X335400Y410350D01*
X316600Y410350D01*
X316600Y411549D02*
X335400Y411549D01*
X335400Y412748D02*
X316600Y412748D01*
X316600Y413947D02*
X335400Y413947D01*
X335400Y415146D02*
X316600Y415146D01*
X264600Y415150D02*
X264600Y410350D01*
X264600Y415150D02*
X283400Y415150D01*
X283400Y410350D01*
X264600Y410350D01*
X264600Y411549D02*
X283400Y411549D01*
X283400Y412748D02*
X264600Y412748D01*
X264600Y413947D02*
X283400Y413947D01*
X283400Y415146D02*
X264600Y415146D01*
X316600Y389750D02*
X316600Y384950D01*
X316600Y389750D02*
X335400Y389750D01*
X335400Y384950D01*
X316600Y384950D01*
X316600Y386149D02*
X335400Y386149D01*
X335400Y387348D02*
X316600Y387348D01*
X316600Y388547D02*
X335400Y388547D01*
X335400Y389746D02*
X316600Y389746D01*
X264600Y423050D02*
X264600Y427850D01*
X283400Y427850D01*
X283400Y423050D01*
X264600Y423050D01*
X264600Y424249D02*
X283400Y424249D01*
X283400Y425448D02*
X264600Y425448D01*
X264600Y426647D02*
X283400Y426647D01*
X283400Y427846D02*
X264600Y427846D01*
X264600Y402450D02*
X264600Y397650D01*
X264600Y402450D02*
X283400Y402450D01*
X283400Y397650D01*
X264600Y397650D01*
X264600Y398849D02*
X283400Y398849D01*
X283400Y400048D02*
X264600Y400048D01*
X264600Y401247D02*
X283400Y401247D01*
X283400Y402446D02*
X264600Y402446D01*
X316600Y402450D02*
X316600Y397650D01*
X316600Y402450D02*
X335400Y402450D01*
X335400Y397650D01*
X316600Y397650D01*
X316600Y398849D02*
X335400Y398849D01*
X335400Y400048D02*
X316600Y400048D01*
X316600Y401247D02*
X335400Y401247D01*
X335400Y402446D02*
X316600Y402446D01*
X264600Y389750D02*
X264600Y384950D01*
X264600Y389750D02*
X283400Y389750D01*
X283400Y384950D01*
X264600Y384950D01*
X264600Y386149D02*
X283400Y386149D01*
X283400Y387348D02*
X264600Y387348D01*
X264600Y388547D02*
X283400Y388547D01*
X283400Y389746D02*
X264600Y389746D01*
X316600Y461150D02*
X316600Y465950D01*
X335400Y465950D01*
X335400Y461150D01*
X316600Y461150D01*
X316600Y462349D02*
X335400Y462349D01*
X335400Y463548D02*
X316600Y463548D01*
X316600Y464747D02*
X335400Y464747D01*
X335400Y465946D02*
X316600Y465946D01*
X316600Y473850D02*
X316600Y478650D01*
X335400Y478650D01*
X335400Y473850D01*
X316600Y473850D01*
X316600Y475049D02*
X335400Y475049D01*
X335400Y476248D02*
X316600Y476248D01*
X316600Y477447D02*
X335400Y477447D01*
X335400Y478646D02*
X316600Y478646D01*
D11*
X372364Y459892D03*
X372364Y478892D03*
D12*
X326376Y527304D03*
X356376Y527304D03*
X294372Y346456D03*
X324372Y346456D03*
M02*
