G04 EAGLE Gerber X2 export*
%TF.Part,Single*%
%TF.FileFunction,Soldermask,Top,1*%
%TF.FilePolarity,Negative*%
%TF.GenerationSoftware,Autodesk,EAGLE,9.0.0*%
%TF.CreationDate,2018-09-03T19:42:11Z*%
G75*
%MOMM*%
%FSLAX34Y34*%
%LPD*%
%AMOC8*
5,1,8,0,0,1.08239X$1,22.5*%
G01*
%ADD10C,2.703200*%
%ADD11C,1.473200*%
%ADD12C,3.203200*%
%ADD13C,3.403200*%
%ADD14C,2.503200*%
%ADD15C,2.603200*%
%ADD16C,2.082800*%
%ADD17C,0.160638*%
%ADD18R,1.803200X1.503200*%
%ADD19R,1.703200X2.203200*%
%ADD20C,1.524000*%
%ADD21P,1.649562X8X22.500000*%
%ADD22C,0.959600*%


D10*
X150000Y435000D03*
X150000Y165000D03*
D11*
X188500Y414250D03*
X188500Y185750D03*
X111500Y185750D03*
X111500Y414250D03*
D12*
X90000Y300000D03*
D13*
X257500Y300000D03*
D14*
X65000Y385000D03*
X65000Y215000D03*
D10*
X450000Y165000D03*
X450000Y435000D03*
D11*
X411500Y185750D03*
X411500Y414250D03*
X488500Y414250D03*
X488500Y185750D03*
D12*
X510000Y300000D03*
D13*
X342500Y300000D03*
D14*
X535000Y215000D03*
X535000Y385000D03*
D15*
X35000Y450000D03*
X35000Y150000D03*
X565000Y450000D03*
X565000Y150000D03*
D16*
X490500Y580000D03*
X465100Y580000D03*
X439700Y580000D03*
X414300Y580000D03*
X388900Y580000D03*
X363500Y580000D03*
X338100Y580000D03*
X312700Y580000D03*
X287300Y580000D03*
X261900Y580000D03*
X236500Y580000D03*
X211100Y580000D03*
X185700Y580000D03*
X160300Y580000D03*
X134900Y580000D03*
X109500Y580000D03*
D17*
X263787Y466763D02*
X263787Y460337D01*
X263787Y466763D02*
X284213Y466763D01*
X284213Y460337D01*
X263787Y460337D01*
X263787Y461942D02*
X284213Y461942D01*
X284213Y463547D02*
X263787Y463547D01*
X263787Y465152D02*
X284213Y465152D01*
X284213Y466757D02*
X263787Y466757D01*
X315787Y441363D02*
X315787Y434937D01*
X315787Y441363D02*
X336213Y441363D01*
X336213Y434937D01*
X315787Y434937D01*
X315787Y436542D02*
X336213Y436542D01*
X336213Y438147D02*
X315787Y438147D01*
X315787Y439752D02*
X336213Y439752D01*
X336213Y441357D02*
X315787Y441357D01*
X263787Y473037D02*
X263787Y479463D01*
X284213Y479463D01*
X284213Y473037D01*
X263787Y473037D01*
X263787Y474642D02*
X284213Y474642D01*
X284213Y476247D02*
X263787Y476247D01*
X263787Y477852D02*
X284213Y477852D01*
X284213Y479457D02*
X263787Y479457D01*
X263787Y454063D02*
X263787Y447637D01*
X263787Y454063D02*
X284213Y454063D01*
X284213Y447637D01*
X263787Y447637D01*
X263787Y449242D02*
X284213Y449242D01*
X284213Y450847D02*
X263787Y450847D01*
X263787Y452452D02*
X284213Y452452D01*
X284213Y454057D02*
X263787Y454057D01*
X263787Y441363D02*
X263787Y434937D01*
X263787Y441363D02*
X284213Y441363D01*
X284213Y434937D01*
X263787Y434937D01*
X263787Y436542D02*
X284213Y436542D01*
X284213Y438147D02*
X263787Y438147D01*
X263787Y439752D02*
X284213Y439752D01*
X284213Y441357D02*
X263787Y441357D01*
X315787Y447637D02*
X315787Y454063D01*
X336213Y454063D01*
X336213Y447637D01*
X315787Y447637D01*
X315787Y449242D02*
X336213Y449242D01*
X336213Y450847D02*
X315787Y450847D01*
X315787Y452452D02*
X336213Y452452D01*
X336213Y454057D02*
X315787Y454057D01*
X315787Y428663D02*
X315787Y422237D01*
X315787Y428663D02*
X336213Y428663D01*
X336213Y422237D01*
X315787Y422237D01*
X315787Y423842D02*
X336213Y423842D01*
X336213Y425447D02*
X315787Y425447D01*
X315787Y427052D02*
X336213Y427052D01*
X336213Y428657D02*
X315787Y428657D01*
X315787Y415963D02*
X315787Y409537D01*
X315787Y415963D02*
X336213Y415963D01*
X336213Y409537D01*
X315787Y409537D01*
X315787Y411142D02*
X336213Y411142D01*
X336213Y412747D02*
X315787Y412747D01*
X315787Y414352D02*
X336213Y414352D01*
X336213Y415957D02*
X315787Y415957D01*
X263787Y415963D02*
X263787Y409537D01*
X263787Y415963D02*
X284213Y415963D01*
X284213Y409537D01*
X263787Y409537D01*
X263787Y411142D02*
X284213Y411142D01*
X284213Y412747D02*
X263787Y412747D01*
X263787Y414352D02*
X284213Y414352D01*
X284213Y415957D02*
X263787Y415957D01*
X315787Y390563D02*
X315787Y384137D01*
X315787Y390563D02*
X336213Y390563D01*
X336213Y384137D01*
X315787Y384137D01*
X315787Y385742D02*
X336213Y385742D01*
X336213Y387347D02*
X315787Y387347D01*
X315787Y388952D02*
X336213Y388952D01*
X336213Y390557D02*
X315787Y390557D01*
X263787Y422237D02*
X263787Y428663D01*
X284213Y428663D01*
X284213Y422237D01*
X263787Y422237D01*
X263787Y423842D02*
X284213Y423842D01*
X284213Y425447D02*
X263787Y425447D01*
X263787Y427052D02*
X284213Y427052D01*
X284213Y428657D02*
X263787Y428657D01*
X263787Y403263D02*
X263787Y396837D01*
X263787Y403263D02*
X284213Y403263D01*
X284213Y396837D01*
X263787Y396837D01*
X263787Y398442D02*
X284213Y398442D01*
X284213Y400047D02*
X263787Y400047D01*
X263787Y401652D02*
X284213Y401652D01*
X284213Y403257D02*
X263787Y403257D01*
X315787Y403263D02*
X315787Y396837D01*
X315787Y403263D02*
X336213Y403263D01*
X336213Y396837D01*
X315787Y396837D01*
X315787Y398442D02*
X336213Y398442D01*
X336213Y400047D02*
X315787Y400047D01*
X315787Y401652D02*
X336213Y401652D01*
X336213Y403257D02*
X315787Y403257D01*
X263787Y390563D02*
X263787Y384137D01*
X263787Y390563D02*
X284213Y390563D01*
X284213Y384137D01*
X263787Y384137D01*
X263787Y385742D02*
X284213Y385742D01*
X284213Y387347D02*
X263787Y387347D01*
X263787Y388952D02*
X284213Y388952D01*
X284213Y390557D02*
X263787Y390557D01*
X315787Y460337D02*
X315787Y466763D01*
X336213Y466763D01*
X336213Y460337D01*
X315787Y460337D01*
X315787Y461942D02*
X336213Y461942D01*
X336213Y463547D02*
X315787Y463547D01*
X315787Y465152D02*
X336213Y465152D01*
X336213Y466757D02*
X315787Y466757D01*
X315787Y473037D02*
X315787Y479463D01*
X336213Y479463D01*
X336213Y473037D01*
X315787Y473037D01*
X315787Y474642D02*
X336213Y474642D01*
X336213Y476247D02*
X315787Y476247D01*
X315787Y477852D02*
X336213Y477852D01*
X336213Y479457D02*
X315787Y479457D01*
D18*
X372364Y459892D03*
X372364Y478892D03*
D19*
X326376Y527304D03*
X356376Y527304D03*
X294372Y346456D03*
X324372Y346456D03*
D20*
X168499Y46930D03*
X146501Y59630D03*
X446501Y46930D03*
X468499Y59630D03*
D21*
X254508Y75184D03*
X330708Y75184D03*
D22*
X203200Y365760D03*
X178816Y365760D03*
X235712Y426720D03*
X235712Y447040D03*
X327152Y501904D03*
X294640Y373888D03*
X160528Y475488D03*
M02*
