  0
SECTION
  2
HEADER
  9
$ACADVER
  1
AC1014
  9
$HANDSEED
  5
FFFF
  9
$MEASUREMENT
 70
     1
  0
ENDSEC
  0
SECTION
  2
TABLES
  0
TABLE
  2
VPORT
  5
8
330
0
100
AcDbSymbolTable
 70
     4
  0
VPORT
  5
2E
330
8
100
AcDbSymbolTableRecord
100
AcDbViewportTableRecord
  2
*ACTIVE
 70
     0
 10
0.0
 20
0.0
 11
1.0
 21
1.0
 12
210.0
 22
148.5
 13
0.0
 23
0.0
 14
10.0
 24
10.0
 15
10.0
 25
10.0
 16
0.0
 26
0.0
 36
1.0
 17
0.0
 27
0.0
 37
0.0
 40
341.0
 41
1.24
 42
50.0
 43
0.0
 44
0.0
 50
0.0
 51
0.0
 71
     0
 72
   100
 73
     1
 74
     3
 75
     0
 76
     0
 77
     0
 78
     0
  0
ENDTAB
  0
TABLE
  2
LTYPE
  5
5
330
0
100
AcDbSymbolTable
 70
     1
  0
LTYPE
  5
14
330
5
100
AcDbSymbolTableRecord
100
AcDbLinetypeTableRecord
  2
BYBLOCK
 70
     0
  3

 72
    65
 73
     0
 40
0.0
  0
LTYPE
  5
15
330
5
100
AcDbSymbolTableRecord
100
AcDbLinetypeTableRecord
  2
BYLAYER
 70
     0
  3

 72
    65
 73
     0
 40
0.0
  0
LTYPE
  5
16
330
5
100
AcDbSymbolTableRecord
100
AcDbLinetypeTableRecord
  2
CONTINUOUS
 70
     0
  3
Solid line
 72
    65
 73
     0
 40
0.0
  0
ENDTAB
  0
TABLE
  2
LAYER
  5
2
100
AcDbSymbolTable
 70
3
  0
LAYER
  5
50
100
AcDbSymbolTableRecord
100
AcDbLayerTableRecord
  2
0
 70
0
  6
CONTINUOUS
  0
LAYER
  5
51
100
AcDbSymbolTableRecord
100
AcDbLayerTableRecord
  2
CUT
 70
0
  6
CONTINUOUS
  0
LAYER
  5
52
100
AcDbSymbolTableRecord
100
AcDbLayerTableRecord
  2
DRAW
 70
0
  6
CONTINUOUS
  0
ENDTAB
  0
TABLE
  2
STYLE
  5
3
330
0
100
AcDbSymbolTable
 70
     1
  0
STYLE
  5
11
330
3
100
AcDbSymbolTableRecord
100
AcDbTextStyleTableRecord
  2
STANDARD
 70
     0
 40
0.0
 41
1.0
 50
0.0
 71
     0
 42
2.5
  3
txt
  4

  0
ENDTAB
  0
TABLE
  2
VIEW
  5
6
330
0
100
AcDbSymbolTable
 70
     0
  0
ENDTAB
  0
TABLE
  2
UCS
  5
7
330
0
100
AcDbSymbolTable
 70
     0
  0
ENDTAB
  0
TABLE
  2
APPID
  5
9
330
0
100
AcDbSymbolTable
 70
     2
  0
APPID
  5
12
330
9
100
AcDbSymbolTableRecord
100
AcDbRegAppTableRecord
  2
ACAD
 70
     0
  0
ENDTAB
  0
TABLE
  2
DIMSTYLE
  5
A
330
0
100
AcDbSymbolTable
 70
     1
  0
DIMSTYLE
105
27
330
A
100
AcDbSymbolTableRecord
100
AcDbDimStyleTableRecord
  2
ISO-25
 70
     0
  3

  4

  5

  6

  7

 40
1.0
 41
2.5
 42
0.625
 43
3.75
 44
1.25
 45
0.0
 46
0.0
 47
0.0
 48
0.0
140
2.5
141
2.5
142
0.0
143
0.03937007874016
144
1.0
145
0.0
146
1.0
147
0.625
 71
     0
 72
     0
 73
     0
 74
     0
 75
     0
 76
     0
 77
     1
 78
     8
170
     0
171
     3
172
     1
173
     0
174
     0
175
     0
176
     0
177
     0
178
     0
270
     2
271
     2
272
     2
273
     2
274
     3
340
11
275
     0
280
     0
281
     0
282
     0
283
     0
284
     8
285
     0
286
     0
287
     3
288
     0
  0
ENDTAB
  0
TABLE
  2
BLOCK_RECORD
  5
1
330
0
100
AcDbSymbolTable
 70
     1
  0
BLOCK_RECORD
  5
1F
330
1
100
AcDbSymbolTableRecord
100
AcDbBlockTableRecord
  2
*MODEL_SPACE
  0
BLOCK_RECORD
  5
1B
330
1
100
AcDbSymbolTableRecord
100
AcDbBlockTableRecord
  2
*PAPER_SPACE
  0
ENDTAB
  0
ENDSEC
  0
SECTION
  2
BLOCKS
  0
BLOCK
  5
20
330
1F
100
AcDbEntity
  8
0
100
AcDbBlockBegin
  2
*MODEL_SPACE
 70
     0
 10
0.0
 20
0.0
 30
0.0
  3
*MODEL_SPACE
  1

  0
ENDBLK
  5
21
330
1F
100
AcDbEntity
  8
0
100
AcDbBlockEnd
  0
BLOCK
  5
1C
330
1B
100
AcDbEntity
 67
     1
  8
0
100
AcDbBlockBegin
  2
*PAPER_SPACE
  1

  0
ENDBLK
  5
1D
330
1B
100
AcDbEntity
 67
     1
  8
0
100
AcDbBlockEnd
  0
ENDSEC
  0
SECTION
  2
ENTITIES
  0
LINE
  5
100
100
AcDbEntity
  8
CUT
 62
7
100
AcDbLine
 10
32.175297
 20
281.297082
 30
0.0
 11
14.798580
 21
279.386088
 31
0.0
  0
LINE
  5
101
100
AcDbEntity
  8
CUT
 62
7
100
AcDbLine
 10
14.798580
 20
279.386088
 30
0.0
 11
32.180464
 21
277.475093
 31
0.0
  0
SPLINE
  5
102
100
AcDbEntity
  8
CUT
 62
7
100
AcDbSpline
 70
0
 71
3
 72
10
 73
6
 74
4
 40
0.000000
 40
0.000000
 40
0.000000
 40
0.000000
 40
0.909373
 40
1.808778
 40
2.718151
 40
2.718151
 40
2.718151
 40
2.718151
 10
34.575150
 20
282.386422
 30
0.0
 10
34.271013
 20
282.367541
 30
0.0
 10
33.666074
 20
282.329988
 30
0.0
 10
32.816236
 20
281.944230
 30
0.0
 10
32.389727
 20
281.513590
 30
0.0
 10
32.175297
 20
281.297082
 30
0.0
 11
34.575150
 21
282.386422
 31
0.0
 11
33.672704
 21
282.274389
 31
0.0
 11
32.853723
 21
281.902638
 31
0.0
 11
32.175297
 21
281.297082
 31
0.0
  0
SPLINE
  5
103
100
AcDbEntity
  8
CUT
 62
7
100
AcDbSpline
 70
0
 71
3
 72
13
 73
9
 74
7
 40
0.000000
 40
0.000000
 40
0.000000
 40
0.000000
 40
1.222641
 40
2.421963
 40
3.644604
 40
4.867245
 40
6.066566
 40
7.289207
 40
7.289207
 40
7.289207
 40
7.289207
 10
32.180464
 20
277.475093
 30
0.0
 10
32.480692
 20
277.190975
 30
0.0
 10
33.075423
 20
276.628156
 30
0.0
 10
34.300926
 20
276.318628
 30
0.0
 10
35.534228
 20
276.488949
 30
0.0
 10
36.592708
 20
277.144437
 30
0.0
 10
37.339109
 20
278.164511
 30
0.0
 10
37.438153
 20
278.977321
 30
0.0
 10
37.488151
 20
279.387638
 30
0.0
 11
32.180464
 21
277.475093
 31
0.0
 11
33.137126
 21
276.713746
 31
0.0
 11
34.294356
 21
276.398800
 31
0.0
 11
35.504905
 21
276.570327
 31
0.0
 11
36.546631
 21
277.210373
 31
0.0
 11
37.236994
 21
278.191072
 31
0.0
 11
37.488151
 21
279.387638
 31
0.0
  0
LINE
  5
104
100
AcDbEntity
  8
CUT
 62
7
100
AcDbLine
 10
34.575150
 20
282.386422
 30
0.0
 11
34.575150
 21
282.386422
 31
0.0
  0
SPLINE
  5
105
100
AcDbEntity
  8
CUT
 62
7
100
AcDbSpline
 70
0
 71
3
 72
10
 73
6
 74
4
 40
0.000000
 40
0.000000
 40
0.000000
 40
0.000000
 40
1.539732
 40
3.035231
 40
4.574963
 40
4.574963
 40
4.574963
 40
4.574963
 10
37.488151
 20
279.387638
 30
0.0
 10
37.408637
 20
279.903489
 30
0.0
 10
37.251892
 20
280.920371
 30
0.0
 10
36.100383
 20
282.105791
 30
0.0
 10
35.088476
 20
282.291973
 30
0.0
 10
34.575150
 20
282.386422
 30
0.0
 11
37.488151
 21
279.387638
 31
0.0
 11
37.093347
 21
280.875893
 31
0.0
 11
36.051323
 21
281.948602
 31
0.0
 11
34.575150
 21
282.386422
 31
0.0
  0
LINE
  5
106
100
AcDbEntity
  8
CUT
 62
7
100
AcDbLine
 10
34.237199
 20
279.385744
 30
0.0
 11
34.237199
 21
279.385744
 31
0.0
  0
SPLINE
  5
107
100
AcDbEntity
  8
CUT
 62
7
100
AcDbSpline
 70
0
 71
3
 72
22
 73
18
 74
16
 40
0.000000
 40
0.000000
 40
0.000000
 40
0.000000
 40
0.130576
 40
0.257285
 40
0.387861
 40
0.518436
 40
0.645146
 40
0.775722
 40
0.863056
 40
0.949138
 40
1.036472
 40
1.123806
 40
1.209888
 40
1.297222
 40
1.384556
 40
1.470638
 40
1.557972
 40
1.557972
 40
1.557972
 40
1.557972
 10
34.237199
 20
279.385744
 30
0.0
 10
34.244129
 20
279.429756
 30
0.0
 10
34.257784
 20
279.516475
 30
0.0
 10
34.357275
 20
279.611876
 30
0.0
 10
34.486972
 20
279.647228
 30
0.0
 10
34.618015
 20
279.611858
 30
0.0
 10
34.713547
 20
279.516544
 30
0.0
 10
34.745032
 20
279.400090
 30
0.0
 10
34.727018
 20
279.298400
 30
0.0
 10
34.682800
 20
279.221524
 30
0.0
 10
34.614917
 20
279.164397
 30
0.0
 10
34.531523
 20
279.134086
 30
0.0
 10
34.442894
 20
279.134087
 30
0.0
 10
34.359380
 20
279.164395
 30
0.0
 10
34.291973
 20
279.221532
 30
0.0
 10
34.245990
 20
279.298368
 30
0.0
 10
34.240144
 20
279.356479
 30
0.0
 10
34.237199
 20
279.385744
 30
0.0
 11
34.237199
 21
279.385744
 31
0.0
 11
34.271471
 21
279.511742
 31
0.0
 11
34.361143
 21
279.601264
 31
0.0
 11
34.487198
 21
279.635324
 31
0.0
 11
34.613254
 21
279.601264
 31
0.0
 11
34.702926
 21
279.511742
 31
0.0
 11
34.737198
 21
279.385744
 31
0.0
 11
34.722091
 21
279.299726
 31
0.0
 11
34.679134
 21
279.225129
 31
0.0
 11
34.612320
 21
279.168888
 31
0.0
 11
34.530239
 21
279.139054
 31
0.0
 11
34.444158
 21
279.139054
 31
0.0
 11
34.362077
 21
279.168888
 31
0.0
 11
34.295263
 21
279.225129
 31
0.0
 11
34.252306
 21
279.299726
 31
0.0
 11
34.237199
 21
279.385744
 31
0.0
  0
ENDSEC
  0
SECTION
  2
OBJECTS
  0
DICTIONARY
  5
C
330
0
100
AcDbDictionary
  3
ACAD_GROUP
350
D
  3
ACAD_MLINESTYLE
350
17
  0
DICTIONARY
  5
D
330
C
100
AcDbDictionary
  0
DICTIONARY
  5
1A
330
C
100
AcDbDictionary
  0
DICTIONARY
  5
17
330
C
100
AcDbDictionary
  3
STANDARD
350
18
  0
DICTIONARY
  5
19
330
C
100
AcDbDictionary
  0
ENDSEC
  0
EOF
